G04 #@! TF.GenerationSoftware,KiCad,Pcbnew,7.0.10*
G04 #@! TF.CreationDate,2024-03-06T15:05:52+01:00*
G04 #@! TF.ProjectId,microscope,6d696372-6f73-4636-9f70-652e6b696361,rev?*
G04 #@! TF.SameCoordinates,Original*
G04 #@! TF.FileFunction,Copper,L2,Bot*
G04 #@! TF.FilePolarity,Positive*
%FSLAX46Y46*%
G04 Gerber Fmt 4.6, Leading zero omitted, Abs format (unit mm)*
G04 Created by KiCad (PCBNEW 7.0.10) date 2024-03-06 15:05:52*
%MOMM*%
%LPD*%
G01*
G04 APERTURE LIST*
G04 Aperture macros list*
%AMRoundRect*
0 Rectangle with rounded corners*
0 $1 Rounding radius*
0 $2 $3 $4 $5 $6 $7 $8 $9 X,Y pos of 4 corners*
0 Add a 4 corners polygon primitive as box body*
4,1,4,$2,$3,$4,$5,$6,$7,$8,$9,$2,$3,0*
0 Add four circle primitives for the rounded corners*
1,1,$1+$1,$2,$3*
1,1,$1+$1,$4,$5*
1,1,$1+$1,$6,$7*
1,1,$1+$1,$8,$9*
0 Add four rect primitives between the rounded corners*
20,1,$1+$1,$2,$3,$4,$5,0*
20,1,$1+$1,$4,$5,$6,$7,0*
20,1,$1+$1,$6,$7,$8,$9,0*
20,1,$1+$1,$8,$9,$2,$3,0*%
G04 Aperture macros list end*
G04 #@! TA.AperFunction,ComponentPad*
%ADD10RoundRect,0.250000X0.725000X-0.600000X0.725000X0.600000X-0.725000X0.600000X-0.725000X-0.600000X0*%
G04 #@! TD*
G04 #@! TA.AperFunction,ComponentPad*
%ADD11O,1.950000X1.700000*%
G04 #@! TD*
G04 #@! TA.AperFunction,ComponentPad*
%ADD12R,1.600000X1.600000*%
G04 #@! TD*
G04 #@! TA.AperFunction,ComponentPad*
%ADD13C,1.600000*%
G04 #@! TD*
G04 #@! TA.AperFunction,ComponentPad*
%ADD14RoundRect,0.250000X0.750000X-0.600000X0.750000X0.600000X-0.750000X0.600000X-0.750000X-0.600000X0*%
G04 #@! TD*
G04 #@! TA.AperFunction,ComponentPad*
%ADD15O,2.000000X1.700000*%
G04 #@! TD*
G04 #@! TA.AperFunction,ViaPad*
%ADD16C,0.600000*%
G04 #@! TD*
G04 #@! TA.AperFunction,Conductor*
%ADD17C,0.600000*%
G04 #@! TD*
G04 #@! TA.AperFunction,Conductor*
%ADD18C,0.350000*%
G04 #@! TD*
G04 APERTURE END LIST*
D10*
X100000000Y-106500000D03*
D11*
X100000000Y-104000000D03*
X100000000Y-101500000D03*
D12*
X97000000Y-119500000D03*
D13*
X99500000Y-119500000D03*
D12*
X97000000Y-126500000D03*
D13*
X99500000Y-126500000D03*
D14*
X100000000Y-95500000D03*
D15*
X100000000Y-93000000D03*
D16*
X96748600Y-76200000D03*
X100711000Y-76174600D03*
X95910400Y-117144800D03*
X97637600Y-114706400D03*
X102108000Y-138960600D03*
X105892600Y-96469200D03*
X99949000Y-138147800D03*
X104343200Y-134162800D03*
X101574600Y-110845600D03*
X101142800Y-134162800D03*
X95554800Y-105003600D03*
X93878400Y-126339600D03*
X105034110Y-102301663D03*
X105638600Y-82245200D03*
X104114600Y-130197600D03*
X104241600Y-101777800D03*
X104902000Y-105283000D03*
X100406200Y-128270000D03*
D17*
X100711000Y-76174600D02*
X96774000Y-76174600D01*
X96774000Y-76174600D02*
X96748600Y-76200000D01*
X97637600Y-115417600D02*
X95910400Y-117144800D01*
X97637600Y-114706400D02*
X97637600Y-115417600D01*
D18*
X99949000Y-138147800D02*
X101295200Y-138147800D01*
X102108000Y-138960600D02*
X105892600Y-135176000D01*
X105892600Y-135176000D02*
X105892600Y-96469200D01*
X101295200Y-138147800D02*
X102108000Y-138960600D01*
D17*
X95554800Y-105003600D02*
X101396800Y-110845600D01*
X101396800Y-110845600D02*
X101574600Y-110845600D01*
X101142800Y-134162800D02*
X104343200Y-134162800D01*
D18*
X105066600Y-82817200D02*
X105638600Y-82245200D01*
X105066600Y-102197400D02*
X105066600Y-82817200D01*
X97028000Y-123190000D02*
X99591727Y-123190000D01*
X93878400Y-126339600D02*
X97028000Y-123190000D01*
X104063800Y-118717927D02*
X104063800Y-103200200D01*
X104063800Y-103200200D02*
X105066600Y-102197400D01*
X99591727Y-123190000D02*
X104063800Y-118717927D01*
X102019400Y-104000000D02*
X100000000Y-104000000D01*
X103352600Y-130959600D02*
X94969473Y-130959600D01*
X92405200Y-128395327D02*
X92405200Y-105968800D01*
X104114600Y-130197600D02*
X103352600Y-130959600D01*
X104241600Y-101777800D02*
X102019400Y-104000000D01*
X92405200Y-105968800D02*
X94374000Y-104000000D01*
X94969473Y-130959600D02*
X92405200Y-128395327D01*
X94374000Y-104000000D02*
X100000000Y-104000000D01*
X100406200Y-128270000D02*
X104902000Y-123774200D01*
X104902000Y-123774200D02*
X104902000Y-105283000D01*
G04 #@! TA.AperFunction,Conductor*
G36*
X101003032Y-49500648D02*
G01*
X101336929Y-49517052D01*
X101349037Y-49518245D01*
X101452146Y-49533539D01*
X101676699Y-49566849D01*
X101688617Y-49569219D01*
X102009951Y-49649709D01*
X102021588Y-49653240D01*
X102092806Y-49678722D01*
X102333467Y-49764832D01*
X102344688Y-49769479D01*
X102644163Y-49911120D01*
X102654871Y-49916844D01*
X102938988Y-50087137D01*
X102949106Y-50093897D01*
X103215170Y-50291224D01*
X103224576Y-50298944D01*
X103470013Y-50521395D01*
X103478604Y-50529986D01*
X103665755Y-50736475D01*
X103701055Y-50775423D01*
X103708775Y-50784829D01*
X103906102Y-51050893D01*
X103912862Y-51061011D01*
X104041776Y-51276092D01*
X104083148Y-51345116D01*
X104088885Y-51355848D01*
X104230514Y-51655297D01*
X104235170Y-51666540D01*
X104346759Y-51978411D01*
X104350292Y-51990055D01*
X104430777Y-52311369D01*
X104433151Y-52323305D01*
X104481754Y-52650962D01*
X104482947Y-52663071D01*
X104499351Y-52996966D01*
X104499500Y-53003051D01*
X104499500Y-72801460D01*
X104499510Y-72801746D01*
X104499542Y-72939847D01*
X104499542Y-72939848D01*
X104535795Y-73294699D01*
X104607920Y-73643999D01*
X104607924Y-73644016D01*
X104715184Y-73984200D01*
X104854249Y-74306589D01*
X104856463Y-74311720D01*
X104856469Y-74311733D01*
X105030293Y-74623179D01*
X105030296Y-74623183D01*
X105030298Y-74623187D01*
X105234888Y-74915373D01*
X105234893Y-74915379D01*
X105234894Y-74915380D01*
X105468118Y-75185254D01*
X105727558Y-75430024D01*
X105727564Y-75430029D01*
X106010540Y-75647164D01*
X106010552Y-75647173D01*
X106314125Y-75834420D01*
X106314151Y-75834434D01*
X106635169Y-75989850D01*
X106635176Y-75989853D01*
X106635183Y-75989856D01*
X106764563Y-76036980D01*
X106765362Y-76037304D01*
X106769116Y-76038670D01*
X106769121Y-76038673D01*
X108917910Y-76820759D01*
X108974174Y-76862185D01*
X108999110Y-76927454D01*
X108999500Y-76937281D01*
X108999500Y-149375500D01*
X108979815Y-149442539D01*
X108927011Y-149488294D01*
X108875500Y-149499500D01*
X91124500Y-149499500D01*
X91057461Y-149479815D01*
X91011706Y-149427011D01*
X91000500Y-149375500D01*
X91000500Y-134162800D01*
X100487522Y-134162800D01*
X100506562Y-134319618D01*
X100562580Y-134467323D01*
X100652317Y-134597330D01*
X100770560Y-134702083D01*
X100770562Y-134702084D01*
X100910434Y-134775496D01*
X101063814Y-134813300D01*
X101063815Y-134813300D01*
X101221785Y-134813300D01*
X101375165Y-134775496D01*
X101382177Y-134772837D01*
X101382869Y-134774662D01*
X101428966Y-134763300D01*
X104057034Y-134763300D01*
X104103130Y-134774662D01*
X104103823Y-134772837D01*
X104110834Y-134775496D01*
X104264214Y-134813300D01*
X104264215Y-134813300D01*
X104422185Y-134813300D01*
X104575565Y-134775496D01*
X104598802Y-134763300D01*
X104715440Y-134702083D01*
X104833683Y-134597330D01*
X104923420Y-134467323D01*
X104979437Y-134319618D01*
X104998478Y-134162800D01*
X104979437Y-134005982D01*
X104923420Y-133858277D01*
X104833683Y-133728270D01*
X104715440Y-133623517D01*
X104715438Y-133623516D01*
X104715437Y-133623515D01*
X104575565Y-133550103D01*
X104422186Y-133512300D01*
X104422185Y-133512300D01*
X104264215Y-133512300D01*
X104264214Y-133512300D01*
X104110834Y-133550103D01*
X104103823Y-133552763D01*
X104103130Y-133550937D01*
X104057034Y-133562300D01*
X101428966Y-133562300D01*
X101382869Y-133550937D01*
X101382177Y-133552763D01*
X101375165Y-133550103D01*
X101221786Y-133512300D01*
X101221785Y-133512300D01*
X101063815Y-133512300D01*
X101063814Y-133512300D01*
X100910434Y-133550103D01*
X100770562Y-133623515D01*
X100652316Y-133728271D01*
X100562581Y-133858275D01*
X100562580Y-133858276D01*
X100506562Y-134005981D01*
X100487522Y-134162799D01*
X100487522Y-134162800D01*
X91000500Y-134162800D01*
X91000500Y-128361057D01*
X91926033Y-128361057D01*
X91929384Y-128407900D01*
X91929700Y-128416748D01*
X91929700Y-128429331D01*
X91929701Y-128429346D01*
X91931493Y-128441821D01*
X91932437Y-128450600D01*
X91935789Y-128497440D01*
X91935791Y-128497449D01*
X91937159Y-128501118D01*
X91943709Y-128526782D01*
X91944267Y-128530664D01*
X91944268Y-128530668D01*
X91944269Y-128530669D01*
X91963781Y-128573395D01*
X91967159Y-128581550D01*
X91983571Y-128625554D01*
X91985918Y-128628689D01*
X91999441Y-128651479D01*
X92001070Y-128655045D01*
X92031825Y-128690538D01*
X92037369Y-128697419D01*
X92044921Y-128707507D01*
X92053838Y-128716424D01*
X92059845Y-128722875D01*
X92090611Y-128758382D01*
X92090613Y-128758383D01*
X92090614Y-128758384D01*
X92090615Y-128758385D01*
X92093904Y-128760499D01*
X92114549Y-128777135D01*
X94587665Y-131250251D01*
X94604298Y-131270891D01*
X94606418Y-131274189D01*
X94641923Y-131304954D01*
X94648386Y-131310972D01*
X94657293Y-131319879D01*
X94657299Y-131319884D01*
X94657302Y-131319886D01*
X94667373Y-131327425D01*
X94674266Y-131332979D01*
X94709753Y-131363728D01*
X94709755Y-131363730D01*
X94713317Y-131365356D01*
X94736107Y-131378878D01*
X94739247Y-131381229D01*
X94783259Y-131397644D01*
X94791409Y-131401019D01*
X94834131Y-131420531D01*
X94837999Y-131421087D01*
X94863693Y-131427644D01*
X94867359Y-131429012D01*
X94914205Y-131432362D01*
X94922998Y-131433308D01*
X94931598Y-131434544D01*
X94935462Y-131435100D01*
X94948047Y-131435100D01*
X94956893Y-131435415D01*
X95003744Y-131438767D01*
X95007574Y-131437933D01*
X95033931Y-131435100D01*
X103288142Y-131435100D01*
X103314498Y-131437933D01*
X103318329Y-131438767D01*
X103365175Y-131435415D01*
X103374023Y-131435100D01*
X103386611Y-131435100D01*
X103399085Y-131433306D01*
X103407866Y-131432361D01*
X103454715Y-131429011D01*
X103458381Y-131427643D01*
X103484069Y-131421087D01*
X103487942Y-131420531D01*
X103530672Y-131401015D01*
X103538807Y-131397645D01*
X103582826Y-131381229D01*
X103585958Y-131378883D01*
X103608758Y-131365356D01*
X103610331Y-131364637D01*
X103612318Y-131363730D01*
X103647806Y-131332978D01*
X103654684Y-131327435D01*
X103664780Y-131319879D01*
X103673698Y-131310960D01*
X103680165Y-131304940D01*
X103680167Y-131304938D01*
X103715655Y-131274189D01*
X103717773Y-131270893D01*
X103734403Y-131250254D01*
X104100240Y-130884419D01*
X104161563Y-130850934D01*
X104187921Y-130848100D01*
X104193585Y-130848100D01*
X104346965Y-130810296D01*
X104486840Y-130736883D01*
X104605083Y-130632130D01*
X104694820Y-130502123D01*
X104750837Y-130354418D01*
X104769878Y-130197600D01*
X104767504Y-130178044D01*
X104750837Y-130040781D01*
X104729592Y-129984764D01*
X104694820Y-129893077D01*
X104605083Y-129763070D01*
X104486840Y-129658317D01*
X104486838Y-129658316D01*
X104486837Y-129658315D01*
X104346965Y-129584903D01*
X104193586Y-129547100D01*
X104193585Y-129547100D01*
X104035615Y-129547100D01*
X104035614Y-129547100D01*
X103882234Y-129584903D01*
X103742362Y-129658315D01*
X103624116Y-129763071D01*
X103534381Y-129893075D01*
X103534380Y-129893076D01*
X103478363Y-130040778D01*
X103478362Y-130040783D01*
X103466853Y-130135568D01*
X103439230Y-130199745D01*
X103431439Y-130208301D01*
X103191958Y-130447782D01*
X103130638Y-130481266D01*
X103104279Y-130484100D01*
X95217794Y-130484100D01*
X95150755Y-130464415D01*
X95130113Y-130447781D01*
X92917019Y-128234687D01*
X92883534Y-128173364D01*
X92880700Y-128147006D01*
X92880700Y-120344856D01*
X95899500Y-120344856D01*
X95899502Y-120344882D01*
X95902413Y-120369987D01*
X95902415Y-120369991D01*
X95947793Y-120472764D01*
X95947794Y-120472765D01*
X96027235Y-120552206D01*
X96130009Y-120597585D01*
X96155135Y-120600500D01*
X97844864Y-120600499D01*
X97844879Y-120600497D01*
X97844882Y-120600497D01*
X97869987Y-120597586D01*
X97869988Y-120597585D01*
X97869991Y-120597585D01*
X97972765Y-120552206D01*
X98052206Y-120472765D01*
X98097585Y-120369991D01*
X98100500Y-120344865D01*
X98100499Y-120134151D01*
X98120183Y-120067114D01*
X98172987Y-120021359D01*
X98242145Y-120011415D01*
X98305701Y-120040440D01*
X98336881Y-120081748D01*
X98369864Y-120152480D01*
X98420974Y-120225472D01*
X99102046Y-119544400D01*
X99114835Y-119625148D01*
X99172359Y-119738045D01*
X99261955Y-119827641D01*
X99374852Y-119885165D01*
X99455599Y-119897953D01*
X98774526Y-120579025D01*
X98847513Y-120630132D01*
X98847521Y-120630136D01*
X99053668Y-120726264D01*
X99053682Y-120726269D01*
X99273389Y-120785139D01*
X99273400Y-120785141D01*
X99499998Y-120804966D01*
X99500002Y-120804966D01*
X99726599Y-120785141D01*
X99726610Y-120785139D01*
X99946317Y-120726269D01*
X99946331Y-120726264D01*
X100152478Y-120630136D01*
X100225471Y-120579024D01*
X99544400Y-119897953D01*
X99625148Y-119885165D01*
X99738045Y-119827641D01*
X99827641Y-119738045D01*
X99885165Y-119625148D01*
X99897953Y-119544400D01*
X100579024Y-120225471D01*
X100630136Y-120152478D01*
X100726264Y-119946331D01*
X100726269Y-119946317D01*
X100785139Y-119726610D01*
X100785141Y-119726599D01*
X100804966Y-119500002D01*
X100804966Y-119499997D01*
X100785141Y-119273400D01*
X100785139Y-119273389D01*
X100726269Y-119053682D01*
X100726264Y-119053668D01*
X100630136Y-118847521D01*
X100630132Y-118847513D01*
X100579025Y-118774526D01*
X99897953Y-119455598D01*
X99885165Y-119374852D01*
X99827641Y-119261955D01*
X99738045Y-119172359D01*
X99625148Y-119114835D01*
X99544401Y-119102046D01*
X100225472Y-118420974D01*
X100152478Y-118369863D01*
X99946331Y-118273735D01*
X99946317Y-118273730D01*
X99726610Y-118214860D01*
X99726599Y-118214858D01*
X99500002Y-118195034D01*
X99499998Y-118195034D01*
X99273400Y-118214858D01*
X99273389Y-118214860D01*
X99053682Y-118273730D01*
X99053673Y-118273734D01*
X98847516Y-118369866D01*
X98847512Y-118369868D01*
X98774526Y-118420973D01*
X98774526Y-118420974D01*
X99455599Y-119102046D01*
X99374852Y-119114835D01*
X99261955Y-119172359D01*
X99172359Y-119261955D01*
X99114835Y-119374852D01*
X99102046Y-119455598D01*
X98420974Y-118774526D01*
X98420973Y-118774526D01*
X98369868Y-118847512D01*
X98369866Y-118847517D01*
X98336881Y-118918253D01*
X98290708Y-118970692D01*
X98223515Y-118989844D01*
X98156633Y-118969628D01*
X98111299Y-118916462D01*
X98100499Y-118865848D01*
X98100499Y-118655143D01*
X98100499Y-118655136D01*
X98100497Y-118655117D01*
X98097586Y-118630012D01*
X98097585Y-118630010D01*
X98097585Y-118630009D01*
X98052206Y-118527235D01*
X97972765Y-118447794D01*
X97972763Y-118447793D01*
X97869992Y-118402415D01*
X97844865Y-118399500D01*
X96155143Y-118399500D01*
X96155117Y-118399502D01*
X96130012Y-118402413D01*
X96130008Y-118402415D01*
X96027235Y-118447793D01*
X95947794Y-118527234D01*
X95902415Y-118630006D01*
X95902415Y-118630008D01*
X95899500Y-118655131D01*
X95899500Y-120344856D01*
X92880700Y-120344856D01*
X92880700Y-117144800D01*
X95255122Y-117144800D01*
X95274162Y-117301618D01*
X95301347Y-117373297D01*
X95330180Y-117449323D01*
X95419917Y-117579330D01*
X95538160Y-117684083D01*
X95538162Y-117684084D01*
X95678034Y-117757496D01*
X95831414Y-117795300D01*
X95831415Y-117795300D01*
X95989385Y-117795300D01*
X96142765Y-117757496D01*
X96282640Y-117684083D01*
X96400883Y-117579330D01*
X96490620Y-117449323D01*
X96502874Y-117417009D01*
X96531134Y-117373299D01*
X98028643Y-115875790D01*
X98040823Y-115865109D01*
X98065882Y-115845882D01*
X98162136Y-115720441D01*
X98222644Y-115574362D01*
X98238100Y-115456961D01*
X98243282Y-115417600D01*
X98239161Y-115386297D01*
X98238100Y-115370112D01*
X98238100Y-114980172D01*
X98246158Y-114936200D01*
X98273837Y-114863217D01*
X98292878Y-114706400D01*
X98292878Y-114706399D01*
X98273837Y-114549581D01*
X98252592Y-114493564D01*
X98217820Y-114401877D01*
X98128083Y-114271870D01*
X98009840Y-114167117D01*
X98009838Y-114167116D01*
X98009837Y-114167115D01*
X97869965Y-114093703D01*
X97716586Y-114055900D01*
X97716585Y-114055900D01*
X97558615Y-114055900D01*
X97558614Y-114055900D01*
X97405234Y-114093703D01*
X97265362Y-114167115D01*
X97147116Y-114271871D01*
X97057381Y-114401875D01*
X97057380Y-114401876D01*
X97001362Y-114549581D01*
X96982322Y-114706399D01*
X96982322Y-114706400D01*
X97001362Y-114863217D01*
X97029042Y-114936200D01*
X97037100Y-114980172D01*
X97037100Y-115117502D01*
X97017415Y-115184541D01*
X97000781Y-115205183D01*
X95682595Y-116523368D01*
X95652542Y-116545483D01*
X95538158Y-116605518D01*
X95419916Y-116710271D01*
X95330181Y-116840275D01*
X95330180Y-116840276D01*
X95274162Y-116987981D01*
X95255122Y-117144799D01*
X95255122Y-117144800D01*
X92880700Y-117144800D01*
X92880700Y-106217121D01*
X92900385Y-106150082D01*
X92917019Y-106129440D01*
X94534640Y-104511819D01*
X94595963Y-104478334D01*
X94622321Y-104475500D01*
X94892642Y-104475500D01*
X94959681Y-104495185D01*
X95005436Y-104547989D01*
X95015380Y-104617147D01*
X94994693Y-104669937D01*
X94987325Y-104680613D01*
X94974579Y-104699078D01*
X94918562Y-104846781D01*
X94899522Y-105003599D01*
X94899522Y-105003600D01*
X94918562Y-105160418D01*
X94962421Y-105276063D01*
X94974580Y-105308123D01*
X95064317Y-105438130D01*
X95182560Y-105542883D01*
X95296945Y-105602917D01*
X95326994Y-105625029D01*
X100938599Y-111236634D01*
X100949293Y-111248828D01*
X100968515Y-111273879D01*
X100968516Y-111273880D01*
X100968518Y-111273882D01*
X101093959Y-111370136D01*
X101240038Y-111430644D01*
X101284234Y-111436462D01*
X101325675Y-111449605D01*
X101342234Y-111458296D01*
X101495614Y-111496100D01*
X101495615Y-111496100D01*
X101653585Y-111496100D01*
X101806965Y-111458296D01*
X101823524Y-111449605D01*
X101946840Y-111384883D01*
X102065083Y-111280130D01*
X102154820Y-111150123D01*
X102210837Y-111002418D01*
X102229878Y-110845600D01*
X102210837Y-110688782D01*
X102154820Y-110541077D01*
X102065083Y-110411070D01*
X101946840Y-110306317D01*
X101946838Y-110306316D01*
X101946837Y-110306315D01*
X101806965Y-110232903D01*
X101653586Y-110195100D01*
X101653585Y-110195100D01*
X101646897Y-110195100D01*
X101579858Y-110175415D01*
X101559216Y-110158781D01*
X99262617Y-107862181D01*
X99229132Y-107800858D01*
X99234116Y-107731166D01*
X99275988Y-107675233D01*
X99341452Y-107650816D01*
X99350298Y-107650500D01*
X100768097Y-107650500D01*
X100768102Y-107650500D01*
X100856564Y-107639877D01*
X100997342Y-107584361D01*
X101117922Y-107492922D01*
X101209361Y-107372342D01*
X101264877Y-107231564D01*
X101275500Y-107143102D01*
X101275500Y-105856898D01*
X101264877Y-105768436D01*
X101209361Y-105627658D01*
X101209360Y-105627657D01*
X101209360Y-105627656D01*
X101117922Y-105507077D01*
X100997343Y-105415639D01*
X100856561Y-105360122D01*
X100810926Y-105354642D01*
X100768102Y-105349500D01*
X100475002Y-105349500D01*
X100407963Y-105329815D01*
X100362208Y-105277011D01*
X100352264Y-105207853D01*
X100381289Y-105144297D01*
X100440067Y-105106523D01*
X100441067Y-105106234D01*
X100542389Y-105077405D01*
X100542393Y-105077403D01*
X100542394Y-105077403D01*
X100733253Y-104982367D01*
X100733253Y-104982366D01*
X100733255Y-104982366D01*
X100903407Y-104853872D01*
X101047052Y-104696302D01*
X101147408Y-104534222D01*
X101199436Y-104487587D01*
X101252835Y-104475500D01*
X101954942Y-104475500D01*
X101981298Y-104478333D01*
X101985129Y-104479167D01*
X102031975Y-104475815D01*
X102040823Y-104475500D01*
X102053411Y-104475500D01*
X102065885Y-104473706D01*
X102074666Y-104472761D01*
X102121515Y-104469411D01*
X102125181Y-104468043D01*
X102150869Y-104461487D01*
X102154742Y-104460931D01*
X102197472Y-104441415D01*
X102205607Y-104438045D01*
X102249626Y-104421629D01*
X102252758Y-104419283D01*
X102275558Y-104405756D01*
X102277131Y-104405037D01*
X102279118Y-104404130D01*
X102314606Y-104373378D01*
X102321484Y-104367835D01*
X102331580Y-104360279D01*
X102340498Y-104351360D01*
X102346965Y-104345340D01*
X102382455Y-104314589D01*
X102384571Y-104311295D01*
X102401203Y-104290654D01*
X103376619Y-103315239D01*
X103437942Y-103281754D01*
X103507634Y-103286738D01*
X103563567Y-103328610D01*
X103587984Y-103394074D01*
X103588300Y-103402920D01*
X103588300Y-118469606D01*
X103568615Y-118536645D01*
X103551981Y-118557287D01*
X99431087Y-122678181D01*
X99369764Y-122711666D01*
X99343406Y-122714500D01*
X97092458Y-122714500D01*
X97066101Y-122711666D01*
X97062271Y-122710833D01*
X97062268Y-122710833D01*
X97015425Y-122714184D01*
X97006577Y-122714500D01*
X96993984Y-122714500D01*
X96981508Y-122716293D01*
X96972725Y-122717237D01*
X96925883Y-122720589D01*
X96922211Y-122721959D01*
X96896537Y-122728511D01*
X96892661Y-122729068D01*
X96892658Y-122729069D01*
X96849943Y-122748575D01*
X96841771Y-122751960D01*
X96797776Y-122768370D01*
X96797772Y-122768372D01*
X96794629Y-122770725D01*
X96771856Y-122784237D01*
X96768284Y-122785868D01*
X96768278Y-122785872D01*
X96732800Y-122816613D01*
X96725922Y-122822156D01*
X96715821Y-122829718D01*
X96706898Y-122838641D01*
X96700428Y-122844663D01*
X96664949Y-122875406D01*
X96664942Y-122875413D01*
X96662823Y-122878712D01*
X96646194Y-122899345D01*
X93892760Y-125652781D01*
X93831437Y-125686266D01*
X93805079Y-125689100D01*
X93799414Y-125689100D01*
X93646034Y-125726903D01*
X93506162Y-125800315D01*
X93387916Y-125905071D01*
X93298181Y-126035075D01*
X93298180Y-126035076D01*
X93242162Y-126182781D01*
X93223122Y-126339599D01*
X93223122Y-126339600D01*
X93242162Y-126496418D01*
X93290984Y-126625148D01*
X93298180Y-126644123D01*
X93387917Y-126774130D01*
X93506160Y-126878883D01*
X93506162Y-126878884D01*
X93646034Y-126952296D01*
X93799414Y-126990100D01*
X93799415Y-126990100D01*
X93957385Y-126990100D01*
X94110765Y-126952296D01*
X94210405Y-126900000D01*
X94250640Y-126878883D01*
X94368883Y-126774130D01*
X94458620Y-126644123D01*
X94514637Y-126496418D01*
X94526145Y-126401631D01*
X94553766Y-126337455D01*
X94561549Y-126328908D01*
X97188640Y-123701819D01*
X97249963Y-123668334D01*
X97276321Y-123665500D01*
X99527269Y-123665500D01*
X99553625Y-123668333D01*
X99557456Y-123669167D01*
X99604302Y-123665815D01*
X99613150Y-123665500D01*
X99625738Y-123665500D01*
X99638212Y-123663706D01*
X99646993Y-123662761D01*
X99693842Y-123659411D01*
X99697508Y-123658043D01*
X99723196Y-123651487D01*
X99727069Y-123650931D01*
X99769799Y-123631415D01*
X99777934Y-123628045D01*
X99821953Y-123611629D01*
X99825085Y-123609283D01*
X99847885Y-123595756D01*
X99849458Y-123595037D01*
X99851445Y-123594130D01*
X99886933Y-123563378D01*
X99893811Y-123557835D01*
X99903907Y-123550279D01*
X99912825Y-123541360D01*
X99919292Y-123535340D01*
X99930211Y-123525879D01*
X99954782Y-123504589D01*
X99956898Y-123501295D01*
X99973530Y-123480654D01*
X104214819Y-119239364D01*
X104276142Y-119205880D01*
X104345834Y-119210864D01*
X104401767Y-119252736D01*
X104426184Y-119318200D01*
X104426500Y-119327046D01*
X104426500Y-123525879D01*
X104406815Y-123592918D01*
X104390181Y-123613560D01*
X100932270Y-127071470D01*
X100870947Y-127104955D01*
X100801255Y-127099971D01*
X100745322Y-127058099D01*
X100720905Y-126992635D01*
X100726666Y-126952037D01*
X100724866Y-126951555D01*
X100785139Y-126726610D01*
X100785141Y-126726599D01*
X100804966Y-126500002D01*
X100804966Y-126499997D01*
X100785141Y-126273400D01*
X100785139Y-126273389D01*
X100726269Y-126053682D01*
X100726264Y-126053668D01*
X100630136Y-125847521D01*
X100630132Y-125847513D01*
X100579025Y-125774526D01*
X99897953Y-126455598D01*
X99885165Y-126374852D01*
X99827641Y-126261955D01*
X99738045Y-126172359D01*
X99625148Y-126114835D01*
X99544401Y-126102046D01*
X100225472Y-125420974D01*
X100152478Y-125369863D01*
X99946331Y-125273735D01*
X99946317Y-125273730D01*
X99726610Y-125214860D01*
X99726599Y-125214858D01*
X99500002Y-125195034D01*
X99499998Y-125195034D01*
X99273400Y-125214858D01*
X99273389Y-125214860D01*
X99053682Y-125273730D01*
X99053673Y-125273734D01*
X98847516Y-125369866D01*
X98847512Y-125369868D01*
X98774526Y-125420973D01*
X98774526Y-125420974D01*
X99455599Y-126102046D01*
X99374852Y-126114835D01*
X99261955Y-126172359D01*
X99172359Y-126261955D01*
X99114835Y-126374852D01*
X99102046Y-126455598D01*
X98420974Y-125774526D01*
X98420973Y-125774526D01*
X98369868Y-125847512D01*
X98369866Y-125847517D01*
X98336881Y-125918253D01*
X98290708Y-125970692D01*
X98223515Y-125989844D01*
X98156633Y-125969628D01*
X98111299Y-125916462D01*
X98100499Y-125865848D01*
X98100499Y-125655143D01*
X98100499Y-125655136D01*
X98100226Y-125652781D01*
X98097586Y-125630012D01*
X98097585Y-125630010D01*
X98097585Y-125630009D01*
X98052206Y-125527235D01*
X97972765Y-125447794D01*
X97972763Y-125447793D01*
X97869992Y-125402415D01*
X97844865Y-125399500D01*
X96155143Y-125399500D01*
X96155117Y-125399502D01*
X96130012Y-125402413D01*
X96130008Y-125402415D01*
X96027235Y-125447793D01*
X95947794Y-125527234D01*
X95902415Y-125630006D01*
X95902415Y-125630008D01*
X95899500Y-125655131D01*
X95899500Y-127344856D01*
X95899502Y-127344882D01*
X95902413Y-127369987D01*
X95902415Y-127369991D01*
X95947793Y-127472764D01*
X95947794Y-127472765D01*
X96027235Y-127552206D01*
X96130009Y-127597585D01*
X96155135Y-127600500D01*
X97844864Y-127600499D01*
X97844879Y-127600497D01*
X97844882Y-127600497D01*
X97869987Y-127597586D01*
X97869988Y-127597585D01*
X97869991Y-127597585D01*
X97972765Y-127552206D01*
X98052206Y-127472765D01*
X98097585Y-127369991D01*
X98100500Y-127344865D01*
X98100499Y-127134151D01*
X98120183Y-127067114D01*
X98172987Y-127021359D01*
X98242145Y-127011415D01*
X98305701Y-127040440D01*
X98336881Y-127081748D01*
X98369864Y-127152480D01*
X98420974Y-127225472D01*
X99102046Y-126544400D01*
X99114835Y-126625148D01*
X99172359Y-126738045D01*
X99261955Y-126827641D01*
X99374852Y-126885165D01*
X99455599Y-126897953D01*
X98774526Y-127579025D01*
X98847513Y-127630132D01*
X98847521Y-127630136D01*
X99053668Y-127726264D01*
X99053682Y-127726269D01*
X99273389Y-127785139D01*
X99273400Y-127785141D01*
X99499998Y-127804966D01*
X99500001Y-127804966D01*
X99703904Y-127787126D01*
X99772404Y-127800892D01*
X99822587Y-127849507D01*
X99838521Y-127917536D01*
X99827357Y-127957977D01*
X99828640Y-127958464D01*
X99769962Y-128113181D01*
X99750922Y-128269999D01*
X99750922Y-128270000D01*
X99769962Y-128426818D01*
X99809348Y-128530669D01*
X99825980Y-128574523D01*
X99915717Y-128704530D01*
X100033960Y-128809283D01*
X100033962Y-128809284D01*
X100173834Y-128882696D01*
X100327214Y-128920500D01*
X100327215Y-128920500D01*
X100485185Y-128920500D01*
X100638565Y-128882696D01*
X100778440Y-128809283D01*
X100896683Y-128704530D01*
X100986420Y-128574523D01*
X101042437Y-128426818D01*
X101053945Y-128332031D01*
X101081566Y-128267855D01*
X101089349Y-128259308D01*
X105192650Y-124156006D01*
X105213291Y-124139373D01*
X105216589Y-124137255D01*
X105216589Y-124137254D01*
X105224054Y-124132458D01*
X105225698Y-124135016D01*
X105275458Y-124112294D01*
X105344616Y-124122241D01*
X105397418Y-124167998D01*
X105417100Y-124235033D01*
X105417100Y-134927679D01*
X105397415Y-134994718D01*
X105380781Y-135015360D01*
X102195681Y-138200460D01*
X102134358Y-138233945D01*
X102064666Y-138228961D01*
X102020319Y-138200460D01*
X101677008Y-137857149D01*
X101660372Y-137836504D01*
X101658258Y-137833215D01*
X101658257Y-137833214D01*
X101658256Y-137833213D01*
X101658255Y-137833211D01*
X101622748Y-137802445D01*
X101616297Y-137796438D01*
X101607380Y-137787521D01*
X101597292Y-137779969D01*
X101590411Y-137774425D01*
X101554918Y-137743670D01*
X101551352Y-137742041D01*
X101528562Y-137728518D01*
X101525427Y-137726171D01*
X101481423Y-137709759D01*
X101473268Y-137706381D01*
X101430542Y-137686869D01*
X101430541Y-137686868D01*
X101430537Y-137686867D01*
X101426655Y-137686309D01*
X101400991Y-137679759D01*
X101397322Y-137678391D01*
X101397317Y-137678390D01*
X101397315Y-137678389D01*
X101388960Y-137677791D01*
X101350473Y-137675037D01*
X101341694Y-137674093D01*
X101329219Y-137672301D01*
X101329216Y-137672300D01*
X101329211Y-137672300D01*
X101329205Y-137672300D01*
X101316623Y-137672300D01*
X101307775Y-137671984D01*
X101260931Y-137668633D01*
X101260928Y-137668633D01*
X101259041Y-137669043D01*
X101257098Y-137669466D01*
X101230742Y-137672300D01*
X100440264Y-137672300D01*
X100373225Y-137652615D01*
X100358038Y-137641116D01*
X100321240Y-137608517D01*
X100321238Y-137608515D01*
X100181365Y-137535103D01*
X100027986Y-137497300D01*
X100027985Y-137497300D01*
X99870015Y-137497300D01*
X99870014Y-137497300D01*
X99716634Y-137535103D01*
X99576762Y-137608515D01*
X99576760Y-137608517D01*
X99466305Y-137706371D01*
X99458516Y-137713271D01*
X99368781Y-137843275D01*
X99368780Y-137843276D01*
X99312762Y-137990981D01*
X99293722Y-138147799D01*
X99293722Y-138147800D01*
X99312762Y-138304618D01*
X99368780Y-138452323D01*
X99458517Y-138582330D01*
X99576760Y-138687083D01*
X99576762Y-138687084D01*
X99716634Y-138760496D01*
X99870014Y-138798300D01*
X99870015Y-138798300D01*
X100027985Y-138798300D01*
X100181365Y-138760496D01*
X100321238Y-138687084D01*
X100321237Y-138687084D01*
X100321240Y-138687083D01*
X100352241Y-138659619D01*
X100358038Y-138654484D01*
X100421271Y-138624763D01*
X100440264Y-138623300D01*
X101046879Y-138623300D01*
X101113918Y-138642985D01*
X101134560Y-138659619D01*
X101424838Y-138949897D01*
X101458323Y-139011220D01*
X101460253Y-139022631D01*
X101471762Y-139117415D01*
X101471763Y-139117421D01*
X101527780Y-139265123D01*
X101617517Y-139395130D01*
X101735760Y-139499883D01*
X101735762Y-139499884D01*
X101875634Y-139573296D01*
X102029014Y-139611100D01*
X102029015Y-139611100D01*
X102186985Y-139611100D01*
X102340365Y-139573296D01*
X102480240Y-139499883D01*
X102598483Y-139395130D01*
X102688220Y-139265123D01*
X102744237Y-139117418D01*
X102755745Y-139022631D01*
X102783366Y-138958455D01*
X102791149Y-138949908D01*
X106183254Y-135557803D01*
X106203895Y-135541171D01*
X106207189Y-135539055D01*
X106237940Y-135503564D01*
X106243960Y-135497098D01*
X106252879Y-135488180D01*
X106260435Y-135478084D01*
X106265978Y-135471206D01*
X106296730Y-135435718D01*
X106298356Y-135432158D01*
X106311883Y-135409358D01*
X106314229Y-135406226D01*
X106330640Y-135362224D01*
X106334021Y-135354058D01*
X106353531Y-135311342D01*
X106354087Y-135307473D01*
X106360645Y-135281776D01*
X106362012Y-135278114D01*
X106365363Y-135231248D01*
X106366305Y-135222489D01*
X106368100Y-135210011D01*
X106368100Y-135197426D01*
X106368416Y-135188579D01*
X106371767Y-135141729D01*
X106371766Y-135141725D01*
X106370934Y-135137899D01*
X106368100Y-135111542D01*
X106368100Y-96964077D01*
X106387785Y-96897038D01*
X106390050Y-96893637D01*
X106406807Y-96869358D01*
X106472820Y-96773723D01*
X106528837Y-96626018D01*
X106547878Y-96469200D01*
X106536118Y-96372342D01*
X106528837Y-96312381D01*
X106498186Y-96231561D01*
X106472820Y-96164677D01*
X106383083Y-96034670D01*
X106264840Y-95929917D01*
X106264838Y-95929916D01*
X106264837Y-95929915D01*
X106124965Y-95856503D01*
X105971586Y-95818700D01*
X105971585Y-95818700D01*
X105813615Y-95818700D01*
X105813614Y-95818700D01*
X105695774Y-95847744D01*
X105625972Y-95844674D01*
X105568910Y-95804354D01*
X105542705Y-95739585D01*
X105542100Y-95727347D01*
X105542100Y-83065521D01*
X105561785Y-82998482D01*
X105578419Y-82977840D01*
X105624240Y-82932019D01*
X105685563Y-82898534D01*
X105711921Y-82895700D01*
X105717585Y-82895700D01*
X105870965Y-82857896D01*
X105883207Y-82851471D01*
X106010840Y-82784483D01*
X106129083Y-82679730D01*
X106218820Y-82549723D01*
X106274837Y-82402018D01*
X106293878Y-82245200D01*
X106291504Y-82225644D01*
X106274837Y-82088381D01*
X106253592Y-82032364D01*
X106218820Y-81940677D01*
X106129083Y-81810670D01*
X106010840Y-81705917D01*
X106010838Y-81705916D01*
X106010837Y-81705915D01*
X105870965Y-81632503D01*
X105717586Y-81594700D01*
X105717585Y-81594700D01*
X105559615Y-81594700D01*
X105559614Y-81594700D01*
X105406234Y-81632503D01*
X105266362Y-81705915D01*
X105148116Y-81810671D01*
X105058381Y-81940675D01*
X105058380Y-81940676D01*
X105002363Y-82088378D01*
X105002362Y-82088383D01*
X104990853Y-82183168D01*
X104963230Y-82247345D01*
X104955438Y-82255901D01*
X104775945Y-82435394D01*
X104755312Y-82452023D01*
X104752013Y-82454142D01*
X104752006Y-82454149D01*
X104721263Y-82489628D01*
X104715241Y-82496098D01*
X104706318Y-82505021D01*
X104698756Y-82515122D01*
X104693213Y-82522000D01*
X104662472Y-82557478D01*
X104662468Y-82557484D01*
X104660837Y-82561056D01*
X104647325Y-82583829D01*
X104644972Y-82586972D01*
X104644970Y-82586976D01*
X104628560Y-82630971D01*
X104625175Y-82639143D01*
X104605669Y-82681858D01*
X104605668Y-82681861D01*
X104605111Y-82685737D01*
X104598559Y-82711411D01*
X104597189Y-82715083D01*
X104593837Y-82761925D01*
X104592893Y-82770708D01*
X104591100Y-82783184D01*
X104591100Y-82795777D01*
X104590784Y-82804625D01*
X104587433Y-82851468D01*
X104587433Y-82851470D01*
X104588266Y-82855299D01*
X104591100Y-82881658D01*
X104591100Y-101035701D01*
X104571415Y-101102740D01*
X104518611Y-101148495D01*
X104449453Y-101158439D01*
X104437425Y-101156098D01*
X104320585Y-101127300D01*
X104162615Y-101127300D01*
X104162614Y-101127300D01*
X104009234Y-101165103D01*
X103869362Y-101238515D01*
X103751116Y-101343271D01*
X103661381Y-101473275D01*
X103661380Y-101473276D01*
X103605363Y-101620978D01*
X103605362Y-101620984D01*
X103593853Y-101715768D01*
X103566231Y-101779946D01*
X103558438Y-101788502D01*
X101858760Y-103488181D01*
X101797437Y-103521666D01*
X101771079Y-103524500D01*
X101252835Y-103524500D01*
X101185796Y-103504815D01*
X101147408Y-103465778D01*
X101104920Y-103397158D01*
X101047052Y-103303698D01*
X100903407Y-103146128D01*
X100903406Y-103146127D01*
X100733253Y-103017632D01*
X100542393Y-102922596D01*
X100354960Y-102869266D01*
X100295867Y-102831986D01*
X100266310Y-102768677D01*
X100275672Y-102699437D01*
X100320982Y-102646251D01*
X100354960Y-102630734D01*
X100542389Y-102577405D01*
X100542393Y-102577403D01*
X100542394Y-102577403D01*
X100733253Y-102482367D01*
X100733253Y-102482366D01*
X100733255Y-102482366D01*
X100903407Y-102353872D01*
X101047052Y-102196302D01*
X101159298Y-102015019D01*
X101236321Y-101816198D01*
X101275500Y-101606610D01*
X101275500Y-101393390D01*
X101236321Y-101183802D01*
X101159298Y-100984981D01*
X101047052Y-100803698D01*
X100903407Y-100646128D01*
X100903406Y-100646127D01*
X100733253Y-100517632D01*
X100542393Y-100422596D01*
X100337310Y-100364244D01*
X100178194Y-100349500D01*
X99821806Y-100349500D01*
X99694513Y-100361295D01*
X99662689Y-100364244D01*
X99457607Y-100422596D01*
X99457605Y-100422596D01*
X99266746Y-100517632D01*
X99096593Y-100646127D01*
X98952947Y-100803699D01*
X98840702Y-100984980D01*
X98840701Y-100984982D01*
X98763680Y-101183799D01*
X98763679Y-101183802D01*
X98724500Y-101393390D01*
X98724500Y-101606610D01*
X98763679Y-101816198D01*
X98840702Y-102015019D01*
X98952948Y-102196302D01*
X99096593Y-102353872D01*
X99266746Y-102482367D01*
X99457606Y-102577403D01*
X99457608Y-102577403D01*
X99457611Y-102577405D01*
X99591971Y-102615634D01*
X99645039Y-102630734D01*
X99704132Y-102668014D01*
X99733689Y-102731324D01*
X99724327Y-102800563D01*
X99679017Y-102853749D01*
X99645039Y-102869266D01*
X99457607Y-102922596D01*
X99457605Y-102922596D01*
X99266746Y-103017632D01*
X99096593Y-103146127D01*
X98952947Y-103303699D01*
X98852592Y-103465778D01*
X98800564Y-103512413D01*
X98747165Y-103524500D01*
X94438458Y-103524500D01*
X94412101Y-103521666D01*
X94408271Y-103520833D01*
X94408268Y-103520833D01*
X94361421Y-103524184D01*
X94352574Y-103524500D01*
X94339989Y-103524500D01*
X94339984Y-103524500D01*
X94339978Y-103524501D01*
X94327511Y-103526292D01*
X94318732Y-103527236D01*
X94271885Y-103530588D01*
X94271881Y-103530589D01*
X94268208Y-103531959D01*
X94242543Y-103538509D01*
X94238663Y-103539067D01*
X94238653Y-103539069D01*
X94195959Y-103558568D01*
X94187785Y-103561955D01*
X94143774Y-103578371D01*
X94143772Y-103578372D01*
X94140629Y-103580725D01*
X94117856Y-103594237D01*
X94114284Y-103595868D01*
X94114278Y-103595872D01*
X94078800Y-103626613D01*
X94071922Y-103632156D01*
X94061821Y-103639718D01*
X94052898Y-103648641D01*
X94046428Y-103654663D01*
X94010949Y-103685406D01*
X94010942Y-103685413D01*
X94008823Y-103688712D01*
X93992194Y-103709345D01*
X92114545Y-105586994D01*
X92093912Y-105603623D01*
X92090613Y-105605742D01*
X92090606Y-105605749D01*
X92059863Y-105641228D01*
X92053841Y-105647698D01*
X92044918Y-105656621D01*
X92037356Y-105666722D01*
X92031813Y-105673600D01*
X92001072Y-105709078D01*
X92001068Y-105709084D01*
X91999437Y-105712656D01*
X91985925Y-105735429D01*
X91983572Y-105738572D01*
X91983570Y-105738576D01*
X91967160Y-105782571D01*
X91963775Y-105790743D01*
X91944269Y-105833458D01*
X91944268Y-105833461D01*
X91943711Y-105837337D01*
X91937159Y-105863011D01*
X91935789Y-105866683D01*
X91932437Y-105913525D01*
X91931493Y-105922308D01*
X91929700Y-105934784D01*
X91929700Y-105947377D01*
X91929384Y-105956225D01*
X91926033Y-106003068D01*
X91926033Y-106003070D01*
X91926866Y-106006899D01*
X91929700Y-106033258D01*
X91929700Y-128330869D01*
X91926866Y-128357226D01*
X91926033Y-128361052D01*
X91926033Y-128361057D01*
X91000500Y-128361057D01*
X91000500Y-96143102D01*
X98699500Y-96143102D01*
X98702091Y-96164675D01*
X98710122Y-96231561D01*
X98765639Y-96372343D01*
X98857077Y-96492922D01*
X98977656Y-96584360D01*
X98977657Y-96584360D01*
X98977658Y-96584361D01*
X99118436Y-96639877D01*
X99206898Y-96650500D01*
X99206903Y-96650500D01*
X100793097Y-96650500D01*
X100793102Y-96650500D01*
X100881564Y-96639877D01*
X101022342Y-96584361D01*
X101142922Y-96492922D01*
X101234361Y-96372342D01*
X101289877Y-96231564D01*
X101300500Y-96143102D01*
X101300500Y-94856898D01*
X101289877Y-94768436D01*
X101234361Y-94627658D01*
X101234360Y-94627657D01*
X101234360Y-94627656D01*
X101142922Y-94507077D01*
X101022343Y-94415639D01*
X100881561Y-94360122D01*
X100835926Y-94354642D01*
X100793102Y-94349500D01*
X100500002Y-94349500D01*
X100432963Y-94329815D01*
X100387208Y-94277011D01*
X100377264Y-94207853D01*
X100406289Y-94144297D01*
X100465067Y-94106523D01*
X100466067Y-94106234D01*
X100567389Y-94077405D01*
X100567393Y-94077403D01*
X100567394Y-94077403D01*
X100758253Y-93982367D01*
X100758253Y-93982366D01*
X100758255Y-93982366D01*
X100928407Y-93853872D01*
X101072052Y-93696302D01*
X101184298Y-93515019D01*
X101261321Y-93316198D01*
X101300500Y-93106610D01*
X101300500Y-92893390D01*
X101261321Y-92683802D01*
X101184298Y-92484981D01*
X101072052Y-92303698D01*
X100928407Y-92146128D01*
X100928406Y-92146127D01*
X100758253Y-92017632D01*
X100567393Y-91922596D01*
X100362310Y-91864244D01*
X100203194Y-91849500D01*
X99796806Y-91849500D01*
X99669513Y-91861295D01*
X99637689Y-91864244D01*
X99432607Y-91922596D01*
X99432605Y-91922596D01*
X99241746Y-92017632D01*
X99071593Y-92146127D01*
X98927947Y-92303699D01*
X98815702Y-92484980D01*
X98815701Y-92484982D01*
X98738680Y-92683799D01*
X98738679Y-92683802D01*
X98699500Y-92893390D01*
X98699500Y-93106610D01*
X98738679Y-93316198D01*
X98815702Y-93515019D01*
X98927948Y-93696302D01*
X99071593Y-93853872D01*
X99241746Y-93982367D01*
X99432606Y-94077403D01*
X99432608Y-94077403D01*
X99432611Y-94077405D01*
X99533933Y-94106234D01*
X99593026Y-94143514D01*
X99622583Y-94206823D01*
X99613221Y-94276063D01*
X99567911Y-94329249D01*
X99501039Y-94349496D01*
X99499998Y-94349500D01*
X99206898Y-94349500D01*
X99167853Y-94354188D01*
X99118438Y-94360122D01*
X98977656Y-94415639D01*
X98857077Y-94507077D01*
X98765639Y-94627656D01*
X98710122Y-94768438D01*
X98704188Y-94817853D01*
X98699500Y-94856898D01*
X98699500Y-96143102D01*
X91000500Y-96143102D01*
X91000500Y-76937281D01*
X91020185Y-76870242D01*
X91072989Y-76824487D01*
X91082090Y-76820759D01*
X92213113Y-76409105D01*
X93230879Y-76038673D01*
X93230880Y-76038672D01*
X93234623Y-76037310D01*
X93235406Y-76036993D01*
X93364818Y-75989857D01*
X93364828Y-75989852D01*
X93364831Y-75989851D01*
X93685849Y-75834435D01*
X93685853Y-75834432D01*
X93685865Y-75834427D01*
X93685877Y-75834420D01*
X93989447Y-75647174D01*
X93989446Y-75647174D01*
X93989452Y-75647171D01*
X94272436Y-75430030D01*
X94272440Y-75430025D01*
X94272443Y-75430024D01*
X94381707Y-75326938D01*
X94531885Y-75185253D01*
X94765112Y-74915374D01*
X94969703Y-74623188D01*
X95143538Y-74311722D01*
X95284817Y-73984200D01*
X95392077Y-73644016D01*
X95464206Y-73294692D01*
X95500459Y-72939846D01*
X95500489Y-72802235D01*
X95500500Y-72802000D01*
X95500500Y-53003051D01*
X95500649Y-52996967D01*
X95517052Y-52663072D01*
X95518245Y-52650962D01*
X95566849Y-52323296D01*
X95569218Y-52311385D01*
X95649710Y-51990043D01*
X95653240Y-51978411D01*
X95764835Y-51666525D01*
X95769476Y-51655318D01*
X95911124Y-51355828D01*
X95916840Y-51345136D01*
X96087145Y-51060998D01*
X96093888Y-51050905D01*
X96291232Y-50784818D01*
X96298935Y-50775433D01*
X96521405Y-50529975D01*
X96529975Y-50521405D01*
X96775433Y-50298935D01*
X96784818Y-50291232D01*
X97050905Y-50093888D01*
X97060998Y-50087145D01*
X97345136Y-49916840D01*
X97355828Y-49911124D01*
X97655318Y-49769476D01*
X97666525Y-49764835D01*
X97978412Y-49653239D01*
X97990043Y-49649710D01*
X98311385Y-49569218D01*
X98323296Y-49566849D01*
X98650962Y-49518244D01*
X98663068Y-49517052D01*
X98996967Y-49500648D01*
X99003051Y-49500500D01*
X99065892Y-49500500D01*
X100934108Y-49500500D01*
X100996949Y-49500500D01*
X101003032Y-49500648D01*
G37*
G04 #@! TD.AperFunction*
M02*
