G04 #@! TF.GenerationSoftware,KiCad,Pcbnew,7.0.7*
G04 #@! TF.CreationDate,2024-01-05T06:13:14+01:00*
G04 #@! TF.ProjectId,microscope,6d696372-6f73-4636-9f70-652e6b696361,rev?*
G04 #@! TF.SameCoordinates,Original*
G04 #@! TF.FileFunction,Paste,Top*
G04 #@! TF.FilePolarity,Positive*
%FSLAX46Y46*%
G04 Gerber Fmt 4.6, Leading zero omitted, Abs format (unit mm)*
G04 Created by KiCad (PCBNEW 7.0.7) date 2024-01-05 06:13:14*
%MOMM*%
%LPD*%
G01*
G04 APERTURE LIST*
G04 Aperture macros list*
%AMRoundRect*
0 Rectangle with rounded corners*
0 $1 Rounding radius*
0 $2 $3 $4 $5 $6 $7 $8 $9 X,Y pos of 4 corners*
0 Add a 4 corners polygon primitive as box body*
4,1,4,$2,$3,$4,$5,$6,$7,$8,$9,$2,$3,0*
0 Add four circle primitives for the rounded corners*
1,1,$1+$1,$2,$3*
1,1,$1+$1,$4,$5*
1,1,$1+$1,$6,$7*
1,1,$1+$1,$8,$9*
0 Add four rect primitives between the rounded corners*
20,1,$1+$1,$2,$3,$4,$5,0*
20,1,$1+$1,$4,$5,$6,$7,0*
20,1,$1+$1,$6,$7,$8,$9,0*
20,1,$1+$1,$8,$9,$2,$3,0*%
G04 Aperture macros list end*
%ADD10RoundRect,0.079500X-0.100500X0.079500X-0.100500X-0.079500X0.100500X-0.079500X0.100500X0.079500X0*%
%ADD11RoundRect,0.250000X0.312500X0.625000X-0.312500X0.625000X-0.312500X-0.625000X0.312500X-0.625000X0*%
%ADD12R,2.200000X2.200000*%
%ADD13R,1.250000X2.200000*%
%ADD14RoundRect,0.250000X0.250000X0.475000X-0.250000X0.475000X-0.250000X-0.475000X0.250000X-0.475000X0*%
%ADD15RoundRect,0.135000X0.135000X0.185000X-0.135000X0.185000X-0.135000X-0.185000X0.135000X-0.185000X0*%
%ADD16RoundRect,0.225000X0.250000X-0.225000X0.250000X0.225000X-0.250000X0.225000X-0.250000X-0.225000X0*%
%ADD17RoundRect,0.079500X0.079500X0.100500X-0.079500X0.100500X-0.079500X-0.100500X0.079500X-0.100500X0*%
%ADD18RoundRect,0.091000X-0.364000X0.864000X-0.364000X-0.864000X0.364000X-0.864000X0.364000X0.864000X0*%
%ADD19RoundRect,0.150000X-0.150000X0.825000X-0.150000X-0.825000X0.150000X-0.825000X0.150000X0.825000X0*%
%ADD20RoundRect,0.042000X0.258000X-0.943000X0.258000X0.943000X-0.258000X0.943000X-0.258000X-0.943000X0*%
%ADD21RoundRect,0.135000X-0.185000X0.135000X-0.185000X-0.135000X0.185000X-0.135000X0.185000X0.135000X0*%
%ADD22RoundRect,0.150000X0.150000X-0.587500X0.150000X0.587500X-0.150000X0.587500X-0.150000X-0.587500X0*%
%ADD23RoundRect,0.135000X-0.135000X-0.185000X0.135000X-0.185000X0.135000X0.185000X-0.135000X0.185000X0*%
%ADD24RoundRect,0.150000X-0.150000X0.587500X-0.150000X-0.587500X0.150000X-0.587500X0.150000X0.587500X0*%
G04 APERTURE END LIST*
D10*
X128040000Y-98897500D03*
X128040000Y-99587500D03*
D11*
X131002500Y-101762500D03*
X128077500Y-101762500D03*
D12*
X132000000Y-65800000D03*
D13*
X129725000Y-65800000D03*
D14*
X138250000Y-114282500D03*
X136350000Y-114282500D03*
D15*
X126907631Y-137946208D03*
X125887631Y-137946208D03*
X137600000Y-112300000D03*
X136580000Y-112300000D03*
D16*
X131400000Y-115975000D03*
X131400000Y-114425000D03*
D17*
X126452500Y-105100000D03*
X125762500Y-105100000D03*
D16*
X133290000Y-113875000D03*
X133290000Y-112325000D03*
D18*
X138550000Y-116600000D03*
X136100000Y-116600000D03*
X136100000Y-122400000D03*
X138550000Y-122400000D03*
D15*
X135600000Y-112300000D03*
X134580000Y-112300000D03*
D19*
X137595000Y-105225000D03*
X136325000Y-105225000D03*
X135055000Y-105225000D03*
X133785000Y-105225000D03*
X133785000Y-110175000D03*
X135055000Y-110175000D03*
X136325000Y-110175000D03*
X137595000Y-110175000D03*
D20*
X124922500Y-114740000D03*
X126192500Y-114740000D03*
X127462500Y-114740000D03*
X128732500Y-114740000D03*
X128732500Y-109800000D03*
X127462500Y-109800000D03*
X126192500Y-109800000D03*
X124922500Y-109800000D03*
D21*
X124627500Y-105190000D03*
X124627500Y-106210000D03*
D22*
X129590000Y-99500000D03*
X131490000Y-99500000D03*
X130540000Y-97625000D03*
D23*
X125887631Y-132946208D03*
X126907631Y-132946208D03*
D16*
X139315000Y-110275000D03*
X139315000Y-108725000D03*
D22*
X124477500Y-103637500D03*
X126377500Y-103637500D03*
X125427500Y-101762500D03*
D24*
X130490000Y-104025000D03*
X128590000Y-104025000D03*
X129540000Y-105900000D03*
M02*
