%TF.GenerationSoftware,KiCad,Pcbnew,7.0.7*%
%TF.CreationDate,2024-01-05T06:15:33+01:00*%
%TF.ProjectId,microscope,6d696372-6f73-4636-9f70-652e6b696361,rev?*%
%TF.SameCoordinates,Original*%
%TF.FileFunction,Drillmap*%
%TF.FilePolarity,Positive*%
%FSLAX45Y45*%
G04 Gerber Fmt 4.5, Leading zero omitted, Abs format (unit mm)*
G04 Created by KiCad (PCBNEW 7.0.7) date 2024-01-05 06:15:33*
%MOMM*%
%LPD*%
G01*
G04 APERTURE LIST*
%ADD10C,0.200000*%
%ADD11C,0.030000*%
%ADD12C,0.095000*%
%ADD13C,0.100000*%
G04 APERTURE END LIST*
D10*
X13539410Y-6380000D02*
G75*
G03*
X13339404Y-6180000I-200010J-10D01*
G01*
X14160000Y-16180000D02*
X14160000Y-9260000D01*
X12880596Y-6180006D02*
G75*
G03*
X12680596Y-6380000I-6J-199994D01*
G01*
X13539404Y-8824059D02*
X13539404Y-6380000D01*
X13339404Y-6180000D02*
X12880596Y-6180000D01*
X12680596Y-8824059D02*
X12680596Y-6380000D01*
X14160000Y-9260000D02*
X13736798Y-9105967D01*
X13539402Y-8824059D02*
G75*
G03*
X13736798Y-9105967I299998J-1D01*
G01*
X12060000Y-16180000D02*
X14160000Y-16180000D01*
X12060000Y-9260000D02*
X12060000Y-16180000D01*
X12060000Y-9260000D02*
X12483202Y-9105967D01*
X12483202Y-9105965D02*
G75*
G03*
X12680596Y-8824059I-102602J281905D01*
G01*
D11*
X12455000Y-12135000D02*
X12485000Y-12165000D01*
X12485000Y-12135000D02*
X12455000Y-12165000D01*
X12735000Y-11615000D02*
X12765000Y-11645000D01*
X12765000Y-11615000D02*
X12735000Y-11645000D01*
X13125000Y-11085000D02*
X13155000Y-11115000D01*
X13155000Y-11085000D02*
X13125000Y-11115000D01*
X13125000Y-11325000D02*
X13155000Y-11355000D01*
X13155000Y-11325000D02*
X13125000Y-11355000D01*
X13495000Y-10865000D02*
X13525000Y-10895000D01*
X13525000Y-10865000D02*
X13495000Y-10895000D01*
X13615000Y-10635000D02*
X13645000Y-10665000D01*
X13645000Y-10635000D02*
X13615000Y-10665000D01*
D12*
X13097263Y-13294621D02*
G75*
G03*
X13097263Y-13294621I-47500J0D01*
G01*
X13097263Y-13544621D02*
G75*
G03*
X13097263Y-13544621I-47500J0D01*
G01*
X13097263Y-13794621D02*
G75*
G03*
X13097263Y-13794621I-47500J0D01*
G01*
D13*
X13049763Y-12309621D02*
X13049763Y-12409621D01*
X12999763Y-12359621D02*
X13099763Y-12359621D01*
X13049763Y-12559621D02*
X13049763Y-12659621D01*
X12999763Y-12609621D02*
X13099763Y-12609621D01*
D10*
X12310777Y-16501484D02*
X12310777Y-16301484D01*
X12310777Y-16301484D02*
X12358396Y-16301484D01*
X12358396Y-16301484D02*
X12386967Y-16311008D01*
X12386967Y-16311008D02*
X12406015Y-16330055D01*
X12406015Y-16330055D02*
X12415539Y-16349103D01*
X12415539Y-16349103D02*
X12425062Y-16387198D01*
X12425062Y-16387198D02*
X12425062Y-16415769D01*
X12425062Y-16415769D02*
X12415539Y-16453865D01*
X12415539Y-16453865D02*
X12406015Y-16472912D01*
X12406015Y-16472912D02*
X12386967Y-16491960D01*
X12386967Y-16491960D02*
X12358396Y-16501484D01*
X12358396Y-16501484D02*
X12310777Y-16501484D01*
X12510777Y-16501484D02*
X12510777Y-16368150D01*
X12510777Y-16406246D02*
X12520301Y-16387198D01*
X12520301Y-16387198D02*
X12529824Y-16377674D01*
X12529824Y-16377674D02*
X12548872Y-16368150D01*
X12548872Y-16368150D02*
X12567920Y-16368150D01*
X12634586Y-16501484D02*
X12634586Y-16368150D01*
X12634586Y-16301484D02*
X12625062Y-16311008D01*
X12625062Y-16311008D02*
X12634586Y-16320531D01*
X12634586Y-16320531D02*
X12644110Y-16311008D01*
X12644110Y-16311008D02*
X12634586Y-16301484D01*
X12634586Y-16301484D02*
X12634586Y-16320531D01*
X12758396Y-16501484D02*
X12739348Y-16491960D01*
X12739348Y-16491960D02*
X12729824Y-16472912D01*
X12729824Y-16472912D02*
X12729824Y-16301484D01*
X12863158Y-16501484D02*
X12844110Y-16491960D01*
X12844110Y-16491960D02*
X12834586Y-16472912D01*
X12834586Y-16472912D02*
X12834586Y-16301484D01*
X13091729Y-16501484D02*
X13091729Y-16301484D01*
X13091729Y-16301484D02*
X13158396Y-16444341D01*
X13158396Y-16444341D02*
X13225062Y-16301484D01*
X13225062Y-16301484D02*
X13225062Y-16501484D01*
X13406015Y-16501484D02*
X13406015Y-16396722D01*
X13406015Y-16396722D02*
X13396491Y-16377674D01*
X13396491Y-16377674D02*
X13377443Y-16368150D01*
X13377443Y-16368150D02*
X13339348Y-16368150D01*
X13339348Y-16368150D02*
X13320301Y-16377674D01*
X13406015Y-16491960D02*
X13386967Y-16501484D01*
X13386967Y-16501484D02*
X13339348Y-16501484D01*
X13339348Y-16501484D02*
X13320301Y-16491960D01*
X13320301Y-16491960D02*
X13310777Y-16472912D01*
X13310777Y-16472912D02*
X13310777Y-16453865D01*
X13310777Y-16453865D02*
X13320301Y-16434817D01*
X13320301Y-16434817D02*
X13339348Y-16425293D01*
X13339348Y-16425293D02*
X13386967Y-16425293D01*
X13386967Y-16425293D02*
X13406015Y-16415769D01*
X13501253Y-16368150D02*
X13501253Y-16568150D01*
X13501253Y-16377674D02*
X13520301Y-16368150D01*
X13520301Y-16368150D02*
X13558396Y-16368150D01*
X13558396Y-16368150D02*
X13577443Y-16377674D01*
X13577443Y-16377674D02*
X13586967Y-16387198D01*
X13586967Y-16387198D02*
X13596491Y-16406246D01*
X13596491Y-16406246D02*
X13596491Y-16463388D01*
X13596491Y-16463388D02*
X13586967Y-16482436D01*
X13586967Y-16482436D02*
X13577443Y-16491960D01*
X13577443Y-16491960D02*
X13558396Y-16501484D01*
X13558396Y-16501484D02*
X13520301Y-16501484D01*
X13520301Y-16501484D02*
X13501253Y-16491960D01*
X13682205Y-16482436D02*
X13691729Y-16491960D01*
X13691729Y-16491960D02*
X13682205Y-16501484D01*
X13682205Y-16501484D02*
X13672682Y-16491960D01*
X13672682Y-16491960D02*
X13682205Y-16482436D01*
X13682205Y-16482436D02*
X13682205Y-16501484D01*
X13682205Y-16377674D02*
X13691729Y-16387198D01*
X13691729Y-16387198D02*
X13682205Y-16396722D01*
X13682205Y-16396722D02*
X13672682Y-16387198D01*
X13672682Y-16387198D02*
X13682205Y-16377674D01*
X13682205Y-16377674D02*
X13682205Y-16396722D01*
D11*
X12020000Y-16815000D02*
X12050000Y-16845000D01*
X12050000Y-16815000D02*
X12020000Y-16845000D01*
D10*
X12348872Y-16721484D02*
X12367920Y-16721484D01*
X12367920Y-16721484D02*
X12386967Y-16731008D01*
X12386967Y-16731008D02*
X12396491Y-16740531D01*
X12396491Y-16740531D02*
X12406015Y-16759579D01*
X12406015Y-16759579D02*
X12415539Y-16797674D01*
X12415539Y-16797674D02*
X12415539Y-16845293D01*
X12415539Y-16845293D02*
X12406015Y-16883389D01*
X12406015Y-16883389D02*
X12396491Y-16902436D01*
X12396491Y-16902436D02*
X12386967Y-16911960D01*
X12386967Y-16911960D02*
X12367920Y-16921484D01*
X12367920Y-16921484D02*
X12348872Y-16921484D01*
X12348872Y-16921484D02*
X12329824Y-16911960D01*
X12329824Y-16911960D02*
X12320301Y-16902436D01*
X12320301Y-16902436D02*
X12310777Y-16883389D01*
X12310777Y-16883389D02*
X12301253Y-16845293D01*
X12301253Y-16845293D02*
X12301253Y-16797674D01*
X12301253Y-16797674D02*
X12310777Y-16759579D01*
X12310777Y-16759579D02*
X12320301Y-16740531D01*
X12320301Y-16740531D02*
X12329824Y-16731008D01*
X12329824Y-16731008D02*
X12348872Y-16721484D01*
X12501253Y-16902436D02*
X12510777Y-16911960D01*
X12510777Y-16911960D02*
X12501253Y-16921484D01*
X12501253Y-16921484D02*
X12491729Y-16911960D01*
X12491729Y-16911960D02*
X12501253Y-16902436D01*
X12501253Y-16902436D02*
X12501253Y-16921484D01*
X12577443Y-16721484D02*
X12701253Y-16721484D01*
X12701253Y-16721484D02*
X12634586Y-16797674D01*
X12634586Y-16797674D02*
X12663158Y-16797674D01*
X12663158Y-16797674D02*
X12682205Y-16807198D01*
X12682205Y-16807198D02*
X12691729Y-16816722D01*
X12691729Y-16816722D02*
X12701253Y-16835770D01*
X12701253Y-16835770D02*
X12701253Y-16883389D01*
X12701253Y-16883389D02*
X12691729Y-16902436D01*
X12691729Y-16902436D02*
X12682205Y-16911960D01*
X12682205Y-16911960D02*
X12663158Y-16921484D01*
X12663158Y-16921484D02*
X12606015Y-16921484D01*
X12606015Y-16921484D02*
X12586967Y-16911960D01*
X12586967Y-16911960D02*
X12577443Y-16902436D01*
X12825062Y-16721484D02*
X12844110Y-16721484D01*
X12844110Y-16721484D02*
X12863158Y-16731008D01*
X12863158Y-16731008D02*
X12872682Y-16740531D01*
X12872682Y-16740531D02*
X12882205Y-16759579D01*
X12882205Y-16759579D02*
X12891729Y-16797674D01*
X12891729Y-16797674D02*
X12891729Y-16845293D01*
X12891729Y-16845293D02*
X12882205Y-16883389D01*
X12882205Y-16883389D02*
X12872682Y-16902436D01*
X12872682Y-16902436D02*
X12863158Y-16911960D01*
X12863158Y-16911960D02*
X12844110Y-16921484D01*
X12844110Y-16921484D02*
X12825062Y-16921484D01*
X12825062Y-16921484D02*
X12806015Y-16911960D01*
X12806015Y-16911960D02*
X12796491Y-16902436D01*
X12796491Y-16902436D02*
X12786967Y-16883389D01*
X12786967Y-16883389D02*
X12777443Y-16845293D01*
X12777443Y-16845293D02*
X12777443Y-16797674D01*
X12777443Y-16797674D02*
X12786967Y-16759579D01*
X12786967Y-16759579D02*
X12796491Y-16740531D01*
X12796491Y-16740531D02*
X12806015Y-16731008D01*
X12806015Y-16731008D02*
X12825062Y-16721484D01*
X13015539Y-16721484D02*
X13034586Y-16721484D01*
X13034586Y-16721484D02*
X13053634Y-16731008D01*
X13053634Y-16731008D02*
X13063158Y-16740531D01*
X13063158Y-16740531D02*
X13072682Y-16759579D01*
X13072682Y-16759579D02*
X13082205Y-16797674D01*
X13082205Y-16797674D02*
X13082205Y-16845293D01*
X13082205Y-16845293D02*
X13072682Y-16883389D01*
X13072682Y-16883389D02*
X13063158Y-16902436D01*
X13063158Y-16902436D02*
X13053634Y-16911960D01*
X13053634Y-16911960D02*
X13034586Y-16921484D01*
X13034586Y-16921484D02*
X13015539Y-16921484D01*
X13015539Y-16921484D02*
X12996491Y-16911960D01*
X12996491Y-16911960D02*
X12986967Y-16902436D01*
X12986967Y-16902436D02*
X12977443Y-16883389D01*
X12977443Y-16883389D02*
X12967920Y-16845293D01*
X12967920Y-16845293D02*
X12967920Y-16797674D01*
X12967920Y-16797674D02*
X12977443Y-16759579D01*
X12977443Y-16759579D02*
X12986967Y-16740531D01*
X12986967Y-16740531D02*
X12996491Y-16731008D01*
X12996491Y-16731008D02*
X13015539Y-16721484D01*
X13167920Y-16921484D02*
X13167920Y-16788150D01*
X13167920Y-16807198D02*
X13177443Y-16797674D01*
X13177443Y-16797674D02*
X13196491Y-16788150D01*
X13196491Y-16788150D02*
X13225063Y-16788150D01*
X13225063Y-16788150D02*
X13244110Y-16797674D01*
X13244110Y-16797674D02*
X13253634Y-16816722D01*
X13253634Y-16816722D02*
X13253634Y-16921484D01*
X13253634Y-16816722D02*
X13263158Y-16797674D01*
X13263158Y-16797674D02*
X13282205Y-16788150D01*
X13282205Y-16788150D02*
X13310777Y-16788150D01*
X13310777Y-16788150D02*
X13329824Y-16797674D01*
X13329824Y-16797674D02*
X13339348Y-16816722D01*
X13339348Y-16816722D02*
X13339348Y-16921484D01*
X13434586Y-16921484D02*
X13434586Y-16788150D01*
X13434586Y-16807198D02*
X13444110Y-16797674D01*
X13444110Y-16797674D02*
X13463158Y-16788150D01*
X13463158Y-16788150D02*
X13491729Y-16788150D01*
X13491729Y-16788150D02*
X13510777Y-16797674D01*
X13510777Y-16797674D02*
X13520301Y-16816722D01*
X13520301Y-16816722D02*
X13520301Y-16921484D01*
X13520301Y-16816722D02*
X13529824Y-16797674D01*
X13529824Y-16797674D02*
X13548872Y-16788150D01*
X13548872Y-16788150D02*
X13577443Y-16788150D01*
X13577443Y-16788150D02*
X13596491Y-16797674D01*
X13596491Y-16797674D02*
X13606015Y-16816722D01*
X13606015Y-16816722D02*
X13606015Y-16921484D01*
X13996491Y-16711960D02*
X13825063Y-16969103D01*
X14253634Y-16721484D02*
X14272682Y-16721484D01*
X14272682Y-16721484D02*
X14291729Y-16731008D01*
X14291729Y-16731008D02*
X14301253Y-16740531D01*
X14301253Y-16740531D02*
X14310777Y-16759579D01*
X14310777Y-16759579D02*
X14320301Y-16797674D01*
X14320301Y-16797674D02*
X14320301Y-16845293D01*
X14320301Y-16845293D02*
X14310777Y-16883389D01*
X14310777Y-16883389D02*
X14301253Y-16902436D01*
X14301253Y-16902436D02*
X14291729Y-16911960D01*
X14291729Y-16911960D02*
X14272682Y-16921484D01*
X14272682Y-16921484D02*
X14253634Y-16921484D01*
X14253634Y-16921484D02*
X14234586Y-16911960D01*
X14234586Y-16911960D02*
X14225063Y-16902436D01*
X14225063Y-16902436D02*
X14215539Y-16883389D01*
X14215539Y-16883389D02*
X14206015Y-16845293D01*
X14206015Y-16845293D02*
X14206015Y-16797674D01*
X14206015Y-16797674D02*
X14215539Y-16759579D01*
X14215539Y-16759579D02*
X14225063Y-16740531D01*
X14225063Y-16740531D02*
X14234586Y-16731008D01*
X14234586Y-16731008D02*
X14253634Y-16721484D01*
X14406015Y-16902436D02*
X14415539Y-16911960D01*
X14415539Y-16911960D02*
X14406015Y-16921484D01*
X14406015Y-16921484D02*
X14396491Y-16911960D01*
X14396491Y-16911960D02*
X14406015Y-16902436D01*
X14406015Y-16902436D02*
X14406015Y-16921484D01*
X14539348Y-16721484D02*
X14558396Y-16721484D01*
X14558396Y-16721484D02*
X14577444Y-16731008D01*
X14577444Y-16731008D02*
X14586967Y-16740531D01*
X14586967Y-16740531D02*
X14596491Y-16759579D01*
X14596491Y-16759579D02*
X14606015Y-16797674D01*
X14606015Y-16797674D02*
X14606015Y-16845293D01*
X14606015Y-16845293D02*
X14596491Y-16883389D01*
X14596491Y-16883389D02*
X14586967Y-16902436D01*
X14586967Y-16902436D02*
X14577444Y-16911960D01*
X14577444Y-16911960D02*
X14558396Y-16921484D01*
X14558396Y-16921484D02*
X14539348Y-16921484D01*
X14539348Y-16921484D02*
X14520301Y-16911960D01*
X14520301Y-16911960D02*
X14510777Y-16902436D01*
X14510777Y-16902436D02*
X14501253Y-16883389D01*
X14501253Y-16883389D02*
X14491729Y-16845293D01*
X14491729Y-16845293D02*
X14491729Y-16797674D01*
X14491729Y-16797674D02*
X14501253Y-16759579D01*
X14501253Y-16759579D02*
X14510777Y-16740531D01*
X14510777Y-16740531D02*
X14520301Y-16731008D01*
X14520301Y-16731008D02*
X14539348Y-16721484D01*
X14796491Y-16921484D02*
X14682206Y-16921484D01*
X14739348Y-16921484D02*
X14739348Y-16721484D01*
X14739348Y-16721484D02*
X14720301Y-16750055D01*
X14720301Y-16750055D02*
X14701253Y-16769103D01*
X14701253Y-16769103D02*
X14682206Y-16778627D01*
X14986967Y-16921484D02*
X14872682Y-16921484D01*
X14929825Y-16921484D02*
X14929825Y-16721484D01*
X14929825Y-16721484D02*
X14910777Y-16750055D01*
X14910777Y-16750055D02*
X14891729Y-16769103D01*
X14891729Y-16769103D02*
X14872682Y-16778627D01*
X15101253Y-16807198D02*
X15082206Y-16797674D01*
X15082206Y-16797674D02*
X15072682Y-16788150D01*
X15072682Y-16788150D02*
X15063158Y-16769103D01*
X15063158Y-16769103D02*
X15063158Y-16759579D01*
X15063158Y-16759579D02*
X15072682Y-16740531D01*
X15072682Y-16740531D02*
X15082206Y-16731008D01*
X15082206Y-16731008D02*
X15101253Y-16721484D01*
X15101253Y-16721484D02*
X15139348Y-16721484D01*
X15139348Y-16721484D02*
X15158396Y-16731008D01*
X15158396Y-16731008D02*
X15167920Y-16740531D01*
X15167920Y-16740531D02*
X15177444Y-16759579D01*
X15177444Y-16759579D02*
X15177444Y-16769103D01*
X15177444Y-16769103D02*
X15167920Y-16788150D01*
X15167920Y-16788150D02*
X15158396Y-16797674D01*
X15158396Y-16797674D02*
X15139348Y-16807198D01*
X15139348Y-16807198D02*
X15101253Y-16807198D01*
X15101253Y-16807198D02*
X15082206Y-16816722D01*
X15082206Y-16816722D02*
X15072682Y-16826246D01*
X15072682Y-16826246D02*
X15063158Y-16845293D01*
X15063158Y-16845293D02*
X15063158Y-16883389D01*
X15063158Y-16883389D02*
X15072682Y-16902436D01*
X15072682Y-16902436D02*
X15082206Y-16911960D01*
X15082206Y-16911960D02*
X15101253Y-16921484D01*
X15101253Y-16921484D02*
X15139348Y-16921484D01*
X15139348Y-16921484D02*
X15158396Y-16911960D01*
X15158396Y-16911960D02*
X15167920Y-16902436D01*
X15167920Y-16902436D02*
X15177444Y-16883389D01*
X15177444Y-16883389D02*
X15177444Y-16845293D01*
X15177444Y-16845293D02*
X15167920Y-16826246D01*
X15167920Y-16826246D02*
X15158396Y-16816722D01*
X15158396Y-16816722D02*
X15139348Y-16807198D01*
X15253634Y-16721484D02*
X15253634Y-16759579D01*
X15329825Y-16721484D02*
X15329825Y-16759579D01*
X15625063Y-16997674D02*
X15615539Y-16988150D01*
X15615539Y-16988150D02*
X15596491Y-16959579D01*
X15596491Y-16959579D02*
X15586968Y-16940531D01*
X15586968Y-16940531D02*
X15577444Y-16911960D01*
X15577444Y-16911960D02*
X15567920Y-16864341D01*
X15567920Y-16864341D02*
X15567920Y-16826246D01*
X15567920Y-16826246D02*
X15577444Y-16778627D01*
X15577444Y-16778627D02*
X15586968Y-16750055D01*
X15586968Y-16750055D02*
X15596491Y-16731008D01*
X15596491Y-16731008D02*
X15615539Y-16702436D01*
X15615539Y-16702436D02*
X15625063Y-16692912D01*
X15786968Y-16721484D02*
X15748872Y-16721484D01*
X15748872Y-16721484D02*
X15729825Y-16731008D01*
X15729825Y-16731008D02*
X15720301Y-16740531D01*
X15720301Y-16740531D02*
X15701253Y-16769103D01*
X15701253Y-16769103D02*
X15691729Y-16807198D01*
X15691729Y-16807198D02*
X15691729Y-16883389D01*
X15691729Y-16883389D02*
X15701253Y-16902436D01*
X15701253Y-16902436D02*
X15710777Y-16911960D01*
X15710777Y-16911960D02*
X15729825Y-16921484D01*
X15729825Y-16921484D02*
X15767920Y-16921484D01*
X15767920Y-16921484D02*
X15786968Y-16911960D01*
X15786968Y-16911960D02*
X15796491Y-16902436D01*
X15796491Y-16902436D02*
X15806015Y-16883389D01*
X15806015Y-16883389D02*
X15806015Y-16835770D01*
X15806015Y-16835770D02*
X15796491Y-16816722D01*
X15796491Y-16816722D02*
X15786968Y-16807198D01*
X15786968Y-16807198D02*
X15767920Y-16797674D01*
X15767920Y-16797674D02*
X15729825Y-16797674D01*
X15729825Y-16797674D02*
X15710777Y-16807198D01*
X15710777Y-16807198D02*
X15701253Y-16816722D01*
X15701253Y-16816722D02*
X15691729Y-16835770D01*
X16044110Y-16921484D02*
X16044110Y-16721484D01*
X16129825Y-16921484D02*
X16129825Y-16816722D01*
X16129825Y-16816722D02*
X16120301Y-16797674D01*
X16120301Y-16797674D02*
X16101253Y-16788150D01*
X16101253Y-16788150D02*
X16072682Y-16788150D01*
X16072682Y-16788150D02*
X16053634Y-16797674D01*
X16053634Y-16797674D02*
X16044110Y-16807198D01*
X16253634Y-16921484D02*
X16234587Y-16911960D01*
X16234587Y-16911960D02*
X16225063Y-16902436D01*
X16225063Y-16902436D02*
X16215539Y-16883389D01*
X16215539Y-16883389D02*
X16215539Y-16826246D01*
X16215539Y-16826246D02*
X16225063Y-16807198D01*
X16225063Y-16807198D02*
X16234587Y-16797674D01*
X16234587Y-16797674D02*
X16253634Y-16788150D01*
X16253634Y-16788150D02*
X16282206Y-16788150D01*
X16282206Y-16788150D02*
X16301253Y-16797674D01*
X16301253Y-16797674D02*
X16310777Y-16807198D01*
X16310777Y-16807198D02*
X16320301Y-16826246D01*
X16320301Y-16826246D02*
X16320301Y-16883389D01*
X16320301Y-16883389D02*
X16310777Y-16902436D01*
X16310777Y-16902436D02*
X16301253Y-16911960D01*
X16301253Y-16911960D02*
X16282206Y-16921484D01*
X16282206Y-16921484D02*
X16253634Y-16921484D01*
X16434587Y-16921484D02*
X16415539Y-16911960D01*
X16415539Y-16911960D02*
X16406015Y-16892912D01*
X16406015Y-16892912D02*
X16406015Y-16721484D01*
X16586968Y-16911960D02*
X16567920Y-16921484D01*
X16567920Y-16921484D02*
X16529825Y-16921484D01*
X16529825Y-16921484D02*
X16510777Y-16911960D01*
X16510777Y-16911960D02*
X16501253Y-16892912D01*
X16501253Y-16892912D02*
X16501253Y-16816722D01*
X16501253Y-16816722D02*
X16510777Y-16797674D01*
X16510777Y-16797674D02*
X16529825Y-16788150D01*
X16529825Y-16788150D02*
X16567920Y-16788150D01*
X16567920Y-16788150D02*
X16586968Y-16797674D01*
X16586968Y-16797674D02*
X16596491Y-16816722D01*
X16596491Y-16816722D02*
X16596491Y-16835770D01*
X16596491Y-16835770D02*
X16501253Y-16854817D01*
X16672682Y-16911960D02*
X16691730Y-16921484D01*
X16691730Y-16921484D02*
X16729825Y-16921484D01*
X16729825Y-16921484D02*
X16748872Y-16911960D01*
X16748872Y-16911960D02*
X16758396Y-16892912D01*
X16758396Y-16892912D02*
X16758396Y-16883389D01*
X16758396Y-16883389D02*
X16748872Y-16864341D01*
X16748872Y-16864341D02*
X16729825Y-16854817D01*
X16729825Y-16854817D02*
X16701253Y-16854817D01*
X16701253Y-16854817D02*
X16682206Y-16845293D01*
X16682206Y-16845293D02*
X16672682Y-16826246D01*
X16672682Y-16826246D02*
X16672682Y-16816722D01*
X16672682Y-16816722D02*
X16682206Y-16797674D01*
X16682206Y-16797674D02*
X16701253Y-16788150D01*
X16701253Y-16788150D02*
X16729825Y-16788150D01*
X16729825Y-16788150D02*
X16748872Y-16797674D01*
X16825063Y-16997674D02*
X16834587Y-16988150D01*
X16834587Y-16988150D02*
X16853634Y-16959579D01*
X16853634Y-16959579D02*
X16863158Y-16940531D01*
X16863158Y-16940531D02*
X16872682Y-16911960D01*
X16872682Y-16911960D02*
X16882206Y-16864341D01*
X16882206Y-16864341D02*
X16882206Y-16826246D01*
X16882206Y-16826246D02*
X16872682Y-16778627D01*
X16872682Y-16778627D02*
X16863158Y-16750055D01*
X16863158Y-16750055D02*
X16853634Y-16731008D01*
X16853634Y-16731008D02*
X16834587Y-16702436D01*
X16834587Y-16702436D02*
X16825063Y-16692912D01*
D12*
X12050000Y-17094000D02*
G75*
G03*
X12050000Y-17094000I-47500J0D01*
G01*
D10*
X12348872Y-16985484D02*
X12367920Y-16985484D01*
X12367920Y-16985484D02*
X12386967Y-16995008D01*
X12386967Y-16995008D02*
X12396491Y-17004531D01*
X12396491Y-17004531D02*
X12406015Y-17023579D01*
X12406015Y-17023579D02*
X12415539Y-17061674D01*
X12415539Y-17061674D02*
X12415539Y-17109293D01*
X12415539Y-17109293D02*
X12406015Y-17147389D01*
X12406015Y-17147389D02*
X12396491Y-17166436D01*
X12396491Y-17166436D02*
X12386967Y-17175960D01*
X12386967Y-17175960D02*
X12367920Y-17185484D01*
X12367920Y-17185484D02*
X12348872Y-17185484D01*
X12348872Y-17185484D02*
X12329824Y-17175960D01*
X12329824Y-17175960D02*
X12320301Y-17166436D01*
X12320301Y-17166436D02*
X12310777Y-17147389D01*
X12310777Y-17147389D02*
X12301253Y-17109293D01*
X12301253Y-17109293D02*
X12301253Y-17061674D01*
X12301253Y-17061674D02*
X12310777Y-17023579D01*
X12310777Y-17023579D02*
X12320301Y-17004531D01*
X12320301Y-17004531D02*
X12329824Y-16995008D01*
X12329824Y-16995008D02*
X12348872Y-16985484D01*
X12501253Y-17166436D02*
X12510777Y-17175960D01*
X12510777Y-17175960D02*
X12501253Y-17185484D01*
X12501253Y-17185484D02*
X12491729Y-17175960D01*
X12491729Y-17175960D02*
X12501253Y-17166436D01*
X12501253Y-17166436D02*
X12501253Y-17185484D01*
X12606015Y-17185484D02*
X12644110Y-17185484D01*
X12644110Y-17185484D02*
X12663158Y-17175960D01*
X12663158Y-17175960D02*
X12672682Y-17166436D01*
X12672682Y-17166436D02*
X12691729Y-17137865D01*
X12691729Y-17137865D02*
X12701253Y-17099770D01*
X12701253Y-17099770D02*
X12701253Y-17023579D01*
X12701253Y-17023579D02*
X12691729Y-17004531D01*
X12691729Y-17004531D02*
X12682205Y-16995008D01*
X12682205Y-16995008D02*
X12663158Y-16985484D01*
X12663158Y-16985484D02*
X12625062Y-16985484D01*
X12625062Y-16985484D02*
X12606015Y-16995008D01*
X12606015Y-16995008D02*
X12596491Y-17004531D01*
X12596491Y-17004531D02*
X12586967Y-17023579D01*
X12586967Y-17023579D02*
X12586967Y-17071198D01*
X12586967Y-17071198D02*
X12596491Y-17090246D01*
X12596491Y-17090246D02*
X12606015Y-17099770D01*
X12606015Y-17099770D02*
X12625062Y-17109293D01*
X12625062Y-17109293D02*
X12663158Y-17109293D01*
X12663158Y-17109293D02*
X12682205Y-17099770D01*
X12682205Y-17099770D02*
X12691729Y-17090246D01*
X12691729Y-17090246D02*
X12701253Y-17071198D01*
X12882205Y-16985484D02*
X12786967Y-16985484D01*
X12786967Y-16985484D02*
X12777443Y-17080722D01*
X12777443Y-17080722D02*
X12786967Y-17071198D01*
X12786967Y-17071198D02*
X12806015Y-17061674D01*
X12806015Y-17061674D02*
X12853634Y-17061674D01*
X12853634Y-17061674D02*
X12872682Y-17071198D01*
X12872682Y-17071198D02*
X12882205Y-17080722D01*
X12882205Y-17080722D02*
X12891729Y-17099770D01*
X12891729Y-17099770D02*
X12891729Y-17147389D01*
X12891729Y-17147389D02*
X12882205Y-17166436D01*
X12882205Y-17166436D02*
X12872682Y-17175960D01*
X12872682Y-17175960D02*
X12853634Y-17185484D01*
X12853634Y-17185484D02*
X12806015Y-17185484D01*
X12806015Y-17185484D02*
X12786967Y-17175960D01*
X12786967Y-17175960D02*
X12777443Y-17166436D01*
X13015539Y-16985484D02*
X13034586Y-16985484D01*
X13034586Y-16985484D02*
X13053634Y-16995008D01*
X13053634Y-16995008D02*
X13063158Y-17004531D01*
X13063158Y-17004531D02*
X13072682Y-17023579D01*
X13072682Y-17023579D02*
X13082205Y-17061674D01*
X13082205Y-17061674D02*
X13082205Y-17109293D01*
X13082205Y-17109293D02*
X13072682Y-17147389D01*
X13072682Y-17147389D02*
X13063158Y-17166436D01*
X13063158Y-17166436D02*
X13053634Y-17175960D01*
X13053634Y-17175960D02*
X13034586Y-17185484D01*
X13034586Y-17185484D02*
X13015539Y-17185484D01*
X13015539Y-17185484D02*
X12996491Y-17175960D01*
X12996491Y-17175960D02*
X12986967Y-17166436D01*
X12986967Y-17166436D02*
X12977443Y-17147389D01*
X12977443Y-17147389D02*
X12967920Y-17109293D01*
X12967920Y-17109293D02*
X12967920Y-17061674D01*
X12967920Y-17061674D02*
X12977443Y-17023579D01*
X12977443Y-17023579D02*
X12986967Y-17004531D01*
X12986967Y-17004531D02*
X12996491Y-16995008D01*
X12996491Y-16995008D02*
X13015539Y-16985484D01*
X13167920Y-17185484D02*
X13167920Y-17052150D01*
X13167920Y-17071198D02*
X13177443Y-17061674D01*
X13177443Y-17061674D02*
X13196491Y-17052150D01*
X13196491Y-17052150D02*
X13225063Y-17052150D01*
X13225063Y-17052150D02*
X13244110Y-17061674D01*
X13244110Y-17061674D02*
X13253634Y-17080722D01*
X13253634Y-17080722D02*
X13253634Y-17185484D01*
X13253634Y-17080722D02*
X13263158Y-17061674D01*
X13263158Y-17061674D02*
X13282205Y-17052150D01*
X13282205Y-17052150D02*
X13310777Y-17052150D01*
X13310777Y-17052150D02*
X13329824Y-17061674D01*
X13329824Y-17061674D02*
X13339348Y-17080722D01*
X13339348Y-17080722D02*
X13339348Y-17185484D01*
X13434586Y-17185484D02*
X13434586Y-17052150D01*
X13434586Y-17071198D02*
X13444110Y-17061674D01*
X13444110Y-17061674D02*
X13463158Y-17052150D01*
X13463158Y-17052150D02*
X13491729Y-17052150D01*
X13491729Y-17052150D02*
X13510777Y-17061674D01*
X13510777Y-17061674D02*
X13520301Y-17080722D01*
X13520301Y-17080722D02*
X13520301Y-17185484D01*
X13520301Y-17080722D02*
X13529824Y-17061674D01*
X13529824Y-17061674D02*
X13548872Y-17052150D01*
X13548872Y-17052150D02*
X13577443Y-17052150D01*
X13577443Y-17052150D02*
X13596491Y-17061674D01*
X13596491Y-17061674D02*
X13606015Y-17080722D01*
X13606015Y-17080722D02*
X13606015Y-17185484D01*
X13996491Y-16975960D02*
X13825063Y-17233103D01*
X14253634Y-16985484D02*
X14272682Y-16985484D01*
X14272682Y-16985484D02*
X14291729Y-16995008D01*
X14291729Y-16995008D02*
X14301253Y-17004531D01*
X14301253Y-17004531D02*
X14310777Y-17023579D01*
X14310777Y-17023579D02*
X14320301Y-17061674D01*
X14320301Y-17061674D02*
X14320301Y-17109293D01*
X14320301Y-17109293D02*
X14310777Y-17147389D01*
X14310777Y-17147389D02*
X14301253Y-17166436D01*
X14301253Y-17166436D02*
X14291729Y-17175960D01*
X14291729Y-17175960D02*
X14272682Y-17185484D01*
X14272682Y-17185484D02*
X14253634Y-17185484D01*
X14253634Y-17185484D02*
X14234586Y-17175960D01*
X14234586Y-17175960D02*
X14225063Y-17166436D01*
X14225063Y-17166436D02*
X14215539Y-17147389D01*
X14215539Y-17147389D02*
X14206015Y-17109293D01*
X14206015Y-17109293D02*
X14206015Y-17061674D01*
X14206015Y-17061674D02*
X14215539Y-17023579D01*
X14215539Y-17023579D02*
X14225063Y-17004531D01*
X14225063Y-17004531D02*
X14234586Y-16995008D01*
X14234586Y-16995008D02*
X14253634Y-16985484D01*
X14406015Y-17166436D02*
X14415539Y-17175960D01*
X14415539Y-17175960D02*
X14406015Y-17185484D01*
X14406015Y-17185484D02*
X14396491Y-17175960D01*
X14396491Y-17175960D02*
X14406015Y-17166436D01*
X14406015Y-17166436D02*
X14406015Y-17185484D01*
X14539348Y-16985484D02*
X14558396Y-16985484D01*
X14558396Y-16985484D02*
X14577444Y-16995008D01*
X14577444Y-16995008D02*
X14586967Y-17004531D01*
X14586967Y-17004531D02*
X14596491Y-17023579D01*
X14596491Y-17023579D02*
X14606015Y-17061674D01*
X14606015Y-17061674D02*
X14606015Y-17109293D01*
X14606015Y-17109293D02*
X14596491Y-17147389D01*
X14596491Y-17147389D02*
X14586967Y-17166436D01*
X14586967Y-17166436D02*
X14577444Y-17175960D01*
X14577444Y-17175960D02*
X14558396Y-17185484D01*
X14558396Y-17185484D02*
X14539348Y-17185484D01*
X14539348Y-17185484D02*
X14520301Y-17175960D01*
X14520301Y-17175960D02*
X14510777Y-17166436D01*
X14510777Y-17166436D02*
X14501253Y-17147389D01*
X14501253Y-17147389D02*
X14491729Y-17109293D01*
X14491729Y-17109293D02*
X14491729Y-17061674D01*
X14491729Y-17061674D02*
X14501253Y-17023579D01*
X14501253Y-17023579D02*
X14510777Y-17004531D01*
X14510777Y-17004531D02*
X14520301Y-16995008D01*
X14520301Y-16995008D02*
X14539348Y-16985484D01*
X14672682Y-16985484D02*
X14796491Y-16985484D01*
X14796491Y-16985484D02*
X14729825Y-17061674D01*
X14729825Y-17061674D02*
X14758396Y-17061674D01*
X14758396Y-17061674D02*
X14777444Y-17071198D01*
X14777444Y-17071198D02*
X14786967Y-17080722D01*
X14786967Y-17080722D02*
X14796491Y-17099770D01*
X14796491Y-17099770D02*
X14796491Y-17147389D01*
X14796491Y-17147389D02*
X14786967Y-17166436D01*
X14786967Y-17166436D02*
X14777444Y-17175960D01*
X14777444Y-17175960D02*
X14758396Y-17185484D01*
X14758396Y-17185484D02*
X14701253Y-17185484D01*
X14701253Y-17185484D02*
X14682206Y-17175960D01*
X14682206Y-17175960D02*
X14672682Y-17166436D01*
X14863158Y-16985484D02*
X14996491Y-16985484D01*
X14996491Y-16985484D02*
X14910777Y-17185484D01*
X15158396Y-17052150D02*
X15158396Y-17185484D01*
X15110777Y-16975960D02*
X15063158Y-17118817D01*
X15063158Y-17118817D02*
X15186967Y-17118817D01*
X15253634Y-16985484D02*
X15253634Y-17023579D01*
X15329825Y-16985484D02*
X15329825Y-17023579D01*
X15625063Y-17261674D02*
X15615539Y-17252150D01*
X15615539Y-17252150D02*
X15596491Y-17223579D01*
X15596491Y-17223579D02*
X15586968Y-17204531D01*
X15586968Y-17204531D02*
X15577444Y-17175960D01*
X15577444Y-17175960D02*
X15567920Y-17128341D01*
X15567920Y-17128341D02*
X15567920Y-17090246D01*
X15567920Y-17090246D02*
X15577444Y-17042627D01*
X15577444Y-17042627D02*
X15586968Y-17014055D01*
X15586968Y-17014055D02*
X15596491Y-16995008D01*
X15596491Y-16995008D02*
X15615539Y-16966436D01*
X15615539Y-16966436D02*
X15625063Y-16956912D01*
X15682206Y-16985484D02*
X15806015Y-16985484D01*
X15806015Y-16985484D02*
X15739348Y-17061674D01*
X15739348Y-17061674D02*
X15767920Y-17061674D01*
X15767920Y-17061674D02*
X15786968Y-17071198D01*
X15786968Y-17071198D02*
X15796491Y-17080722D01*
X15796491Y-17080722D02*
X15806015Y-17099770D01*
X15806015Y-17099770D02*
X15806015Y-17147389D01*
X15806015Y-17147389D02*
X15796491Y-17166436D01*
X15796491Y-17166436D02*
X15786968Y-17175960D01*
X15786968Y-17175960D02*
X15767920Y-17185484D01*
X15767920Y-17185484D02*
X15710777Y-17185484D01*
X15710777Y-17185484D02*
X15691729Y-17175960D01*
X15691729Y-17175960D02*
X15682206Y-17166436D01*
X16044110Y-17185484D02*
X16044110Y-16985484D01*
X16129825Y-17185484D02*
X16129825Y-17080722D01*
X16129825Y-17080722D02*
X16120301Y-17061674D01*
X16120301Y-17061674D02*
X16101253Y-17052150D01*
X16101253Y-17052150D02*
X16072682Y-17052150D01*
X16072682Y-17052150D02*
X16053634Y-17061674D01*
X16053634Y-17061674D02*
X16044110Y-17071198D01*
X16253634Y-17185484D02*
X16234587Y-17175960D01*
X16234587Y-17175960D02*
X16225063Y-17166436D01*
X16225063Y-17166436D02*
X16215539Y-17147389D01*
X16215539Y-17147389D02*
X16215539Y-17090246D01*
X16215539Y-17090246D02*
X16225063Y-17071198D01*
X16225063Y-17071198D02*
X16234587Y-17061674D01*
X16234587Y-17061674D02*
X16253634Y-17052150D01*
X16253634Y-17052150D02*
X16282206Y-17052150D01*
X16282206Y-17052150D02*
X16301253Y-17061674D01*
X16301253Y-17061674D02*
X16310777Y-17071198D01*
X16310777Y-17071198D02*
X16320301Y-17090246D01*
X16320301Y-17090246D02*
X16320301Y-17147389D01*
X16320301Y-17147389D02*
X16310777Y-17166436D01*
X16310777Y-17166436D02*
X16301253Y-17175960D01*
X16301253Y-17175960D02*
X16282206Y-17185484D01*
X16282206Y-17185484D02*
X16253634Y-17185484D01*
X16434587Y-17185484D02*
X16415539Y-17175960D01*
X16415539Y-17175960D02*
X16406015Y-17156912D01*
X16406015Y-17156912D02*
X16406015Y-16985484D01*
X16586968Y-17175960D02*
X16567920Y-17185484D01*
X16567920Y-17185484D02*
X16529825Y-17185484D01*
X16529825Y-17185484D02*
X16510777Y-17175960D01*
X16510777Y-17175960D02*
X16501253Y-17156912D01*
X16501253Y-17156912D02*
X16501253Y-17080722D01*
X16501253Y-17080722D02*
X16510777Y-17061674D01*
X16510777Y-17061674D02*
X16529825Y-17052150D01*
X16529825Y-17052150D02*
X16567920Y-17052150D01*
X16567920Y-17052150D02*
X16586968Y-17061674D01*
X16586968Y-17061674D02*
X16596491Y-17080722D01*
X16596491Y-17080722D02*
X16596491Y-17099770D01*
X16596491Y-17099770D02*
X16501253Y-17118817D01*
X16672682Y-17175960D02*
X16691730Y-17185484D01*
X16691730Y-17185484D02*
X16729825Y-17185484D01*
X16729825Y-17185484D02*
X16748872Y-17175960D01*
X16748872Y-17175960D02*
X16758396Y-17156912D01*
X16758396Y-17156912D02*
X16758396Y-17147389D01*
X16758396Y-17147389D02*
X16748872Y-17128341D01*
X16748872Y-17128341D02*
X16729825Y-17118817D01*
X16729825Y-17118817D02*
X16701253Y-17118817D01*
X16701253Y-17118817D02*
X16682206Y-17109293D01*
X16682206Y-17109293D02*
X16672682Y-17090246D01*
X16672682Y-17090246D02*
X16672682Y-17080722D01*
X16672682Y-17080722D02*
X16682206Y-17061674D01*
X16682206Y-17061674D02*
X16701253Y-17052150D01*
X16701253Y-17052150D02*
X16729825Y-17052150D01*
X16729825Y-17052150D02*
X16748872Y-17061674D01*
X16825063Y-17261674D02*
X16834587Y-17252150D01*
X16834587Y-17252150D02*
X16853634Y-17223579D01*
X16853634Y-17223579D02*
X16863158Y-17204531D01*
X16863158Y-17204531D02*
X16872682Y-17175960D01*
X16872682Y-17175960D02*
X16882206Y-17128341D01*
X16882206Y-17128341D02*
X16882206Y-17090246D01*
X16882206Y-17090246D02*
X16872682Y-17042627D01*
X16872682Y-17042627D02*
X16863158Y-17014055D01*
X16863158Y-17014055D02*
X16853634Y-16995008D01*
X16853634Y-16995008D02*
X16834587Y-16966436D01*
X16834587Y-16966436D02*
X16825063Y-16956912D01*
D13*
X12000000Y-17308000D02*
X12000000Y-17408000D01*
X11950000Y-17358000D02*
X12050000Y-17358000D01*
D10*
X12415539Y-17449484D02*
X12301253Y-17449484D01*
X12358396Y-17449484D02*
X12358396Y-17249484D01*
X12358396Y-17249484D02*
X12339348Y-17278055D01*
X12339348Y-17278055D02*
X12320301Y-17297103D01*
X12320301Y-17297103D02*
X12301253Y-17306627D01*
X12501253Y-17430436D02*
X12510777Y-17439960D01*
X12510777Y-17439960D02*
X12501253Y-17449484D01*
X12501253Y-17449484D02*
X12491729Y-17439960D01*
X12491729Y-17439960D02*
X12501253Y-17430436D01*
X12501253Y-17430436D02*
X12501253Y-17449484D01*
X12634586Y-17249484D02*
X12653634Y-17249484D01*
X12653634Y-17249484D02*
X12672682Y-17259008D01*
X12672682Y-17259008D02*
X12682205Y-17268531D01*
X12682205Y-17268531D02*
X12691729Y-17287579D01*
X12691729Y-17287579D02*
X12701253Y-17325674D01*
X12701253Y-17325674D02*
X12701253Y-17373293D01*
X12701253Y-17373293D02*
X12691729Y-17411389D01*
X12691729Y-17411389D02*
X12682205Y-17430436D01*
X12682205Y-17430436D02*
X12672682Y-17439960D01*
X12672682Y-17439960D02*
X12653634Y-17449484D01*
X12653634Y-17449484D02*
X12634586Y-17449484D01*
X12634586Y-17449484D02*
X12615539Y-17439960D01*
X12615539Y-17439960D02*
X12606015Y-17430436D01*
X12606015Y-17430436D02*
X12596491Y-17411389D01*
X12596491Y-17411389D02*
X12586967Y-17373293D01*
X12586967Y-17373293D02*
X12586967Y-17325674D01*
X12586967Y-17325674D02*
X12596491Y-17287579D01*
X12596491Y-17287579D02*
X12606015Y-17268531D01*
X12606015Y-17268531D02*
X12615539Y-17259008D01*
X12615539Y-17259008D02*
X12634586Y-17249484D01*
X12825062Y-17249484D02*
X12844110Y-17249484D01*
X12844110Y-17249484D02*
X12863158Y-17259008D01*
X12863158Y-17259008D02*
X12872682Y-17268531D01*
X12872682Y-17268531D02*
X12882205Y-17287579D01*
X12882205Y-17287579D02*
X12891729Y-17325674D01*
X12891729Y-17325674D02*
X12891729Y-17373293D01*
X12891729Y-17373293D02*
X12882205Y-17411389D01*
X12882205Y-17411389D02*
X12872682Y-17430436D01*
X12872682Y-17430436D02*
X12863158Y-17439960D01*
X12863158Y-17439960D02*
X12844110Y-17449484D01*
X12844110Y-17449484D02*
X12825062Y-17449484D01*
X12825062Y-17449484D02*
X12806015Y-17439960D01*
X12806015Y-17439960D02*
X12796491Y-17430436D01*
X12796491Y-17430436D02*
X12786967Y-17411389D01*
X12786967Y-17411389D02*
X12777443Y-17373293D01*
X12777443Y-17373293D02*
X12777443Y-17325674D01*
X12777443Y-17325674D02*
X12786967Y-17287579D01*
X12786967Y-17287579D02*
X12796491Y-17268531D01*
X12796491Y-17268531D02*
X12806015Y-17259008D01*
X12806015Y-17259008D02*
X12825062Y-17249484D01*
X13015539Y-17249484D02*
X13034586Y-17249484D01*
X13034586Y-17249484D02*
X13053634Y-17259008D01*
X13053634Y-17259008D02*
X13063158Y-17268531D01*
X13063158Y-17268531D02*
X13072682Y-17287579D01*
X13072682Y-17287579D02*
X13082205Y-17325674D01*
X13082205Y-17325674D02*
X13082205Y-17373293D01*
X13082205Y-17373293D02*
X13072682Y-17411389D01*
X13072682Y-17411389D02*
X13063158Y-17430436D01*
X13063158Y-17430436D02*
X13053634Y-17439960D01*
X13053634Y-17439960D02*
X13034586Y-17449484D01*
X13034586Y-17449484D02*
X13015539Y-17449484D01*
X13015539Y-17449484D02*
X12996491Y-17439960D01*
X12996491Y-17439960D02*
X12986967Y-17430436D01*
X12986967Y-17430436D02*
X12977443Y-17411389D01*
X12977443Y-17411389D02*
X12967920Y-17373293D01*
X12967920Y-17373293D02*
X12967920Y-17325674D01*
X12967920Y-17325674D02*
X12977443Y-17287579D01*
X12977443Y-17287579D02*
X12986967Y-17268531D01*
X12986967Y-17268531D02*
X12996491Y-17259008D01*
X12996491Y-17259008D02*
X13015539Y-17249484D01*
X13167920Y-17449484D02*
X13167920Y-17316150D01*
X13167920Y-17335198D02*
X13177443Y-17325674D01*
X13177443Y-17325674D02*
X13196491Y-17316150D01*
X13196491Y-17316150D02*
X13225063Y-17316150D01*
X13225063Y-17316150D02*
X13244110Y-17325674D01*
X13244110Y-17325674D02*
X13253634Y-17344722D01*
X13253634Y-17344722D02*
X13253634Y-17449484D01*
X13253634Y-17344722D02*
X13263158Y-17325674D01*
X13263158Y-17325674D02*
X13282205Y-17316150D01*
X13282205Y-17316150D02*
X13310777Y-17316150D01*
X13310777Y-17316150D02*
X13329824Y-17325674D01*
X13329824Y-17325674D02*
X13339348Y-17344722D01*
X13339348Y-17344722D02*
X13339348Y-17449484D01*
X13434586Y-17449484D02*
X13434586Y-17316150D01*
X13434586Y-17335198D02*
X13444110Y-17325674D01*
X13444110Y-17325674D02*
X13463158Y-17316150D01*
X13463158Y-17316150D02*
X13491729Y-17316150D01*
X13491729Y-17316150D02*
X13510777Y-17325674D01*
X13510777Y-17325674D02*
X13520301Y-17344722D01*
X13520301Y-17344722D02*
X13520301Y-17449484D01*
X13520301Y-17344722D02*
X13529824Y-17325674D01*
X13529824Y-17325674D02*
X13548872Y-17316150D01*
X13548872Y-17316150D02*
X13577443Y-17316150D01*
X13577443Y-17316150D02*
X13596491Y-17325674D01*
X13596491Y-17325674D02*
X13606015Y-17344722D01*
X13606015Y-17344722D02*
X13606015Y-17449484D01*
X13996491Y-17239960D02*
X13825063Y-17497103D01*
X14253634Y-17249484D02*
X14272682Y-17249484D01*
X14272682Y-17249484D02*
X14291729Y-17259008D01*
X14291729Y-17259008D02*
X14301253Y-17268531D01*
X14301253Y-17268531D02*
X14310777Y-17287579D01*
X14310777Y-17287579D02*
X14320301Y-17325674D01*
X14320301Y-17325674D02*
X14320301Y-17373293D01*
X14320301Y-17373293D02*
X14310777Y-17411389D01*
X14310777Y-17411389D02*
X14301253Y-17430436D01*
X14301253Y-17430436D02*
X14291729Y-17439960D01*
X14291729Y-17439960D02*
X14272682Y-17449484D01*
X14272682Y-17449484D02*
X14253634Y-17449484D01*
X14253634Y-17449484D02*
X14234586Y-17439960D01*
X14234586Y-17439960D02*
X14225063Y-17430436D01*
X14225063Y-17430436D02*
X14215539Y-17411389D01*
X14215539Y-17411389D02*
X14206015Y-17373293D01*
X14206015Y-17373293D02*
X14206015Y-17325674D01*
X14206015Y-17325674D02*
X14215539Y-17287579D01*
X14215539Y-17287579D02*
X14225063Y-17268531D01*
X14225063Y-17268531D02*
X14234586Y-17259008D01*
X14234586Y-17259008D02*
X14253634Y-17249484D01*
X14406015Y-17430436D02*
X14415539Y-17439960D01*
X14415539Y-17439960D02*
X14406015Y-17449484D01*
X14406015Y-17449484D02*
X14396491Y-17439960D01*
X14396491Y-17439960D02*
X14406015Y-17430436D01*
X14406015Y-17430436D02*
X14406015Y-17449484D01*
X14539348Y-17249484D02*
X14558396Y-17249484D01*
X14558396Y-17249484D02*
X14577444Y-17259008D01*
X14577444Y-17259008D02*
X14586967Y-17268531D01*
X14586967Y-17268531D02*
X14596491Y-17287579D01*
X14596491Y-17287579D02*
X14606015Y-17325674D01*
X14606015Y-17325674D02*
X14606015Y-17373293D01*
X14606015Y-17373293D02*
X14596491Y-17411389D01*
X14596491Y-17411389D02*
X14586967Y-17430436D01*
X14586967Y-17430436D02*
X14577444Y-17439960D01*
X14577444Y-17439960D02*
X14558396Y-17449484D01*
X14558396Y-17449484D02*
X14539348Y-17449484D01*
X14539348Y-17449484D02*
X14520301Y-17439960D01*
X14520301Y-17439960D02*
X14510777Y-17430436D01*
X14510777Y-17430436D02*
X14501253Y-17411389D01*
X14501253Y-17411389D02*
X14491729Y-17373293D01*
X14491729Y-17373293D02*
X14491729Y-17325674D01*
X14491729Y-17325674D02*
X14501253Y-17287579D01*
X14501253Y-17287579D02*
X14510777Y-17268531D01*
X14510777Y-17268531D02*
X14520301Y-17259008D01*
X14520301Y-17259008D02*
X14539348Y-17249484D01*
X14672682Y-17249484D02*
X14796491Y-17249484D01*
X14796491Y-17249484D02*
X14729825Y-17325674D01*
X14729825Y-17325674D02*
X14758396Y-17325674D01*
X14758396Y-17325674D02*
X14777444Y-17335198D01*
X14777444Y-17335198D02*
X14786967Y-17344722D01*
X14786967Y-17344722D02*
X14796491Y-17363770D01*
X14796491Y-17363770D02*
X14796491Y-17411389D01*
X14796491Y-17411389D02*
X14786967Y-17430436D01*
X14786967Y-17430436D02*
X14777444Y-17439960D01*
X14777444Y-17439960D02*
X14758396Y-17449484D01*
X14758396Y-17449484D02*
X14701253Y-17449484D01*
X14701253Y-17449484D02*
X14682206Y-17439960D01*
X14682206Y-17439960D02*
X14672682Y-17430436D01*
X14891729Y-17449484D02*
X14929825Y-17449484D01*
X14929825Y-17449484D02*
X14948872Y-17439960D01*
X14948872Y-17439960D02*
X14958396Y-17430436D01*
X14958396Y-17430436D02*
X14977444Y-17401865D01*
X14977444Y-17401865D02*
X14986967Y-17363770D01*
X14986967Y-17363770D02*
X14986967Y-17287579D01*
X14986967Y-17287579D02*
X14977444Y-17268531D01*
X14977444Y-17268531D02*
X14967920Y-17259008D01*
X14967920Y-17259008D02*
X14948872Y-17249484D01*
X14948872Y-17249484D02*
X14910777Y-17249484D01*
X14910777Y-17249484D02*
X14891729Y-17259008D01*
X14891729Y-17259008D02*
X14882206Y-17268531D01*
X14882206Y-17268531D02*
X14872682Y-17287579D01*
X14872682Y-17287579D02*
X14872682Y-17335198D01*
X14872682Y-17335198D02*
X14882206Y-17354246D01*
X14882206Y-17354246D02*
X14891729Y-17363770D01*
X14891729Y-17363770D02*
X14910777Y-17373293D01*
X14910777Y-17373293D02*
X14948872Y-17373293D01*
X14948872Y-17373293D02*
X14967920Y-17363770D01*
X14967920Y-17363770D02*
X14977444Y-17354246D01*
X14977444Y-17354246D02*
X14986967Y-17335198D01*
X15158396Y-17316150D02*
X15158396Y-17449484D01*
X15110777Y-17239960D02*
X15063158Y-17382817D01*
X15063158Y-17382817D02*
X15186967Y-17382817D01*
X15253634Y-17249484D02*
X15253634Y-17287579D01*
X15329825Y-17249484D02*
X15329825Y-17287579D01*
X15625063Y-17525674D02*
X15615539Y-17516150D01*
X15615539Y-17516150D02*
X15596491Y-17487579D01*
X15596491Y-17487579D02*
X15586968Y-17468531D01*
X15586968Y-17468531D02*
X15577444Y-17439960D01*
X15577444Y-17439960D02*
X15567920Y-17392341D01*
X15567920Y-17392341D02*
X15567920Y-17354246D01*
X15567920Y-17354246D02*
X15577444Y-17306627D01*
X15577444Y-17306627D02*
X15586968Y-17278055D01*
X15586968Y-17278055D02*
X15596491Y-17259008D01*
X15596491Y-17259008D02*
X15615539Y-17230436D01*
X15615539Y-17230436D02*
X15625063Y-17220912D01*
X15691729Y-17268531D02*
X15701253Y-17259008D01*
X15701253Y-17259008D02*
X15720301Y-17249484D01*
X15720301Y-17249484D02*
X15767920Y-17249484D01*
X15767920Y-17249484D02*
X15786968Y-17259008D01*
X15786968Y-17259008D02*
X15796491Y-17268531D01*
X15796491Y-17268531D02*
X15806015Y-17287579D01*
X15806015Y-17287579D02*
X15806015Y-17306627D01*
X15806015Y-17306627D02*
X15796491Y-17335198D01*
X15796491Y-17335198D02*
X15682206Y-17449484D01*
X15682206Y-17449484D02*
X15806015Y-17449484D01*
X16044110Y-17449484D02*
X16044110Y-17249484D01*
X16129825Y-17449484D02*
X16129825Y-17344722D01*
X16129825Y-17344722D02*
X16120301Y-17325674D01*
X16120301Y-17325674D02*
X16101253Y-17316150D01*
X16101253Y-17316150D02*
X16072682Y-17316150D01*
X16072682Y-17316150D02*
X16053634Y-17325674D01*
X16053634Y-17325674D02*
X16044110Y-17335198D01*
X16253634Y-17449484D02*
X16234587Y-17439960D01*
X16234587Y-17439960D02*
X16225063Y-17430436D01*
X16225063Y-17430436D02*
X16215539Y-17411389D01*
X16215539Y-17411389D02*
X16215539Y-17354246D01*
X16215539Y-17354246D02*
X16225063Y-17335198D01*
X16225063Y-17335198D02*
X16234587Y-17325674D01*
X16234587Y-17325674D02*
X16253634Y-17316150D01*
X16253634Y-17316150D02*
X16282206Y-17316150D01*
X16282206Y-17316150D02*
X16301253Y-17325674D01*
X16301253Y-17325674D02*
X16310777Y-17335198D01*
X16310777Y-17335198D02*
X16320301Y-17354246D01*
X16320301Y-17354246D02*
X16320301Y-17411389D01*
X16320301Y-17411389D02*
X16310777Y-17430436D01*
X16310777Y-17430436D02*
X16301253Y-17439960D01*
X16301253Y-17439960D02*
X16282206Y-17449484D01*
X16282206Y-17449484D02*
X16253634Y-17449484D01*
X16434587Y-17449484D02*
X16415539Y-17439960D01*
X16415539Y-17439960D02*
X16406015Y-17420912D01*
X16406015Y-17420912D02*
X16406015Y-17249484D01*
X16586968Y-17439960D02*
X16567920Y-17449484D01*
X16567920Y-17449484D02*
X16529825Y-17449484D01*
X16529825Y-17449484D02*
X16510777Y-17439960D01*
X16510777Y-17439960D02*
X16501253Y-17420912D01*
X16501253Y-17420912D02*
X16501253Y-17344722D01*
X16501253Y-17344722D02*
X16510777Y-17325674D01*
X16510777Y-17325674D02*
X16529825Y-17316150D01*
X16529825Y-17316150D02*
X16567920Y-17316150D01*
X16567920Y-17316150D02*
X16586968Y-17325674D01*
X16586968Y-17325674D02*
X16596491Y-17344722D01*
X16596491Y-17344722D02*
X16596491Y-17363770D01*
X16596491Y-17363770D02*
X16501253Y-17382817D01*
X16672682Y-17439960D02*
X16691730Y-17449484D01*
X16691730Y-17449484D02*
X16729825Y-17449484D01*
X16729825Y-17449484D02*
X16748872Y-17439960D01*
X16748872Y-17439960D02*
X16758396Y-17420912D01*
X16758396Y-17420912D02*
X16758396Y-17411389D01*
X16758396Y-17411389D02*
X16748872Y-17392341D01*
X16748872Y-17392341D02*
X16729825Y-17382817D01*
X16729825Y-17382817D02*
X16701253Y-17382817D01*
X16701253Y-17382817D02*
X16682206Y-17373293D01*
X16682206Y-17373293D02*
X16672682Y-17354246D01*
X16672682Y-17354246D02*
X16672682Y-17344722D01*
X16672682Y-17344722D02*
X16682206Y-17325674D01*
X16682206Y-17325674D02*
X16701253Y-17316150D01*
X16701253Y-17316150D02*
X16729825Y-17316150D01*
X16729825Y-17316150D02*
X16748872Y-17325674D01*
X16825063Y-17525674D02*
X16834587Y-17516150D01*
X16834587Y-17516150D02*
X16853634Y-17487579D01*
X16853634Y-17487579D02*
X16863158Y-17468531D01*
X16863158Y-17468531D02*
X16872682Y-17439960D01*
X16872682Y-17439960D02*
X16882206Y-17392341D01*
X16882206Y-17392341D02*
X16882206Y-17354246D01*
X16882206Y-17354246D02*
X16872682Y-17306627D01*
X16872682Y-17306627D02*
X16863158Y-17278055D01*
X16863158Y-17278055D02*
X16853634Y-17259008D01*
X16853634Y-17259008D02*
X16834587Y-17230436D01*
X16834587Y-17230436D02*
X16825063Y-17220912D01*
M02*
