%TF.GenerationSoftware,KiCad,Pcbnew,7.0.7*%
%TF.CreationDate,2024-01-05T06:15:33+01:00*%
%TF.ProjectId,microscope,6d696372-6f73-4636-9f70-652e6b696361,rev?*%
%TF.SameCoordinates,Original*%
%TF.FileFunction,Drillmap*%
%TF.FilePolarity,Positive*%
%FSLAX45Y45*%
G04 Gerber Fmt 4.5, Leading zero omitted, Abs format (unit mm)*
G04 Created by KiCad (PCBNEW 7.0.7) date 2024-01-05 06:15:33*
%MOMM*%
%LPD*%
G01*
G04 APERTURE LIST*
%ADD10C,0.200000*%
G04 APERTURE END LIST*
D10*
X13539410Y-6380000D02*
G75*
G03*
X13339404Y-6180000I-200010J-10D01*
G01*
X14160000Y-16180000D02*
X14160000Y-9260000D01*
X12880596Y-6180006D02*
G75*
G03*
X12680596Y-6380000I-6J-199994D01*
G01*
X13539404Y-8824059D02*
X13539404Y-6380000D01*
X13339404Y-6180000D02*
X12880596Y-6180000D01*
X12680596Y-8824059D02*
X12680596Y-6380000D01*
X14160000Y-9260000D02*
X13736798Y-9105967D01*
X13539402Y-8824059D02*
G75*
G03*
X13736798Y-9105967I299998J-1D01*
G01*
X12060000Y-16180000D02*
X14160000Y-16180000D01*
X12060000Y-9260000D02*
X12060000Y-16180000D01*
X12060000Y-9260000D02*
X12483202Y-9105967D01*
X12483202Y-9105965D02*
G75*
G03*
X12680596Y-8824059I-102602J281905D01*
G01*
X12310777Y-16501484D02*
X12310777Y-16301484D01*
X12310777Y-16301484D02*
X12358396Y-16301484D01*
X12358396Y-16301484D02*
X12386967Y-16311008D01*
X12386967Y-16311008D02*
X12406015Y-16330055D01*
X12406015Y-16330055D02*
X12415539Y-16349103D01*
X12415539Y-16349103D02*
X12425062Y-16387198D01*
X12425062Y-16387198D02*
X12425062Y-16415769D01*
X12425062Y-16415769D02*
X12415539Y-16453865D01*
X12415539Y-16453865D02*
X12406015Y-16472912D01*
X12406015Y-16472912D02*
X12386967Y-16491960D01*
X12386967Y-16491960D02*
X12358396Y-16501484D01*
X12358396Y-16501484D02*
X12310777Y-16501484D01*
X12510777Y-16501484D02*
X12510777Y-16368150D01*
X12510777Y-16406246D02*
X12520301Y-16387198D01*
X12520301Y-16387198D02*
X12529824Y-16377674D01*
X12529824Y-16377674D02*
X12548872Y-16368150D01*
X12548872Y-16368150D02*
X12567920Y-16368150D01*
X12634586Y-16501484D02*
X12634586Y-16368150D01*
X12634586Y-16301484D02*
X12625062Y-16311008D01*
X12625062Y-16311008D02*
X12634586Y-16320531D01*
X12634586Y-16320531D02*
X12644110Y-16311008D01*
X12644110Y-16311008D02*
X12634586Y-16301484D01*
X12634586Y-16301484D02*
X12634586Y-16320531D01*
X12758396Y-16501484D02*
X12739348Y-16491960D01*
X12739348Y-16491960D02*
X12729824Y-16472912D01*
X12729824Y-16472912D02*
X12729824Y-16301484D01*
X12863158Y-16501484D02*
X12844110Y-16491960D01*
X12844110Y-16491960D02*
X12834586Y-16472912D01*
X12834586Y-16472912D02*
X12834586Y-16301484D01*
X13091729Y-16501484D02*
X13091729Y-16301484D01*
X13091729Y-16301484D02*
X13158396Y-16444341D01*
X13158396Y-16444341D02*
X13225062Y-16301484D01*
X13225062Y-16301484D02*
X13225062Y-16501484D01*
X13406015Y-16501484D02*
X13406015Y-16396722D01*
X13406015Y-16396722D02*
X13396491Y-16377674D01*
X13396491Y-16377674D02*
X13377443Y-16368150D01*
X13377443Y-16368150D02*
X13339348Y-16368150D01*
X13339348Y-16368150D02*
X13320301Y-16377674D01*
X13406015Y-16491960D02*
X13386967Y-16501484D01*
X13386967Y-16501484D02*
X13339348Y-16501484D01*
X13339348Y-16501484D02*
X13320301Y-16491960D01*
X13320301Y-16491960D02*
X13310777Y-16472912D01*
X13310777Y-16472912D02*
X13310777Y-16453865D01*
X13310777Y-16453865D02*
X13320301Y-16434817D01*
X13320301Y-16434817D02*
X13339348Y-16425293D01*
X13339348Y-16425293D02*
X13386967Y-16425293D01*
X13386967Y-16425293D02*
X13406015Y-16415769D01*
X13501253Y-16368150D02*
X13501253Y-16568150D01*
X13501253Y-16377674D02*
X13520301Y-16368150D01*
X13520301Y-16368150D02*
X13558396Y-16368150D01*
X13558396Y-16368150D02*
X13577443Y-16377674D01*
X13577443Y-16377674D02*
X13586967Y-16387198D01*
X13586967Y-16387198D02*
X13596491Y-16406246D01*
X13596491Y-16406246D02*
X13596491Y-16463388D01*
X13596491Y-16463388D02*
X13586967Y-16482436D01*
X13586967Y-16482436D02*
X13577443Y-16491960D01*
X13577443Y-16491960D02*
X13558396Y-16501484D01*
X13558396Y-16501484D02*
X13520301Y-16501484D01*
X13520301Y-16501484D02*
X13501253Y-16491960D01*
X13682205Y-16482436D02*
X13691729Y-16491960D01*
X13691729Y-16491960D02*
X13682205Y-16501484D01*
X13682205Y-16501484D02*
X13672682Y-16491960D01*
X13672682Y-16491960D02*
X13682205Y-16482436D01*
X13682205Y-16482436D02*
X13682205Y-16501484D01*
X13682205Y-16377674D02*
X13691729Y-16387198D01*
X13691729Y-16387198D02*
X13682205Y-16396722D01*
X13682205Y-16396722D02*
X13672682Y-16387198D01*
X13672682Y-16387198D02*
X13682205Y-16377674D01*
X13682205Y-16377674D02*
X13682205Y-16396722D01*
M02*
