G04 #@! TF.GenerationSoftware,KiCad,Pcbnew,7.0.10*
G04 #@! TF.CreationDate,2024-03-06T15:05:53+01:00*
G04 #@! TF.ProjectId,microscope,6d696372-6f73-4636-9f70-652e6b696361,rev?*
G04 #@! TF.SameCoordinates,Original*
G04 #@! TF.FileFunction,Legend,Bot*
G04 #@! TF.FilePolarity,Positive*
%FSLAX46Y46*%
G04 Gerber Fmt 4.6, Leading zero omitted, Abs format (unit mm)*
G04 Created by KiCad (PCBNEW 7.0.10) date 2024-03-06 15:05:53*
%MOMM*%
%LPD*%
G01*
G04 APERTURE LIST*
G04 Aperture macros list*
%AMRoundRect*
0 Rectangle with rounded corners*
0 $1 Rounding radius*
0 $2 $3 $4 $5 $6 $7 $8 $9 X,Y pos of 4 corners*
0 Add a 4 corners polygon primitive as box body*
4,1,4,$2,$3,$4,$5,$6,$7,$8,$9,$2,$3,0*
0 Add four circle primitives for the rounded corners*
1,1,$1+$1,$2,$3*
1,1,$1+$1,$4,$5*
1,1,$1+$1,$6,$7*
1,1,$1+$1,$8,$9*
0 Add four rect primitives between the rounded corners*
20,1,$1+$1,$2,$3,$4,$5,0*
20,1,$1+$1,$4,$5,$6,$7,0*
20,1,$1+$1,$6,$7,$8,$9,0*
20,1,$1+$1,$8,$9,$2,$3,0*%
G04 Aperture macros list end*
%ADD10C,0.160000*%
%ADD11C,0.120000*%
%ADD12RoundRect,0.250000X0.725000X-0.600000X0.725000X0.600000X-0.725000X0.600000X-0.725000X-0.600000X0*%
%ADD13O,1.950000X1.700000*%
%ADD14R,1.600000X1.600000*%
%ADD15C,1.600000*%
%ADD16RoundRect,0.250000X0.750000X-0.600000X0.750000X0.600000X-0.750000X0.600000X-0.750000X-0.600000X0*%
%ADD17O,2.000000X1.700000*%
G04 APERTURE END LIST*
D10*
X102946066Y-119859060D02*
X102993685Y-119906680D01*
X102993685Y-119906680D02*
X103136542Y-119954299D01*
X103136542Y-119954299D02*
X103231780Y-119954299D01*
X103231780Y-119954299D02*
X103374637Y-119906680D01*
X103374637Y-119906680D02*
X103469875Y-119811441D01*
X103469875Y-119811441D02*
X103517494Y-119716203D01*
X103517494Y-119716203D02*
X103565113Y-119525727D01*
X103565113Y-119525727D02*
X103565113Y-119382870D01*
X103565113Y-119382870D02*
X103517494Y-119192394D01*
X103517494Y-119192394D02*
X103469875Y-119097156D01*
X103469875Y-119097156D02*
X103374637Y-119001918D01*
X103374637Y-119001918D02*
X103231780Y-118954299D01*
X103231780Y-118954299D02*
X103136542Y-118954299D01*
X103136542Y-118954299D02*
X102993685Y-119001918D01*
X102993685Y-119001918D02*
X102946066Y-119049537D01*
X102088923Y-119287632D02*
X102088923Y-119954299D01*
X102327018Y-118906680D02*
X102565113Y-119620965D01*
X102565113Y-119620965D02*
X101946066Y-119620965D01*
X102946066Y-126859060D02*
X102993685Y-126906680D01*
X102993685Y-126906680D02*
X103136542Y-126954299D01*
X103136542Y-126954299D02*
X103231780Y-126954299D01*
X103231780Y-126954299D02*
X103374637Y-126906680D01*
X103374637Y-126906680D02*
X103469875Y-126811441D01*
X103469875Y-126811441D02*
X103517494Y-126716203D01*
X103517494Y-126716203D02*
X103565113Y-126525727D01*
X103565113Y-126525727D02*
X103565113Y-126382870D01*
X103565113Y-126382870D02*
X103517494Y-126192394D01*
X103517494Y-126192394D02*
X103469875Y-126097156D01*
X103469875Y-126097156D02*
X103374637Y-126001918D01*
X103374637Y-126001918D02*
X103231780Y-125954299D01*
X103231780Y-125954299D02*
X103136542Y-125954299D01*
X103136542Y-125954299D02*
X102993685Y-126001918D01*
X102993685Y-126001918D02*
X102946066Y-126049537D01*
X102612732Y-125954299D02*
X101946066Y-125954299D01*
X101946066Y-125954299D02*
X102374637Y-126954299D01*
D11*
X94749759Y-121339000D02*
X95379759Y-121339000D01*
X95064759Y-121654000D02*
X95064759Y-121024000D01*
X98250000Y-122730000D02*
X98250000Y-116270000D01*
X98290000Y-122730000D02*
X98290000Y-116270000D01*
X98330000Y-122730000D02*
X98330000Y-116270000D01*
X98370000Y-122728000D02*
X98370000Y-116272000D01*
X98410000Y-122727000D02*
X98410000Y-116273000D01*
X98450000Y-122724000D02*
X98450000Y-116276000D01*
X98490000Y-118460000D02*
X98490000Y-116278000D01*
X98490000Y-122722000D02*
X98490000Y-120540000D01*
X98530000Y-118460000D02*
X98530000Y-116282000D01*
X98530000Y-122718000D02*
X98530000Y-120540000D01*
X98570000Y-118460000D02*
X98570000Y-116285000D01*
X98570000Y-122715000D02*
X98570000Y-120540000D01*
X98610000Y-118460000D02*
X98610000Y-116289000D01*
X98610000Y-122711000D02*
X98610000Y-120540000D01*
X98650000Y-118460000D02*
X98650000Y-116294000D01*
X98650000Y-122706000D02*
X98650000Y-120540000D01*
X98690000Y-118460000D02*
X98690000Y-116299000D01*
X98690000Y-122701000D02*
X98690000Y-120540000D01*
X98730000Y-118460000D02*
X98730000Y-116305000D01*
X98730000Y-122695000D02*
X98730000Y-120540000D01*
X98770000Y-118460000D02*
X98770000Y-116311000D01*
X98770000Y-122689000D02*
X98770000Y-120540000D01*
X98810000Y-118460000D02*
X98810000Y-116318000D01*
X98810000Y-122682000D02*
X98810000Y-120540000D01*
X98850000Y-118460000D02*
X98850000Y-116325000D01*
X98850000Y-122675000D02*
X98850000Y-120540000D01*
X98890000Y-118460000D02*
X98890000Y-116333000D01*
X98890000Y-122667000D02*
X98890000Y-120540000D01*
X98930000Y-118460000D02*
X98930000Y-116341000D01*
X98930000Y-122659000D02*
X98930000Y-120540000D01*
X98971000Y-118460000D02*
X98971000Y-116350000D01*
X98971000Y-122650000D02*
X98971000Y-120540000D01*
X99011000Y-118460000D02*
X99011000Y-116359000D01*
X99011000Y-122641000D02*
X99011000Y-120540000D01*
X99051000Y-118460000D02*
X99051000Y-116369000D01*
X99051000Y-122631000D02*
X99051000Y-120540000D01*
X99091000Y-118460000D02*
X99091000Y-116379000D01*
X99091000Y-122621000D02*
X99091000Y-120540000D01*
X99131000Y-118460000D02*
X99131000Y-116390000D01*
X99131000Y-122610000D02*
X99131000Y-120540000D01*
X99171000Y-118460000D02*
X99171000Y-116402000D01*
X99171000Y-122598000D02*
X99171000Y-120540000D01*
X99211000Y-118460000D02*
X99211000Y-116414000D01*
X99211000Y-122586000D02*
X99211000Y-120540000D01*
X99251000Y-118460000D02*
X99251000Y-116426000D01*
X99251000Y-122574000D02*
X99251000Y-120540000D01*
X99291000Y-118460000D02*
X99291000Y-116439000D01*
X99291000Y-122561000D02*
X99291000Y-120540000D01*
X99331000Y-118460000D02*
X99331000Y-116453000D01*
X99331000Y-122547000D02*
X99331000Y-120540000D01*
X99371000Y-118460000D02*
X99371000Y-116467000D01*
X99371000Y-122533000D02*
X99371000Y-120540000D01*
X99411000Y-118460000D02*
X99411000Y-116482000D01*
X99411000Y-122518000D02*
X99411000Y-120540000D01*
X99451000Y-118460000D02*
X99451000Y-116498000D01*
X99451000Y-122502000D02*
X99451000Y-120540000D01*
X99491000Y-118460000D02*
X99491000Y-116514000D01*
X99491000Y-122486000D02*
X99491000Y-120540000D01*
X99531000Y-118460000D02*
X99531000Y-116530000D01*
X99531000Y-122470000D02*
X99531000Y-120540000D01*
X99571000Y-118460000D02*
X99571000Y-116548000D01*
X99571000Y-122452000D02*
X99571000Y-120540000D01*
X99611000Y-118460000D02*
X99611000Y-116566000D01*
X99611000Y-122434000D02*
X99611000Y-120540000D01*
X99651000Y-118460000D02*
X99651000Y-116584000D01*
X99651000Y-122416000D02*
X99651000Y-120540000D01*
X99691000Y-118460000D02*
X99691000Y-116604000D01*
X99691000Y-122396000D02*
X99691000Y-120540000D01*
X99731000Y-118460000D02*
X99731000Y-116624000D01*
X99731000Y-122376000D02*
X99731000Y-120540000D01*
X99771000Y-118460000D02*
X99771000Y-116644000D01*
X99771000Y-122356000D02*
X99771000Y-120540000D01*
X99811000Y-118460000D02*
X99811000Y-116666000D01*
X99811000Y-122334000D02*
X99811000Y-120540000D01*
X99851000Y-118460000D02*
X99851000Y-116688000D01*
X99851000Y-122312000D02*
X99851000Y-120540000D01*
X99891000Y-118460000D02*
X99891000Y-116710000D01*
X99891000Y-122290000D02*
X99891000Y-120540000D01*
X99931000Y-118460000D02*
X99931000Y-116734000D01*
X99931000Y-122266000D02*
X99931000Y-120540000D01*
X99971000Y-118460000D02*
X99971000Y-116758000D01*
X99971000Y-122242000D02*
X99971000Y-120540000D01*
X100011000Y-118460000D02*
X100011000Y-116784000D01*
X100011000Y-122216000D02*
X100011000Y-120540000D01*
X100051000Y-118460000D02*
X100051000Y-116810000D01*
X100051000Y-122190000D02*
X100051000Y-120540000D01*
X100091000Y-118460000D02*
X100091000Y-116836000D01*
X100091000Y-122164000D02*
X100091000Y-120540000D01*
X100131000Y-118460000D02*
X100131000Y-116864000D01*
X100131000Y-122136000D02*
X100131000Y-120540000D01*
X100171000Y-118460000D02*
X100171000Y-116893000D01*
X100171000Y-122107000D02*
X100171000Y-120540000D01*
X100211000Y-118460000D02*
X100211000Y-116922000D01*
X100211000Y-122078000D02*
X100211000Y-120540000D01*
X100251000Y-118460000D02*
X100251000Y-116952000D01*
X100251000Y-122048000D02*
X100251000Y-120540000D01*
X100291000Y-118460000D02*
X100291000Y-116984000D01*
X100291000Y-122016000D02*
X100291000Y-120540000D01*
X100331000Y-118460000D02*
X100331000Y-117016000D01*
X100331000Y-121984000D02*
X100331000Y-120540000D01*
X100371000Y-118460000D02*
X100371000Y-117050000D01*
X100371000Y-121950000D02*
X100371000Y-120540000D01*
X100411000Y-118460000D02*
X100411000Y-117084000D01*
X100411000Y-121916000D02*
X100411000Y-120540000D01*
X100451000Y-118460000D02*
X100451000Y-117120000D01*
X100451000Y-121880000D02*
X100451000Y-120540000D01*
X100491000Y-118460000D02*
X100491000Y-117157000D01*
X100491000Y-121843000D02*
X100491000Y-120540000D01*
X100531000Y-118460000D02*
X100531000Y-117195000D01*
X100531000Y-121805000D02*
X100531000Y-120540000D01*
X100571000Y-121765000D02*
X100571000Y-117235000D01*
X100611000Y-121724000D02*
X100611000Y-117276000D01*
X100651000Y-121682000D02*
X100651000Y-117318000D01*
X100691000Y-121637000D02*
X100691000Y-117363000D01*
X100731000Y-121592000D02*
X100731000Y-117408000D01*
X100771000Y-121544000D02*
X100771000Y-117456000D01*
X100811000Y-121495000D02*
X100811000Y-117505000D01*
X100851000Y-121444000D02*
X100851000Y-117556000D01*
X100891000Y-121390000D02*
X100891000Y-117610000D01*
X100931000Y-121334000D02*
X100931000Y-117666000D01*
X100971000Y-121276000D02*
X100971000Y-117724000D01*
X101011000Y-121214000D02*
X101011000Y-117786000D01*
X101051000Y-121150000D02*
X101051000Y-117850000D01*
X101091000Y-121081000D02*
X101091000Y-117919000D01*
X101131000Y-121009000D02*
X101131000Y-117991000D01*
X101171000Y-120932000D02*
X101171000Y-118068000D01*
X101211000Y-120850000D02*
X101211000Y-118150000D01*
X101251000Y-120762000D02*
X101251000Y-118238000D01*
X101291000Y-120665000D02*
X101291000Y-118335000D01*
X101331000Y-120559000D02*
X101331000Y-118441000D01*
X101371000Y-120440000D02*
X101371000Y-118560000D01*
X101411000Y-120302000D02*
X101411000Y-118698000D01*
X101451000Y-120133000D02*
X101451000Y-118867000D01*
X101491000Y-119902000D02*
X101491000Y-119098000D01*
X101520000Y-119500000D02*
G75*
G03*
X94980000Y-119500000I-3270000J0D01*
G01*
X94980000Y-119500000D02*
G75*
G03*
X101520000Y-119500000I3270000J0D01*
G01*
X94749759Y-128339000D02*
X95379759Y-128339000D01*
X95064759Y-128654000D02*
X95064759Y-128024000D01*
X98250000Y-129730000D02*
X98250000Y-123270000D01*
X98290000Y-129730000D02*
X98290000Y-123270000D01*
X98330000Y-129730000D02*
X98330000Y-123270000D01*
X98370000Y-129728000D02*
X98370000Y-123272000D01*
X98410000Y-129727000D02*
X98410000Y-123273000D01*
X98450000Y-129724000D02*
X98450000Y-123276000D01*
X98490000Y-125460000D02*
X98490000Y-123278000D01*
X98490000Y-129722000D02*
X98490000Y-127540000D01*
X98530000Y-125460000D02*
X98530000Y-123282000D01*
X98530000Y-129718000D02*
X98530000Y-127540000D01*
X98570000Y-125460000D02*
X98570000Y-123285000D01*
X98570000Y-129715000D02*
X98570000Y-127540000D01*
X98610000Y-125460000D02*
X98610000Y-123289000D01*
X98610000Y-129711000D02*
X98610000Y-127540000D01*
X98650000Y-125460000D02*
X98650000Y-123294000D01*
X98650000Y-129706000D02*
X98650000Y-127540000D01*
X98690000Y-125460000D02*
X98690000Y-123299000D01*
X98690000Y-129701000D02*
X98690000Y-127540000D01*
X98730000Y-125460000D02*
X98730000Y-123305000D01*
X98730000Y-129695000D02*
X98730000Y-127540000D01*
X98770000Y-125460000D02*
X98770000Y-123311000D01*
X98770000Y-129689000D02*
X98770000Y-127540000D01*
X98810000Y-125460000D02*
X98810000Y-123318000D01*
X98810000Y-129682000D02*
X98810000Y-127540000D01*
X98850000Y-125460000D02*
X98850000Y-123325000D01*
X98850000Y-129675000D02*
X98850000Y-127540000D01*
X98890000Y-125460000D02*
X98890000Y-123333000D01*
X98890000Y-129667000D02*
X98890000Y-127540000D01*
X98930000Y-125460000D02*
X98930000Y-123341000D01*
X98930000Y-129659000D02*
X98930000Y-127540000D01*
X98971000Y-125460000D02*
X98971000Y-123350000D01*
X98971000Y-129650000D02*
X98971000Y-127540000D01*
X99011000Y-125460000D02*
X99011000Y-123359000D01*
X99011000Y-129641000D02*
X99011000Y-127540000D01*
X99051000Y-125460000D02*
X99051000Y-123369000D01*
X99051000Y-129631000D02*
X99051000Y-127540000D01*
X99091000Y-125460000D02*
X99091000Y-123379000D01*
X99091000Y-129621000D02*
X99091000Y-127540000D01*
X99131000Y-125460000D02*
X99131000Y-123390000D01*
X99131000Y-129610000D02*
X99131000Y-127540000D01*
X99171000Y-125460000D02*
X99171000Y-123402000D01*
X99171000Y-129598000D02*
X99171000Y-127540000D01*
X99211000Y-125460000D02*
X99211000Y-123414000D01*
X99211000Y-129586000D02*
X99211000Y-127540000D01*
X99251000Y-125460000D02*
X99251000Y-123426000D01*
X99251000Y-129574000D02*
X99251000Y-127540000D01*
X99291000Y-125460000D02*
X99291000Y-123439000D01*
X99291000Y-129561000D02*
X99291000Y-127540000D01*
X99331000Y-125460000D02*
X99331000Y-123453000D01*
X99331000Y-129547000D02*
X99331000Y-127540000D01*
X99371000Y-125460000D02*
X99371000Y-123467000D01*
X99371000Y-129533000D02*
X99371000Y-127540000D01*
X99411000Y-125460000D02*
X99411000Y-123482000D01*
X99411000Y-129518000D02*
X99411000Y-127540000D01*
X99451000Y-125460000D02*
X99451000Y-123498000D01*
X99451000Y-129502000D02*
X99451000Y-127540000D01*
X99491000Y-125460000D02*
X99491000Y-123514000D01*
X99491000Y-129486000D02*
X99491000Y-127540000D01*
X99531000Y-125460000D02*
X99531000Y-123530000D01*
X99531000Y-129470000D02*
X99531000Y-127540000D01*
X99571000Y-125460000D02*
X99571000Y-123548000D01*
X99571000Y-129452000D02*
X99571000Y-127540000D01*
X99611000Y-125460000D02*
X99611000Y-123566000D01*
X99611000Y-129434000D02*
X99611000Y-127540000D01*
X99651000Y-125460000D02*
X99651000Y-123584000D01*
X99651000Y-129416000D02*
X99651000Y-127540000D01*
X99691000Y-125460000D02*
X99691000Y-123604000D01*
X99691000Y-129396000D02*
X99691000Y-127540000D01*
X99731000Y-125460000D02*
X99731000Y-123624000D01*
X99731000Y-129376000D02*
X99731000Y-127540000D01*
X99771000Y-125460000D02*
X99771000Y-123644000D01*
X99771000Y-129356000D02*
X99771000Y-127540000D01*
X99811000Y-125460000D02*
X99811000Y-123666000D01*
X99811000Y-129334000D02*
X99811000Y-127540000D01*
X99851000Y-125460000D02*
X99851000Y-123688000D01*
X99851000Y-129312000D02*
X99851000Y-127540000D01*
X99891000Y-125460000D02*
X99891000Y-123710000D01*
X99891000Y-129290000D02*
X99891000Y-127540000D01*
X99931000Y-125460000D02*
X99931000Y-123734000D01*
X99931000Y-129266000D02*
X99931000Y-127540000D01*
X99971000Y-125460000D02*
X99971000Y-123758000D01*
X99971000Y-129242000D02*
X99971000Y-127540000D01*
X100011000Y-125460000D02*
X100011000Y-123784000D01*
X100011000Y-129216000D02*
X100011000Y-127540000D01*
X100051000Y-125460000D02*
X100051000Y-123810000D01*
X100051000Y-129190000D02*
X100051000Y-127540000D01*
X100091000Y-125460000D02*
X100091000Y-123836000D01*
X100091000Y-129164000D02*
X100091000Y-127540000D01*
X100131000Y-125460000D02*
X100131000Y-123864000D01*
X100131000Y-129136000D02*
X100131000Y-127540000D01*
X100171000Y-125460000D02*
X100171000Y-123893000D01*
X100171000Y-129107000D02*
X100171000Y-127540000D01*
X100211000Y-125460000D02*
X100211000Y-123922000D01*
X100211000Y-129078000D02*
X100211000Y-127540000D01*
X100251000Y-125460000D02*
X100251000Y-123952000D01*
X100251000Y-129048000D02*
X100251000Y-127540000D01*
X100291000Y-125460000D02*
X100291000Y-123984000D01*
X100291000Y-129016000D02*
X100291000Y-127540000D01*
X100331000Y-125460000D02*
X100331000Y-124016000D01*
X100331000Y-128984000D02*
X100331000Y-127540000D01*
X100371000Y-125460000D02*
X100371000Y-124050000D01*
X100371000Y-128950000D02*
X100371000Y-127540000D01*
X100411000Y-125460000D02*
X100411000Y-124084000D01*
X100411000Y-128916000D02*
X100411000Y-127540000D01*
X100451000Y-125460000D02*
X100451000Y-124120000D01*
X100451000Y-128880000D02*
X100451000Y-127540000D01*
X100491000Y-125460000D02*
X100491000Y-124157000D01*
X100491000Y-128843000D02*
X100491000Y-127540000D01*
X100531000Y-125460000D02*
X100531000Y-124195000D01*
X100531000Y-128805000D02*
X100531000Y-127540000D01*
X100571000Y-128765000D02*
X100571000Y-124235000D01*
X100611000Y-128724000D02*
X100611000Y-124276000D01*
X100651000Y-128682000D02*
X100651000Y-124318000D01*
X100691000Y-128637000D02*
X100691000Y-124363000D01*
X100731000Y-128592000D02*
X100731000Y-124408000D01*
X100771000Y-128544000D02*
X100771000Y-124456000D01*
X100811000Y-128495000D02*
X100811000Y-124505000D01*
X100851000Y-128444000D02*
X100851000Y-124556000D01*
X100891000Y-128390000D02*
X100891000Y-124610000D01*
X100931000Y-128334000D02*
X100931000Y-124666000D01*
X100971000Y-128276000D02*
X100971000Y-124724000D01*
X101011000Y-128214000D02*
X101011000Y-124786000D01*
X101051000Y-128150000D02*
X101051000Y-124850000D01*
X101091000Y-128081000D02*
X101091000Y-124919000D01*
X101131000Y-128009000D02*
X101131000Y-124991000D01*
X101171000Y-127932000D02*
X101171000Y-125068000D01*
X101211000Y-127850000D02*
X101211000Y-125150000D01*
X101251000Y-127762000D02*
X101251000Y-125238000D01*
X101291000Y-127665000D02*
X101291000Y-125335000D01*
X101331000Y-127559000D02*
X101331000Y-125441000D01*
X101371000Y-127440000D02*
X101371000Y-125560000D01*
X101411000Y-127302000D02*
X101411000Y-125698000D01*
X101451000Y-127133000D02*
X101451000Y-125867000D01*
X101491000Y-126902000D02*
X101491000Y-126098000D01*
X101520000Y-126500000D02*
G75*
G03*
X94980000Y-126500000I-3270000J0D01*
G01*
X94980000Y-126500000D02*
G75*
G03*
X101520000Y-126500000I3270000J0D01*
G01*
%LPC*%
D12*
X100000000Y-106500000D03*
D13*
X100000000Y-104000000D03*
X100000000Y-101500000D03*
D14*
X97000000Y-119500000D03*
D15*
X99500000Y-119500000D03*
D14*
X97000000Y-126500000D03*
D15*
X99500000Y-126500000D03*
D16*
X100000000Y-95500000D03*
D17*
X100000000Y-93000000D03*
%LPD*%
M02*
