G04 #@! TF.GenerationSoftware,KiCad,Pcbnew,7.0.7*
G04 #@! TF.CreationDate,2024-01-05T06:13:14+01:00*
G04 #@! TF.ProjectId,microscope,6d696372-6f73-4636-9f70-652e6b696361,rev?*
G04 #@! TF.SameCoordinates,Original*
G04 #@! TF.FileFunction,Legend,Top*
G04 #@! TF.FilePolarity,Positive*
%FSLAX46Y46*%
G04 Gerber Fmt 4.6, Leading zero omitted, Abs format (unit mm)*
G04 Created by KiCad (PCBNEW 7.0.7) date 2024-01-05 06:13:14*
%MOMM*%
%LPD*%
G01*
G04 APERTURE LIST*
G04 Aperture macros list*
%AMRoundRect*
0 Rectangle with rounded corners*
0 $1 Rounding radius*
0 $2 $3 $4 $5 $6 $7 $8 $9 X,Y pos of 4 corners*
0 Add a 4 corners polygon primitive as box body*
4,1,4,$2,$3,$4,$5,$6,$7,$8,$9,$2,$3,0*
0 Add four circle primitives for the rounded corners*
1,1,$1+$1,$2,$3*
1,1,$1+$1,$4,$5*
1,1,$1+$1,$6,$7*
1,1,$1+$1,$8,$9*
0 Add four rect primitives between the rounded corners*
20,1,$1+$1,$2,$3,$4,$5,0*
20,1,$1+$1,$4,$5,$6,$7,0*
20,1,$1+$1,$6,$7,$8,$9,0*
20,1,$1+$1,$8,$9,$2,$3,0*%
G04 Aperture macros list end*
%ADD10C,0.150000*%
%ADD11C,0.120000*%
%ADD12C,0.127000*%
%ADD13RoundRect,0.250000X0.725000X-0.600000X0.725000X0.600000X-0.725000X0.600000X-0.725000X-0.600000X0*%
%ADD14O,1.950000X1.700000*%
%ADD15RoundRect,0.100000X-0.100000X0.130000X-0.100000X-0.130000X0.100000X-0.130000X0.100000X0.130000X0*%
%ADD16RoundRect,0.250000X0.750000X-0.600000X0.750000X0.600000X-0.750000X0.600000X-0.750000X-0.600000X0*%
%ADD17O,2.000000X1.700000*%
%ADD18RoundRect,0.250000X0.312500X0.625000X-0.312500X0.625000X-0.312500X-0.625000X0.312500X-0.625000X0*%
%ADD19R,2.200000X2.200000*%
%ADD20R,1.250000X2.200000*%
%ADD21RoundRect,0.250000X0.250000X0.475000X-0.250000X0.475000X-0.250000X-0.475000X0.250000X-0.475000X0*%
%ADD22RoundRect,0.135000X0.135000X0.185000X-0.135000X0.185000X-0.135000X-0.185000X0.135000X-0.185000X0*%
%ADD23RoundRect,0.225000X0.250000X-0.225000X0.250000X0.225000X-0.250000X0.225000X-0.250000X-0.225000X0*%
%ADD24RoundRect,0.100000X0.130000X0.100000X-0.130000X0.100000X-0.130000X-0.100000X0.130000X-0.100000X0*%
%ADD25RoundRect,0.193000X-0.364000X0.864000X-0.364000X-0.864000X0.364000X-0.864000X0.364000X0.864000X0*%
%ADD26RoundRect,0.150000X-0.150000X0.825000X-0.150000X-0.825000X0.150000X-0.825000X0.150000X0.825000X0*%
%ADD27RoundRect,0.144000X0.258000X-0.943000X0.258000X0.943000X-0.258000X0.943000X-0.258000X-0.943000X0*%
%ADD28RoundRect,0.135000X-0.185000X0.135000X-0.185000X-0.135000X0.185000X-0.135000X0.185000X0.135000X0*%
%ADD29RoundRect,0.150000X0.150000X-0.587500X0.150000X0.587500X-0.150000X0.587500X-0.150000X-0.587500X0*%
%ADD30RoundRect,0.135000X-0.135000X-0.185000X0.135000X-0.185000X0.135000X0.185000X-0.135000X0.185000X0*%
%ADD31RoundRect,0.150000X-0.150000X0.587500X-0.150000X-0.587500X0.150000X-0.587500X0.150000X0.587500X0*%
G04 APERTURE END LIST*
D10*
X126402450Y-135779541D02*
X127116735Y-135779541D01*
X127116735Y-135779541D02*
X127259592Y-135827160D01*
X127259592Y-135827160D02*
X127354831Y-135922398D01*
X127354831Y-135922398D02*
X127402450Y-136065255D01*
X127402450Y-136065255D02*
X127402450Y-136160493D01*
X126402450Y-135398588D02*
X126402450Y-134779541D01*
X126402450Y-134779541D02*
X126783402Y-135112874D01*
X126783402Y-135112874D02*
X126783402Y-134970017D01*
X126783402Y-134970017D02*
X126831021Y-134874779D01*
X126831021Y-134874779D02*
X126878640Y-134827160D01*
X126878640Y-134827160D02*
X126973878Y-134779541D01*
X126973878Y-134779541D02*
X127211973Y-134779541D01*
X127211973Y-134779541D02*
X127307211Y-134827160D01*
X127307211Y-134827160D02*
X127354831Y-134874779D01*
X127354831Y-134874779D02*
X127402450Y-134970017D01*
X127402450Y-134970017D02*
X127402450Y-135255731D01*
X127402450Y-135255731D02*
X127354831Y-135350969D01*
X127354831Y-135350969D02*
X127307211Y-135398588D01*
X129544819Y-99409166D02*
X129068628Y-99742499D01*
X129544819Y-99980594D02*
X128544819Y-99980594D01*
X128544819Y-99980594D02*
X128544819Y-99599642D01*
X128544819Y-99599642D02*
X128592438Y-99504404D01*
X128592438Y-99504404D02*
X128640057Y-99456785D01*
X128640057Y-99456785D02*
X128735295Y-99409166D01*
X128735295Y-99409166D02*
X128878152Y-99409166D01*
X128878152Y-99409166D02*
X128973390Y-99456785D01*
X128973390Y-99456785D02*
X129021009Y-99504404D01*
X129021009Y-99504404D02*
X129068628Y-99599642D01*
X129068628Y-99599642D02*
X129068628Y-99980594D01*
X129544819Y-98456785D02*
X129544819Y-99028213D01*
X129544819Y-98742499D02*
X128544819Y-98742499D01*
X128544819Y-98742499D02*
X128687676Y-98837737D01*
X128687676Y-98837737D02*
X128782914Y-98932975D01*
X128782914Y-98932975D02*
X128830533Y-99028213D01*
X126402450Y-125179541D02*
X127116735Y-125179541D01*
X127116735Y-125179541D02*
X127259592Y-125227160D01*
X127259592Y-125227160D02*
X127354831Y-125322398D01*
X127354831Y-125322398D02*
X127402450Y-125465255D01*
X127402450Y-125465255D02*
X127402450Y-125560493D01*
X127402450Y-124179541D02*
X127402450Y-124750969D01*
X127402450Y-124465255D02*
X126402450Y-124465255D01*
X126402450Y-124465255D02*
X126545307Y-124560493D01*
X126545307Y-124560493D02*
X126640545Y-124655731D01*
X126640545Y-124655731D02*
X126688164Y-124750969D01*
X129373333Y-104037319D02*
X129040000Y-103561128D01*
X128801905Y-104037319D02*
X128801905Y-103037319D01*
X128801905Y-103037319D02*
X129182857Y-103037319D01*
X129182857Y-103037319D02*
X129278095Y-103084938D01*
X129278095Y-103084938D02*
X129325714Y-103132557D01*
X129325714Y-103132557D02*
X129373333Y-103227795D01*
X129373333Y-103227795D02*
X129373333Y-103370652D01*
X129373333Y-103370652D02*
X129325714Y-103465890D01*
X129325714Y-103465890D02*
X129278095Y-103513509D01*
X129278095Y-103513509D02*
X129182857Y-103561128D01*
X129182857Y-103561128D02*
X128801905Y-103561128D01*
X129754286Y-103132557D02*
X129801905Y-103084938D01*
X129801905Y-103084938D02*
X129897143Y-103037319D01*
X129897143Y-103037319D02*
X130135238Y-103037319D01*
X130135238Y-103037319D02*
X130230476Y-103084938D01*
X130230476Y-103084938D02*
X130278095Y-103132557D01*
X130278095Y-103132557D02*
X130325714Y-103227795D01*
X130325714Y-103227795D02*
X130325714Y-103323033D01*
X130325714Y-103323033D02*
X130278095Y-103465890D01*
X130278095Y-103465890D02*
X129706667Y-104037319D01*
X129706667Y-104037319D02*
X130325714Y-104037319D01*
X130361905Y-68654819D02*
X130361905Y-67654819D01*
X130361905Y-67654819D02*
X130600000Y-67654819D01*
X130600000Y-67654819D02*
X130742857Y-67702438D01*
X130742857Y-67702438D02*
X130838095Y-67797676D01*
X130838095Y-67797676D02*
X130885714Y-67892914D01*
X130885714Y-67892914D02*
X130933333Y-68083390D01*
X130933333Y-68083390D02*
X130933333Y-68226247D01*
X130933333Y-68226247D02*
X130885714Y-68416723D01*
X130885714Y-68416723D02*
X130838095Y-68511961D01*
X130838095Y-68511961D02*
X130742857Y-68607200D01*
X130742857Y-68607200D02*
X130600000Y-68654819D01*
X130600000Y-68654819D02*
X130361905Y-68654819D01*
X131885714Y-68654819D02*
X131314286Y-68654819D01*
X131600000Y-68654819D02*
X131600000Y-67654819D01*
X131600000Y-67654819D02*
X131504762Y-67797676D01*
X131504762Y-67797676D02*
X131409524Y-67892914D01*
X131409524Y-67892914D02*
X131314286Y-67940533D01*
X137133333Y-116322080D02*
X137085714Y-116369700D01*
X137085714Y-116369700D02*
X136942857Y-116417319D01*
X136942857Y-116417319D02*
X136847619Y-116417319D01*
X136847619Y-116417319D02*
X136704762Y-116369700D01*
X136704762Y-116369700D02*
X136609524Y-116274461D01*
X136609524Y-116274461D02*
X136561905Y-116179223D01*
X136561905Y-116179223D02*
X136514286Y-115988747D01*
X136514286Y-115988747D02*
X136514286Y-115845890D01*
X136514286Y-115845890D02*
X136561905Y-115655414D01*
X136561905Y-115655414D02*
X136609524Y-115560176D01*
X136609524Y-115560176D02*
X136704762Y-115464938D01*
X136704762Y-115464938D02*
X136847619Y-115417319D01*
X136847619Y-115417319D02*
X136942857Y-115417319D01*
X136942857Y-115417319D02*
X137085714Y-115464938D01*
X137085714Y-115464938D02*
X137133333Y-115512557D01*
X137990476Y-115750652D02*
X137990476Y-116417319D01*
X137752381Y-115369700D02*
X137514286Y-116083985D01*
X137514286Y-116083985D02*
X138133333Y-116083985D01*
X126230964Y-139571027D02*
X125897631Y-139094836D01*
X125659536Y-139571027D02*
X125659536Y-138571027D01*
X125659536Y-138571027D02*
X126040488Y-138571027D01*
X126040488Y-138571027D02*
X126135726Y-138618646D01*
X126135726Y-138618646D02*
X126183345Y-138666265D01*
X126183345Y-138666265D02*
X126230964Y-138761503D01*
X126230964Y-138761503D02*
X126230964Y-138904360D01*
X126230964Y-138904360D02*
X126183345Y-138999598D01*
X126183345Y-138999598D02*
X126135726Y-139047217D01*
X126135726Y-139047217D02*
X126040488Y-139094836D01*
X126040488Y-139094836D02*
X125659536Y-139094836D01*
X126707155Y-139571027D02*
X126897631Y-139571027D01*
X126897631Y-139571027D02*
X126992869Y-139523408D01*
X126992869Y-139523408D02*
X127040488Y-139475788D01*
X127040488Y-139475788D02*
X127135726Y-139332931D01*
X127135726Y-139332931D02*
X127183345Y-139142455D01*
X127183345Y-139142455D02*
X127183345Y-138761503D01*
X127183345Y-138761503D02*
X127135726Y-138666265D01*
X127135726Y-138666265D02*
X127088107Y-138618646D01*
X127088107Y-138618646D02*
X126992869Y-138571027D01*
X126992869Y-138571027D02*
X126802393Y-138571027D01*
X126802393Y-138571027D02*
X126707155Y-138618646D01*
X126707155Y-138618646D02*
X126659536Y-138666265D01*
X126659536Y-138666265D02*
X126611917Y-138761503D01*
X126611917Y-138761503D02*
X126611917Y-138999598D01*
X126611917Y-138999598D02*
X126659536Y-139094836D01*
X126659536Y-139094836D02*
X126707155Y-139142455D01*
X126707155Y-139142455D02*
X126802393Y-139190074D01*
X126802393Y-139190074D02*
X126992869Y-139190074D01*
X126992869Y-139190074D02*
X127088107Y-139142455D01*
X127088107Y-139142455D02*
X127135726Y-139094836D01*
X127135726Y-139094836D02*
X127183345Y-138999598D01*
X136923333Y-113924819D02*
X136590000Y-113448628D01*
X136351905Y-113924819D02*
X136351905Y-112924819D01*
X136351905Y-112924819D02*
X136732857Y-112924819D01*
X136732857Y-112924819D02*
X136828095Y-112972438D01*
X136828095Y-112972438D02*
X136875714Y-113020057D01*
X136875714Y-113020057D02*
X136923333Y-113115295D01*
X136923333Y-113115295D02*
X136923333Y-113258152D01*
X136923333Y-113258152D02*
X136875714Y-113353390D01*
X136875714Y-113353390D02*
X136828095Y-113401009D01*
X136828095Y-113401009D02*
X136732857Y-113448628D01*
X136732857Y-113448628D02*
X136351905Y-113448628D01*
X137780476Y-112924819D02*
X137590000Y-112924819D01*
X137590000Y-112924819D02*
X137494762Y-112972438D01*
X137494762Y-112972438D02*
X137447143Y-113020057D01*
X137447143Y-113020057D02*
X137351905Y-113162914D01*
X137351905Y-113162914D02*
X137304286Y-113353390D01*
X137304286Y-113353390D02*
X137304286Y-113734342D01*
X137304286Y-113734342D02*
X137351905Y-113829580D01*
X137351905Y-113829580D02*
X137399524Y-113877200D01*
X137399524Y-113877200D02*
X137494762Y-113924819D01*
X137494762Y-113924819D02*
X137685238Y-113924819D01*
X137685238Y-113924819D02*
X137780476Y-113877200D01*
X137780476Y-113877200D02*
X137828095Y-113829580D01*
X137828095Y-113829580D02*
X137875714Y-113734342D01*
X137875714Y-113734342D02*
X137875714Y-113496247D01*
X137875714Y-113496247D02*
X137828095Y-113401009D01*
X137828095Y-113401009D02*
X137780476Y-113353390D01*
X137780476Y-113353390D02*
X137685238Y-113305771D01*
X137685238Y-113305771D02*
X137494762Y-113305771D01*
X137494762Y-113305771D02*
X137399524Y-113353390D01*
X137399524Y-113353390D02*
X137351905Y-113401009D01*
X137351905Y-113401009D02*
X137304286Y-113496247D01*
X130329580Y-115366666D02*
X130377200Y-115414285D01*
X130377200Y-115414285D02*
X130424819Y-115557142D01*
X130424819Y-115557142D02*
X130424819Y-115652380D01*
X130424819Y-115652380D02*
X130377200Y-115795237D01*
X130377200Y-115795237D02*
X130281961Y-115890475D01*
X130281961Y-115890475D02*
X130186723Y-115938094D01*
X130186723Y-115938094D02*
X129996247Y-115985713D01*
X129996247Y-115985713D02*
X129853390Y-115985713D01*
X129853390Y-115985713D02*
X129662914Y-115938094D01*
X129662914Y-115938094D02*
X129567676Y-115890475D01*
X129567676Y-115890475D02*
X129472438Y-115795237D01*
X129472438Y-115795237D02*
X129424819Y-115652380D01*
X129424819Y-115652380D02*
X129424819Y-115557142D01*
X129424819Y-115557142D02*
X129472438Y-115414285D01*
X129472438Y-115414285D02*
X129520057Y-115366666D01*
X130424819Y-114414285D02*
X130424819Y-114985713D01*
X130424819Y-114699999D02*
X129424819Y-114699999D01*
X129424819Y-114699999D02*
X129567676Y-114795237D01*
X129567676Y-114795237D02*
X129662914Y-114890475D01*
X129662914Y-114890475D02*
X129710533Y-114985713D01*
X125940833Y-106604819D02*
X125607500Y-106128628D01*
X125369405Y-106604819D02*
X125369405Y-105604819D01*
X125369405Y-105604819D02*
X125750357Y-105604819D01*
X125750357Y-105604819D02*
X125845595Y-105652438D01*
X125845595Y-105652438D02*
X125893214Y-105700057D01*
X125893214Y-105700057D02*
X125940833Y-105795295D01*
X125940833Y-105795295D02*
X125940833Y-105938152D01*
X125940833Y-105938152D02*
X125893214Y-106033390D01*
X125893214Y-106033390D02*
X125845595Y-106081009D01*
X125845595Y-106081009D02*
X125750357Y-106128628D01*
X125750357Y-106128628D02*
X125369405Y-106128628D01*
X126845595Y-105604819D02*
X126369405Y-105604819D01*
X126369405Y-105604819D02*
X126321786Y-106081009D01*
X126321786Y-106081009D02*
X126369405Y-106033390D01*
X126369405Y-106033390D02*
X126464643Y-105985771D01*
X126464643Y-105985771D02*
X126702738Y-105985771D01*
X126702738Y-105985771D02*
X126797976Y-106033390D01*
X126797976Y-106033390D02*
X126845595Y-106081009D01*
X126845595Y-106081009D02*
X126893214Y-106176247D01*
X126893214Y-106176247D02*
X126893214Y-106414342D01*
X126893214Y-106414342D02*
X126845595Y-106509580D01*
X126845595Y-106509580D02*
X126797976Y-106557200D01*
X126797976Y-106557200D02*
X126702738Y-106604819D01*
X126702738Y-106604819D02*
X126464643Y-106604819D01*
X126464643Y-106604819D02*
X126369405Y-106557200D01*
X126369405Y-106557200D02*
X126321786Y-106509580D01*
X132219580Y-113266666D02*
X132267200Y-113314285D01*
X132267200Y-113314285D02*
X132314819Y-113457142D01*
X132314819Y-113457142D02*
X132314819Y-113552380D01*
X132314819Y-113552380D02*
X132267200Y-113695237D01*
X132267200Y-113695237D02*
X132171961Y-113790475D01*
X132171961Y-113790475D02*
X132076723Y-113838094D01*
X132076723Y-113838094D02*
X131886247Y-113885713D01*
X131886247Y-113885713D02*
X131743390Y-113885713D01*
X131743390Y-113885713D02*
X131552914Y-113838094D01*
X131552914Y-113838094D02*
X131457676Y-113790475D01*
X131457676Y-113790475D02*
X131362438Y-113695237D01*
X131362438Y-113695237D02*
X131314819Y-113552380D01*
X131314819Y-113552380D02*
X131314819Y-113457142D01*
X131314819Y-113457142D02*
X131362438Y-113314285D01*
X131362438Y-113314285D02*
X131410057Y-113266666D01*
X131314819Y-112933332D02*
X131314819Y-112314285D01*
X131314819Y-112314285D02*
X131695771Y-112647618D01*
X131695771Y-112647618D02*
X131695771Y-112504761D01*
X131695771Y-112504761D02*
X131743390Y-112409523D01*
X131743390Y-112409523D02*
X131791009Y-112361904D01*
X131791009Y-112361904D02*
X131886247Y-112314285D01*
X131886247Y-112314285D02*
X132124342Y-112314285D01*
X132124342Y-112314285D02*
X132219580Y-112361904D01*
X132219580Y-112361904D02*
X132267200Y-112409523D01*
X132267200Y-112409523D02*
X132314819Y-112504761D01*
X132314819Y-112504761D02*
X132314819Y-112790475D01*
X132314819Y-112790475D02*
X132267200Y-112885713D01*
X132267200Y-112885713D02*
X132219580Y-112933332D01*
X141026219Y-119754827D02*
X140385088Y-119754827D01*
X140385088Y-119754827D02*
X140385088Y-119602177D01*
X140385088Y-119602177D02*
X140415618Y-119510587D01*
X140415618Y-119510587D02*
X140476678Y-119449527D01*
X140476678Y-119449527D02*
X140537738Y-119418997D01*
X140537738Y-119418997D02*
X140659858Y-119388467D01*
X140659858Y-119388467D02*
X140751448Y-119388467D01*
X140751448Y-119388467D02*
X140873568Y-119418997D01*
X140873568Y-119418997D02*
X140934628Y-119449527D01*
X140934628Y-119449527D02*
X140995689Y-119510587D01*
X140995689Y-119510587D02*
X141026219Y-119602177D01*
X141026219Y-119602177D02*
X141026219Y-119754827D01*
X140446148Y-119144226D02*
X140415618Y-119113696D01*
X140415618Y-119113696D02*
X140385088Y-119052636D01*
X140385088Y-119052636D02*
X140385088Y-118899986D01*
X140385088Y-118899986D02*
X140415618Y-118838926D01*
X140415618Y-118838926D02*
X140446148Y-118808396D01*
X140446148Y-118808396D02*
X140507208Y-118777866D01*
X140507208Y-118777866D02*
X140568268Y-118777866D01*
X140568268Y-118777866D02*
X140659858Y-118808396D01*
X140659858Y-118808396D02*
X141026219Y-119174756D01*
X141026219Y-119174756D02*
X141026219Y-118777866D01*
X134923333Y-113924819D02*
X134590000Y-113448628D01*
X134351905Y-113924819D02*
X134351905Y-112924819D01*
X134351905Y-112924819D02*
X134732857Y-112924819D01*
X134732857Y-112924819D02*
X134828095Y-112972438D01*
X134828095Y-112972438D02*
X134875714Y-113020057D01*
X134875714Y-113020057D02*
X134923333Y-113115295D01*
X134923333Y-113115295D02*
X134923333Y-113258152D01*
X134923333Y-113258152D02*
X134875714Y-113353390D01*
X134875714Y-113353390D02*
X134828095Y-113401009D01*
X134828095Y-113401009D02*
X134732857Y-113448628D01*
X134732857Y-113448628D02*
X134351905Y-113448628D01*
X135256667Y-112924819D02*
X135923333Y-112924819D01*
X135923333Y-112924819D02*
X135494762Y-113924819D01*
X139544819Y-110842856D02*
X138544819Y-110842856D01*
X138544819Y-110842856D02*
X139544819Y-110271428D01*
X139544819Y-110271428D02*
X138544819Y-110271428D01*
X139021009Y-109795237D02*
X139021009Y-109461904D01*
X139544819Y-109319047D02*
X139544819Y-109795237D01*
X139544819Y-109795237D02*
X138544819Y-109795237D01*
X138544819Y-109795237D02*
X138544819Y-109319047D01*
X138544819Y-108414285D02*
X138544819Y-108890475D01*
X138544819Y-108890475D02*
X139021009Y-108938094D01*
X139021009Y-108938094D02*
X138973390Y-108890475D01*
X138973390Y-108890475D02*
X138925771Y-108795237D01*
X138925771Y-108795237D02*
X138925771Y-108557142D01*
X138925771Y-108557142D02*
X138973390Y-108461904D01*
X138973390Y-108461904D02*
X139021009Y-108414285D01*
X139021009Y-108414285D02*
X139116247Y-108366666D01*
X139116247Y-108366666D02*
X139354342Y-108366666D01*
X139354342Y-108366666D02*
X139449580Y-108414285D01*
X139449580Y-108414285D02*
X139497200Y-108461904D01*
X139497200Y-108461904D02*
X139544819Y-108557142D01*
X139544819Y-108557142D02*
X139544819Y-108795237D01*
X139544819Y-108795237D02*
X139497200Y-108890475D01*
X139497200Y-108890475D02*
X139449580Y-108938094D01*
X138544819Y-107461904D02*
X138544819Y-107938094D01*
X138544819Y-107938094D02*
X139021009Y-107985713D01*
X139021009Y-107985713D02*
X138973390Y-107938094D01*
X138973390Y-107938094D02*
X138925771Y-107842856D01*
X138925771Y-107842856D02*
X138925771Y-107604761D01*
X138925771Y-107604761D02*
X138973390Y-107509523D01*
X138973390Y-107509523D02*
X139021009Y-107461904D01*
X139021009Y-107461904D02*
X139116247Y-107414285D01*
X139116247Y-107414285D02*
X139354342Y-107414285D01*
X139354342Y-107414285D02*
X139449580Y-107461904D01*
X139449580Y-107461904D02*
X139497200Y-107509523D01*
X139497200Y-107509523D02*
X139544819Y-107604761D01*
X139544819Y-107604761D02*
X139544819Y-107842856D01*
X139544819Y-107842856D02*
X139497200Y-107938094D01*
X139497200Y-107938094D02*
X139449580Y-107985713D01*
X138544819Y-106509523D02*
X138544819Y-106985713D01*
X138544819Y-106985713D02*
X139021009Y-107033332D01*
X139021009Y-107033332D02*
X138973390Y-106985713D01*
X138973390Y-106985713D02*
X138925771Y-106890475D01*
X138925771Y-106890475D02*
X138925771Y-106652380D01*
X138925771Y-106652380D02*
X138973390Y-106557142D01*
X138973390Y-106557142D02*
X139021009Y-106509523D01*
X139021009Y-106509523D02*
X139116247Y-106461904D01*
X139116247Y-106461904D02*
X139354342Y-106461904D01*
X139354342Y-106461904D02*
X139449580Y-106509523D01*
X139449580Y-106509523D02*
X139497200Y-106557142D01*
X139497200Y-106557142D02*
X139544819Y-106652380D01*
X139544819Y-106652380D02*
X139544819Y-106890475D01*
X139544819Y-106890475D02*
X139497200Y-106985713D01*
X139497200Y-106985713D02*
X139449580Y-107033332D01*
X139544819Y-106033332D02*
X138544819Y-106033332D01*
X138544819Y-106033332D02*
X138544819Y-105795237D01*
X138544819Y-105795237D02*
X138592438Y-105652380D01*
X138592438Y-105652380D02*
X138687676Y-105557142D01*
X138687676Y-105557142D02*
X138782914Y-105509523D01*
X138782914Y-105509523D02*
X138973390Y-105461904D01*
X138973390Y-105461904D02*
X139116247Y-105461904D01*
X139116247Y-105461904D02*
X139306723Y-105509523D01*
X139306723Y-105509523D02*
X139401961Y-105557142D01*
X139401961Y-105557142D02*
X139497200Y-105652380D01*
X139497200Y-105652380D02*
X139544819Y-105795237D01*
X139544819Y-105795237D02*
X139544819Y-106033332D01*
X139544819Y-104509523D02*
X139544819Y-105080951D01*
X139544819Y-104795237D02*
X138544819Y-104795237D01*
X138544819Y-104795237D02*
X138687676Y-104890475D01*
X138687676Y-104890475D02*
X138782914Y-104985713D01*
X138782914Y-104985713D02*
X138830533Y-105080951D01*
X122745319Y-113416904D02*
X123554842Y-113416904D01*
X123554842Y-113416904D02*
X123650080Y-113369285D01*
X123650080Y-113369285D02*
X123697700Y-113321666D01*
X123697700Y-113321666D02*
X123745319Y-113226428D01*
X123745319Y-113226428D02*
X123745319Y-113035952D01*
X123745319Y-113035952D02*
X123697700Y-112940714D01*
X123697700Y-112940714D02*
X123650080Y-112893095D01*
X123650080Y-112893095D02*
X123554842Y-112845476D01*
X123554842Y-112845476D02*
X122745319Y-112845476D01*
X123745319Y-111845476D02*
X123745319Y-112416904D01*
X123745319Y-112131190D02*
X122745319Y-112131190D01*
X122745319Y-112131190D02*
X122888176Y-112226428D01*
X122888176Y-112226428D02*
X122983414Y-112321666D01*
X122983414Y-112321666D02*
X123031033Y-112416904D01*
X126252319Y-105866666D02*
X125776128Y-106199999D01*
X126252319Y-106438094D02*
X125252319Y-106438094D01*
X125252319Y-106438094D02*
X125252319Y-106057142D01*
X125252319Y-106057142D02*
X125299938Y-105961904D01*
X125299938Y-105961904D02*
X125347557Y-105914285D01*
X125347557Y-105914285D02*
X125442795Y-105866666D01*
X125442795Y-105866666D02*
X125585652Y-105866666D01*
X125585652Y-105866666D02*
X125680890Y-105914285D01*
X125680890Y-105914285D02*
X125728509Y-105961904D01*
X125728509Y-105961904D02*
X125776128Y-106057142D01*
X125776128Y-106057142D02*
X125776128Y-106438094D01*
X125252319Y-105533332D02*
X125252319Y-104914285D01*
X125252319Y-104914285D02*
X125633271Y-105247618D01*
X125633271Y-105247618D02*
X125633271Y-105104761D01*
X125633271Y-105104761D02*
X125680890Y-105009523D01*
X125680890Y-105009523D02*
X125728509Y-104961904D01*
X125728509Y-104961904D02*
X125823747Y-104914285D01*
X125823747Y-104914285D02*
X126061842Y-104914285D01*
X126061842Y-104914285D02*
X126157080Y-104961904D01*
X126157080Y-104961904D02*
X126204700Y-105009523D01*
X126204700Y-105009523D02*
X126252319Y-105104761D01*
X126252319Y-105104761D02*
X126252319Y-105390475D01*
X126252319Y-105390475D02*
X126204700Y-105485713D01*
X126204700Y-105485713D02*
X126157080Y-105533332D01*
X128690057Y-98657738D02*
X128642438Y-98752976D01*
X128642438Y-98752976D02*
X128547200Y-98848214D01*
X128547200Y-98848214D02*
X128404342Y-98991071D01*
X128404342Y-98991071D02*
X128356723Y-99086309D01*
X128356723Y-99086309D02*
X128356723Y-99181547D01*
X128594819Y-99133928D02*
X128547200Y-99229166D01*
X128547200Y-99229166D02*
X128451961Y-99324404D01*
X128451961Y-99324404D02*
X128261485Y-99372023D01*
X128261485Y-99372023D02*
X127928152Y-99372023D01*
X127928152Y-99372023D02*
X127737676Y-99324404D01*
X127737676Y-99324404D02*
X127642438Y-99229166D01*
X127642438Y-99229166D02*
X127594819Y-99133928D01*
X127594819Y-99133928D02*
X127594819Y-98943452D01*
X127594819Y-98943452D02*
X127642438Y-98848214D01*
X127642438Y-98848214D02*
X127737676Y-98752976D01*
X127737676Y-98752976D02*
X127928152Y-98705357D01*
X127928152Y-98705357D02*
X128261485Y-98705357D01*
X128261485Y-98705357D02*
X128451961Y-98752976D01*
X128451961Y-98752976D02*
X128547200Y-98848214D01*
X128547200Y-98848214D02*
X128594819Y-98943452D01*
X128594819Y-98943452D02*
X128594819Y-99133928D01*
X127928152Y-97848214D02*
X128594819Y-97848214D01*
X127547200Y-98086309D02*
X128261485Y-98324404D01*
X128261485Y-98324404D02*
X128261485Y-97705357D01*
X126230964Y-132231027D02*
X125897631Y-131754836D01*
X125659536Y-132231027D02*
X125659536Y-131231027D01*
X125659536Y-131231027D02*
X126040488Y-131231027D01*
X126040488Y-131231027D02*
X126135726Y-131278646D01*
X126135726Y-131278646D02*
X126183345Y-131326265D01*
X126183345Y-131326265D02*
X126230964Y-131421503D01*
X126230964Y-131421503D02*
X126230964Y-131564360D01*
X126230964Y-131564360D02*
X126183345Y-131659598D01*
X126183345Y-131659598D02*
X126135726Y-131707217D01*
X126135726Y-131707217D02*
X126040488Y-131754836D01*
X126040488Y-131754836D02*
X125659536Y-131754836D01*
X127088107Y-131564360D02*
X127088107Y-132231027D01*
X126850012Y-131183408D02*
X126611917Y-131897693D01*
X126611917Y-131897693D02*
X127230964Y-131897693D01*
X138244580Y-109666666D02*
X138292200Y-109714285D01*
X138292200Y-109714285D02*
X138339819Y-109857142D01*
X138339819Y-109857142D02*
X138339819Y-109952380D01*
X138339819Y-109952380D02*
X138292200Y-110095237D01*
X138292200Y-110095237D02*
X138196961Y-110190475D01*
X138196961Y-110190475D02*
X138101723Y-110238094D01*
X138101723Y-110238094D02*
X137911247Y-110285713D01*
X137911247Y-110285713D02*
X137768390Y-110285713D01*
X137768390Y-110285713D02*
X137577914Y-110238094D01*
X137577914Y-110238094D02*
X137482676Y-110190475D01*
X137482676Y-110190475D02*
X137387438Y-110095237D01*
X137387438Y-110095237D02*
X137339819Y-109952380D01*
X137339819Y-109952380D02*
X137339819Y-109857142D01*
X137339819Y-109857142D02*
X137387438Y-109714285D01*
X137387438Y-109714285D02*
X137435057Y-109666666D01*
X137339819Y-108761904D02*
X137339819Y-109238094D01*
X137339819Y-109238094D02*
X137816009Y-109285713D01*
X137816009Y-109285713D02*
X137768390Y-109238094D01*
X137768390Y-109238094D02*
X137720771Y-109142856D01*
X137720771Y-109142856D02*
X137720771Y-108904761D01*
X137720771Y-108904761D02*
X137768390Y-108809523D01*
X137768390Y-108809523D02*
X137816009Y-108761904D01*
X137816009Y-108761904D02*
X137911247Y-108714285D01*
X137911247Y-108714285D02*
X138149342Y-108714285D01*
X138149342Y-108714285D02*
X138244580Y-108761904D01*
X138244580Y-108761904D02*
X138292200Y-108809523D01*
X138292200Y-108809523D02*
X138339819Y-108904761D01*
X138339819Y-108904761D02*
X138339819Y-109142856D01*
X138339819Y-109142856D02*
X138292200Y-109238094D01*
X138292200Y-109238094D02*
X138244580Y-109285713D01*
X123577557Y-102795238D02*
X123529938Y-102890476D01*
X123529938Y-102890476D02*
X123434700Y-102985714D01*
X123434700Y-102985714D02*
X123291842Y-103128571D01*
X123291842Y-103128571D02*
X123244223Y-103223809D01*
X123244223Y-103223809D02*
X123244223Y-103319047D01*
X123482319Y-103271428D02*
X123434700Y-103366666D01*
X123434700Y-103366666D02*
X123339461Y-103461904D01*
X123339461Y-103461904D02*
X123148985Y-103509523D01*
X123148985Y-103509523D02*
X122815652Y-103509523D01*
X122815652Y-103509523D02*
X122625176Y-103461904D01*
X122625176Y-103461904D02*
X122529938Y-103366666D01*
X122529938Y-103366666D02*
X122482319Y-103271428D01*
X122482319Y-103271428D02*
X122482319Y-103080952D01*
X122482319Y-103080952D02*
X122529938Y-102985714D01*
X122529938Y-102985714D02*
X122625176Y-102890476D01*
X122625176Y-102890476D02*
X122815652Y-102842857D01*
X122815652Y-102842857D02*
X123148985Y-102842857D01*
X123148985Y-102842857D02*
X123339461Y-102890476D01*
X123339461Y-102890476D02*
X123434700Y-102985714D01*
X123434700Y-102985714D02*
X123482319Y-103080952D01*
X123482319Y-103080952D02*
X123482319Y-103271428D01*
X122577557Y-102461904D02*
X122529938Y-102414285D01*
X122529938Y-102414285D02*
X122482319Y-102319047D01*
X122482319Y-102319047D02*
X122482319Y-102080952D01*
X122482319Y-102080952D02*
X122529938Y-101985714D01*
X122529938Y-101985714D02*
X122577557Y-101938095D01*
X122577557Y-101938095D02*
X122672795Y-101890476D01*
X122672795Y-101890476D02*
X122768033Y-101890476D01*
X122768033Y-101890476D02*
X122910890Y-101938095D01*
X122910890Y-101938095D02*
X123482319Y-102509523D01*
X123482319Y-102509523D02*
X123482319Y-101890476D01*
X132490057Y-105057738D02*
X132442438Y-105152976D01*
X132442438Y-105152976D02*
X132347200Y-105248214D01*
X132347200Y-105248214D02*
X132204342Y-105391071D01*
X132204342Y-105391071D02*
X132156723Y-105486309D01*
X132156723Y-105486309D02*
X132156723Y-105581547D01*
X132394819Y-105533928D02*
X132347200Y-105629166D01*
X132347200Y-105629166D02*
X132251961Y-105724404D01*
X132251961Y-105724404D02*
X132061485Y-105772023D01*
X132061485Y-105772023D02*
X131728152Y-105772023D01*
X131728152Y-105772023D02*
X131537676Y-105724404D01*
X131537676Y-105724404D02*
X131442438Y-105629166D01*
X131442438Y-105629166D02*
X131394819Y-105533928D01*
X131394819Y-105533928D02*
X131394819Y-105343452D01*
X131394819Y-105343452D02*
X131442438Y-105248214D01*
X131442438Y-105248214D02*
X131537676Y-105152976D01*
X131537676Y-105152976D02*
X131728152Y-105105357D01*
X131728152Y-105105357D02*
X132061485Y-105105357D01*
X132061485Y-105105357D02*
X132251961Y-105152976D01*
X132251961Y-105152976D02*
X132347200Y-105248214D01*
X132347200Y-105248214D02*
X132394819Y-105343452D01*
X132394819Y-105343452D02*
X132394819Y-105533928D01*
X131394819Y-104772023D02*
X131394819Y-104152976D01*
X131394819Y-104152976D02*
X131775771Y-104486309D01*
X131775771Y-104486309D02*
X131775771Y-104343452D01*
X131775771Y-104343452D02*
X131823390Y-104248214D01*
X131823390Y-104248214D02*
X131871009Y-104200595D01*
X131871009Y-104200595D02*
X131966247Y-104152976D01*
X131966247Y-104152976D02*
X132204342Y-104152976D01*
X132204342Y-104152976D02*
X132299580Y-104200595D01*
X132299580Y-104200595D02*
X132347200Y-104248214D01*
X132347200Y-104248214D02*
X132394819Y-104343452D01*
X132394819Y-104343452D02*
X132394819Y-104629166D01*
X132394819Y-104629166D02*
X132347200Y-104724404D01*
X132347200Y-104724404D02*
X132299580Y-104772023D01*
D11*
X127747631Y-140796208D02*
X128997631Y-140796208D01*
X128037631Y-140506208D02*
X134007631Y-140506208D01*
X134007631Y-140506208D02*
X134007631Y-130386208D01*
X128047631Y-140496208D02*
X128797631Y-140496208D01*
X128797631Y-140496208D02*
X128797631Y-138696208D01*
X130297631Y-140496208D02*
X130297631Y-139746208D01*
X130297631Y-139746208D02*
X133247631Y-139746208D01*
X133247631Y-139746208D02*
X133247631Y-135446208D01*
X127747631Y-139546208D02*
X127747631Y-140796208D01*
X128047631Y-138696208D02*
X128047631Y-140496208D01*
X128797631Y-138696208D02*
X128047631Y-138696208D01*
X128047631Y-137196208D02*
X128797631Y-137196208D01*
X128797631Y-137196208D02*
X128797631Y-133696208D01*
X128047631Y-133696208D02*
X128047631Y-137196208D01*
X128797631Y-133696208D02*
X128047631Y-133696208D01*
X128047631Y-132196208D02*
X128797631Y-132196208D01*
X128797631Y-132196208D02*
X128797631Y-130396208D01*
X130297631Y-131146208D02*
X133247631Y-131146208D01*
X133247631Y-131146208D02*
X133247631Y-135446208D01*
X128047631Y-130396208D02*
X128047631Y-132196208D01*
X128797631Y-130396208D02*
X128047631Y-130396208D01*
X130297631Y-130396208D02*
X130297631Y-131146208D01*
X128037631Y-130386208D02*
X128037631Y-140506208D01*
X134007631Y-130386208D02*
X128037631Y-130386208D01*
X127747631Y-128946208D02*
X128997631Y-128946208D01*
X128037631Y-128656208D02*
X134007631Y-128656208D01*
X134007631Y-128656208D02*
X134007631Y-121036208D01*
X128047631Y-128646208D02*
X128797631Y-128646208D01*
X128797631Y-128646208D02*
X128797631Y-126846208D01*
X130297631Y-128646208D02*
X130297631Y-127896208D01*
X130297631Y-127896208D02*
X133247631Y-127896208D01*
X133247631Y-127896208D02*
X133247631Y-124846208D01*
X127747631Y-127696208D02*
X127747631Y-128946208D01*
X128047631Y-126846208D02*
X128047631Y-128646208D01*
X128797631Y-126846208D02*
X128047631Y-126846208D01*
X128047631Y-125346208D02*
X128797631Y-125346208D01*
X128797631Y-125346208D02*
X128797631Y-124346208D01*
X128047631Y-124346208D02*
X128047631Y-125346208D01*
X128797631Y-124346208D02*
X128047631Y-124346208D01*
X128047631Y-122846208D02*
X128797631Y-122846208D01*
X128797631Y-122846208D02*
X128797631Y-121046208D01*
X130297631Y-121796208D02*
X133247631Y-121796208D01*
X133247631Y-121796208D02*
X133247631Y-124846208D01*
X128047631Y-121046208D02*
X128047631Y-122846208D01*
X128797631Y-121046208D02*
X128047631Y-121046208D01*
X130297631Y-121046208D02*
X130297631Y-121796208D01*
X128037631Y-121036208D02*
X128037631Y-128656208D01*
X134007631Y-121036208D02*
X128037631Y-121036208D01*
X130267064Y-102672500D02*
X128812936Y-102672500D01*
X130267064Y-100852500D02*
X128812936Y-100852500D01*
X133300000Y-67400000D02*
X133300000Y-64200000D01*
X129700000Y-67400000D02*
X133300000Y-67400000D01*
X129700000Y-64200000D02*
X133300000Y-64200000D01*
X137561252Y-115017500D02*
X137038748Y-115017500D01*
X137561252Y-113547500D02*
X137038748Y-113547500D01*
X126551272Y-138326208D02*
X126243990Y-138326208D01*
X126551272Y-137566208D02*
X126243990Y-137566208D01*
X137243641Y-112680000D02*
X136936359Y-112680000D01*
X137243641Y-111920000D02*
X136936359Y-111920000D01*
X130890000Y-115340580D02*
X130890000Y-115059420D01*
X131910000Y-115340580D02*
X131910000Y-115059420D01*
X132780000Y-113240580D02*
X132780000Y-112959420D01*
X133800000Y-113240580D02*
X133800000Y-112959420D01*
D12*
X139805000Y-117400000D02*
X139805000Y-121600000D01*
X139275000Y-117400000D02*
X139805000Y-117400000D01*
X135425000Y-117400000D02*
X134845000Y-117400000D01*
X134845000Y-117400000D02*
X134845000Y-121600000D01*
X139805000Y-121600000D02*
X139225000Y-121600000D01*
X134845000Y-121600000D02*
X135425000Y-121600000D01*
D11*
X135243641Y-112680000D02*
X134936359Y-112680000D01*
X135243641Y-111920000D02*
X134936359Y-111920000D01*
X138250000Y-107700000D02*
X138250000Y-104250000D01*
X138250000Y-107700000D02*
X138250000Y-109650000D01*
X133130000Y-107700000D02*
X133130000Y-105750000D01*
X133130000Y-107700000D02*
X133130000Y-109650000D01*
D12*
X124302500Y-114220000D02*
X124302500Y-110320000D01*
X129352500Y-114220000D02*
X129352500Y-110320000D01*
D11*
X125007500Y-105546359D02*
X125007500Y-105853641D01*
X124247500Y-105546359D02*
X124247500Y-105853641D01*
X128980000Y-98562500D02*
X128980000Y-100237500D01*
X128980000Y-98562500D02*
X128980000Y-97912500D01*
X132100000Y-98562500D02*
X132100000Y-99212500D01*
X132100000Y-98562500D02*
X132100000Y-97912500D01*
X126243990Y-132566208D02*
X126551272Y-132566208D01*
X126243990Y-133326208D02*
X126551272Y-133326208D01*
X138805000Y-109640580D02*
X138805000Y-109359420D01*
X139825000Y-109640580D02*
X139825000Y-109359420D01*
X123867500Y-102700000D02*
X123867500Y-104375000D01*
X123867500Y-102700000D02*
X123867500Y-102050000D01*
X126987500Y-102700000D02*
X126987500Y-103350000D01*
X126987500Y-102700000D02*
X126987500Y-102050000D01*
X131100000Y-104962500D02*
X131100000Y-103287500D01*
X131100000Y-104962500D02*
X131100000Y-105612500D01*
X127980000Y-104962500D02*
X127980000Y-104312500D01*
X127980000Y-104962500D02*
X127980000Y-105612500D01*
%LPC*%
D13*
X130497631Y-137946208D03*
D14*
X130497631Y-135446208D03*
X130497631Y-132946208D03*
D15*
X128040000Y-98922500D03*
X128040000Y-99562500D03*
D16*
X130497631Y-126096208D03*
D17*
X130497631Y-123596208D03*
D18*
X131002500Y-101762500D03*
X128077500Y-101762500D03*
D19*
X132000000Y-65800000D03*
D20*
X129725000Y-65800000D03*
D21*
X138250000Y-114282500D03*
X136350000Y-114282500D03*
D22*
X126907631Y-137946208D03*
X125887631Y-137946208D03*
X137600000Y-112300000D03*
X136580000Y-112300000D03*
D23*
X131400000Y-115975000D03*
X131400000Y-114425000D03*
D24*
X126427500Y-105100000D03*
X125787500Y-105100000D03*
D23*
X133290000Y-113875000D03*
X133290000Y-112325000D03*
D25*
X138550000Y-116600000D03*
X136100000Y-116600000D03*
X136100000Y-122400000D03*
X138550000Y-122400000D03*
D22*
X135600000Y-112300000D03*
X134580000Y-112300000D03*
D26*
X137595000Y-105225000D03*
X136325000Y-105225000D03*
X135055000Y-105225000D03*
X133785000Y-105225000D03*
X133785000Y-110175000D03*
X135055000Y-110175000D03*
X136325000Y-110175000D03*
X137595000Y-110175000D03*
D27*
X124922500Y-114740000D03*
X126192500Y-114740000D03*
X127462500Y-114740000D03*
X128732500Y-114740000D03*
X128732500Y-109800000D03*
X127462500Y-109800000D03*
X126192500Y-109800000D03*
X124922500Y-109800000D03*
D28*
X124627500Y-105190000D03*
X124627500Y-106210000D03*
D29*
X129590000Y-99500000D03*
X131490000Y-99500000D03*
X130540000Y-97625000D03*
D30*
X125887631Y-132946208D03*
X126907631Y-132946208D03*
D23*
X139315000Y-110275000D03*
X139315000Y-108725000D03*
D29*
X124477500Y-103637500D03*
X126377500Y-103637500D03*
X125427500Y-101762500D03*
D31*
X130490000Y-104025000D03*
X128590000Y-104025000D03*
X129540000Y-105900000D03*
%LPD*%
M02*
