G04 #@! TF.GenerationSoftware,KiCad,Pcbnew,7.0.10*
G04 #@! TF.CreationDate,2024-05-01T16:26:18+02:00*
G04 #@! TF.ProjectId,microscope,6d696372-6f73-4636-9f70-652e6b696361,rev?*
G04 #@! TF.SameCoordinates,Original*
G04 #@! TF.FileFunction,Paste,Top*
G04 #@! TF.FilePolarity,Positive*
%FSLAX46Y46*%
G04 Gerber Fmt 4.6, Leading zero omitted, Abs format (unit mm)*
G04 Created by KiCad (PCBNEW 7.0.10) date 2024-05-01 16:26:18*
%MOMM*%
%LPD*%
G01*
G04 APERTURE LIST*
G04 Aperture macros list*
%AMRoundRect*
0 Rectangle with rounded corners*
0 $1 Rounding radius*
0 $2 $3 $4 $5 $6 $7 $8 $9 X,Y pos of 4 corners*
0 Add a 4 corners polygon primitive as box body*
4,1,4,$2,$3,$4,$5,$6,$7,$8,$9,$2,$3,0*
0 Add four circle primitives for the rounded corners*
1,1,$1+$1,$2,$3*
1,1,$1+$1,$4,$5*
1,1,$1+$1,$6,$7*
1,1,$1+$1,$8,$9*
0 Add four rect primitives between the rounded corners*
20,1,$1+$1,$2,$3,$4,$5,0*
20,1,$1+$1,$4,$5,$6,$7,0*
20,1,$1+$1,$6,$7,$8,$9,0*
20,1,$1+$1,$8,$9,$2,$3,0*%
%AMFreePoly0*
4,1,9,3.862500,-0.866500,0.737500,-0.866500,0.737500,-0.450000,-0.737500,-0.450000,-0.737500,0.450000,0.737500,0.450000,0.737500,0.866500,3.862500,0.866500,3.862500,-0.866500,3.862500,-0.866500,$1*%
G04 Aperture macros list end*
%ADD10RoundRect,0.250000X-0.450000X0.262500X-0.450000X-0.262500X0.450000X-0.262500X0.450000X0.262500X0*%
%ADD11RoundRect,0.150000X0.150000X-0.587500X0.150000X0.587500X-0.150000X0.587500X-0.150000X-0.587500X0*%
%ADD12R,2.200000X2.200000*%
%ADD13R,1.250000X2.200000*%
%ADD14RoundRect,0.225000X-0.225000X-0.250000X0.225000X-0.250000X0.225000X0.250000X-0.225000X0.250000X0*%
%ADD15RoundRect,0.200000X-0.200000X-0.275000X0.200000X-0.275000X0.200000X0.275000X-0.200000X0.275000X0*%
%ADD16R,0.900000X1.300000*%
%ADD17FreePoly0,90.000000*%
%ADD18RoundRect,0.225000X0.225000X0.250000X-0.225000X0.250000X-0.225000X-0.250000X0.225000X-0.250000X0*%
%ADD19RoundRect,0.042000X-0.258000X0.943000X-0.258000X-0.943000X0.258000X-0.943000X0.258000X0.943000X0*%
%ADD20RoundRect,0.250000X-1.000000X1.750000X-1.000000X-1.750000X1.000000X-1.750000X1.000000X1.750000X0*%
%ADD21RoundRect,0.200000X0.275000X-0.200000X0.275000X0.200000X-0.275000X0.200000X-0.275000X-0.200000X0*%
%ADD22RoundRect,0.042000X-0.943000X-0.258000X0.943000X-0.258000X0.943000X0.258000X-0.943000X0.258000X0*%
%ADD23RoundRect,0.091000X0.364000X-0.864000X0.364000X0.864000X-0.364000X0.864000X-0.364000X-0.864000X0*%
%ADD24RoundRect,0.200000X0.200000X0.275000X-0.200000X0.275000X-0.200000X-0.275000X0.200000X-0.275000X0*%
%ADD25RoundRect,0.200000X-0.275000X0.200000X-0.275000X-0.200000X0.275000X-0.200000X0.275000X0.200000X0*%
%ADD26RoundRect,0.250000X1.000000X-1.750000X1.000000X1.750000X-1.000000X1.750000X-1.000000X-1.750000X0*%
G04 APERTURE END LIST*
D10*
X99550000Y-69337500D03*
X99550000Y-71162500D03*
X101750000Y-69337500D03*
X101750000Y-71162500D03*
D11*
X99250000Y-75000000D03*
X101150000Y-75000000D03*
X100200000Y-73125000D03*
D12*
X100900000Y-53000000D03*
D13*
X98625000Y-53000000D03*
D14*
X102600000Y-123600000D03*
X104150000Y-123600000D03*
D15*
X102575000Y-122000000D03*
X104225000Y-122000000D03*
D16*
X102900000Y-115350000D03*
D17*
X104400000Y-115262500D03*
D16*
X105900000Y-115350000D03*
D18*
X104150000Y-125200000D03*
X102600000Y-125200000D03*
D19*
X102805000Y-130885000D03*
X101535000Y-130885000D03*
X100265000Y-130885000D03*
X98995000Y-130885000D03*
X98995000Y-135825000D03*
X100265000Y-135825000D03*
X101535000Y-135825000D03*
X102805000Y-135825000D03*
D20*
X97000000Y-110000000D03*
X97000000Y-116100000D03*
D21*
X101600000Y-79500000D03*
X101600000Y-77850000D03*
D22*
X95460000Y-120760000D03*
X95460000Y-122030000D03*
X95460000Y-123300000D03*
X95460000Y-124570000D03*
X100400000Y-124570000D03*
X100400000Y-123300000D03*
X100400000Y-122030000D03*
X100400000Y-120760000D03*
D23*
X103250000Y-105500000D03*
X105700000Y-105500000D03*
X105700000Y-99700000D03*
X103250000Y-99700000D03*
D15*
X101225000Y-128630000D03*
X102875000Y-128630000D03*
D14*
X95425000Y-126200000D03*
X96975000Y-126200000D03*
D24*
X104225000Y-120400000D03*
X102575000Y-120400000D03*
D21*
X101600000Y-86200000D03*
X101600000Y-84550000D03*
D25*
X104450000Y-129205000D03*
X104450000Y-130855000D03*
D26*
X96950000Y-105250000D03*
X96950000Y-99150000D03*
D18*
X105175000Y-110200000D03*
X103625000Y-110200000D03*
X104375000Y-117200000D03*
X102825000Y-117200000D03*
M02*
