%TF.GenerationSoftware,KiCad,Pcbnew,7.0.10*%
%TF.CreationDate,2024-05-01T16:26:23+02:00*%
%TF.ProjectId,microscope,6d696372-6f73-4636-9f70-652e6b696361,rev?*%
%TF.SameCoordinates,Original*%
%TF.FileFunction,Drillmap*%
%TF.FilePolarity,Positive*%
%FSLAX45Y45*%
G04 Gerber Fmt 4.5, Leading zero omitted, Abs format (unit mm)*
G04 Created by KiCad (PCBNEW 7.0.10) date 2024-05-01 16:26:23*
%MOMM*%
%LPD*%
G01*
G04 APERTURE LIST*
%ADD10C,0.200000*%
%ADD11C,0.100000*%
G04 APERTURE END LIST*
D10*
X10850000Y-7625000D02*
X10850000Y-13925000D01*
X9500000Y-5275000D02*
X9500000Y-7287550D01*
X9302606Y-7569458D02*
G75*
G03*
X9500000Y-7287550I-102606J281908D01*
G01*
X10850000Y-13925000D02*
X9150000Y-13925000D01*
X9900000Y-4875000D02*
G75*
G03*
X9500000Y-5275000I0J-400000D01*
G01*
X10697394Y-7569460D02*
X10850000Y-7625000D01*
X9900000Y-4875000D02*
X10100000Y-4875000D01*
X9150000Y-7625000D02*
X9302606Y-7569460D01*
X10500000Y-7287550D02*
G75*
G03*
X10697394Y-7569458I300000J0D01*
G01*
X10500000Y-5275000D02*
G75*
G03*
X10100000Y-4875000I-400000J0D01*
G01*
X10500000Y-5275000D02*
X10500000Y-7287550D01*
X9150000Y-7625000D02*
X9150000Y-13925000D01*
D11*
X9610000Y-13310000D02*
X9640000Y-13340000D01*
X9640000Y-13310000D02*
X9610000Y-13340000D01*
X9675000Y-12185000D02*
X9705000Y-12215000D01*
X9705000Y-12185000D02*
X9675000Y-12215000D01*
X9865000Y-12385000D02*
X9895000Y-12415000D01*
X9895000Y-12385000D02*
X9865000Y-12415000D01*
X9935000Y-5635000D02*
X9965000Y-5665000D01*
X9965000Y-5635000D02*
X9935000Y-5665000D01*
X9935000Y-6310000D02*
X9965000Y-6340000D01*
X9965000Y-6310000D02*
X9935000Y-6340000D01*
X9985000Y-9685000D02*
X10015000Y-9715000D01*
X10015000Y-9685000D02*
X9985000Y-9715000D01*
X10005000Y-12935000D02*
X10035000Y-12965000D01*
X10035000Y-12935000D02*
X10005000Y-12965000D01*
X10135000Y-9560000D02*
X10165000Y-9590000D01*
X10165000Y-9560000D02*
X10135000Y-9590000D01*
X10135000Y-10835000D02*
X10165000Y-10865000D01*
X10165000Y-10835000D02*
X10135000Y-10865000D01*
X10145000Y-13225000D02*
X10175000Y-13255000D01*
X10175000Y-13225000D02*
X10145000Y-13255000D01*
X10335000Y-5635000D02*
X10365000Y-5665000D01*
X10365000Y-5635000D02*
X10335000Y-5665000D01*
X10335000Y-6310000D02*
X10365000Y-6340000D01*
X10365000Y-6310000D02*
X10335000Y-6340000D01*
X10395000Y-12770000D02*
X10425000Y-12800000D01*
X10425000Y-12770000D02*
X10395000Y-12800000D01*
X10435000Y-13485000D02*
X10465000Y-13515000D01*
X10465000Y-13485000D02*
X10435000Y-13515000D01*
X9990000Y-7945000D02*
G75*
G03*
X9895000Y-7945000I-47500J0D01*
G01*
X9895000Y-7945000D02*
G75*
G03*
X9990000Y-7945000I47500J0D01*
G01*
X9990000Y-8195000D02*
G75*
G03*
X9895000Y-8195000I-47500J0D01*
G01*
X9895000Y-8195000D02*
G75*
G03*
X9990000Y-8195000I47500J0D01*
G01*
X9990000Y-8445000D02*
G75*
G03*
X9895000Y-8445000I-47500J0D01*
G01*
X9895000Y-8445000D02*
G75*
G03*
X9990000Y-8445000I47500J0D01*
G01*
X9945000Y-9000000D02*
X9945000Y-9100000D01*
X9895000Y-9050000D02*
X9995000Y-9050000D01*
X9945000Y-9250000D02*
X9945000Y-9350000D01*
X9895000Y-9300000D02*
X9995000Y-9300000D01*
D10*
X9510711Y-13020711D02*
X9510711Y-12879289D01*
X9369289Y-12879289D01*
X9369289Y-13020711D01*
X9510711Y-13020711D01*
X9510711Y-13580711D02*
X9510711Y-13439289D01*
X9369289Y-13439289D01*
X9369289Y-13580711D01*
X9510711Y-13580711D01*
X10640711Y-8200711D02*
X10640711Y-8059289D01*
X10499289Y-8059289D01*
X10499289Y-8200711D01*
X10640711Y-8200711D01*
X10640711Y-8850711D02*
X10640711Y-8709289D01*
X10499289Y-8709289D01*
X10499289Y-8850711D01*
X10640711Y-8850711D01*
X9400777Y-14246484D02*
X9400777Y-14046484D01*
X9400777Y-14046484D02*
X9448396Y-14046484D01*
X9448396Y-14046484D02*
X9476967Y-14056008D01*
X9476967Y-14056008D02*
X9496015Y-14075055D01*
X9496015Y-14075055D02*
X9505539Y-14094103D01*
X9505539Y-14094103D02*
X9515063Y-14132198D01*
X9515063Y-14132198D02*
X9515063Y-14160769D01*
X9515063Y-14160769D02*
X9505539Y-14198865D01*
X9505539Y-14198865D02*
X9496015Y-14217912D01*
X9496015Y-14217912D02*
X9476967Y-14236960D01*
X9476967Y-14236960D02*
X9448396Y-14246484D01*
X9448396Y-14246484D02*
X9400777Y-14246484D01*
X9600777Y-14246484D02*
X9600777Y-14113150D01*
X9600777Y-14151246D02*
X9610301Y-14132198D01*
X9610301Y-14132198D02*
X9619824Y-14122674D01*
X9619824Y-14122674D02*
X9638872Y-14113150D01*
X9638872Y-14113150D02*
X9657920Y-14113150D01*
X9724586Y-14246484D02*
X9724586Y-14113150D01*
X9724586Y-14046484D02*
X9715063Y-14056008D01*
X9715063Y-14056008D02*
X9724586Y-14065531D01*
X9724586Y-14065531D02*
X9734110Y-14056008D01*
X9734110Y-14056008D02*
X9724586Y-14046484D01*
X9724586Y-14046484D02*
X9724586Y-14065531D01*
X9848396Y-14246484D02*
X9829348Y-14236960D01*
X9829348Y-14236960D02*
X9819824Y-14217912D01*
X9819824Y-14217912D02*
X9819824Y-14046484D01*
X9953158Y-14246484D02*
X9934110Y-14236960D01*
X9934110Y-14236960D02*
X9924586Y-14217912D01*
X9924586Y-14217912D02*
X9924586Y-14046484D01*
X10181729Y-14246484D02*
X10181729Y-14046484D01*
X10181729Y-14046484D02*
X10248396Y-14189341D01*
X10248396Y-14189341D02*
X10315063Y-14046484D01*
X10315063Y-14046484D02*
X10315063Y-14246484D01*
X10496015Y-14246484D02*
X10496015Y-14141722D01*
X10496015Y-14141722D02*
X10486491Y-14122674D01*
X10486491Y-14122674D02*
X10467444Y-14113150D01*
X10467444Y-14113150D02*
X10429348Y-14113150D01*
X10429348Y-14113150D02*
X10410301Y-14122674D01*
X10496015Y-14236960D02*
X10476967Y-14246484D01*
X10476967Y-14246484D02*
X10429348Y-14246484D01*
X10429348Y-14246484D02*
X10410301Y-14236960D01*
X10410301Y-14236960D02*
X10400777Y-14217912D01*
X10400777Y-14217912D02*
X10400777Y-14198865D01*
X10400777Y-14198865D02*
X10410301Y-14179817D01*
X10410301Y-14179817D02*
X10429348Y-14170293D01*
X10429348Y-14170293D02*
X10476967Y-14170293D01*
X10476967Y-14170293D02*
X10496015Y-14160769D01*
X10591253Y-14113150D02*
X10591253Y-14313150D01*
X10591253Y-14122674D02*
X10610301Y-14113150D01*
X10610301Y-14113150D02*
X10648396Y-14113150D01*
X10648396Y-14113150D02*
X10667444Y-14122674D01*
X10667444Y-14122674D02*
X10676967Y-14132198D01*
X10676967Y-14132198D02*
X10686491Y-14151246D01*
X10686491Y-14151246D02*
X10686491Y-14208388D01*
X10686491Y-14208388D02*
X10676967Y-14227436D01*
X10676967Y-14227436D02*
X10667444Y-14236960D01*
X10667444Y-14236960D02*
X10648396Y-14246484D01*
X10648396Y-14246484D02*
X10610301Y-14246484D01*
X10610301Y-14246484D02*
X10591253Y-14236960D01*
X10772205Y-14227436D02*
X10781729Y-14236960D01*
X10781729Y-14236960D02*
X10772205Y-14246484D01*
X10772205Y-14246484D02*
X10762682Y-14236960D01*
X10762682Y-14236960D02*
X10772205Y-14227436D01*
X10772205Y-14227436D02*
X10772205Y-14246484D01*
X10772205Y-14122674D02*
X10781729Y-14132198D01*
X10781729Y-14132198D02*
X10772205Y-14141722D01*
X10772205Y-14141722D02*
X10762682Y-14132198D01*
X10762682Y-14132198D02*
X10772205Y-14122674D01*
X10772205Y-14122674D02*
X10772205Y-14141722D01*
D11*
X9110000Y-14560000D02*
X9140000Y-14590000D01*
X9140000Y-14560000D02*
X9110000Y-14590000D01*
D10*
X9438872Y-14466484D02*
X9457920Y-14466484D01*
X9457920Y-14466484D02*
X9476967Y-14476008D01*
X9476967Y-14476008D02*
X9486491Y-14485531D01*
X9486491Y-14485531D02*
X9496015Y-14504579D01*
X9496015Y-14504579D02*
X9505539Y-14542674D01*
X9505539Y-14542674D02*
X9505539Y-14590293D01*
X9505539Y-14590293D02*
X9496015Y-14628388D01*
X9496015Y-14628388D02*
X9486491Y-14647436D01*
X9486491Y-14647436D02*
X9476967Y-14656960D01*
X9476967Y-14656960D02*
X9457920Y-14666484D01*
X9457920Y-14666484D02*
X9438872Y-14666484D01*
X9438872Y-14666484D02*
X9419824Y-14656960D01*
X9419824Y-14656960D02*
X9410301Y-14647436D01*
X9410301Y-14647436D02*
X9400777Y-14628388D01*
X9400777Y-14628388D02*
X9391253Y-14590293D01*
X9391253Y-14590293D02*
X9391253Y-14542674D01*
X9391253Y-14542674D02*
X9400777Y-14504579D01*
X9400777Y-14504579D02*
X9410301Y-14485531D01*
X9410301Y-14485531D02*
X9419824Y-14476008D01*
X9419824Y-14476008D02*
X9438872Y-14466484D01*
X9591253Y-14647436D02*
X9600777Y-14656960D01*
X9600777Y-14656960D02*
X9591253Y-14666484D01*
X9591253Y-14666484D02*
X9581729Y-14656960D01*
X9581729Y-14656960D02*
X9591253Y-14647436D01*
X9591253Y-14647436D02*
X9591253Y-14666484D01*
X9667444Y-14466484D02*
X9791253Y-14466484D01*
X9791253Y-14466484D02*
X9724586Y-14542674D01*
X9724586Y-14542674D02*
X9753158Y-14542674D01*
X9753158Y-14542674D02*
X9772205Y-14552198D01*
X9772205Y-14552198D02*
X9781729Y-14561722D01*
X9781729Y-14561722D02*
X9791253Y-14580769D01*
X9791253Y-14580769D02*
X9791253Y-14628388D01*
X9791253Y-14628388D02*
X9781729Y-14647436D01*
X9781729Y-14647436D02*
X9772205Y-14656960D01*
X9772205Y-14656960D02*
X9753158Y-14666484D01*
X9753158Y-14666484D02*
X9696015Y-14666484D01*
X9696015Y-14666484D02*
X9676967Y-14656960D01*
X9676967Y-14656960D02*
X9667444Y-14647436D01*
X9915063Y-14466484D02*
X9934110Y-14466484D01*
X9934110Y-14466484D02*
X9953158Y-14476008D01*
X9953158Y-14476008D02*
X9962682Y-14485531D01*
X9962682Y-14485531D02*
X9972205Y-14504579D01*
X9972205Y-14504579D02*
X9981729Y-14542674D01*
X9981729Y-14542674D02*
X9981729Y-14590293D01*
X9981729Y-14590293D02*
X9972205Y-14628388D01*
X9972205Y-14628388D02*
X9962682Y-14647436D01*
X9962682Y-14647436D02*
X9953158Y-14656960D01*
X9953158Y-14656960D02*
X9934110Y-14666484D01*
X9934110Y-14666484D02*
X9915063Y-14666484D01*
X9915063Y-14666484D02*
X9896015Y-14656960D01*
X9896015Y-14656960D02*
X9886491Y-14647436D01*
X9886491Y-14647436D02*
X9876967Y-14628388D01*
X9876967Y-14628388D02*
X9867444Y-14590293D01*
X9867444Y-14590293D02*
X9867444Y-14542674D01*
X9867444Y-14542674D02*
X9876967Y-14504579D01*
X9876967Y-14504579D02*
X9886491Y-14485531D01*
X9886491Y-14485531D02*
X9896015Y-14476008D01*
X9896015Y-14476008D02*
X9915063Y-14466484D01*
X10105539Y-14466484D02*
X10124586Y-14466484D01*
X10124586Y-14466484D02*
X10143634Y-14476008D01*
X10143634Y-14476008D02*
X10153158Y-14485531D01*
X10153158Y-14485531D02*
X10162682Y-14504579D01*
X10162682Y-14504579D02*
X10172205Y-14542674D01*
X10172205Y-14542674D02*
X10172205Y-14590293D01*
X10172205Y-14590293D02*
X10162682Y-14628388D01*
X10162682Y-14628388D02*
X10153158Y-14647436D01*
X10153158Y-14647436D02*
X10143634Y-14656960D01*
X10143634Y-14656960D02*
X10124586Y-14666484D01*
X10124586Y-14666484D02*
X10105539Y-14666484D01*
X10105539Y-14666484D02*
X10086491Y-14656960D01*
X10086491Y-14656960D02*
X10076967Y-14647436D01*
X10076967Y-14647436D02*
X10067444Y-14628388D01*
X10067444Y-14628388D02*
X10057920Y-14590293D01*
X10057920Y-14590293D02*
X10057920Y-14542674D01*
X10057920Y-14542674D02*
X10067444Y-14504579D01*
X10067444Y-14504579D02*
X10076967Y-14485531D01*
X10076967Y-14485531D02*
X10086491Y-14476008D01*
X10086491Y-14476008D02*
X10105539Y-14466484D01*
X10257920Y-14666484D02*
X10257920Y-14533150D01*
X10257920Y-14552198D02*
X10267444Y-14542674D01*
X10267444Y-14542674D02*
X10286491Y-14533150D01*
X10286491Y-14533150D02*
X10315063Y-14533150D01*
X10315063Y-14533150D02*
X10334110Y-14542674D01*
X10334110Y-14542674D02*
X10343634Y-14561722D01*
X10343634Y-14561722D02*
X10343634Y-14666484D01*
X10343634Y-14561722D02*
X10353158Y-14542674D01*
X10353158Y-14542674D02*
X10372205Y-14533150D01*
X10372205Y-14533150D02*
X10400777Y-14533150D01*
X10400777Y-14533150D02*
X10419825Y-14542674D01*
X10419825Y-14542674D02*
X10429348Y-14561722D01*
X10429348Y-14561722D02*
X10429348Y-14666484D01*
X10524586Y-14666484D02*
X10524586Y-14533150D01*
X10524586Y-14552198D02*
X10534110Y-14542674D01*
X10534110Y-14542674D02*
X10553158Y-14533150D01*
X10553158Y-14533150D02*
X10581729Y-14533150D01*
X10581729Y-14533150D02*
X10600777Y-14542674D01*
X10600777Y-14542674D02*
X10610301Y-14561722D01*
X10610301Y-14561722D02*
X10610301Y-14666484D01*
X10610301Y-14561722D02*
X10619825Y-14542674D01*
X10619825Y-14542674D02*
X10638872Y-14533150D01*
X10638872Y-14533150D02*
X10667444Y-14533150D01*
X10667444Y-14533150D02*
X10686491Y-14542674D01*
X10686491Y-14542674D02*
X10696015Y-14561722D01*
X10696015Y-14561722D02*
X10696015Y-14666484D01*
X11086491Y-14456960D02*
X10915063Y-14714103D01*
X11343634Y-14466484D02*
X11362682Y-14466484D01*
X11362682Y-14466484D02*
X11381729Y-14476008D01*
X11381729Y-14476008D02*
X11391253Y-14485531D01*
X11391253Y-14485531D02*
X11400777Y-14504579D01*
X11400777Y-14504579D02*
X11410301Y-14542674D01*
X11410301Y-14542674D02*
X11410301Y-14590293D01*
X11410301Y-14590293D02*
X11400777Y-14628388D01*
X11400777Y-14628388D02*
X11391253Y-14647436D01*
X11391253Y-14647436D02*
X11381729Y-14656960D01*
X11381729Y-14656960D02*
X11362682Y-14666484D01*
X11362682Y-14666484D02*
X11343634Y-14666484D01*
X11343634Y-14666484D02*
X11324586Y-14656960D01*
X11324586Y-14656960D02*
X11315063Y-14647436D01*
X11315063Y-14647436D02*
X11305539Y-14628388D01*
X11305539Y-14628388D02*
X11296015Y-14590293D01*
X11296015Y-14590293D02*
X11296015Y-14542674D01*
X11296015Y-14542674D02*
X11305539Y-14504579D01*
X11305539Y-14504579D02*
X11315063Y-14485531D01*
X11315063Y-14485531D02*
X11324586Y-14476008D01*
X11324586Y-14476008D02*
X11343634Y-14466484D01*
X11496015Y-14647436D02*
X11505539Y-14656960D01*
X11505539Y-14656960D02*
X11496015Y-14666484D01*
X11496015Y-14666484D02*
X11486491Y-14656960D01*
X11486491Y-14656960D02*
X11496015Y-14647436D01*
X11496015Y-14647436D02*
X11496015Y-14666484D01*
X11629348Y-14466484D02*
X11648396Y-14466484D01*
X11648396Y-14466484D02*
X11667444Y-14476008D01*
X11667444Y-14476008D02*
X11676967Y-14485531D01*
X11676967Y-14485531D02*
X11686491Y-14504579D01*
X11686491Y-14504579D02*
X11696015Y-14542674D01*
X11696015Y-14542674D02*
X11696015Y-14590293D01*
X11696015Y-14590293D02*
X11686491Y-14628388D01*
X11686491Y-14628388D02*
X11676967Y-14647436D01*
X11676967Y-14647436D02*
X11667444Y-14656960D01*
X11667444Y-14656960D02*
X11648396Y-14666484D01*
X11648396Y-14666484D02*
X11629348Y-14666484D01*
X11629348Y-14666484D02*
X11610301Y-14656960D01*
X11610301Y-14656960D02*
X11600777Y-14647436D01*
X11600777Y-14647436D02*
X11591253Y-14628388D01*
X11591253Y-14628388D02*
X11581729Y-14590293D01*
X11581729Y-14590293D02*
X11581729Y-14542674D01*
X11581729Y-14542674D02*
X11591253Y-14504579D01*
X11591253Y-14504579D02*
X11600777Y-14485531D01*
X11600777Y-14485531D02*
X11610301Y-14476008D01*
X11610301Y-14476008D02*
X11629348Y-14466484D01*
X11886491Y-14666484D02*
X11772206Y-14666484D01*
X11829348Y-14666484D02*
X11829348Y-14466484D01*
X11829348Y-14466484D02*
X11810301Y-14495055D01*
X11810301Y-14495055D02*
X11791253Y-14514103D01*
X11791253Y-14514103D02*
X11772206Y-14523627D01*
X12076967Y-14666484D02*
X11962682Y-14666484D01*
X12019825Y-14666484D02*
X12019825Y-14466484D01*
X12019825Y-14466484D02*
X12000777Y-14495055D01*
X12000777Y-14495055D02*
X11981729Y-14514103D01*
X11981729Y-14514103D02*
X11962682Y-14523627D01*
X12191253Y-14552198D02*
X12172206Y-14542674D01*
X12172206Y-14542674D02*
X12162682Y-14533150D01*
X12162682Y-14533150D02*
X12153158Y-14514103D01*
X12153158Y-14514103D02*
X12153158Y-14504579D01*
X12153158Y-14504579D02*
X12162682Y-14485531D01*
X12162682Y-14485531D02*
X12172206Y-14476008D01*
X12172206Y-14476008D02*
X12191253Y-14466484D01*
X12191253Y-14466484D02*
X12229348Y-14466484D01*
X12229348Y-14466484D02*
X12248396Y-14476008D01*
X12248396Y-14476008D02*
X12257920Y-14485531D01*
X12257920Y-14485531D02*
X12267444Y-14504579D01*
X12267444Y-14504579D02*
X12267444Y-14514103D01*
X12267444Y-14514103D02*
X12257920Y-14533150D01*
X12257920Y-14533150D02*
X12248396Y-14542674D01*
X12248396Y-14542674D02*
X12229348Y-14552198D01*
X12229348Y-14552198D02*
X12191253Y-14552198D01*
X12191253Y-14552198D02*
X12172206Y-14561722D01*
X12172206Y-14561722D02*
X12162682Y-14571246D01*
X12162682Y-14571246D02*
X12153158Y-14590293D01*
X12153158Y-14590293D02*
X12153158Y-14628388D01*
X12153158Y-14628388D02*
X12162682Y-14647436D01*
X12162682Y-14647436D02*
X12172206Y-14656960D01*
X12172206Y-14656960D02*
X12191253Y-14666484D01*
X12191253Y-14666484D02*
X12229348Y-14666484D01*
X12229348Y-14666484D02*
X12248396Y-14656960D01*
X12248396Y-14656960D02*
X12257920Y-14647436D01*
X12257920Y-14647436D02*
X12267444Y-14628388D01*
X12267444Y-14628388D02*
X12267444Y-14590293D01*
X12267444Y-14590293D02*
X12257920Y-14571246D01*
X12257920Y-14571246D02*
X12248396Y-14561722D01*
X12248396Y-14561722D02*
X12229348Y-14552198D01*
X12343634Y-14466484D02*
X12343634Y-14504579D01*
X12419825Y-14466484D02*
X12419825Y-14504579D01*
X12715063Y-14742674D02*
X12705539Y-14733150D01*
X12705539Y-14733150D02*
X12686491Y-14704579D01*
X12686491Y-14704579D02*
X12676968Y-14685531D01*
X12676968Y-14685531D02*
X12667444Y-14656960D01*
X12667444Y-14656960D02*
X12657920Y-14609341D01*
X12657920Y-14609341D02*
X12657920Y-14571246D01*
X12657920Y-14571246D02*
X12667444Y-14523627D01*
X12667444Y-14523627D02*
X12676968Y-14495055D01*
X12676968Y-14495055D02*
X12686491Y-14476008D01*
X12686491Y-14476008D02*
X12705539Y-14447436D01*
X12705539Y-14447436D02*
X12715063Y-14437912D01*
X12896015Y-14666484D02*
X12781729Y-14666484D01*
X12838872Y-14666484D02*
X12838872Y-14466484D01*
X12838872Y-14466484D02*
X12819825Y-14495055D01*
X12819825Y-14495055D02*
X12800777Y-14514103D01*
X12800777Y-14514103D02*
X12781729Y-14523627D01*
X13067444Y-14533150D02*
X13067444Y-14666484D01*
X13019825Y-14456960D02*
X12972206Y-14599817D01*
X12972206Y-14599817D02*
X13096015Y-14599817D01*
X13324587Y-14666484D02*
X13324587Y-14466484D01*
X13410301Y-14666484D02*
X13410301Y-14561722D01*
X13410301Y-14561722D02*
X13400777Y-14542674D01*
X13400777Y-14542674D02*
X13381730Y-14533150D01*
X13381730Y-14533150D02*
X13353158Y-14533150D01*
X13353158Y-14533150D02*
X13334110Y-14542674D01*
X13334110Y-14542674D02*
X13324587Y-14552198D01*
X13534110Y-14666484D02*
X13515063Y-14656960D01*
X13515063Y-14656960D02*
X13505539Y-14647436D01*
X13505539Y-14647436D02*
X13496015Y-14628388D01*
X13496015Y-14628388D02*
X13496015Y-14571246D01*
X13496015Y-14571246D02*
X13505539Y-14552198D01*
X13505539Y-14552198D02*
X13515063Y-14542674D01*
X13515063Y-14542674D02*
X13534110Y-14533150D01*
X13534110Y-14533150D02*
X13562682Y-14533150D01*
X13562682Y-14533150D02*
X13581730Y-14542674D01*
X13581730Y-14542674D02*
X13591253Y-14552198D01*
X13591253Y-14552198D02*
X13600777Y-14571246D01*
X13600777Y-14571246D02*
X13600777Y-14628388D01*
X13600777Y-14628388D02*
X13591253Y-14647436D01*
X13591253Y-14647436D02*
X13581730Y-14656960D01*
X13581730Y-14656960D02*
X13562682Y-14666484D01*
X13562682Y-14666484D02*
X13534110Y-14666484D01*
X13715063Y-14666484D02*
X13696015Y-14656960D01*
X13696015Y-14656960D02*
X13686491Y-14637912D01*
X13686491Y-14637912D02*
X13686491Y-14466484D01*
X13867444Y-14656960D02*
X13848396Y-14666484D01*
X13848396Y-14666484D02*
X13810301Y-14666484D01*
X13810301Y-14666484D02*
X13791253Y-14656960D01*
X13791253Y-14656960D02*
X13781730Y-14637912D01*
X13781730Y-14637912D02*
X13781730Y-14561722D01*
X13781730Y-14561722D02*
X13791253Y-14542674D01*
X13791253Y-14542674D02*
X13810301Y-14533150D01*
X13810301Y-14533150D02*
X13848396Y-14533150D01*
X13848396Y-14533150D02*
X13867444Y-14542674D01*
X13867444Y-14542674D02*
X13876968Y-14561722D01*
X13876968Y-14561722D02*
X13876968Y-14580769D01*
X13876968Y-14580769D02*
X13781730Y-14599817D01*
X13953158Y-14656960D02*
X13972206Y-14666484D01*
X13972206Y-14666484D02*
X14010301Y-14666484D01*
X14010301Y-14666484D02*
X14029349Y-14656960D01*
X14029349Y-14656960D02*
X14038872Y-14637912D01*
X14038872Y-14637912D02*
X14038872Y-14628388D01*
X14038872Y-14628388D02*
X14029349Y-14609341D01*
X14029349Y-14609341D02*
X14010301Y-14599817D01*
X14010301Y-14599817D02*
X13981730Y-14599817D01*
X13981730Y-14599817D02*
X13962682Y-14590293D01*
X13962682Y-14590293D02*
X13953158Y-14571246D01*
X13953158Y-14571246D02*
X13953158Y-14561722D01*
X13953158Y-14561722D02*
X13962682Y-14542674D01*
X13962682Y-14542674D02*
X13981730Y-14533150D01*
X13981730Y-14533150D02*
X14010301Y-14533150D01*
X14010301Y-14533150D02*
X14029349Y-14542674D01*
X14105539Y-14742674D02*
X14115063Y-14733150D01*
X14115063Y-14733150D02*
X14134111Y-14704579D01*
X14134111Y-14704579D02*
X14143634Y-14685531D01*
X14143634Y-14685531D02*
X14153158Y-14656960D01*
X14153158Y-14656960D02*
X14162682Y-14609341D01*
X14162682Y-14609341D02*
X14162682Y-14571246D01*
X14162682Y-14571246D02*
X14153158Y-14523627D01*
X14153158Y-14523627D02*
X14143634Y-14495055D01*
X14143634Y-14495055D02*
X14134111Y-14476008D01*
X14134111Y-14476008D02*
X14115063Y-14447436D01*
X14115063Y-14447436D02*
X14105539Y-14437912D01*
D11*
X9140000Y-14839000D02*
G75*
G03*
X9045000Y-14839000I-47500J0D01*
G01*
X9045000Y-14839000D02*
G75*
G03*
X9140000Y-14839000I47500J0D01*
G01*
D10*
X9438872Y-14730484D02*
X9457920Y-14730484D01*
X9457920Y-14730484D02*
X9476967Y-14740008D01*
X9476967Y-14740008D02*
X9486491Y-14749531D01*
X9486491Y-14749531D02*
X9496015Y-14768579D01*
X9496015Y-14768579D02*
X9505539Y-14806674D01*
X9505539Y-14806674D02*
X9505539Y-14854293D01*
X9505539Y-14854293D02*
X9496015Y-14892388D01*
X9496015Y-14892388D02*
X9486491Y-14911436D01*
X9486491Y-14911436D02*
X9476967Y-14920960D01*
X9476967Y-14920960D02*
X9457920Y-14930484D01*
X9457920Y-14930484D02*
X9438872Y-14930484D01*
X9438872Y-14930484D02*
X9419824Y-14920960D01*
X9419824Y-14920960D02*
X9410301Y-14911436D01*
X9410301Y-14911436D02*
X9400777Y-14892388D01*
X9400777Y-14892388D02*
X9391253Y-14854293D01*
X9391253Y-14854293D02*
X9391253Y-14806674D01*
X9391253Y-14806674D02*
X9400777Y-14768579D01*
X9400777Y-14768579D02*
X9410301Y-14749531D01*
X9410301Y-14749531D02*
X9419824Y-14740008D01*
X9419824Y-14740008D02*
X9438872Y-14730484D01*
X9591253Y-14911436D02*
X9600777Y-14920960D01*
X9600777Y-14920960D02*
X9591253Y-14930484D01*
X9591253Y-14930484D02*
X9581729Y-14920960D01*
X9581729Y-14920960D02*
X9591253Y-14911436D01*
X9591253Y-14911436D02*
X9591253Y-14930484D01*
X9696015Y-14930484D02*
X9734110Y-14930484D01*
X9734110Y-14930484D02*
X9753158Y-14920960D01*
X9753158Y-14920960D02*
X9762682Y-14911436D01*
X9762682Y-14911436D02*
X9781729Y-14882865D01*
X9781729Y-14882865D02*
X9791253Y-14844769D01*
X9791253Y-14844769D02*
X9791253Y-14768579D01*
X9791253Y-14768579D02*
X9781729Y-14749531D01*
X9781729Y-14749531D02*
X9772205Y-14740008D01*
X9772205Y-14740008D02*
X9753158Y-14730484D01*
X9753158Y-14730484D02*
X9715063Y-14730484D01*
X9715063Y-14730484D02*
X9696015Y-14740008D01*
X9696015Y-14740008D02*
X9686491Y-14749531D01*
X9686491Y-14749531D02*
X9676967Y-14768579D01*
X9676967Y-14768579D02*
X9676967Y-14816198D01*
X9676967Y-14816198D02*
X9686491Y-14835246D01*
X9686491Y-14835246D02*
X9696015Y-14844769D01*
X9696015Y-14844769D02*
X9715063Y-14854293D01*
X9715063Y-14854293D02*
X9753158Y-14854293D01*
X9753158Y-14854293D02*
X9772205Y-14844769D01*
X9772205Y-14844769D02*
X9781729Y-14835246D01*
X9781729Y-14835246D02*
X9791253Y-14816198D01*
X9972205Y-14730484D02*
X9876967Y-14730484D01*
X9876967Y-14730484D02*
X9867444Y-14825722D01*
X9867444Y-14825722D02*
X9876967Y-14816198D01*
X9876967Y-14816198D02*
X9896015Y-14806674D01*
X9896015Y-14806674D02*
X9943634Y-14806674D01*
X9943634Y-14806674D02*
X9962682Y-14816198D01*
X9962682Y-14816198D02*
X9972205Y-14825722D01*
X9972205Y-14825722D02*
X9981729Y-14844769D01*
X9981729Y-14844769D02*
X9981729Y-14892388D01*
X9981729Y-14892388D02*
X9972205Y-14911436D01*
X9972205Y-14911436D02*
X9962682Y-14920960D01*
X9962682Y-14920960D02*
X9943634Y-14930484D01*
X9943634Y-14930484D02*
X9896015Y-14930484D01*
X9896015Y-14930484D02*
X9876967Y-14920960D01*
X9876967Y-14920960D02*
X9867444Y-14911436D01*
X10105539Y-14730484D02*
X10124586Y-14730484D01*
X10124586Y-14730484D02*
X10143634Y-14740008D01*
X10143634Y-14740008D02*
X10153158Y-14749531D01*
X10153158Y-14749531D02*
X10162682Y-14768579D01*
X10162682Y-14768579D02*
X10172205Y-14806674D01*
X10172205Y-14806674D02*
X10172205Y-14854293D01*
X10172205Y-14854293D02*
X10162682Y-14892388D01*
X10162682Y-14892388D02*
X10153158Y-14911436D01*
X10153158Y-14911436D02*
X10143634Y-14920960D01*
X10143634Y-14920960D02*
X10124586Y-14930484D01*
X10124586Y-14930484D02*
X10105539Y-14930484D01*
X10105539Y-14930484D02*
X10086491Y-14920960D01*
X10086491Y-14920960D02*
X10076967Y-14911436D01*
X10076967Y-14911436D02*
X10067444Y-14892388D01*
X10067444Y-14892388D02*
X10057920Y-14854293D01*
X10057920Y-14854293D02*
X10057920Y-14806674D01*
X10057920Y-14806674D02*
X10067444Y-14768579D01*
X10067444Y-14768579D02*
X10076967Y-14749531D01*
X10076967Y-14749531D02*
X10086491Y-14740008D01*
X10086491Y-14740008D02*
X10105539Y-14730484D01*
X10257920Y-14930484D02*
X10257920Y-14797150D01*
X10257920Y-14816198D02*
X10267444Y-14806674D01*
X10267444Y-14806674D02*
X10286491Y-14797150D01*
X10286491Y-14797150D02*
X10315063Y-14797150D01*
X10315063Y-14797150D02*
X10334110Y-14806674D01*
X10334110Y-14806674D02*
X10343634Y-14825722D01*
X10343634Y-14825722D02*
X10343634Y-14930484D01*
X10343634Y-14825722D02*
X10353158Y-14806674D01*
X10353158Y-14806674D02*
X10372205Y-14797150D01*
X10372205Y-14797150D02*
X10400777Y-14797150D01*
X10400777Y-14797150D02*
X10419825Y-14806674D01*
X10419825Y-14806674D02*
X10429348Y-14825722D01*
X10429348Y-14825722D02*
X10429348Y-14930484D01*
X10524586Y-14930484D02*
X10524586Y-14797150D01*
X10524586Y-14816198D02*
X10534110Y-14806674D01*
X10534110Y-14806674D02*
X10553158Y-14797150D01*
X10553158Y-14797150D02*
X10581729Y-14797150D01*
X10581729Y-14797150D02*
X10600777Y-14806674D01*
X10600777Y-14806674D02*
X10610301Y-14825722D01*
X10610301Y-14825722D02*
X10610301Y-14930484D01*
X10610301Y-14825722D02*
X10619825Y-14806674D01*
X10619825Y-14806674D02*
X10638872Y-14797150D01*
X10638872Y-14797150D02*
X10667444Y-14797150D01*
X10667444Y-14797150D02*
X10686491Y-14806674D01*
X10686491Y-14806674D02*
X10696015Y-14825722D01*
X10696015Y-14825722D02*
X10696015Y-14930484D01*
X11086491Y-14720960D02*
X10915063Y-14978103D01*
X11343634Y-14730484D02*
X11362682Y-14730484D01*
X11362682Y-14730484D02*
X11381729Y-14740008D01*
X11381729Y-14740008D02*
X11391253Y-14749531D01*
X11391253Y-14749531D02*
X11400777Y-14768579D01*
X11400777Y-14768579D02*
X11410301Y-14806674D01*
X11410301Y-14806674D02*
X11410301Y-14854293D01*
X11410301Y-14854293D02*
X11400777Y-14892388D01*
X11400777Y-14892388D02*
X11391253Y-14911436D01*
X11391253Y-14911436D02*
X11381729Y-14920960D01*
X11381729Y-14920960D02*
X11362682Y-14930484D01*
X11362682Y-14930484D02*
X11343634Y-14930484D01*
X11343634Y-14930484D02*
X11324586Y-14920960D01*
X11324586Y-14920960D02*
X11315063Y-14911436D01*
X11315063Y-14911436D02*
X11305539Y-14892388D01*
X11305539Y-14892388D02*
X11296015Y-14854293D01*
X11296015Y-14854293D02*
X11296015Y-14806674D01*
X11296015Y-14806674D02*
X11305539Y-14768579D01*
X11305539Y-14768579D02*
X11315063Y-14749531D01*
X11315063Y-14749531D02*
X11324586Y-14740008D01*
X11324586Y-14740008D02*
X11343634Y-14730484D01*
X11496015Y-14911436D02*
X11505539Y-14920960D01*
X11505539Y-14920960D02*
X11496015Y-14930484D01*
X11496015Y-14930484D02*
X11486491Y-14920960D01*
X11486491Y-14920960D02*
X11496015Y-14911436D01*
X11496015Y-14911436D02*
X11496015Y-14930484D01*
X11629348Y-14730484D02*
X11648396Y-14730484D01*
X11648396Y-14730484D02*
X11667444Y-14740008D01*
X11667444Y-14740008D02*
X11676967Y-14749531D01*
X11676967Y-14749531D02*
X11686491Y-14768579D01*
X11686491Y-14768579D02*
X11696015Y-14806674D01*
X11696015Y-14806674D02*
X11696015Y-14854293D01*
X11696015Y-14854293D02*
X11686491Y-14892388D01*
X11686491Y-14892388D02*
X11676967Y-14911436D01*
X11676967Y-14911436D02*
X11667444Y-14920960D01*
X11667444Y-14920960D02*
X11648396Y-14930484D01*
X11648396Y-14930484D02*
X11629348Y-14930484D01*
X11629348Y-14930484D02*
X11610301Y-14920960D01*
X11610301Y-14920960D02*
X11600777Y-14911436D01*
X11600777Y-14911436D02*
X11591253Y-14892388D01*
X11591253Y-14892388D02*
X11581729Y-14854293D01*
X11581729Y-14854293D02*
X11581729Y-14806674D01*
X11581729Y-14806674D02*
X11591253Y-14768579D01*
X11591253Y-14768579D02*
X11600777Y-14749531D01*
X11600777Y-14749531D02*
X11610301Y-14740008D01*
X11610301Y-14740008D02*
X11629348Y-14730484D01*
X11762682Y-14730484D02*
X11886491Y-14730484D01*
X11886491Y-14730484D02*
X11819825Y-14806674D01*
X11819825Y-14806674D02*
X11848396Y-14806674D01*
X11848396Y-14806674D02*
X11867444Y-14816198D01*
X11867444Y-14816198D02*
X11876967Y-14825722D01*
X11876967Y-14825722D02*
X11886491Y-14844769D01*
X11886491Y-14844769D02*
X11886491Y-14892388D01*
X11886491Y-14892388D02*
X11876967Y-14911436D01*
X11876967Y-14911436D02*
X11867444Y-14920960D01*
X11867444Y-14920960D02*
X11848396Y-14930484D01*
X11848396Y-14930484D02*
X11791253Y-14930484D01*
X11791253Y-14930484D02*
X11772206Y-14920960D01*
X11772206Y-14920960D02*
X11762682Y-14911436D01*
X11953158Y-14730484D02*
X12086491Y-14730484D01*
X12086491Y-14730484D02*
X12000777Y-14930484D01*
X12248396Y-14797150D02*
X12248396Y-14930484D01*
X12200777Y-14720960D02*
X12153158Y-14863817D01*
X12153158Y-14863817D02*
X12276967Y-14863817D01*
X12343634Y-14730484D02*
X12343634Y-14768579D01*
X12419825Y-14730484D02*
X12419825Y-14768579D01*
X12715063Y-15006674D02*
X12705539Y-14997150D01*
X12705539Y-14997150D02*
X12686491Y-14968579D01*
X12686491Y-14968579D02*
X12676968Y-14949531D01*
X12676968Y-14949531D02*
X12667444Y-14920960D01*
X12667444Y-14920960D02*
X12657920Y-14873341D01*
X12657920Y-14873341D02*
X12657920Y-14835246D01*
X12657920Y-14835246D02*
X12667444Y-14787627D01*
X12667444Y-14787627D02*
X12676968Y-14759055D01*
X12676968Y-14759055D02*
X12686491Y-14740008D01*
X12686491Y-14740008D02*
X12705539Y-14711436D01*
X12705539Y-14711436D02*
X12715063Y-14701912D01*
X12772206Y-14730484D02*
X12896015Y-14730484D01*
X12896015Y-14730484D02*
X12829348Y-14806674D01*
X12829348Y-14806674D02*
X12857920Y-14806674D01*
X12857920Y-14806674D02*
X12876968Y-14816198D01*
X12876968Y-14816198D02*
X12886491Y-14825722D01*
X12886491Y-14825722D02*
X12896015Y-14844769D01*
X12896015Y-14844769D02*
X12896015Y-14892388D01*
X12896015Y-14892388D02*
X12886491Y-14911436D01*
X12886491Y-14911436D02*
X12876968Y-14920960D01*
X12876968Y-14920960D02*
X12857920Y-14930484D01*
X12857920Y-14930484D02*
X12800777Y-14930484D01*
X12800777Y-14930484D02*
X12781729Y-14920960D01*
X12781729Y-14920960D02*
X12772206Y-14911436D01*
X13134110Y-14930484D02*
X13134110Y-14730484D01*
X13219825Y-14930484D02*
X13219825Y-14825722D01*
X13219825Y-14825722D02*
X13210301Y-14806674D01*
X13210301Y-14806674D02*
X13191253Y-14797150D01*
X13191253Y-14797150D02*
X13162682Y-14797150D01*
X13162682Y-14797150D02*
X13143634Y-14806674D01*
X13143634Y-14806674D02*
X13134110Y-14816198D01*
X13343634Y-14930484D02*
X13324587Y-14920960D01*
X13324587Y-14920960D02*
X13315063Y-14911436D01*
X13315063Y-14911436D02*
X13305539Y-14892388D01*
X13305539Y-14892388D02*
X13305539Y-14835246D01*
X13305539Y-14835246D02*
X13315063Y-14816198D01*
X13315063Y-14816198D02*
X13324587Y-14806674D01*
X13324587Y-14806674D02*
X13343634Y-14797150D01*
X13343634Y-14797150D02*
X13372206Y-14797150D01*
X13372206Y-14797150D02*
X13391253Y-14806674D01*
X13391253Y-14806674D02*
X13400777Y-14816198D01*
X13400777Y-14816198D02*
X13410301Y-14835246D01*
X13410301Y-14835246D02*
X13410301Y-14892388D01*
X13410301Y-14892388D02*
X13400777Y-14911436D01*
X13400777Y-14911436D02*
X13391253Y-14920960D01*
X13391253Y-14920960D02*
X13372206Y-14930484D01*
X13372206Y-14930484D02*
X13343634Y-14930484D01*
X13524587Y-14930484D02*
X13505539Y-14920960D01*
X13505539Y-14920960D02*
X13496015Y-14901912D01*
X13496015Y-14901912D02*
X13496015Y-14730484D01*
X13676968Y-14920960D02*
X13657920Y-14930484D01*
X13657920Y-14930484D02*
X13619825Y-14930484D01*
X13619825Y-14930484D02*
X13600777Y-14920960D01*
X13600777Y-14920960D02*
X13591253Y-14901912D01*
X13591253Y-14901912D02*
X13591253Y-14825722D01*
X13591253Y-14825722D02*
X13600777Y-14806674D01*
X13600777Y-14806674D02*
X13619825Y-14797150D01*
X13619825Y-14797150D02*
X13657920Y-14797150D01*
X13657920Y-14797150D02*
X13676968Y-14806674D01*
X13676968Y-14806674D02*
X13686491Y-14825722D01*
X13686491Y-14825722D02*
X13686491Y-14844769D01*
X13686491Y-14844769D02*
X13591253Y-14863817D01*
X13762682Y-14920960D02*
X13781730Y-14930484D01*
X13781730Y-14930484D02*
X13819825Y-14930484D01*
X13819825Y-14930484D02*
X13838872Y-14920960D01*
X13838872Y-14920960D02*
X13848396Y-14901912D01*
X13848396Y-14901912D02*
X13848396Y-14892388D01*
X13848396Y-14892388D02*
X13838872Y-14873341D01*
X13838872Y-14873341D02*
X13819825Y-14863817D01*
X13819825Y-14863817D02*
X13791253Y-14863817D01*
X13791253Y-14863817D02*
X13772206Y-14854293D01*
X13772206Y-14854293D02*
X13762682Y-14835246D01*
X13762682Y-14835246D02*
X13762682Y-14825722D01*
X13762682Y-14825722D02*
X13772206Y-14806674D01*
X13772206Y-14806674D02*
X13791253Y-14797150D01*
X13791253Y-14797150D02*
X13819825Y-14797150D01*
X13819825Y-14797150D02*
X13838872Y-14806674D01*
X13915063Y-15006674D02*
X13924587Y-14997150D01*
X13924587Y-14997150D02*
X13943634Y-14968579D01*
X13943634Y-14968579D02*
X13953158Y-14949531D01*
X13953158Y-14949531D02*
X13962682Y-14920960D01*
X13962682Y-14920960D02*
X13972206Y-14873341D01*
X13972206Y-14873341D02*
X13972206Y-14835246D01*
X13972206Y-14835246D02*
X13962682Y-14787627D01*
X13962682Y-14787627D02*
X13953158Y-14759055D01*
X13953158Y-14759055D02*
X13943634Y-14740008D01*
X13943634Y-14740008D02*
X13924587Y-14711436D01*
X13924587Y-14711436D02*
X13915063Y-14701912D01*
D11*
X9090000Y-15053000D02*
X9090000Y-15153000D01*
X9040000Y-15103000D02*
X9140000Y-15103000D01*
D10*
X9505539Y-15194484D02*
X9391253Y-15194484D01*
X9448396Y-15194484D02*
X9448396Y-14994484D01*
X9448396Y-14994484D02*
X9429348Y-15023055D01*
X9429348Y-15023055D02*
X9410301Y-15042103D01*
X9410301Y-15042103D02*
X9391253Y-15051627D01*
X9591253Y-15175436D02*
X9600777Y-15184960D01*
X9600777Y-15184960D02*
X9591253Y-15194484D01*
X9591253Y-15194484D02*
X9581729Y-15184960D01*
X9581729Y-15184960D02*
X9591253Y-15175436D01*
X9591253Y-15175436D02*
X9591253Y-15194484D01*
X9724586Y-14994484D02*
X9743634Y-14994484D01*
X9743634Y-14994484D02*
X9762682Y-15004008D01*
X9762682Y-15004008D02*
X9772205Y-15013531D01*
X9772205Y-15013531D02*
X9781729Y-15032579D01*
X9781729Y-15032579D02*
X9791253Y-15070674D01*
X9791253Y-15070674D02*
X9791253Y-15118293D01*
X9791253Y-15118293D02*
X9781729Y-15156388D01*
X9781729Y-15156388D02*
X9772205Y-15175436D01*
X9772205Y-15175436D02*
X9762682Y-15184960D01*
X9762682Y-15184960D02*
X9743634Y-15194484D01*
X9743634Y-15194484D02*
X9724586Y-15194484D01*
X9724586Y-15194484D02*
X9705539Y-15184960D01*
X9705539Y-15184960D02*
X9696015Y-15175436D01*
X9696015Y-15175436D02*
X9686491Y-15156388D01*
X9686491Y-15156388D02*
X9676967Y-15118293D01*
X9676967Y-15118293D02*
X9676967Y-15070674D01*
X9676967Y-15070674D02*
X9686491Y-15032579D01*
X9686491Y-15032579D02*
X9696015Y-15013531D01*
X9696015Y-15013531D02*
X9705539Y-15004008D01*
X9705539Y-15004008D02*
X9724586Y-14994484D01*
X9915063Y-14994484D02*
X9934110Y-14994484D01*
X9934110Y-14994484D02*
X9953158Y-15004008D01*
X9953158Y-15004008D02*
X9962682Y-15013531D01*
X9962682Y-15013531D02*
X9972205Y-15032579D01*
X9972205Y-15032579D02*
X9981729Y-15070674D01*
X9981729Y-15070674D02*
X9981729Y-15118293D01*
X9981729Y-15118293D02*
X9972205Y-15156388D01*
X9972205Y-15156388D02*
X9962682Y-15175436D01*
X9962682Y-15175436D02*
X9953158Y-15184960D01*
X9953158Y-15184960D02*
X9934110Y-15194484D01*
X9934110Y-15194484D02*
X9915063Y-15194484D01*
X9915063Y-15194484D02*
X9896015Y-15184960D01*
X9896015Y-15184960D02*
X9886491Y-15175436D01*
X9886491Y-15175436D02*
X9876967Y-15156388D01*
X9876967Y-15156388D02*
X9867444Y-15118293D01*
X9867444Y-15118293D02*
X9867444Y-15070674D01*
X9867444Y-15070674D02*
X9876967Y-15032579D01*
X9876967Y-15032579D02*
X9886491Y-15013531D01*
X9886491Y-15013531D02*
X9896015Y-15004008D01*
X9896015Y-15004008D02*
X9915063Y-14994484D01*
X10105539Y-14994484D02*
X10124586Y-14994484D01*
X10124586Y-14994484D02*
X10143634Y-15004008D01*
X10143634Y-15004008D02*
X10153158Y-15013531D01*
X10153158Y-15013531D02*
X10162682Y-15032579D01*
X10162682Y-15032579D02*
X10172205Y-15070674D01*
X10172205Y-15070674D02*
X10172205Y-15118293D01*
X10172205Y-15118293D02*
X10162682Y-15156388D01*
X10162682Y-15156388D02*
X10153158Y-15175436D01*
X10153158Y-15175436D02*
X10143634Y-15184960D01*
X10143634Y-15184960D02*
X10124586Y-15194484D01*
X10124586Y-15194484D02*
X10105539Y-15194484D01*
X10105539Y-15194484D02*
X10086491Y-15184960D01*
X10086491Y-15184960D02*
X10076967Y-15175436D01*
X10076967Y-15175436D02*
X10067444Y-15156388D01*
X10067444Y-15156388D02*
X10057920Y-15118293D01*
X10057920Y-15118293D02*
X10057920Y-15070674D01*
X10057920Y-15070674D02*
X10067444Y-15032579D01*
X10067444Y-15032579D02*
X10076967Y-15013531D01*
X10076967Y-15013531D02*
X10086491Y-15004008D01*
X10086491Y-15004008D02*
X10105539Y-14994484D01*
X10257920Y-15194484D02*
X10257920Y-15061150D01*
X10257920Y-15080198D02*
X10267444Y-15070674D01*
X10267444Y-15070674D02*
X10286491Y-15061150D01*
X10286491Y-15061150D02*
X10315063Y-15061150D01*
X10315063Y-15061150D02*
X10334110Y-15070674D01*
X10334110Y-15070674D02*
X10343634Y-15089722D01*
X10343634Y-15089722D02*
X10343634Y-15194484D01*
X10343634Y-15089722D02*
X10353158Y-15070674D01*
X10353158Y-15070674D02*
X10372205Y-15061150D01*
X10372205Y-15061150D02*
X10400777Y-15061150D01*
X10400777Y-15061150D02*
X10419825Y-15070674D01*
X10419825Y-15070674D02*
X10429348Y-15089722D01*
X10429348Y-15089722D02*
X10429348Y-15194484D01*
X10524586Y-15194484D02*
X10524586Y-15061150D01*
X10524586Y-15080198D02*
X10534110Y-15070674D01*
X10534110Y-15070674D02*
X10553158Y-15061150D01*
X10553158Y-15061150D02*
X10581729Y-15061150D01*
X10581729Y-15061150D02*
X10600777Y-15070674D01*
X10600777Y-15070674D02*
X10610301Y-15089722D01*
X10610301Y-15089722D02*
X10610301Y-15194484D01*
X10610301Y-15089722D02*
X10619825Y-15070674D01*
X10619825Y-15070674D02*
X10638872Y-15061150D01*
X10638872Y-15061150D02*
X10667444Y-15061150D01*
X10667444Y-15061150D02*
X10686491Y-15070674D01*
X10686491Y-15070674D02*
X10696015Y-15089722D01*
X10696015Y-15089722D02*
X10696015Y-15194484D01*
X11086491Y-14984960D02*
X10915063Y-15242103D01*
X11343634Y-14994484D02*
X11362682Y-14994484D01*
X11362682Y-14994484D02*
X11381729Y-15004008D01*
X11381729Y-15004008D02*
X11391253Y-15013531D01*
X11391253Y-15013531D02*
X11400777Y-15032579D01*
X11400777Y-15032579D02*
X11410301Y-15070674D01*
X11410301Y-15070674D02*
X11410301Y-15118293D01*
X11410301Y-15118293D02*
X11400777Y-15156388D01*
X11400777Y-15156388D02*
X11391253Y-15175436D01*
X11391253Y-15175436D02*
X11381729Y-15184960D01*
X11381729Y-15184960D02*
X11362682Y-15194484D01*
X11362682Y-15194484D02*
X11343634Y-15194484D01*
X11343634Y-15194484D02*
X11324586Y-15184960D01*
X11324586Y-15184960D02*
X11315063Y-15175436D01*
X11315063Y-15175436D02*
X11305539Y-15156388D01*
X11305539Y-15156388D02*
X11296015Y-15118293D01*
X11296015Y-15118293D02*
X11296015Y-15070674D01*
X11296015Y-15070674D02*
X11305539Y-15032579D01*
X11305539Y-15032579D02*
X11315063Y-15013531D01*
X11315063Y-15013531D02*
X11324586Y-15004008D01*
X11324586Y-15004008D02*
X11343634Y-14994484D01*
X11496015Y-15175436D02*
X11505539Y-15184960D01*
X11505539Y-15184960D02*
X11496015Y-15194484D01*
X11496015Y-15194484D02*
X11486491Y-15184960D01*
X11486491Y-15184960D02*
X11496015Y-15175436D01*
X11496015Y-15175436D02*
X11496015Y-15194484D01*
X11629348Y-14994484D02*
X11648396Y-14994484D01*
X11648396Y-14994484D02*
X11667444Y-15004008D01*
X11667444Y-15004008D02*
X11676967Y-15013531D01*
X11676967Y-15013531D02*
X11686491Y-15032579D01*
X11686491Y-15032579D02*
X11696015Y-15070674D01*
X11696015Y-15070674D02*
X11696015Y-15118293D01*
X11696015Y-15118293D02*
X11686491Y-15156388D01*
X11686491Y-15156388D02*
X11676967Y-15175436D01*
X11676967Y-15175436D02*
X11667444Y-15184960D01*
X11667444Y-15184960D02*
X11648396Y-15194484D01*
X11648396Y-15194484D02*
X11629348Y-15194484D01*
X11629348Y-15194484D02*
X11610301Y-15184960D01*
X11610301Y-15184960D02*
X11600777Y-15175436D01*
X11600777Y-15175436D02*
X11591253Y-15156388D01*
X11591253Y-15156388D02*
X11581729Y-15118293D01*
X11581729Y-15118293D02*
X11581729Y-15070674D01*
X11581729Y-15070674D02*
X11591253Y-15032579D01*
X11591253Y-15032579D02*
X11600777Y-15013531D01*
X11600777Y-15013531D02*
X11610301Y-15004008D01*
X11610301Y-15004008D02*
X11629348Y-14994484D01*
X11762682Y-14994484D02*
X11886491Y-14994484D01*
X11886491Y-14994484D02*
X11819825Y-15070674D01*
X11819825Y-15070674D02*
X11848396Y-15070674D01*
X11848396Y-15070674D02*
X11867444Y-15080198D01*
X11867444Y-15080198D02*
X11876967Y-15089722D01*
X11876967Y-15089722D02*
X11886491Y-15108769D01*
X11886491Y-15108769D02*
X11886491Y-15156388D01*
X11886491Y-15156388D02*
X11876967Y-15175436D01*
X11876967Y-15175436D02*
X11867444Y-15184960D01*
X11867444Y-15184960D02*
X11848396Y-15194484D01*
X11848396Y-15194484D02*
X11791253Y-15194484D01*
X11791253Y-15194484D02*
X11772206Y-15184960D01*
X11772206Y-15184960D02*
X11762682Y-15175436D01*
X11981729Y-15194484D02*
X12019825Y-15194484D01*
X12019825Y-15194484D02*
X12038872Y-15184960D01*
X12038872Y-15184960D02*
X12048396Y-15175436D01*
X12048396Y-15175436D02*
X12067444Y-15146865D01*
X12067444Y-15146865D02*
X12076967Y-15108769D01*
X12076967Y-15108769D02*
X12076967Y-15032579D01*
X12076967Y-15032579D02*
X12067444Y-15013531D01*
X12067444Y-15013531D02*
X12057920Y-15004008D01*
X12057920Y-15004008D02*
X12038872Y-14994484D01*
X12038872Y-14994484D02*
X12000777Y-14994484D01*
X12000777Y-14994484D02*
X11981729Y-15004008D01*
X11981729Y-15004008D02*
X11972206Y-15013531D01*
X11972206Y-15013531D02*
X11962682Y-15032579D01*
X11962682Y-15032579D02*
X11962682Y-15080198D01*
X11962682Y-15080198D02*
X11972206Y-15099246D01*
X11972206Y-15099246D02*
X11981729Y-15108769D01*
X11981729Y-15108769D02*
X12000777Y-15118293D01*
X12000777Y-15118293D02*
X12038872Y-15118293D01*
X12038872Y-15118293D02*
X12057920Y-15108769D01*
X12057920Y-15108769D02*
X12067444Y-15099246D01*
X12067444Y-15099246D02*
X12076967Y-15080198D01*
X12248396Y-15061150D02*
X12248396Y-15194484D01*
X12200777Y-14984960D02*
X12153158Y-15127817D01*
X12153158Y-15127817D02*
X12276967Y-15127817D01*
X12343634Y-14994484D02*
X12343634Y-15032579D01*
X12419825Y-14994484D02*
X12419825Y-15032579D01*
X12715063Y-15270674D02*
X12705539Y-15261150D01*
X12705539Y-15261150D02*
X12686491Y-15232579D01*
X12686491Y-15232579D02*
X12676968Y-15213531D01*
X12676968Y-15213531D02*
X12667444Y-15184960D01*
X12667444Y-15184960D02*
X12657920Y-15137341D01*
X12657920Y-15137341D02*
X12657920Y-15099246D01*
X12657920Y-15099246D02*
X12667444Y-15051627D01*
X12667444Y-15051627D02*
X12676968Y-15023055D01*
X12676968Y-15023055D02*
X12686491Y-15004008D01*
X12686491Y-15004008D02*
X12705539Y-14975436D01*
X12705539Y-14975436D02*
X12715063Y-14965912D01*
X12781729Y-15013531D02*
X12791253Y-15004008D01*
X12791253Y-15004008D02*
X12810301Y-14994484D01*
X12810301Y-14994484D02*
X12857920Y-14994484D01*
X12857920Y-14994484D02*
X12876968Y-15004008D01*
X12876968Y-15004008D02*
X12886491Y-15013531D01*
X12886491Y-15013531D02*
X12896015Y-15032579D01*
X12896015Y-15032579D02*
X12896015Y-15051627D01*
X12896015Y-15051627D02*
X12886491Y-15080198D01*
X12886491Y-15080198D02*
X12772206Y-15194484D01*
X12772206Y-15194484D02*
X12896015Y-15194484D01*
X13134110Y-15194484D02*
X13134110Y-14994484D01*
X13219825Y-15194484D02*
X13219825Y-15089722D01*
X13219825Y-15089722D02*
X13210301Y-15070674D01*
X13210301Y-15070674D02*
X13191253Y-15061150D01*
X13191253Y-15061150D02*
X13162682Y-15061150D01*
X13162682Y-15061150D02*
X13143634Y-15070674D01*
X13143634Y-15070674D02*
X13134110Y-15080198D01*
X13343634Y-15194484D02*
X13324587Y-15184960D01*
X13324587Y-15184960D02*
X13315063Y-15175436D01*
X13315063Y-15175436D02*
X13305539Y-15156388D01*
X13305539Y-15156388D02*
X13305539Y-15099246D01*
X13305539Y-15099246D02*
X13315063Y-15080198D01*
X13315063Y-15080198D02*
X13324587Y-15070674D01*
X13324587Y-15070674D02*
X13343634Y-15061150D01*
X13343634Y-15061150D02*
X13372206Y-15061150D01*
X13372206Y-15061150D02*
X13391253Y-15070674D01*
X13391253Y-15070674D02*
X13400777Y-15080198D01*
X13400777Y-15080198D02*
X13410301Y-15099246D01*
X13410301Y-15099246D02*
X13410301Y-15156388D01*
X13410301Y-15156388D02*
X13400777Y-15175436D01*
X13400777Y-15175436D02*
X13391253Y-15184960D01*
X13391253Y-15184960D02*
X13372206Y-15194484D01*
X13372206Y-15194484D02*
X13343634Y-15194484D01*
X13524587Y-15194484D02*
X13505539Y-15184960D01*
X13505539Y-15184960D02*
X13496015Y-15165912D01*
X13496015Y-15165912D02*
X13496015Y-14994484D01*
X13676968Y-15184960D02*
X13657920Y-15194484D01*
X13657920Y-15194484D02*
X13619825Y-15194484D01*
X13619825Y-15194484D02*
X13600777Y-15184960D01*
X13600777Y-15184960D02*
X13591253Y-15165912D01*
X13591253Y-15165912D02*
X13591253Y-15089722D01*
X13591253Y-15089722D02*
X13600777Y-15070674D01*
X13600777Y-15070674D02*
X13619825Y-15061150D01*
X13619825Y-15061150D02*
X13657920Y-15061150D01*
X13657920Y-15061150D02*
X13676968Y-15070674D01*
X13676968Y-15070674D02*
X13686491Y-15089722D01*
X13686491Y-15089722D02*
X13686491Y-15108769D01*
X13686491Y-15108769D02*
X13591253Y-15127817D01*
X13762682Y-15184960D02*
X13781730Y-15194484D01*
X13781730Y-15194484D02*
X13819825Y-15194484D01*
X13819825Y-15194484D02*
X13838872Y-15184960D01*
X13838872Y-15184960D02*
X13848396Y-15165912D01*
X13848396Y-15165912D02*
X13848396Y-15156388D01*
X13848396Y-15156388D02*
X13838872Y-15137341D01*
X13838872Y-15137341D02*
X13819825Y-15127817D01*
X13819825Y-15127817D02*
X13791253Y-15127817D01*
X13791253Y-15127817D02*
X13772206Y-15118293D01*
X13772206Y-15118293D02*
X13762682Y-15099246D01*
X13762682Y-15099246D02*
X13762682Y-15089722D01*
X13762682Y-15089722D02*
X13772206Y-15070674D01*
X13772206Y-15070674D02*
X13791253Y-15061150D01*
X13791253Y-15061150D02*
X13819825Y-15061150D01*
X13819825Y-15061150D02*
X13838872Y-15070674D01*
X13915063Y-15270674D02*
X13924587Y-15261150D01*
X13924587Y-15261150D02*
X13943634Y-15232579D01*
X13943634Y-15232579D02*
X13953158Y-15213531D01*
X13953158Y-15213531D02*
X13962682Y-15184960D01*
X13962682Y-15184960D02*
X13972206Y-15137341D01*
X13972206Y-15137341D02*
X13972206Y-15099246D01*
X13972206Y-15099246D02*
X13962682Y-15051627D01*
X13962682Y-15051627D02*
X13953158Y-15023055D01*
X13953158Y-15023055D02*
X13943634Y-15004008D01*
X13943634Y-15004008D02*
X13924587Y-14975436D01*
X13924587Y-14975436D02*
X13915063Y-14965912D01*
X9110711Y-15437711D02*
X9110711Y-15296289D01*
X8969289Y-15296289D01*
X8969289Y-15437711D01*
X9110711Y-15437711D01*
X9391253Y-15277531D02*
X9400777Y-15268008D01*
X9400777Y-15268008D02*
X9419824Y-15258484D01*
X9419824Y-15258484D02*
X9467444Y-15258484D01*
X9467444Y-15258484D02*
X9486491Y-15268008D01*
X9486491Y-15268008D02*
X9496015Y-15277531D01*
X9496015Y-15277531D02*
X9505539Y-15296579D01*
X9505539Y-15296579D02*
X9505539Y-15315627D01*
X9505539Y-15315627D02*
X9496015Y-15344198D01*
X9496015Y-15344198D02*
X9381729Y-15458484D01*
X9381729Y-15458484D02*
X9505539Y-15458484D01*
X9591253Y-15439436D02*
X9600777Y-15448960D01*
X9600777Y-15448960D02*
X9591253Y-15458484D01*
X9591253Y-15458484D02*
X9581729Y-15448960D01*
X9581729Y-15448960D02*
X9591253Y-15439436D01*
X9591253Y-15439436D02*
X9591253Y-15458484D01*
X9724586Y-15258484D02*
X9743634Y-15258484D01*
X9743634Y-15258484D02*
X9762682Y-15268008D01*
X9762682Y-15268008D02*
X9772205Y-15277531D01*
X9772205Y-15277531D02*
X9781729Y-15296579D01*
X9781729Y-15296579D02*
X9791253Y-15334674D01*
X9791253Y-15334674D02*
X9791253Y-15382293D01*
X9791253Y-15382293D02*
X9781729Y-15420388D01*
X9781729Y-15420388D02*
X9772205Y-15439436D01*
X9772205Y-15439436D02*
X9762682Y-15448960D01*
X9762682Y-15448960D02*
X9743634Y-15458484D01*
X9743634Y-15458484D02*
X9724586Y-15458484D01*
X9724586Y-15458484D02*
X9705539Y-15448960D01*
X9705539Y-15448960D02*
X9696015Y-15439436D01*
X9696015Y-15439436D02*
X9686491Y-15420388D01*
X9686491Y-15420388D02*
X9676967Y-15382293D01*
X9676967Y-15382293D02*
X9676967Y-15334674D01*
X9676967Y-15334674D02*
X9686491Y-15296579D01*
X9686491Y-15296579D02*
X9696015Y-15277531D01*
X9696015Y-15277531D02*
X9705539Y-15268008D01*
X9705539Y-15268008D02*
X9724586Y-15258484D01*
X9915063Y-15258484D02*
X9934110Y-15258484D01*
X9934110Y-15258484D02*
X9953158Y-15268008D01*
X9953158Y-15268008D02*
X9962682Y-15277531D01*
X9962682Y-15277531D02*
X9972205Y-15296579D01*
X9972205Y-15296579D02*
X9981729Y-15334674D01*
X9981729Y-15334674D02*
X9981729Y-15382293D01*
X9981729Y-15382293D02*
X9972205Y-15420388D01*
X9972205Y-15420388D02*
X9962682Y-15439436D01*
X9962682Y-15439436D02*
X9953158Y-15448960D01*
X9953158Y-15448960D02*
X9934110Y-15458484D01*
X9934110Y-15458484D02*
X9915063Y-15458484D01*
X9915063Y-15458484D02*
X9896015Y-15448960D01*
X9896015Y-15448960D02*
X9886491Y-15439436D01*
X9886491Y-15439436D02*
X9876967Y-15420388D01*
X9876967Y-15420388D02*
X9867444Y-15382293D01*
X9867444Y-15382293D02*
X9867444Y-15334674D01*
X9867444Y-15334674D02*
X9876967Y-15296579D01*
X9876967Y-15296579D02*
X9886491Y-15277531D01*
X9886491Y-15277531D02*
X9896015Y-15268008D01*
X9896015Y-15268008D02*
X9915063Y-15258484D01*
X10105539Y-15258484D02*
X10124586Y-15258484D01*
X10124586Y-15258484D02*
X10143634Y-15268008D01*
X10143634Y-15268008D02*
X10153158Y-15277531D01*
X10153158Y-15277531D02*
X10162682Y-15296579D01*
X10162682Y-15296579D02*
X10172205Y-15334674D01*
X10172205Y-15334674D02*
X10172205Y-15382293D01*
X10172205Y-15382293D02*
X10162682Y-15420388D01*
X10162682Y-15420388D02*
X10153158Y-15439436D01*
X10153158Y-15439436D02*
X10143634Y-15448960D01*
X10143634Y-15448960D02*
X10124586Y-15458484D01*
X10124586Y-15458484D02*
X10105539Y-15458484D01*
X10105539Y-15458484D02*
X10086491Y-15448960D01*
X10086491Y-15448960D02*
X10076967Y-15439436D01*
X10076967Y-15439436D02*
X10067444Y-15420388D01*
X10067444Y-15420388D02*
X10057920Y-15382293D01*
X10057920Y-15382293D02*
X10057920Y-15334674D01*
X10057920Y-15334674D02*
X10067444Y-15296579D01*
X10067444Y-15296579D02*
X10076967Y-15277531D01*
X10076967Y-15277531D02*
X10086491Y-15268008D01*
X10086491Y-15268008D02*
X10105539Y-15258484D01*
X10257920Y-15458484D02*
X10257920Y-15325150D01*
X10257920Y-15344198D02*
X10267444Y-15334674D01*
X10267444Y-15334674D02*
X10286491Y-15325150D01*
X10286491Y-15325150D02*
X10315063Y-15325150D01*
X10315063Y-15325150D02*
X10334110Y-15334674D01*
X10334110Y-15334674D02*
X10343634Y-15353722D01*
X10343634Y-15353722D02*
X10343634Y-15458484D01*
X10343634Y-15353722D02*
X10353158Y-15334674D01*
X10353158Y-15334674D02*
X10372205Y-15325150D01*
X10372205Y-15325150D02*
X10400777Y-15325150D01*
X10400777Y-15325150D02*
X10419825Y-15334674D01*
X10419825Y-15334674D02*
X10429348Y-15353722D01*
X10429348Y-15353722D02*
X10429348Y-15458484D01*
X10524586Y-15458484D02*
X10524586Y-15325150D01*
X10524586Y-15344198D02*
X10534110Y-15334674D01*
X10534110Y-15334674D02*
X10553158Y-15325150D01*
X10553158Y-15325150D02*
X10581729Y-15325150D01*
X10581729Y-15325150D02*
X10600777Y-15334674D01*
X10600777Y-15334674D02*
X10610301Y-15353722D01*
X10610301Y-15353722D02*
X10610301Y-15458484D01*
X10610301Y-15353722D02*
X10619825Y-15334674D01*
X10619825Y-15334674D02*
X10638872Y-15325150D01*
X10638872Y-15325150D02*
X10667444Y-15325150D01*
X10667444Y-15325150D02*
X10686491Y-15334674D01*
X10686491Y-15334674D02*
X10696015Y-15353722D01*
X10696015Y-15353722D02*
X10696015Y-15458484D01*
X11086491Y-15248960D02*
X10915063Y-15506103D01*
X11343634Y-15258484D02*
X11362682Y-15258484D01*
X11362682Y-15258484D02*
X11381729Y-15268008D01*
X11381729Y-15268008D02*
X11391253Y-15277531D01*
X11391253Y-15277531D02*
X11400777Y-15296579D01*
X11400777Y-15296579D02*
X11410301Y-15334674D01*
X11410301Y-15334674D02*
X11410301Y-15382293D01*
X11410301Y-15382293D02*
X11400777Y-15420388D01*
X11400777Y-15420388D02*
X11391253Y-15439436D01*
X11391253Y-15439436D02*
X11381729Y-15448960D01*
X11381729Y-15448960D02*
X11362682Y-15458484D01*
X11362682Y-15458484D02*
X11343634Y-15458484D01*
X11343634Y-15458484D02*
X11324586Y-15448960D01*
X11324586Y-15448960D02*
X11315063Y-15439436D01*
X11315063Y-15439436D02*
X11305539Y-15420388D01*
X11305539Y-15420388D02*
X11296015Y-15382293D01*
X11296015Y-15382293D02*
X11296015Y-15334674D01*
X11296015Y-15334674D02*
X11305539Y-15296579D01*
X11305539Y-15296579D02*
X11315063Y-15277531D01*
X11315063Y-15277531D02*
X11324586Y-15268008D01*
X11324586Y-15268008D02*
X11343634Y-15258484D01*
X11496015Y-15439436D02*
X11505539Y-15448960D01*
X11505539Y-15448960D02*
X11496015Y-15458484D01*
X11496015Y-15458484D02*
X11486491Y-15448960D01*
X11486491Y-15448960D02*
X11496015Y-15439436D01*
X11496015Y-15439436D02*
X11496015Y-15458484D01*
X11629348Y-15258484D02*
X11648396Y-15258484D01*
X11648396Y-15258484D02*
X11667444Y-15268008D01*
X11667444Y-15268008D02*
X11676967Y-15277531D01*
X11676967Y-15277531D02*
X11686491Y-15296579D01*
X11686491Y-15296579D02*
X11696015Y-15334674D01*
X11696015Y-15334674D02*
X11696015Y-15382293D01*
X11696015Y-15382293D02*
X11686491Y-15420388D01*
X11686491Y-15420388D02*
X11676967Y-15439436D01*
X11676967Y-15439436D02*
X11667444Y-15448960D01*
X11667444Y-15448960D02*
X11648396Y-15458484D01*
X11648396Y-15458484D02*
X11629348Y-15458484D01*
X11629348Y-15458484D02*
X11610301Y-15448960D01*
X11610301Y-15448960D02*
X11600777Y-15439436D01*
X11600777Y-15439436D02*
X11591253Y-15420388D01*
X11591253Y-15420388D02*
X11581729Y-15382293D01*
X11581729Y-15382293D02*
X11581729Y-15334674D01*
X11581729Y-15334674D02*
X11591253Y-15296579D01*
X11591253Y-15296579D02*
X11600777Y-15277531D01*
X11600777Y-15277531D02*
X11610301Y-15268008D01*
X11610301Y-15268008D02*
X11629348Y-15258484D01*
X11762682Y-15258484D02*
X11896015Y-15258484D01*
X11896015Y-15258484D02*
X11810301Y-15458484D01*
X12000777Y-15344198D02*
X11981729Y-15334674D01*
X11981729Y-15334674D02*
X11972206Y-15325150D01*
X11972206Y-15325150D02*
X11962682Y-15306103D01*
X11962682Y-15306103D02*
X11962682Y-15296579D01*
X11962682Y-15296579D02*
X11972206Y-15277531D01*
X11972206Y-15277531D02*
X11981729Y-15268008D01*
X11981729Y-15268008D02*
X12000777Y-15258484D01*
X12000777Y-15258484D02*
X12038872Y-15258484D01*
X12038872Y-15258484D02*
X12057920Y-15268008D01*
X12057920Y-15268008D02*
X12067444Y-15277531D01*
X12067444Y-15277531D02*
X12076967Y-15296579D01*
X12076967Y-15296579D02*
X12076967Y-15306103D01*
X12076967Y-15306103D02*
X12067444Y-15325150D01*
X12067444Y-15325150D02*
X12057920Y-15334674D01*
X12057920Y-15334674D02*
X12038872Y-15344198D01*
X12038872Y-15344198D02*
X12000777Y-15344198D01*
X12000777Y-15344198D02*
X11981729Y-15353722D01*
X11981729Y-15353722D02*
X11972206Y-15363246D01*
X11972206Y-15363246D02*
X11962682Y-15382293D01*
X11962682Y-15382293D02*
X11962682Y-15420388D01*
X11962682Y-15420388D02*
X11972206Y-15439436D01*
X11972206Y-15439436D02*
X11981729Y-15448960D01*
X11981729Y-15448960D02*
X12000777Y-15458484D01*
X12000777Y-15458484D02*
X12038872Y-15458484D01*
X12038872Y-15458484D02*
X12057920Y-15448960D01*
X12057920Y-15448960D02*
X12067444Y-15439436D01*
X12067444Y-15439436D02*
X12076967Y-15420388D01*
X12076967Y-15420388D02*
X12076967Y-15382293D01*
X12076967Y-15382293D02*
X12067444Y-15363246D01*
X12067444Y-15363246D02*
X12057920Y-15353722D01*
X12057920Y-15353722D02*
X12038872Y-15344198D01*
X12143634Y-15258484D02*
X12276967Y-15258484D01*
X12276967Y-15258484D02*
X12191253Y-15458484D01*
X12343634Y-15258484D02*
X12343634Y-15296579D01*
X12419825Y-15258484D02*
X12419825Y-15296579D01*
X12715063Y-15534674D02*
X12705539Y-15525150D01*
X12705539Y-15525150D02*
X12686491Y-15496579D01*
X12686491Y-15496579D02*
X12676968Y-15477531D01*
X12676968Y-15477531D02*
X12667444Y-15448960D01*
X12667444Y-15448960D02*
X12657920Y-15401341D01*
X12657920Y-15401341D02*
X12657920Y-15363246D01*
X12657920Y-15363246D02*
X12667444Y-15315627D01*
X12667444Y-15315627D02*
X12676968Y-15287055D01*
X12676968Y-15287055D02*
X12686491Y-15268008D01*
X12686491Y-15268008D02*
X12705539Y-15239436D01*
X12705539Y-15239436D02*
X12715063Y-15229912D01*
X12876968Y-15325150D02*
X12876968Y-15458484D01*
X12829348Y-15248960D02*
X12781729Y-15391817D01*
X12781729Y-15391817D02*
X12905539Y-15391817D01*
X13134110Y-15458484D02*
X13134110Y-15258484D01*
X13219825Y-15458484D02*
X13219825Y-15353722D01*
X13219825Y-15353722D02*
X13210301Y-15334674D01*
X13210301Y-15334674D02*
X13191253Y-15325150D01*
X13191253Y-15325150D02*
X13162682Y-15325150D01*
X13162682Y-15325150D02*
X13143634Y-15334674D01*
X13143634Y-15334674D02*
X13134110Y-15344198D01*
X13343634Y-15458484D02*
X13324587Y-15448960D01*
X13324587Y-15448960D02*
X13315063Y-15439436D01*
X13315063Y-15439436D02*
X13305539Y-15420388D01*
X13305539Y-15420388D02*
X13305539Y-15363246D01*
X13305539Y-15363246D02*
X13315063Y-15344198D01*
X13315063Y-15344198D02*
X13324587Y-15334674D01*
X13324587Y-15334674D02*
X13343634Y-15325150D01*
X13343634Y-15325150D02*
X13372206Y-15325150D01*
X13372206Y-15325150D02*
X13391253Y-15334674D01*
X13391253Y-15334674D02*
X13400777Y-15344198D01*
X13400777Y-15344198D02*
X13410301Y-15363246D01*
X13410301Y-15363246D02*
X13410301Y-15420388D01*
X13410301Y-15420388D02*
X13400777Y-15439436D01*
X13400777Y-15439436D02*
X13391253Y-15448960D01*
X13391253Y-15448960D02*
X13372206Y-15458484D01*
X13372206Y-15458484D02*
X13343634Y-15458484D01*
X13524587Y-15458484D02*
X13505539Y-15448960D01*
X13505539Y-15448960D02*
X13496015Y-15429912D01*
X13496015Y-15429912D02*
X13496015Y-15258484D01*
X13676968Y-15448960D02*
X13657920Y-15458484D01*
X13657920Y-15458484D02*
X13619825Y-15458484D01*
X13619825Y-15458484D02*
X13600777Y-15448960D01*
X13600777Y-15448960D02*
X13591253Y-15429912D01*
X13591253Y-15429912D02*
X13591253Y-15353722D01*
X13591253Y-15353722D02*
X13600777Y-15334674D01*
X13600777Y-15334674D02*
X13619825Y-15325150D01*
X13619825Y-15325150D02*
X13657920Y-15325150D01*
X13657920Y-15325150D02*
X13676968Y-15334674D01*
X13676968Y-15334674D02*
X13686491Y-15353722D01*
X13686491Y-15353722D02*
X13686491Y-15372769D01*
X13686491Y-15372769D02*
X13591253Y-15391817D01*
X13762682Y-15448960D02*
X13781730Y-15458484D01*
X13781730Y-15458484D02*
X13819825Y-15458484D01*
X13819825Y-15458484D02*
X13838872Y-15448960D01*
X13838872Y-15448960D02*
X13848396Y-15429912D01*
X13848396Y-15429912D02*
X13848396Y-15420388D01*
X13848396Y-15420388D02*
X13838872Y-15401341D01*
X13838872Y-15401341D02*
X13819825Y-15391817D01*
X13819825Y-15391817D02*
X13791253Y-15391817D01*
X13791253Y-15391817D02*
X13772206Y-15382293D01*
X13772206Y-15382293D02*
X13762682Y-15363246D01*
X13762682Y-15363246D02*
X13762682Y-15353722D01*
X13762682Y-15353722D02*
X13772206Y-15334674D01*
X13772206Y-15334674D02*
X13791253Y-15325150D01*
X13791253Y-15325150D02*
X13819825Y-15325150D01*
X13819825Y-15325150D02*
X13838872Y-15334674D01*
X13915063Y-15534674D02*
X13924587Y-15525150D01*
X13924587Y-15525150D02*
X13943634Y-15496579D01*
X13943634Y-15496579D02*
X13953158Y-15477531D01*
X13953158Y-15477531D02*
X13962682Y-15448960D01*
X13962682Y-15448960D02*
X13972206Y-15401341D01*
X13972206Y-15401341D02*
X13972206Y-15363246D01*
X13972206Y-15363246D02*
X13962682Y-15315627D01*
X13962682Y-15315627D02*
X13953158Y-15287055D01*
X13953158Y-15287055D02*
X13943634Y-15268008D01*
X13943634Y-15268008D02*
X13924587Y-15239436D01*
X13924587Y-15239436D02*
X13915063Y-15229912D01*
M02*
