G04 #@! TF.GenerationSoftware,KiCad,Pcbnew,7.0.10*
G04 #@! TF.CreationDate,2024-05-01T16:26:18+02:00*
G04 #@! TF.ProjectId,microscope,6d696372-6f73-4636-9f70-652e6b696361,rev?*
G04 #@! TF.SameCoordinates,Original*
G04 #@! TF.FileFunction,Copper,L1,Top*
G04 #@! TF.FilePolarity,Positive*
%FSLAX46Y46*%
G04 Gerber Fmt 4.6, Leading zero omitted, Abs format (unit mm)*
G04 Created by KiCad (PCBNEW 7.0.10) date 2024-05-01 16:26:18*
%MOMM*%
%LPD*%
G01*
G04 APERTURE LIST*
G04 Aperture macros list*
%AMRoundRect*
0 Rectangle with rounded corners*
0 $1 Rounding radius*
0 $2 $3 $4 $5 $6 $7 $8 $9 X,Y pos of 4 corners*
0 Add a 4 corners polygon primitive as box body*
4,1,4,$2,$3,$4,$5,$6,$7,$8,$9,$2,$3,0*
0 Add four circle primitives for the rounded corners*
1,1,$1+$1,$2,$3*
1,1,$1+$1,$4,$5*
1,1,$1+$1,$6,$7*
1,1,$1+$1,$8,$9*
0 Add four rect primitives between the rounded corners*
20,1,$1+$1,$2,$3,$4,$5,0*
20,1,$1+$1,$4,$5,$6,$7,0*
20,1,$1+$1,$6,$7,$8,$9,0*
20,1,$1+$1,$8,$9,$2,$3,0*%
%AMFreePoly0*
4,1,9,3.862500,-0.866500,0.737500,-0.866500,0.737500,-0.450000,-0.737500,-0.450000,-0.737500,0.450000,0.737500,0.450000,0.737500,0.866500,3.862500,0.866500,3.862500,-0.866500,3.862500,-0.866500,$1*%
G04 Aperture macros list end*
G04 #@! TA.AperFunction,SMDPad,CuDef*
%ADD10RoundRect,0.250000X-0.450000X0.262500X-0.450000X-0.262500X0.450000X-0.262500X0.450000X0.262500X0*%
G04 #@! TD*
G04 #@! TA.AperFunction,SMDPad,CuDef*
%ADD11RoundRect,0.150000X0.150000X-0.587500X0.150000X0.587500X-0.150000X0.587500X-0.150000X-0.587500X0*%
G04 #@! TD*
G04 #@! TA.AperFunction,SMDPad,CuDef*
%ADD12R,2.200000X2.200000*%
G04 #@! TD*
G04 #@! TA.AperFunction,SMDPad,CuDef*
%ADD13R,1.250000X2.200000*%
G04 #@! TD*
G04 #@! TA.AperFunction,SMDPad,CuDef*
%ADD14RoundRect,0.225000X-0.225000X-0.250000X0.225000X-0.250000X0.225000X0.250000X-0.225000X0.250000X0*%
G04 #@! TD*
G04 #@! TA.AperFunction,SMDPad,CuDef*
%ADD15RoundRect,0.200000X-0.200000X-0.275000X0.200000X-0.275000X0.200000X0.275000X-0.200000X0.275000X0*%
G04 #@! TD*
G04 #@! TA.AperFunction,SMDPad,CuDef*
%ADD16R,0.900000X1.300000*%
G04 #@! TD*
G04 #@! TA.AperFunction,SMDPad,CuDef*
%ADD17FreePoly0,90.000000*%
G04 #@! TD*
G04 #@! TA.AperFunction,SMDPad,CuDef*
%ADD18RoundRect,0.225000X0.225000X0.250000X-0.225000X0.250000X-0.225000X-0.250000X0.225000X-0.250000X0*%
G04 #@! TD*
G04 #@! TA.AperFunction,SMDPad,CuDef*
%ADD19RoundRect,0.042000X-0.258000X0.943000X-0.258000X-0.943000X0.258000X-0.943000X0.258000X0.943000X0*%
G04 #@! TD*
G04 #@! TA.AperFunction,SMDPad,CuDef*
%ADD20RoundRect,0.250000X-1.000000X1.750000X-1.000000X-1.750000X1.000000X-1.750000X1.000000X1.750000X0*%
G04 #@! TD*
G04 #@! TA.AperFunction,SMDPad,CuDef*
%ADD21RoundRect,0.200000X0.275000X-0.200000X0.275000X0.200000X-0.275000X0.200000X-0.275000X-0.200000X0*%
G04 #@! TD*
G04 #@! TA.AperFunction,ComponentPad*
%ADD22RoundRect,0.250000X-0.750000X0.600000X-0.750000X-0.600000X0.750000X-0.600000X0.750000X0.600000X0*%
G04 #@! TD*
G04 #@! TA.AperFunction,ComponentPad*
%ADD23O,2.000000X1.700000*%
G04 #@! TD*
G04 #@! TA.AperFunction,SMDPad,CuDef*
%ADD24RoundRect,0.042000X-0.943000X-0.258000X0.943000X-0.258000X0.943000X0.258000X-0.943000X0.258000X0*%
G04 #@! TD*
G04 #@! TA.AperFunction,ComponentPad*
%ADD25RoundRect,0.250000X-0.725000X0.600000X-0.725000X-0.600000X0.725000X-0.600000X0.725000X0.600000X0*%
G04 #@! TD*
G04 #@! TA.AperFunction,ComponentPad*
%ADD26O,1.950000X1.700000*%
G04 #@! TD*
G04 #@! TA.AperFunction,SMDPad,CuDef*
%ADD27RoundRect,0.091000X0.364000X-0.864000X0.364000X0.864000X-0.364000X0.864000X-0.364000X-0.864000X0*%
G04 #@! TD*
G04 #@! TA.AperFunction,SMDPad,CuDef*
%ADD28RoundRect,0.200000X0.200000X0.275000X-0.200000X0.275000X-0.200000X-0.275000X0.200000X-0.275000X0*%
G04 #@! TD*
G04 #@! TA.AperFunction,ComponentPad*
%ADD29C,3.000000*%
G04 #@! TD*
G04 #@! TA.AperFunction,SMDPad,CuDef*
%ADD30RoundRect,0.200000X-0.275000X0.200000X-0.275000X-0.200000X0.275000X-0.200000X0.275000X0.200000X0*%
G04 #@! TD*
G04 #@! TA.AperFunction,SMDPad,CuDef*
%ADD31RoundRect,0.250000X1.000000X-1.750000X1.000000X1.750000X-1.000000X1.750000X-1.000000X-1.750000X0*%
G04 #@! TD*
G04 #@! TA.AperFunction,ViaPad*
%ADD32C,0.600000*%
G04 #@! TD*
G04 #@! TA.AperFunction,Conductor*
%ADD33C,0.600000*%
G04 #@! TD*
G04 #@! TA.AperFunction,Conductor*
%ADD34C,0.350000*%
G04 #@! TD*
G04 APERTURE END LIST*
D10*
X99550000Y-69337500D03*
X99550000Y-71162500D03*
X101750000Y-69337500D03*
X101750000Y-71162500D03*
D11*
X99250000Y-75000000D03*
X101150000Y-75000000D03*
X100200000Y-73125000D03*
D12*
X100900000Y-53000000D03*
D13*
X98625000Y-53000000D03*
D14*
X102600000Y-123600000D03*
X104150000Y-123600000D03*
D15*
X102575000Y-122000000D03*
X104225000Y-122000000D03*
D16*
X102900000Y-115350000D03*
D17*
X104400000Y-115262500D03*
D16*
X105900000Y-115350000D03*
D18*
X104150000Y-125200000D03*
X102600000Y-125200000D03*
D19*
X102805000Y-130885000D03*
X101535000Y-130885000D03*
X100265000Y-130885000D03*
X98995000Y-130885000D03*
X98995000Y-135825000D03*
X100265000Y-135825000D03*
X101535000Y-135825000D03*
X102805000Y-135825000D03*
D20*
X97000000Y-110000000D03*
X97000000Y-116100000D03*
D21*
X101600000Y-79500000D03*
X101600000Y-77850000D03*
D22*
X99450000Y-90500000D03*
D23*
X99450000Y-93000000D03*
D24*
X95460000Y-120760000D03*
X95460000Y-122030000D03*
X95460000Y-123300000D03*
X95460000Y-124570000D03*
X100400000Y-124570000D03*
X100400000Y-123300000D03*
X100400000Y-122030000D03*
X100400000Y-120760000D03*
D25*
X99425000Y-79450000D03*
D26*
X99425000Y-81950000D03*
X99425000Y-84450000D03*
D27*
X103250000Y-105500000D03*
X105700000Y-105500000D03*
X105700000Y-99700000D03*
X103250000Y-99700000D03*
D15*
X101225000Y-128630000D03*
X102875000Y-128630000D03*
D14*
X95425000Y-126200000D03*
X96975000Y-126200000D03*
D28*
X104225000Y-120400000D03*
X102575000Y-120400000D03*
D29*
X94400000Y-135100000D03*
D21*
X101600000Y-86200000D03*
X101600000Y-84550000D03*
D30*
X104450000Y-129205000D03*
X104450000Y-130855000D03*
D31*
X96950000Y-105250000D03*
X96950000Y-99150000D03*
D29*
X105700000Y-81300000D03*
X105700000Y-87800000D03*
D18*
X105175000Y-110200000D03*
X103625000Y-110200000D03*
X104375000Y-117200000D03*
X102825000Y-117200000D03*
D29*
X94400000Y-129500000D03*
D32*
X96250000Y-133250000D03*
X104500000Y-135000000D03*
X101500000Y-108500000D03*
X101500000Y-95750000D03*
X100000000Y-97000000D03*
X103500000Y-56500000D03*
X103500000Y-63250000D03*
X99500000Y-63250000D03*
X99500000Y-56500000D03*
X98800000Y-124000000D03*
X101600000Y-132400000D03*
X96900000Y-122000000D03*
X104100000Y-127850000D03*
X100200000Y-129500000D03*
D33*
X101750000Y-53850000D02*
X100900000Y-53000000D01*
X101750000Y-69337500D02*
X101750000Y-53850000D01*
X99550000Y-69337500D02*
X101750000Y-69337500D01*
X99550000Y-71162500D02*
X101750000Y-71162500D01*
X100200000Y-71812500D02*
X99550000Y-71162500D01*
X100200000Y-73125000D02*
X100200000Y-71812500D01*
D34*
X102575000Y-122000000D02*
X102575000Y-120400000D01*
X101970000Y-124570000D02*
X102600000Y-125200000D01*
X100400000Y-124570000D02*
X101970000Y-124570000D01*
D33*
X104375000Y-117200000D02*
X104375000Y-115287500D01*
X104375000Y-115287500D02*
X104400000Y-115262500D01*
D34*
X101800000Y-123300000D02*
X102300000Y-123300000D01*
X102625000Y-123600000D02*
X104225000Y-122000000D01*
X101600000Y-132400000D02*
X101600000Y-130950000D01*
X95460000Y-122030000D02*
X96870000Y-122030000D01*
X99500000Y-123300000D02*
X100400000Y-123300000D01*
X102600000Y-123600000D02*
X102625000Y-123600000D01*
X98800000Y-124000000D02*
X99500000Y-123300000D01*
X96870000Y-122030000D02*
X96900000Y-122000000D01*
X102300000Y-123300000D02*
X102600000Y-123600000D01*
X100400000Y-123300000D02*
X101800000Y-123300000D01*
X101600000Y-130950000D02*
X101535000Y-130885000D01*
D33*
X106800000Y-114450000D02*
X106800000Y-111825000D01*
X97200000Y-127975000D02*
X95425000Y-126200000D01*
X105900000Y-115350000D02*
X106800000Y-114450000D01*
X101600000Y-86200000D02*
X101600000Y-87600000D01*
X101464999Y-133500000D02*
X98600000Y-133500000D01*
X106800000Y-111825000D02*
X105175000Y-110200000D01*
X98600000Y-87600000D02*
X96800000Y-85800000D01*
X101600000Y-87600000D02*
X98600000Y-87600000D01*
X106800000Y-92800000D02*
X106800000Y-108575000D01*
X102805000Y-135825000D02*
X102805000Y-134840001D01*
X96800000Y-85800000D02*
X96800000Y-54825000D01*
X101600000Y-87600000D02*
X106800000Y-92800000D01*
X97200000Y-132100000D02*
X97200000Y-127975000D01*
X105900000Y-118725000D02*
X104225000Y-120400000D01*
X96800000Y-54825000D02*
X98625000Y-53000000D01*
X105900000Y-115350000D02*
X105900000Y-118725000D01*
X98600000Y-133500000D02*
X97200000Y-132100000D01*
X106800000Y-108575000D02*
X105175000Y-110200000D01*
X102805000Y-134840001D02*
X101464999Y-133500000D01*
X99450000Y-90500000D02*
X102500000Y-90500000D01*
X102500000Y-90500000D02*
X105700000Y-93700000D01*
X105700000Y-93700000D02*
X105700000Y-99700000D01*
X99450000Y-93000000D02*
X101200000Y-93000000D01*
X101200000Y-93000000D02*
X103250000Y-95050000D01*
X103250000Y-95050000D02*
X103250000Y-99700000D01*
D34*
X100850000Y-76600000D02*
X103121320Y-76600000D01*
X105700000Y-79178680D02*
X105700000Y-81300000D01*
X103121320Y-76600000D02*
X105700000Y-79178680D01*
X99250000Y-75000000D02*
X100850000Y-76600000D01*
X102545000Y-122030000D02*
X102575000Y-122000000D01*
X100400000Y-122030000D02*
X102545000Y-122030000D01*
X104420000Y-130885000D02*
X104450000Y-130855000D01*
X102805000Y-130885000D02*
X104420000Y-130885000D01*
X99475000Y-79900000D02*
X99425000Y-79950000D01*
X99475000Y-79500000D02*
X99425000Y-79450000D01*
X101600000Y-79500000D02*
X99475000Y-79500000D01*
X100200000Y-129500000D02*
X100200000Y-130820000D01*
X100200000Y-130820000D02*
X100265000Y-130885000D01*
X99525000Y-84550000D02*
X99425000Y-84450000D01*
X101600000Y-84550000D02*
X99525000Y-84550000D01*
G04 #@! TA.AperFunction,Conductor*
G36*
X104115677Y-127219685D02*
G01*
X104136319Y-127236319D01*
X105063681Y-128163681D01*
X105097166Y-128225004D01*
X105100000Y-128251362D01*
X105100000Y-129676000D01*
X105080315Y-129743039D01*
X105027511Y-129788794D01*
X104976000Y-129800000D01*
X104022486Y-129800000D01*
X103978947Y-129792105D01*
X102480461Y-129230172D01*
X102424601Y-129188201D01*
X102400300Y-129122694D01*
X102400000Y-129114067D01*
X102400000Y-128046592D01*
X102419685Y-127979553D01*
X102430680Y-127964937D01*
X103062948Y-127242345D01*
X103121908Y-127204855D01*
X103156268Y-127200000D01*
X104048638Y-127200000D01*
X104115677Y-127219685D01*
G37*
G04 #@! TD.AperFunction*
G04 #@! TA.AperFunction,Conductor*
G36*
X98413798Y-103203194D02*
G01*
X103703965Y-104427769D01*
X103764837Y-104462065D01*
X103797505Y-104523828D01*
X103800000Y-104548575D01*
X103800000Y-106426000D01*
X103780315Y-106493039D01*
X103727511Y-106538794D01*
X103676000Y-106550000D01*
X99349999Y-106550000D01*
X98300000Y-107599999D01*
X98300000Y-107600000D01*
X98300000Y-110350000D01*
X99350000Y-111400000D01*
X105076000Y-111400000D01*
X105143039Y-111419685D01*
X105188794Y-111472489D01*
X105200000Y-111524000D01*
X105200000Y-114276000D01*
X105180315Y-114343039D01*
X105127511Y-114388794D01*
X105076000Y-114400000D01*
X103616737Y-114400000D01*
X103583858Y-114395561D01*
X95691121Y-112225058D01*
X95631700Y-112188303D01*
X95601584Y-112125256D01*
X95600000Y-112105497D01*
X95600000Y-103324000D01*
X95619685Y-103256961D01*
X95672489Y-103211206D01*
X95724000Y-103200000D01*
X98385834Y-103200000D01*
X98413798Y-103203194D01*
G37*
G04 #@! TD.AperFunction*
G04 #@! TA.AperFunction,Conductor*
G36*
X104215677Y-118619685D02*
G01*
X104236319Y-118636319D01*
X104663681Y-119063681D01*
X104697166Y-119125004D01*
X104700000Y-119151362D01*
X104700000Y-120776000D01*
X104680315Y-120843039D01*
X104627511Y-120888794D01*
X104576000Y-120900000D01*
X103824000Y-120900000D01*
X103756961Y-120880315D01*
X103711206Y-120827511D01*
X103700000Y-120776000D01*
X103700000Y-119600000D01*
X101800000Y-119600000D01*
X101799999Y-119600000D01*
X101500000Y-119899999D01*
X101500000Y-121076000D01*
X101480315Y-121143039D01*
X101427511Y-121188794D01*
X101376000Y-121200000D01*
X99299999Y-121200000D01*
X98800000Y-121699999D01*
X98800000Y-123232883D01*
X98780315Y-123299922D01*
X98727511Y-123345677D01*
X98705675Y-123353280D01*
X98567633Y-123387304D01*
X98427762Y-123460715D01*
X98309516Y-123565471D01*
X98219781Y-123695475D01*
X98219780Y-123695476D01*
X98163762Y-123843181D01*
X98144722Y-123999999D01*
X98144722Y-124000000D01*
X98163762Y-124156818D01*
X98201742Y-124256961D01*
X98219780Y-124304523D01*
X98233224Y-124324000D01*
X98309516Y-124434529D01*
X98346635Y-124467413D01*
X98383762Y-124526603D01*
X98382994Y-124596468D01*
X98352089Y-124647910D01*
X98036319Y-124963681D01*
X97974996Y-124997166D01*
X97948638Y-125000000D01*
X96299999Y-125000000D01*
X95900000Y-125399999D01*
X95900000Y-126576000D01*
X95880315Y-126643039D01*
X95827511Y-126688794D01*
X95776000Y-126700000D01*
X95087732Y-126700000D01*
X95020693Y-126680315D01*
X94974938Y-126627511D01*
X94970801Y-126617270D01*
X94407069Y-125020028D01*
X94400000Y-124978758D01*
X94400000Y-124324000D01*
X94419685Y-124256961D01*
X94472489Y-124211206D01*
X94524000Y-124200000D01*
X96699998Y-124200000D01*
X96700000Y-124200000D01*
X97100000Y-123803090D01*
X97100000Y-122704642D01*
X97119685Y-122637603D01*
X97166372Y-122594847D01*
X97272240Y-122539283D01*
X97390483Y-122434530D01*
X97480220Y-122304523D01*
X97536237Y-122156818D01*
X97555278Y-122000000D01*
X97536237Y-121843182D01*
X97480220Y-121695477D01*
X97390483Y-121565470D01*
X97272240Y-121460717D01*
X97272237Y-121460714D01*
X97166374Y-121405153D01*
X97116161Y-121356568D01*
X97100000Y-121295357D01*
X97100000Y-120551362D01*
X97119685Y-120484323D01*
X97136319Y-120463681D01*
X98963681Y-118636319D01*
X99025004Y-118602834D01*
X99051362Y-118600000D01*
X104148638Y-118600000D01*
X104215677Y-118619685D01*
G37*
G04 #@! TD.AperFunction*
G04 #@! TA.AperFunction,Conductor*
G36*
X101003032Y-49250648D02*
G01*
X101336929Y-49267052D01*
X101349037Y-49268245D01*
X101452146Y-49283539D01*
X101676699Y-49316849D01*
X101688617Y-49319219D01*
X102009951Y-49399709D01*
X102021588Y-49403240D01*
X102092806Y-49428722D01*
X102333467Y-49514832D01*
X102344688Y-49519479D01*
X102644163Y-49661120D01*
X102654871Y-49666844D01*
X102938988Y-49837137D01*
X102949106Y-49843897D01*
X103215170Y-50041224D01*
X103224576Y-50048944D01*
X103470013Y-50271395D01*
X103478604Y-50279986D01*
X103665755Y-50486475D01*
X103701055Y-50525423D01*
X103708775Y-50534829D01*
X103906102Y-50800893D01*
X103912862Y-50811011D01*
X104041776Y-51026092D01*
X104083148Y-51095116D01*
X104088885Y-51105848D01*
X104230514Y-51405297D01*
X104235170Y-51416540D01*
X104346759Y-51728411D01*
X104350292Y-51740055D01*
X104430777Y-52061369D01*
X104433151Y-52073305D01*
X104481754Y-52400962D01*
X104482947Y-52413071D01*
X104499351Y-52746966D01*
X104499500Y-52753051D01*
X104499500Y-72915460D01*
X104499510Y-72915746D01*
X104499542Y-73053847D01*
X104499542Y-73053848D01*
X104535795Y-73408699D01*
X104605887Y-73748153D01*
X104607924Y-73758016D01*
X104643004Y-73869274D01*
X104712708Y-74090350D01*
X104715184Y-74098200D01*
X104854249Y-74420589D01*
X104856463Y-74425720D01*
X104856469Y-74425733D01*
X105030293Y-74737179D01*
X105030296Y-74737183D01*
X105030298Y-74737187D01*
X105234888Y-75029373D01*
X105451123Y-75279589D01*
X105468118Y-75299254D01*
X105727558Y-75544024D01*
X105727564Y-75544029D01*
X106010540Y-75761164D01*
X106010552Y-75761173D01*
X106314125Y-75948420D01*
X106314151Y-75948434D01*
X106635169Y-76103850D01*
X106635176Y-76103853D01*
X106635183Y-76103856D01*
X106708584Y-76130591D01*
X106764567Y-76150982D01*
X106765396Y-76151318D01*
X106769129Y-76152676D01*
X106769130Y-76152677D01*
X107418409Y-76388978D01*
X107474673Y-76430402D01*
X107499610Y-76495670D01*
X107500000Y-76505500D01*
X107500000Y-80353917D01*
X107480315Y-80420956D01*
X107427511Y-80466711D01*
X107358353Y-80476655D01*
X107294797Y-80447630D01*
X107268613Y-80415917D01*
X107264814Y-80409338D01*
X107191815Y-80282898D01*
X107023561Y-80071915D01*
X107023560Y-80071914D01*
X107023557Y-80071910D01*
X106825741Y-79888365D01*
X106602775Y-79736349D01*
X106602769Y-79736346D01*
X106602768Y-79736345D01*
X106602767Y-79736344D01*
X106359643Y-79619263D01*
X106359645Y-79619263D01*
X106311529Y-79604421D01*
X106262949Y-79589436D01*
X106204691Y-79550866D01*
X106176533Y-79486922D01*
X106175500Y-79470946D01*
X106175500Y-79243137D01*
X106178334Y-79216778D01*
X106179167Y-79212949D01*
X106179166Y-79212948D01*
X106175815Y-79166103D01*
X106175500Y-79157256D01*
X106175500Y-79144670D01*
X106175500Y-79144669D01*
X106173706Y-79132194D01*
X106172762Y-79123415D01*
X106169411Y-79076565D01*
X106168044Y-79072901D01*
X106161487Y-79047210D01*
X106160931Y-79043338D01*
X106141419Y-79000614D01*
X106138042Y-78992463D01*
X106121629Y-78948454D01*
X106119278Y-78945314D01*
X106105756Y-78922524D01*
X106104130Y-78918962D01*
X106073379Y-78883473D01*
X106067825Y-78876580D01*
X106060286Y-78866509D01*
X106060284Y-78866506D01*
X106060279Y-78866500D01*
X106051372Y-78857593D01*
X106045354Y-78851130D01*
X106014589Y-78815625D01*
X106011291Y-78813505D01*
X105990651Y-78796872D01*
X103503128Y-76309349D01*
X103486492Y-76288704D01*
X103484378Y-76285415D01*
X103484377Y-76285414D01*
X103484376Y-76285413D01*
X103484375Y-76285411D01*
X103448868Y-76254645D01*
X103442417Y-76248638D01*
X103433500Y-76239721D01*
X103423412Y-76232169D01*
X103416531Y-76226625D01*
X103381038Y-76195870D01*
X103377472Y-76194241D01*
X103354682Y-76180718D01*
X103351547Y-76178371D01*
X103307543Y-76161959D01*
X103299388Y-76158581D01*
X103256662Y-76139069D01*
X103256661Y-76139068D01*
X103256657Y-76139067D01*
X103252775Y-76138509D01*
X103227111Y-76131959D01*
X103223442Y-76130591D01*
X103223437Y-76130590D01*
X103223435Y-76130589D01*
X103215080Y-76129991D01*
X103176593Y-76127237D01*
X103167814Y-76126293D01*
X103155339Y-76124501D01*
X103155336Y-76124500D01*
X103155331Y-76124500D01*
X103155325Y-76124500D01*
X103142743Y-76124500D01*
X103133895Y-76124184D01*
X103087051Y-76120833D01*
X103087048Y-76120833D01*
X103085161Y-76121243D01*
X103083218Y-76121666D01*
X103056862Y-76124500D01*
X101954977Y-76124500D01*
X101887938Y-76104815D01*
X101842183Y-76052011D01*
X101832239Y-75982853D01*
X101848245Y-75937379D01*
X101901282Y-75847696D01*
X101901283Y-75847693D01*
X101947099Y-75689995D01*
X101947100Y-75689989D01*
X101949999Y-75653149D01*
X101950000Y-75653134D01*
X101950000Y-75250000D01*
X100349999Y-75250000D01*
X100348909Y-75251090D01*
X100287585Y-75284575D01*
X100217894Y-75279589D01*
X100173548Y-75251089D01*
X99886819Y-74964360D01*
X99853334Y-74903037D01*
X99850500Y-74876679D01*
X99850500Y-74358230D01*
X99847646Y-74327801D01*
X99846845Y-74325511D01*
X99846753Y-74323710D01*
X99846036Y-74320427D01*
X99846579Y-74320308D01*
X99843284Y-74255732D01*
X99878013Y-74195105D01*
X99940007Y-74162878D01*
X99975464Y-74161099D01*
X99995734Y-74163000D01*
X100231051Y-74163000D01*
X100298090Y-74182685D01*
X100343845Y-74235489D01*
X100353789Y-74304647D01*
X100353033Y-74309280D01*
X100352899Y-74310008D01*
X100350000Y-74346850D01*
X100350000Y-74750000D01*
X100900000Y-74750000D01*
X100900000Y-73765203D01*
X101400000Y-73765203D01*
X101400000Y-74750000D01*
X101950000Y-74750000D01*
X101950000Y-74346865D01*
X101949999Y-74346850D01*
X101947100Y-74310010D01*
X101947099Y-74310004D01*
X101901283Y-74152306D01*
X101901282Y-74152303D01*
X101817685Y-74010947D01*
X101817678Y-74010938D01*
X101701561Y-73894821D01*
X101701552Y-73894814D01*
X101560196Y-73811217D01*
X101560193Y-73811216D01*
X101402494Y-73765400D01*
X101402497Y-73765400D01*
X101400000Y-73765203D01*
X100900000Y-73765203D01*
X100886144Y-73752400D01*
X100865890Y-73748153D01*
X100816116Y-73699119D01*
X100800500Y-73638878D01*
X100800500Y-71986755D01*
X100820185Y-71919716D01*
X100872989Y-71873961D01*
X100942147Y-71864017D01*
X100999426Y-71887952D01*
X101027656Y-71909360D01*
X101027657Y-71909360D01*
X101027658Y-71909361D01*
X101168436Y-71964877D01*
X101256898Y-71975500D01*
X101256903Y-71975500D01*
X102243097Y-71975500D01*
X102243102Y-71975500D01*
X102331564Y-71964877D01*
X102472342Y-71909361D01*
X102592922Y-71817922D01*
X102684361Y-71697342D01*
X102739877Y-71556564D01*
X102750500Y-71468102D01*
X102750500Y-70856898D01*
X102739877Y-70768436D01*
X102684361Y-70627658D01*
X102684360Y-70627657D01*
X102684360Y-70627656D01*
X102592922Y-70507077D01*
X102472343Y-70415639D01*
X102434339Y-70400652D01*
X102344826Y-70365353D01*
X102289685Y-70322449D01*
X102266492Y-70256541D01*
X102282612Y-70188557D01*
X102332929Y-70140080D01*
X102344814Y-70134651D01*
X102472342Y-70084361D01*
X102592922Y-69992922D01*
X102684361Y-69872342D01*
X102739877Y-69731564D01*
X102750500Y-69643102D01*
X102750500Y-69031898D01*
X102739877Y-68943436D01*
X102684361Y-68802658D01*
X102684360Y-68802657D01*
X102684360Y-68802656D01*
X102592922Y-68682077D01*
X102472341Y-68590638D01*
X102472339Y-68590637D01*
X102429010Y-68573550D01*
X102373866Y-68530644D01*
X102350673Y-68464736D01*
X102350500Y-68458196D01*
X102350500Y-53897494D01*
X102351561Y-53881308D01*
X102355683Y-53850000D01*
X102355683Y-53849999D01*
X102353281Y-53831761D01*
X102335044Y-53693238D01*
X102309938Y-53632627D01*
X102300499Y-53585174D01*
X102300499Y-51855143D01*
X102300499Y-51855136D01*
X102300497Y-51855117D01*
X102297586Y-51830012D01*
X102297585Y-51830010D01*
X102297585Y-51830009D01*
X102252206Y-51727235D01*
X102172765Y-51647794D01*
X102172763Y-51647793D01*
X102069992Y-51602415D01*
X102044865Y-51599500D01*
X99755143Y-51599500D01*
X99755117Y-51599502D01*
X99730012Y-51602413D01*
X99730008Y-51602415D01*
X99627235Y-51647793D01*
X99627234Y-51647794D01*
X99612681Y-51662348D01*
X99551358Y-51695833D01*
X99481666Y-51690849D01*
X99437319Y-51662348D01*
X99422765Y-51647794D01*
X99319992Y-51602415D01*
X99294865Y-51599500D01*
X97955143Y-51599500D01*
X97955117Y-51599502D01*
X97930012Y-51602413D01*
X97930008Y-51602415D01*
X97827235Y-51647793D01*
X97747794Y-51727234D01*
X97702415Y-51830006D01*
X97702415Y-51830008D01*
X97699500Y-51855131D01*
X97699500Y-53024902D01*
X97679815Y-53091941D01*
X97663181Y-53112583D01*
X96408965Y-54366798D01*
X96396774Y-54377490D01*
X96371718Y-54396717D01*
X96347549Y-54428213D01*
X96347550Y-54428214D01*
X96275464Y-54522158D01*
X96275461Y-54522163D01*
X96214957Y-54668234D01*
X96214955Y-54668239D01*
X96194318Y-54824998D01*
X96194318Y-54824999D01*
X96198439Y-54856301D01*
X96199500Y-54872487D01*
X96199500Y-85752512D01*
X96198439Y-85768697D01*
X96194318Y-85799998D01*
X96194318Y-85800000D01*
X96199500Y-85839360D01*
X96199500Y-85839361D01*
X96214955Y-85956760D01*
X96214956Y-85956762D01*
X96275464Y-86102841D01*
X96365273Y-86219883D01*
X96371719Y-86228283D01*
X96396769Y-86247504D01*
X96408964Y-86258199D01*
X98141799Y-87991034D01*
X98152493Y-88003228D01*
X98171715Y-88028279D01*
X98171716Y-88028280D01*
X98171718Y-88028282D01*
X98297159Y-88124536D01*
X98443238Y-88185044D01*
X98521619Y-88195363D01*
X98599999Y-88205682D01*
X98600000Y-88205682D01*
X98631302Y-88201560D01*
X98647487Y-88200500D01*
X101299903Y-88200500D01*
X101366942Y-88220185D01*
X101387584Y-88236819D01*
X102914096Y-89763331D01*
X102947581Y-89824654D01*
X102942597Y-89894346D01*
X102900725Y-89950279D01*
X102835261Y-89974696D01*
X102778962Y-89965573D01*
X102656762Y-89914956D01*
X102656760Y-89914955D01*
X102539361Y-89899500D01*
X102500000Y-89894318D01*
X102468697Y-89898439D01*
X102452513Y-89899500D01*
X100865616Y-89899500D01*
X100798577Y-89879815D01*
X100752822Y-89827011D01*
X100742500Y-89790282D01*
X100739877Y-89768438D01*
X100739877Y-89768436D01*
X100684361Y-89627658D01*
X100684360Y-89627657D01*
X100684360Y-89627656D01*
X100592922Y-89507077D01*
X100472343Y-89415639D01*
X100331561Y-89360122D01*
X100285926Y-89354642D01*
X100243102Y-89349500D01*
X98656898Y-89349500D01*
X98617853Y-89354188D01*
X98568438Y-89360122D01*
X98427656Y-89415639D01*
X98307077Y-89507077D01*
X98215639Y-89627656D01*
X98160122Y-89768438D01*
X98155719Y-89805109D01*
X98149500Y-89856898D01*
X98149500Y-91143102D01*
X98155126Y-91189954D01*
X98160122Y-91231561D01*
X98215639Y-91372343D01*
X98307077Y-91492922D01*
X98427656Y-91584360D01*
X98427657Y-91584360D01*
X98427658Y-91584361D01*
X98568436Y-91639877D01*
X98656898Y-91650500D01*
X98656903Y-91650500D01*
X98949998Y-91650500D01*
X99017037Y-91670185D01*
X99062792Y-91722989D01*
X99072736Y-91792147D01*
X99043711Y-91855703D01*
X98984933Y-91893477D01*
X98983933Y-91893766D01*
X98882607Y-91922596D01*
X98882605Y-91922596D01*
X98691746Y-92017632D01*
X98521593Y-92146127D01*
X98377947Y-92303699D01*
X98265702Y-92484980D01*
X98265701Y-92484982D01*
X98222395Y-92596769D01*
X98188679Y-92683802D01*
X98149500Y-92893390D01*
X98149500Y-93106610D01*
X98188679Y-93316198D01*
X98265702Y-93515019D01*
X98377948Y-93696302D01*
X98521593Y-93853872D01*
X98691746Y-93982367D01*
X98882606Y-94077403D01*
X98882608Y-94077403D01*
X98882611Y-94077405D01*
X99087690Y-94135756D01*
X99246806Y-94150500D01*
X99246810Y-94150500D01*
X99653190Y-94150500D01*
X99653194Y-94150500D01*
X99812310Y-94135756D01*
X100017389Y-94077405D01*
X100017393Y-94077403D01*
X100017394Y-94077403D01*
X100208253Y-93982367D01*
X100208253Y-93982366D01*
X100208255Y-93982366D01*
X100378407Y-93853872D01*
X100522052Y-93696302D01*
X100545011Y-93659222D01*
X100597039Y-93612587D01*
X100650438Y-93600500D01*
X100899903Y-93600500D01*
X100966942Y-93620185D01*
X100987584Y-93636819D01*
X102613181Y-95262416D01*
X102646666Y-95323739D01*
X102649500Y-95350097D01*
X102649500Y-98467473D01*
X102629815Y-98534512D01*
X102613181Y-98555154D01*
X102565326Y-98603008D01*
X102565323Y-98603013D01*
X102509018Y-98713514D01*
X102494500Y-98805183D01*
X102494500Y-100594809D01*
X102505049Y-100661418D01*
X102509020Y-100686488D01*
X102565322Y-100796986D01*
X102565324Y-100796988D01*
X102565326Y-100796991D01*
X102653008Y-100884673D01*
X102653010Y-100884674D01*
X102653014Y-100884678D01*
X102763512Y-100940980D01*
X102763513Y-100940980D01*
X102763515Y-100940981D01*
X102763514Y-100940981D01*
X102855183Y-100955499D01*
X102855189Y-100955500D01*
X103644810Y-100955499D01*
X103736488Y-100940980D01*
X103846986Y-100884678D01*
X103934678Y-100796986D01*
X103990980Y-100686488D01*
X103990980Y-100686486D01*
X103990981Y-100686485D01*
X104005499Y-100594816D01*
X104005500Y-100594811D01*
X104005499Y-98805190D01*
X103990980Y-98713512D01*
X103934678Y-98603014D01*
X103934674Y-98603010D01*
X103934673Y-98603008D01*
X103886819Y-98555154D01*
X103853334Y-98493831D01*
X103850500Y-98467473D01*
X103850500Y-95097487D01*
X103851561Y-95081301D01*
X103855682Y-95049999D01*
X103855682Y-95049998D01*
X103835044Y-94893239D01*
X103835042Y-94893234D01*
X103774538Y-94747163D01*
X103774535Y-94747158D01*
X103702451Y-94653216D01*
X103702450Y-94653215D01*
X103688761Y-94635375D01*
X103678281Y-94621716D01*
X103653229Y-94602494D01*
X103641034Y-94591799D01*
X101658199Y-92608964D01*
X101647504Y-92596769D01*
X101628283Y-92571719D01*
X101628282Y-92571718D01*
X101502841Y-92475464D01*
X101387224Y-92427574D01*
X101356762Y-92414956D01*
X101356760Y-92414955D01*
X101200001Y-92394318D01*
X101200000Y-92394318D01*
X101168697Y-92398439D01*
X101152513Y-92399500D01*
X100650438Y-92399500D01*
X100583399Y-92379815D01*
X100545011Y-92340778D01*
X100542687Y-92337026D01*
X100522052Y-92303698D01*
X100378407Y-92146128D01*
X100378406Y-92146127D01*
X100208253Y-92017632D01*
X100017393Y-91922596D01*
X99916067Y-91893766D01*
X99856974Y-91856486D01*
X99827417Y-91793177D01*
X99836779Y-91723937D01*
X99882089Y-91670751D01*
X99948961Y-91650504D01*
X99950002Y-91650500D01*
X100243097Y-91650500D01*
X100243102Y-91650500D01*
X100331564Y-91639877D01*
X100472342Y-91584361D01*
X100592922Y-91492922D01*
X100684361Y-91372342D01*
X100739877Y-91231564D01*
X100742500Y-91209716D01*
X100770036Y-91145503D01*
X100827918Y-91106369D01*
X100865616Y-91100500D01*
X102199903Y-91100500D01*
X102266942Y-91120185D01*
X102287584Y-91136819D01*
X105063181Y-93912416D01*
X105096666Y-93973739D01*
X105099500Y-94000097D01*
X105099500Y-98467473D01*
X105079815Y-98534512D01*
X105063181Y-98555154D01*
X105015326Y-98603008D01*
X105015323Y-98603013D01*
X104959018Y-98713514D01*
X104944500Y-98805183D01*
X104944500Y-100594809D01*
X104955049Y-100661418D01*
X104959020Y-100686488D01*
X105015322Y-100796986D01*
X105015324Y-100796988D01*
X105015326Y-100796991D01*
X105103008Y-100884673D01*
X105103010Y-100884674D01*
X105103014Y-100884678D01*
X105213512Y-100940980D01*
X105213513Y-100940980D01*
X105213515Y-100940981D01*
X105213514Y-100940981D01*
X105305183Y-100955499D01*
X105305189Y-100955500D01*
X106075500Y-100955499D01*
X106142539Y-100975183D01*
X106188294Y-101027987D01*
X106199500Y-101079499D01*
X106199500Y-103921000D01*
X106179815Y-103988039D01*
X106127011Y-104033794D01*
X106075500Y-104045000D01*
X105950000Y-104045000D01*
X105950000Y-106955000D01*
X106075500Y-106955000D01*
X106142539Y-106974685D01*
X106188294Y-107027489D01*
X106199500Y-107079000D01*
X106199500Y-108274903D01*
X106179815Y-108341942D01*
X106163181Y-108362584D01*
X105137584Y-109388181D01*
X105076261Y-109421666D01*
X105049903Y-109424500D01*
X104908856Y-109424500D01*
X104870841Y-109429065D01*
X104824411Y-109434640D01*
X104690023Y-109487636D01*
X104612545Y-109546390D01*
X104547233Y-109571213D01*
X104478869Y-109556785D01*
X104432082Y-109512684D01*
X104422573Y-109497268D01*
X104302732Y-109377427D01*
X104302728Y-109377424D01*
X104158492Y-109288457D01*
X104158481Y-109288452D01*
X103997606Y-109235144D01*
X103898322Y-109225000D01*
X103875000Y-109225000D01*
X103875000Y-110326000D01*
X103855315Y-110393039D01*
X103802511Y-110438794D01*
X103751000Y-110450000D01*
X102675001Y-110450000D01*
X102675001Y-110498322D01*
X102685144Y-110597607D01*
X102738452Y-110758481D01*
X102738457Y-110758492D01*
X102829074Y-110905403D01*
X102847515Y-110972795D01*
X102826593Y-111039459D01*
X102772951Y-111084228D01*
X102723536Y-111094500D01*
X99527904Y-111094500D01*
X99460865Y-111074815D01*
X99440223Y-111058181D01*
X98641819Y-110259777D01*
X98608334Y-110198454D01*
X98605500Y-110172096D01*
X98605500Y-109950000D01*
X102675000Y-109950000D01*
X103375000Y-109950000D01*
X103375000Y-109224999D01*
X103351693Y-109225000D01*
X103351674Y-109225001D01*
X103252392Y-109235144D01*
X103091518Y-109288452D01*
X103091507Y-109288457D01*
X102947271Y-109377424D01*
X102947267Y-109377427D01*
X102827427Y-109497267D01*
X102827424Y-109497271D01*
X102738457Y-109641507D01*
X102738452Y-109641518D01*
X102685144Y-109802393D01*
X102675000Y-109901677D01*
X102675000Y-109950000D01*
X98605500Y-109950000D01*
X98605500Y-107777903D01*
X98625185Y-107710864D01*
X98641819Y-107690222D01*
X99440222Y-106891819D01*
X99501545Y-106858334D01*
X99527903Y-106855500D01*
X103675990Y-106855500D01*
X103676000Y-106855500D01*
X103740941Y-106848518D01*
X103792452Y-106837312D01*
X103830658Y-106826354D01*
X103927571Y-106769675D01*
X103980375Y-106723920D01*
X103980382Y-106723912D01*
X103980387Y-106723908D01*
X104022548Y-106679192D01*
X104022553Y-106679187D01*
X104073439Y-106579111D01*
X104093124Y-106512072D01*
X104105500Y-106426000D01*
X104105500Y-105750000D01*
X104745000Y-105750000D01*
X104745000Y-106402745D01*
X104760212Y-106518281D01*
X104760213Y-106518285D01*
X104819760Y-106662047D01*
X104914494Y-106785505D01*
X105037952Y-106880239D01*
X105181714Y-106939786D01*
X105181718Y-106939787D01*
X105297254Y-106954999D01*
X105297269Y-106955000D01*
X105450000Y-106955000D01*
X105450000Y-105750000D01*
X104745000Y-105750000D01*
X104105500Y-105750000D01*
X104105500Y-105250000D01*
X104745000Y-105250000D01*
X105450000Y-105250000D01*
X105450000Y-104045000D01*
X105297254Y-104045000D01*
X105181718Y-104060212D01*
X105181714Y-104060213D01*
X105037952Y-104119760D01*
X104914494Y-104214494D01*
X104819760Y-104337952D01*
X104760213Y-104481714D01*
X104760212Y-104481718D01*
X104745000Y-104597254D01*
X104745000Y-105250000D01*
X104105500Y-105250000D01*
X104105500Y-104548575D01*
X104105500Y-104548565D01*
X104105499Y-104548560D01*
X104103960Y-104517954D01*
X104103959Y-104517930D01*
X104101464Y-104493183D01*
X104100919Y-104488190D01*
X104067557Y-104380991D01*
X104034889Y-104319228D01*
X104000819Y-104268047D01*
X104000817Y-104268044D01*
X103914796Y-104195902D01*
X103914790Y-104195898D01*
X103853921Y-104161604D01*
X103772865Y-104130140D01*
X103772861Y-104130139D01*
X98482699Y-102905565D01*
X98482695Y-102905564D01*
X98474897Y-102904220D01*
X98448466Y-102899667D01*
X98448455Y-102899665D01*
X98448451Y-102899665D01*
X98420527Y-102896475D01*
X98420512Y-102896474D01*
X98420502Y-102896473D01*
X98385834Y-102894500D01*
X95724000Y-102894500D01*
X95723991Y-102894500D01*
X95723990Y-102894501D01*
X95659064Y-102901481D01*
X95659052Y-102901483D01*
X95607546Y-102912688D01*
X95569345Y-102923644D01*
X95569341Y-102923646D01*
X95472431Y-102980323D01*
X95472428Y-102980325D01*
X95419623Y-103026081D01*
X95419612Y-103026091D01*
X95377451Y-103070807D01*
X95377445Y-103070816D01*
X95326560Y-103170890D01*
X95306877Y-103237921D01*
X95294500Y-103324002D01*
X95294500Y-112105494D01*
X95295477Y-112129916D01*
X95297060Y-112149667D01*
X95297061Y-112149672D01*
X95325917Y-112256928D01*
X95325922Y-112256943D01*
X95356032Y-112319977D01*
X95387985Y-112372514D01*
X95470989Y-112448115D01*
X95530409Y-112484870D01*
X95530411Y-112484871D01*
X95530413Y-112484872D01*
X95583548Y-112508039D01*
X95610118Y-112519624D01*
X99777462Y-113665643D01*
X101942510Y-114261031D01*
X102001931Y-114297786D01*
X102032047Y-114360833D01*
X102023296Y-114430152D01*
X102008902Y-114454898D01*
X102006647Y-114457909D01*
X102006645Y-114457913D01*
X101956403Y-114592620D01*
X101956401Y-114592627D01*
X101950000Y-114652155D01*
X101950000Y-115100000D01*
X103026000Y-115100000D01*
X103093039Y-115119685D01*
X103138794Y-115172489D01*
X103150000Y-115224000D01*
X103150000Y-116419000D01*
X103130315Y-116486039D01*
X103109078Y-116504440D01*
X103111319Y-116506681D01*
X103075000Y-116543000D01*
X103075000Y-117326000D01*
X103055315Y-117393039D01*
X103002511Y-117438794D01*
X102951000Y-117450000D01*
X101875001Y-117450000D01*
X101875001Y-117498322D01*
X101885144Y-117597607D01*
X101938452Y-117758481D01*
X101938457Y-117758492D01*
X102027424Y-117902728D01*
X102027427Y-117902732D01*
X102147267Y-118022572D01*
X102147271Y-118022575D01*
X102215990Y-118064962D01*
X102262715Y-118116910D01*
X102273936Y-118185872D01*
X102246093Y-118249954D01*
X102188024Y-118288810D01*
X102150893Y-118294500D01*
X99051361Y-118294500D01*
X99018718Y-118296250D01*
X99018709Y-118296250D01*
X99018703Y-118296251D01*
X99018698Y-118296251D01*
X99018665Y-118296254D01*
X98992374Y-118299081D01*
X98985339Y-118299920D01*
X98985337Y-118299920D01*
X98878598Y-118334700D01*
X98878590Y-118334704D01*
X98842220Y-118354563D01*
X98773947Y-118369413D01*
X98708483Y-118344994D01*
X98666613Y-118289060D01*
X98661630Y-118219368D01*
X98677260Y-118180628D01*
X98684355Y-118169125D01*
X98684358Y-118169119D01*
X98739505Y-118002697D01*
X98739506Y-118002690D01*
X98749999Y-117899986D01*
X98750000Y-117899973D01*
X98750000Y-116950000D01*
X101875000Y-116950000D01*
X102575000Y-116950000D01*
X102575000Y-116306000D01*
X102594685Y-116238961D01*
X102615921Y-116220559D01*
X102613681Y-116218319D01*
X102650000Y-116182000D01*
X102650000Y-115600000D01*
X101950000Y-115600000D01*
X101950000Y-116047844D01*
X101956401Y-116107372D01*
X101956403Y-116107379D01*
X102006645Y-116242086D01*
X102006647Y-116242089D01*
X102060397Y-116313890D01*
X102084814Y-116379354D01*
X102069962Y-116447627D01*
X102048815Y-116475879D01*
X102027425Y-116497270D01*
X102027424Y-116497271D01*
X101938457Y-116641507D01*
X101938452Y-116641518D01*
X101885144Y-116802393D01*
X101875000Y-116901677D01*
X101875000Y-116950000D01*
X98750000Y-116950000D01*
X98750000Y-116350000D01*
X97250000Y-116350000D01*
X97250000Y-118599999D01*
X98049972Y-118599999D01*
X98049986Y-118599998D01*
X98152695Y-118589506D01*
X98292806Y-118543077D01*
X98362635Y-118540675D01*
X98422677Y-118576406D01*
X98453870Y-118638927D01*
X98446310Y-118708386D01*
X98419492Y-118748464D01*
X97003819Y-120164138D01*
X96942496Y-120197623D01*
X96872804Y-120192639D01*
X96817333Y-120151381D01*
X96789854Y-120115144D01*
X96671139Y-120025119D01*
X96532531Y-119970459D01*
X96445434Y-119960000D01*
X95710000Y-119960000D01*
X95710000Y-120886000D01*
X95690315Y-120953039D01*
X95637511Y-120998794D01*
X95586000Y-121010000D01*
X93975000Y-121010000D01*
X93975000Y-121060434D01*
X93985459Y-121147530D01*
X93985459Y-121147531D01*
X94040119Y-121286139D01*
X94130144Y-121404854D01*
X94183470Y-121445292D01*
X94224994Y-121501485D01*
X94229546Y-121571206D01*
X94220928Y-121596502D01*
X94181067Y-121681982D01*
X94181065Y-121681989D01*
X94174500Y-121731861D01*
X94174500Y-122328130D01*
X94174501Y-122328136D01*
X94181066Y-122378013D01*
X94181066Y-122378014D01*
X94181067Y-122378016D01*
X94232112Y-122487481D01*
X94321950Y-122577319D01*
X94355435Y-122638642D01*
X94350451Y-122708334D01*
X94321950Y-122752681D01*
X94232113Y-122842517D01*
X94181066Y-122951985D01*
X94181065Y-122951989D01*
X94174500Y-123001861D01*
X94174500Y-123598130D01*
X94174501Y-123598136D01*
X94181066Y-123648013D01*
X94181066Y-123648014D01*
X94181067Y-123648016D01*
X94232112Y-123757481D01*
X94276043Y-123801412D01*
X94309528Y-123862735D01*
X94304544Y-123932427D01*
X94269566Y-123982805D01*
X94219625Y-124026080D01*
X94219612Y-124026091D01*
X94177451Y-124070807D01*
X94177445Y-124070816D01*
X94126560Y-124170890D01*
X94106877Y-124237921D01*
X94094500Y-124324002D01*
X94094500Y-124978759D01*
X94098884Y-125030327D01*
X94098887Y-125030348D01*
X94105951Y-125071590D01*
X94105957Y-125071617D01*
X94116691Y-125112887D01*
X94118985Y-125121704D01*
X94580847Y-126430315D01*
X94682725Y-126718968D01*
X94687544Y-126731708D01*
X94691674Y-126741933D01*
X94691676Y-126741937D01*
X94691677Y-126741938D01*
X94744057Y-126827571D01*
X94789812Y-126880375D01*
X94789813Y-126880376D01*
X94789823Y-126880387D01*
X94834539Y-126922548D01*
X94834541Y-126922549D01*
X94834545Y-126922553D01*
X94934621Y-126973439D01*
X95001660Y-126993124D01*
X95087732Y-127005500D01*
X95329903Y-127005500D01*
X95396942Y-127025185D01*
X95417584Y-127041819D01*
X96563181Y-128187416D01*
X96596666Y-128248739D01*
X96599500Y-128275097D01*
X96599500Y-132052512D01*
X96598439Y-132068697D01*
X96594318Y-132099998D01*
X96594318Y-132100000D01*
X96599500Y-132139360D01*
X96599500Y-132139361D01*
X96614955Y-132256760D01*
X96614956Y-132256762D01*
X96658351Y-132361528D01*
X96675464Y-132402841D01*
X96758458Y-132511001D01*
X96771719Y-132528283D01*
X96796769Y-132547504D01*
X96808964Y-132558199D01*
X98141799Y-133891034D01*
X98152493Y-133903228D01*
X98171715Y-133928279D01*
X98171716Y-133928280D01*
X98171718Y-133928282D01*
X98297159Y-134024536D01*
X98443238Y-134085044D01*
X98521619Y-134095363D01*
X98599999Y-134105682D01*
X98600000Y-134105682D01*
X98631302Y-134101560D01*
X98647487Y-134100500D01*
X101164902Y-134100500D01*
X101231941Y-134120185D01*
X101252583Y-134136819D01*
X101443583Y-134327819D01*
X101477068Y-134389142D01*
X101472084Y-134458834D01*
X101430212Y-134514767D01*
X101364748Y-134539184D01*
X101355903Y-134539500D01*
X101236869Y-134539500D01*
X101215952Y-134542253D01*
X101186987Y-134546066D01*
X101186985Y-134546066D01*
X101186983Y-134546067D01*
X101077518Y-134597112D01*
X100987681Y-134686950D01*
X100926358Y-134720435D01*
X100856666Y-134715451D01*
X100812319Y-134686950D01*
X100722482Y-134597113D01*
X100722481Y-134597112D01*
X100659630Y-134567804D01*
X100613014Y-134546066D01*
X100613010Y-134546065D01*
X100563138Y-134539500D01*
X99966869Y-134539500D01*
X99945952Y-134542253D01*
X99916987Y-134546066D01*
X99916985Y-134546066D01*
X99916983Y-134546067D01*
X99807518Y-134597112D01*
X99717681Y-134686950D01*
X99656358Y-134720435D01*
X99586666Y-134715451D01*
X99542319Y-134686950D01*
X99452482Y-134597113D01*
X99452481Y-134597112D01*
X99389630Y-134567804D01*
X99343014Y-134546066D01*
X99343010Y-134546065D01*
X99293138Y-134539500D01*
X98696869Y-134539500D01*
X98675952Y-134542253D01*
X98646987Y-134546066D01*
X98646985Y-134546066D01*
X98646983Y-134546067D01*
X98537518Y-134597112D01*
X98452113Y-134682517D01*
X98401066Y-134791985D01*
X98401065Y-134791989D01*
X98394500Y-134841861D01*
X98394500Y-136808130D01*
X98394501Y-136808136D01*
X98401066Y-136858013D01*
X98401066Y-136858014D01*
X98401067Y-136858016D01*
X98420878Y-136900500D01*
X98452112Y-136967481D01*
X98537519Y-137052888D01*
X98646987Y-137103934D01*
X98696863Y-137110500D01*
X99293136Y-137110499D01*
X99343013Y-137103934D01*
X99452481Y-137052888D01*
X99537888Y-136967481D01*
X99537888Y-136967480D01*
X99542319Y-136963050D01*
X99603642Y-136929565D01*
X99673334Y-136934549D01*
X99717681Y-136963050D01*
X99722112Y-136967481D01*
X99807519Y-137052888D01*
X99916987Y-137103934D01*
X99966863Y-137110500D01*
X100563136Y-137110499D01*
X100613013Y-137103934D01*
X100722481Y-137052888D01*
X100807888Y-136967481D01*
X100807888Y-136967480D01*
X100812319Y-136963050D01*
X100873642Y-136929565D01*
X100943334Y-136934549D01*
X100987681Y-136963050D01*
X100992112Y-136967481D01*
X101077519Y-137052888D01*
X101186987Y-137103934D01*
X101236863Y-137110500D01*
X101833136Y-137110499D01*
X101883013Y-137103934D01*
X101992481Y-137052888D01*
X102077888Y-136967481D01*
X102077888Y-136967480D01*
X102082319Y-136963050D01*
X102143642Y-136929565D01*
X102213334Y-136934549D01*
X102257681Y-136963050D01*
X102262112Y-136967481D01*
X102347519Y-137052888D01*
X102456987Y-137103934D01*
X102506863Y-137110500D01*
X103103136Y-137110499D01*
X103153013Y-137103934D01*
X103262481Y-137052888D01*
X103347888Y-136967481D01*
X103398934Y-136858013D01*
X103405500Y-136808137D01*
X103405500Y-135864361D01*
X103405500Y-134887495D01*
X103406561Y-134871309D01*
X103410683Y-134840001D01*
X103410683Y-134840000D01*
X103404362Y-134791989D01*
X103390044Y-134683239D01*
X103342229Y-134567804D01*
X103329538Y-134537164D01*
X103329535Y-134537159D01*
X103257451Y-134443217D01*
X103257450Y-134443216D01*
X103235846Y-134415060D01*
X103233281Y-134411717D01*
X103208229Y-134392495D01*
X103196034Y-134381800D01*
X101947962Y-133133728D01*
X101914477Y-133072405D01*
X101919461Y-133002713D01*
X101961333Y-132946780D01*
X101966185Y-132943718D01*
X101966066Y-132943545D01*
X101972235Y-132939286D01*
X101972236Y-132939285D01*
X101972240Y-132939283D01*
X102090483Y-132834530D01*
X102180220Y-132704523D01*
X102236237Y-132556818D01*
X102255278Y-132400000D01*
X102239709Y-132271779D01*
X102251169Y-132202858D01*
X102298073Y-132151072D01*
X102365529Y-132132865D01*
X102415209Y-132144452D01*
X102456987Y-132163934D01*
X102506863Y-132170500D01*
X103103136Y-132170499D01*
X103153013Y-132163934D01*
X103262481Y-132112888D01*
X103347888Y-132027481D01*
X103398934Y-131918013D01*
X103403858Y-131880606D01*
X103405500Y-131868138D01*
X103405500Y-131484500D01*
X103425185Y-131417461D01*
X103477989Y-131371706D01*
X103529500Y-131360500D01*
X103716423Y-131360500D01*
X103783462Y-131380185D01*
X103815692Y-131410192D01*
X103817452Y-131412544D01*
X103817453Y-131412545D01*
X103817454Y-131412546D01*
X103817457Y-131412548D01*
X103932664Y-131498793D01*
X103932671Y-131498797D01*
X103977618Y-131515561D01*
X104067517Y-131549091D01*
X104127127Y-131555500D01*
X104772872Y-131555499D01*
X104832483Y-131549091D01*
X104967331Y-131498796D01*
X105082546Y-131412546D01*
X105168796Y-131297331D01*
X105219091Y-131162483D01*
X105225500Y-131102873D01*
X105225499Y-130607128D01*
X105219091Y-130547517D01*
X105168796Y-130412669D01*
X105168795Y-130412668D01*
X105168793Y-130412664D01*
X105082547Y-130297455D01*
X105082205Y-130297199D01*
X105081949Y-130296857D01*
X105076275Y-130291183D01*
X105077091Y-130290366D01*
X105040336Y-130241264D01*
X105035355Y-130171572D01*
X105068842Y-130110250D01*
X105122337Y-130078740D01*
X105130658Y-130076354D01*
X105227571Y-130019675D01*
X105280375Y-129973920D01*
X105280382Y-129973912D01*
X105280387Y-129973908D01*
X105322548Y-129929192D01*
X105322553Y-129929187D01*
X105373439Y-129829111D01*
X105393124Y-129762072D01*
X105405500Y-129676000D01*
X105405500Y-128251362D01*
X105403749Y-128218703D01*
X105400915Y-128192345D01*
X105400080Y-128185340D01*
X105365297Y-128078593D01*
X105365295Y-128078588D01*
X105331810Y-128017266D01*
X105279710Y-127947670D01*
X105279705Y-127947665D01*
X105279702Y-127947660D01*
X105279698Y-127947656D01*
X105279692Y-127947649D01*
X104352353Y-127020311D01*
X104352340Y-127020298D01*
X104328008Y-126998442D01*
X104307366Y-126981808D01*
X104307363Y-126981806D01*
X104307325Y-126981775D01*
X104301827Y-126977448D01*
X104301825Y-126977447D01*
X104201747Y-126926560D01*
X104134716Y-126906877D01*
X104134710Y-126906876D01*
X104048638Y-126894500D01*
X103156268Y-126894500D01*
X103113526Y-126897505D01*
X103113524Y-126897505D01*
X103113513Y-126897506D01*
X103079188Y-126902356D01*
X103062183Y-126905250D01*
X103062182Y-126905250D01*
X102957989Y-126947055D01*
X102957978Y-126947061D01*
X102899033Y-126984541D01*
X102899026Y-126984546D01*
X102833042Y-127041166D01*
X102833039Y-127041169D01*
X102833036Y-127041172D01*
X102200768Y-127763764D01*
X102200761Y-127763771D01*
X102200758Y-127763776D01*
X102186540Y-127781289D01*
X102175549Y-127795900D01*
X102145750Y-127855256D01*
X102098079Y-127906337D01*
X102030359Y-127923536D01*
X101964091Y-127901392D01*
X101947251Y-127887301D01*
X101859877Y-127799927D01*
X101714395Y-127711980D01*
X101714396Y-127711980D01*
X101552105Y-127661409D01*
X101552106Y-127661409D01*
X101481572Y-127655000D01*
X101475000Y-127655000D01*
X101475000Y-128756000D01*
X101455315Y-128823039D01*
X101402511Y-128868794D01*
X101351000Y-128880000D01*
X100417788Y-128880000D01*
X100388114Y-128876397D01*
X100278986Y-128849500D01*
X100278985Y-128849500D01*
X100121015Y-128849500D01*
X100121014Y-128849500D01*
X99967634Y-128887303D01*
X99827762Y-128960715D01*
X99709516Y-129065471D01*
X99619781Y-129195474D01*
X99562541Y-129346403D01*
X99520363Y-129402105D01*
X99454765Y-129426162D01*
X99401109Y-129417786D01*
X99382531Y-129410459D01*
X99295434Y-129400000D01*
X99245000Y-129400000D01*
X99245000Y-132370000D01*
X99295434Y-132370000D01*
X99382530Y-132359540D01*
X99382531Y-132359540D01*
X99521139Y-132304880D01*
X99639854Y-132214856D01*
X99680292Y-132161529D01*
X99736484Y-132120005D01*
X99806205Y-132115452D01*
X99831495Y-132124068D01*
X99916987Y-132163934D01*
X99966863Y-132170500D01*
X100563136Y-132170499D01*
X100613013Y-132163934D01*
X100722481Y-132112888D01*
X100782320Y-132053048D01*
X100843639Y-132019566D01*
X100913331Y-132024550D01*
X100969265Y-132066421D01*
X100993682Y-132131885D01*
X100985941Y-132184702D01*
X100963762Y-132243183D01*
X100944722Y-132399999D01*
X100944722Y-132400000D01*
X100963762Y-132556818D01*
X101019780Y-132704523D01*
X101020148Y-132705056D01*
X101020297Y-132705507D01*
X101023267Y-132711167D01*
X101022326Y-132711660D01*
X101042034Y-132771409D01*
X101024571Y-132839062D01*
X100973306Y-132886534D01*
X100918101Y-132899500D01*
X98900097Y-132899500D01*
X98833058Y-132879815D01*
X98812416Y-132863181D01*
X98521559Y-132572324D01*
X98488074Y-132511001D01*
X98493058Y-132441309D01*
X98534930Y-132385376D01*
X98600394Y-132360959D01*
X98624026Y-132361528D01*
X98694566Y-132370000D01*
X98745000Y-132370000D01*
X98745000Y-131135000D01*
X98195000Y-131135000D01*
X98195000Y-131870435D01*
X98203471Y-131940974D01*
X98191921Y-132009882D01*
X98144949Y-132061607D01*
X98077469Y-132079725D01*
X98010906Y-132058486D01*
X97992675Y-132043440D01*
X97836819Y-131887584D01*
X97803334Y-131826261D01*
X97800500Y-131799903D01*
X97800500Y-130635000D01*
X98195000Y-130635000D01*
X98745000Y-130635000D01*
X98745000Y-129400000D01*
X98694566Y-129400000D01*
X98607469Y-129410459D01*
X98607468Y-129410459D01*
X98468860Y-129465119D01*
X98350144Y-129555144D01*
X98260119Y-129673860D01*
X98205459Y-129812468D01*
X98205459Y-129812469D01*
X98195000Y-129899565D01*
X98195000Y-130635000D01*
X97800500Y-130635000D01*
X97800500Y-128380000D01*
X100325000Y-128380000D01*
X100975000Y-128380000D01*
X100975000Y-127655000D01*
X100974999Y-127654999D01*
X100968436Y-127655000D01*
X100968417Y-127655001D01*
X100897897Y-127661408D01*
X100897892Y-127661409D01*
X100735603Y-127711981D01*
X100590122Y-127799927D01*
X100469927Y-127920122D01*
X100381980Y-128065604D01*
X100331409Y-128227893D01*
X100325000Y-128298427D01*
X100325000Y-128380000D01*
X97800500Y-128380000D01*
X97800500Y-128022487D01*
X97801561Y-128006301D01*
X97805682Y-127974999D01*
X97805682Y-127974998D01*
X97785044Y-127818239D01*
X97785042Y-127818234D01*
X97724538Y-127672163D01*
X97724535Y-127672158D01*
X97711368Y-127654999D01*
X97652450Y-127578215D01*
X97638761Y-127560375D01*
X97628281Y-127546716D01*
X97603229Y-127527494D01*
X97591034Y-127516799D01*
X97408252Y-127334017D01*
X97374767Y-127272694D01*
X97379751Y-127203002D01*
X97421623Y-127147069D01*
X97456929Y-127128630D01*
X97508481Y-127111547D01*
X97508492Y-127111542D01*
X97652728Y-127022575D01*
X97652732Y-127022572D01*
X97772572Y-126902732D01*
X97772575Y-126902728D01*
X97861542Y-126758492D01*
X97861547Y-126758481D01*
X97914855Y-126597606D01*
X97924999Y-126498322D01*
X97925000Y-126498309D01*
X97925000Y-126450000D01*
X96849000Y-126450000D01*
X96781961Y-126430315D01*
X96736206Y-126377511D01*
X96725000Y-126326000D01*
X96725000Y-126074000D01*
X96744685Y-126006961D01*
X96797489Y-125961206D01*
X96849000Y-125950000D01*
X97924999Y-125950000D01*
X97924999Y-125901692D01*
X97924998Y-125901677D01*
X97914855Y-125802392D01*
X97861547Y-125641518D01*
X97861542Y-125641507D01*
X97770926Y-125494597D01*
X97752485Y-125427205D01*
X97773407Y-125360541D01*
X97827049Y-125315772D01*
X97876464Y-125305500D01*
X97948639Y-125305500D01*
X97950559Y-125305397D01*
X97981297Y-125303749D01*
X98007655Y-125300915D01*
X98014660Y-125300080D01*
X98121407Y-125265297D01*
X98182730Y-125231812D01*
X98252340Y-125179702D01*
X98568110Y-124863931D01*
X98613964Y-124805237D01*
X98644869Y-124753795D01*
X98661963Y-124719360D01*
X98709404Y-124668068D01*
X98773029Y-124650500D01*
X98878985Y-124650500D01*
X98960827Y-124630328D01*
X99030627Y-124633397D01*
X99087689Y-124673717D01*
X99113895Y-124738486D01*
X99114500Y-124750724D01*
X99114500Y-124868130D01*
X99114501Y-124868136D01*
X99121066Y-124918013D01*
X99172112Y-125027481D01*
X99257519Y-125112888D01*
X99366987Y-125163934D01*
X99416863Y-125170500D01*
X101383136Y-125170499D01*
X101433013Y-125163934D01*
X101542481Y-125112888D01*
X101573550Y-125081819D01*
X101634873Y-125048334D01*
X101661231Y-125045500D01*
X101721679Y-125045500D01*
X101788718Y-125065185D01*
X101809360Y-125081819D01*
X101813181Y-125085640D01*
X101846666Y-125146963D01*
X101849500Y-125173321D01*
X101849500Y-125491144D01*
X101853751Y-125526541D01*
X101859640Y-125575588D01*
X101912636Y-125709976D01*
X101999921Y-125825078D01*
X102115023Y-125912363D01*
X102115024Y-125912363D01*
X102115025Y-125912364D01*
X102249410Y-125965359D01*
X102333856Y-125975500D01*
X102333862Y-125975500D01*
X102866138Y-125975500D01*
X102866144Y-125975500D01*
X102950590Y-125965359D01*
X103084975Y-125912364D01*
X103162457Y-125853607D01*
X103227763Y-125828785D01*
X103296127Y-125843212D01*
X103342917Y-125887314D01*
X103352426Y-125902731D01*
X103472267Y-126022572D01*
X103472271Y-126022575D01*
X103616507Y-126111542D01*
X103616518Y-126111547D01*
X103777393Y-126164855D01*
X103876683Y-126174999D01*
X103900000Y-126174998D01*
X103900000Y-125450000D01*
X104400000Y-125450000D01*
X104400000Y-126174999D01*
X104423308Y-126174999D01*
X104423322Y-126174998D01*
X104522607Y-126164855D01*
X104683481Y-126111547D01*
X104683492Y-126111542D01*
X104827728Y-126022575D01*
X104827732Y-126022572D01*
X104947572Y-125902732D01*
X104947575Y-125902728D01*
X105036542Y-125758492D01*
X105036547Y-125758481D01*
X105089855Y-125597606D01*
X105099999Y-125498322D01*
X105100000Y-125498309D01*
X105100000Y-125450000D01*
X104400000Y-125450000D01*
X103900000Y-125450000D01*
X103900000Y-123850000D01*
X104400000Y-123850000D01*
X104400000Y-124950000D01*
X105099999Y-124950000D01*
X105099999Y-124901692D01*
X105099998Y-124901677D01*
X105089855Y-124802392D01*
X105036547Y-124641518D01*
X105036542Y-124641507D01*
X104947575Y-124497271D01*
X104947572Y-124497267D01*
X104937986Y-124487681D01*
X104904501Y-124426358D01*
X104909485Y-124356666D01*
X104937986Y-124312319D01*
X104947572Y-124302732D01*
X104947575Y-124302728D01*
X105036542Y-124158492D01*
X105036547Y-124158481D01*
X105089855Y-123997606D01*
X105099999Y-123898322D01*
X105100000Y-123898309D01*
X105100000Y-123850000D01*
X104400000Y-123850000D01*
X103900000Y-123850000D01*
X103900000Y-123474000D01*
X103919685Y-123406961D01*
X103972489Y-123361206D01*
X104024000Y-123350000D01*
X105099999Y-123350000D01*
X105099999Y-123301692D01*
X105099998Y-123301677D01*
X105089855Y-123202392D01*
X105036547Y-123041518D01*
X105036542Y-123041507D01*
X104947575Y-122897271D01*
X104947572Y-122897267D01*
X104827729Y-122777424D01*
X104825942Y-122776011D01*
X104825034Y-122774729D01*
X104822625Y-122772320D01*
X104823036Y-122771908D01*
X104785566Y-122718988D01*
X104782429Y-122649189D01*
X104803587Y-122604438D01*
X104868796Y-122517331D01*
X104919091Y-122382483D01*
X104925500Y-122322873D01*
X104925499Y-121677128D01*
X104919091Y-121617517D01*
X104895587Y-121554500D01*
X104868797Y-121482671D01*
X104868793Y-121482664D01*
X104782547Y-121367455D01*
X104782545Y-121367453D01*
X104766052Y-121355106D01*
X104724182Y-121299171D01*
X104719200Y-121229480D01*
X104752686Y-121168157D01*
X104777759Y-121148806D01*
X104827571Y-121119675D01*
X104880375Y-121073920D01*
X104880382Y-121073912D01*
X104880387Y-121073908D01*
X104919386Y-121032546D01*
X104922553Y-121029187D01*
X104973439Y-120929111D01*
X104993124Y-120862072D01*
X105005500Y-120776000D01*
X105005500Y-120520096D01*
X105025185Y-120453057D01*
X105041814Y-120432420D01*
X106291044Y-119183189D01*
X106303222Y-119172510D01*
X106328282Y-119153282D01*
X106424536Y-119027841D01*
X106485044Y-118881762D01*
X106500500Y-118764361D01*
X106505682Y-118725000D01*
X106501561Y-118693697D01*
X106500500Y-118677512D01*
X106500500Y-116325833D01*
X106520185Y-116258794D01*
X106536819Y-116238152D01*
X106569019Y-116205952D01*
X106602206Y-116172765D01*
X106647585Y-116069991D01*
X106650500Y-116044865D01*
X106650499Y-115500095D01*
X106670183Y-115433057D01*
X106686813Y-115412420D01*
X107191043Y-114908190D01*
X107203223Y-114897509D01*
X107228282Y-114878282D01*
X107277624Y-114813977D01*
X107334051Y-114772775D01*
X107403797Y-114768620D01*
X107464718Y-114802832D01*
X107497471Y-114864549D01*
X107500000Y-114889464D01*
X107500000Y-138625500D01*
X107480315Y-138692539D01*
X107427511Y-138738294D01*
X107376000Y-138749500D01*
X92624000Y-138749500D01*
X92556961Y-138729815D01*
X92511206Y-138677011D01*
X92500000Y-138625500D01*
X92500000Y-135842507D01*
X92519685Y-135775468D01*
X92572489Y-135729713D01*
X92641647Y-135719769D01*
X92705203Y-135748794D01*
X92739428Y-135797204D01*
X92765786Y-135864364D01*
X92773257Y-135883398D01*
X92908185Y-136117102D01*
X93044080Y-136287509D01*
X93076442Y-136328089D01*
X93263183Y-136501358D01*
X93274259Y-136511635D01*
X93497226Y-136663651D01*
X93740359Y-136780738D01*
X93998228Y-136860280D01*
X93998229Y-136860280D01*
X93998232Y-136860281D01*
X94265063Y-136900499D01*
X94265068Y-136900499D01*
X94265071Y-136900500D01*
X94265072Y-136900500D01*
X94534928Y-136900500D01*
X94534929Y-136900500D01*
X94534936Y-136900499D01*
X94801767Y-136860281D01*
X94801768Y-136860280D01*
X94801772Y-136860280D01*
X95059641Y-136780738D01*
X95302775Y-136663651D01*
X95525741Y-136511635D01*
X95723561Y-136328085D01*
X95891815Y-136117102D01*
X96026743Y-135883398D01*
X96125334Y-135632195D01*
X96185383Y-135369103D01*
X96205549Y-135100000D01*
X96185383Y-134830897D01*
X96125334Y-134567805D01*
X96026743Y-134316602D01*
X95891815Y-134082898D01*
X95723561Y-133871915D01*
X95723560Y-133871914D01*
X95723557Y-133871910D01*
X95525741Y-133688365D01*
X95302775Y-133536349D01*
X95302769Y-133536346D01*
X95302768Y-133536345D01*
X95302767Y-133536344D01*
X95059643Y-133419263D01*
X95059645Y-133419263D01*
X94801773Y-133339720D01*
X94801767Y-133339718D01*
X94534936Y-133299500D01*
X94534929Y-133299500D01*
X94265071Y-133299500D01*
X94265063Y-133299500D01*
X93998232Y-133339718D01*
X93998226Y-133339720D01*
X93740358Y-133419262D01*
X93497230Y-133536346D01*
X93274258Y-133688365D01*
X93076442Y-133871910D01*
X92908185Y-134082898D01*
X92773258Y-134316599D01*
X92773256Y-134316603D01*
X92739428Y-134402795D01*
X92696612Y-134458008D01*
X92630741Y-134481309D01*
X92562731Y-134465298D01*
X92514173Y-134415060D01*
X92500000Y-134357492D01*
X92500000Y-130242507D01*
X92519685Y-130175468D01*
X92572489Y-130129713D01*
X92641647Y-130119769D01*
X92705203Y-130148794D01*
X92739428Y-130197204D01*
X92773256Y-130283396D01*
X92773258Y-130283400D01*
X92777280Y-130290366D01*
X92908185Y-130517102D01*
X93002206Y-130635000D01*
X93076442Y-130728089D01*
X93263183Y-130901358D01*
X93274259Y-130911635D01*
X93497226Y-131063651D01*
X93740359Y-131180738D01*
X93998228Y-131260280D01*
X93998229Y-131260280D01*
X93998232Y-131260281D01*
X94265063Y-131300499D01*
X94265068Y-131300499D01*
X94265071Y-131300500D01*
X94265072Y-131300500D01*
X94534928Y-131300500D01*
X94534929Y-131300500D01*
X94534936Y-131300499D01*
X94801767Y-131260281D01*
X94801768Y-131260280D01*
X94801772Y-131260280D01*
X95059641Y-131180738D01*
X95302775Y-131063651D01*
X95525741Y-130911635D01*
X95723561Y-130728085D01*
X95891815Y-130517102D01*
X96026743Y-130283398D01*
X96125334Y-130032195D01*
X96185383Y-129769103D01*
X96201417Y-129555144D01*
X96205549Y-129500004D01*
X96205549Y-129499995D01*
X96185383Y-129230898D01*
X96184938Y-129228949D01*
X96125334Y-128967805D01*
X96026743Y-128716602D01*
X95891815Y-128482898D01*
X95723561Y-128271915D01*
X95723560Y-128271914D01*
X95723557Y-128271910D01*
X95525741Y-128088365D01*
X95464471Y-128046592D01*
X95302775Y-127936349D01*
X95302769Y-127936346D01*
X95302768Y-127936345D01*
X95302767Y-127936344D01*
X95059643Y-127819263D01*
X95059645Y-127819263D01*
X94801773Y-127739720D01*
X94801767Y-127739718D01*
X94534936Y-127699500D01*
X94534929Y-127699500D01*
X94265071Y-127699500D01*
X94265063Y-127699500D01*
X93998232Y-127739718D01*
X93998226Y-127739720D01*
X93740358Y-127819262D01*
X93497230Y-127936346D01*
X93274258Y-128088365D01*
X93076442Y-128271910D01*
X92908185Y-128482898D01*
X92773258Y-128716599D01*
X92773256Y-128716603D01*
X92739428Y-128802795D01*
X92696612Y-128858008D01*
X92630741Y-128881309D01*
X92562731Y-128865298D01*
X92514173Y-128815060D01*
X92500000Y-128757492D01*
X92500000Y-120510000D01*
X93975000Y-120510000D01*
X95210000Y-120510000D01*
X95210000Y-119960000D01*
X94474566Y-119960000D01*
X94387469Y-119970459D01*
X94387468Y-119970459D01*
X94248860Y-120025119D01*
X94130144Y-120115144D01*
X94040119Y-120233860D01*
X93985459Y-120372468D01*
X93985459Y-120372469D01*
X93975000Y-120459565D01*
X93975000Y-120510000D01*
X92500000Y-120510000D01*
X92500000Y-116350000D01*
X95250001Y-116350000D01*
X95250001Y-117899986D01*
X95260494Y-118002697D01*
X95315641Y-118169119D01*
X95315643Y-118169124D01*
X95407684Y-118318345D01*
X95531654Y-118442315D01*
X95680875Y-118534356D01*
X95680880Y-118534358D01*
X95847302Y-118589505D01*
X95847309Y-118589506D01*
X95950019Y-118599999D01*
X96749999Y-118599999D01*
X96750000Y-118599998D01*
X96750000Y-116350000D01*
X95250001Y-116350000D01*
X92500000Y-116350000D01*
X92500000Y-115850000D01*
X95250000Y-115850000D01*
X96750000Y-115850000D01*
X96750000Y-113600000D01*
X97250000Y-113600000D01*
X97250000Y-115850000D01*
X98749999Y-115850000D01*
X98749999Y-114300028D01*
X98749998Y-114300013D01*
X98739505Y-114197302D01*
X98684358Y-114030880D01*
X98684356Y-114030875D01*
X98592315Y-113881654D01*
X98468345Y-113757684D01*
X98319124Y-113665643D01*
X98319119Y-113665641D01*
X98152697Y-113610494D01*
X98152690Y-113610493D01*
X98049986Y-113600000D01*
X97250000Y-113600000D01*
X96750000Y-113600000D01*
X95950028Y-113600000D01*
X95950012Y-113600001D01*
X95847302Y-113610494D01*
X95680880Y-113665641D01*
X95680875Y-113665643D01*
X95531654Y-113757684D01*
X95407684Y-113881654D01*
X95315643Y-114030875D01*
X95315641Y-114030880D01*
X95260494Y-114197302D01*
X95260493Y-114197309D01*
X95250000Y-114300013D01*
X95250000Y-115850000D01*
X92500000Y-115850000D01*
X92500000Y-99400000D01*
X95200001Y-99400000D01*
X95200001Y-100949986D01*
X95210494Y-101052697D01*
X95265641Y-101219119D01*
X95265643Y-101219124D01*
X95357684Y-101368345D01*
X95481654Y-101492315D01*
X95630875Y-101584356D01*
X95630880Y-101584358D01*
X95797302Y-101639505D01*
X95797309Y-101639506D01*
X95900019Y-101649999D01*
X96699999Y-101649999D01*
X96700000Y-101649998D01*
X96700000Y-99400000D01*
X97200000Y-99400000D01*
X97200000Y-101649999D01*
X97999972Y-101649999D01*
X97999986Y-101649998D01*
X98102697Y-101639505D01*
X98269119Y-101584358D01*
X98269124Y-101584356D01*
X98418345Y-101492315D01*
X98542315Y-101368345D01*
X98634356Y-101219124D01*
X98634358Y-101219119D01*
X98689505Y-101052697D01*
X98689506Y-101052690D01*
X98699999Y-100949986D01*
X98700000Y-100949973D01*
X98700000Y-99400000D01*
X97200000Y-99400000D01*
X96700000Y-99400000D01*
X95200001Y-99400000D01*
X92500000Y-99400000D01*
X92500000Y-98900000D01*
X95200000Y-98900000D01*
X96700000Y-98900000D01*
X96700000Y-96650000D01*
X97200000Y-96650000D01*
X97200000Y-98900000D01*
X98699999Y-98900000D01*
X98699999Y-97350028D01*
X98699998Y-97350013D01*
X98689505Y-97247302D01*
X98634358Y-97080880D01*
X98634356Y-97080875D01*
X98542315Y-96931654D01*
X98418345Y-96807684D01*
X98269124Y-96715643D01*
X98269119Y-96715641D01*
X98102697Y-96660494D01*
X98102690Y-96660493D01*
X97999986Y-96650000D01*
X97200000Y-96650000D01*
X96700000Y-96650000D01*
X95900028Y-96650000D01*
X95900012Y-96650001D01*
X95797302Y-96660494D01*
X95630880Y-96715641D01*
X95630875Y-96715643D01*
X95481654Y-96807684D01*
X95357684Y-96931654D01*
X95265643Y-97080875D01*
X95265641Y-97080880D01*
X95210494Y-97247302D01*
X95210493Y-97247309D01*
X95200000Y-97350013D01*
X95200000Y-98900000D01*
X92500000Y-98900000D01*
X92500000Y-76505500D01*
X92519685Y-76438461D01*
X92572489Y-76392706D01*
X92581578Y-76388982D01*
X93230870Y-76152677D01*
X93230871Y-76152676D01*
X93234697Y-76151284D01*
X93235469Y-76150969D01*
X93364818Y-76103857D01*
X93614757Y-75982853D01*
X93685849Y-75948435D01*
X93685853Y-75948432D01*
X93685865Y-75948427D01*
X93685877Y-75948420D01*
X93888256Y-75823589D01*
X93989452Y-75761171D01*
X94272436Y-75544030D01*
X94272440Y-75544025D01*
X94272443Y-75544024D01*
X94381707Y-75440938D01*
X94531885Y-75299253D01*
X94765112Y-75029374D01*
X94969703Y-74737188D01*
X95143538Y-74425722D01*
X95284817Y-74098200D01*
X95392077Y-73758016D01*
X95464206Y-73408692D01*
X95500459Y-73053846D01*
X95500489Y-72916235D01*
X95500500Y-72916000D01*
X95500500Y-52753051D01*
X95500649Y-52746967D01*
X95517052Y-52413072D01*
X95518245Y-52400962D01*
X95566849Y-52073296D01*
X95569218Y-52061385D01*
X95649710Y-51740043D01*
X95653240Y-51728411D01*
X95698323Y-51602413D01*
X95764835Y-51416525D01*
X95769476Y-51405318D01*
X95911124Y-51105828D01*
X95916840Y-51095136D01*
X96087145Y-50810998D01*
X96093888Y-50800905D01*
X96291232Y-50534818D01*
X96298935Y-50525433D01*
X96521405Y-50279975D01*
X96529975Y-50271405D01*
X96775433Y-50048935D01*
X96784818Y-50041232D01*
X97050905Y-49843888D01*
X97060998Y-49837145D01*
X97345136Y-49666840D01*
X97355828Y-49661124D01*
X97655318Y-49519476D01*
X97666525Y-49514835D01*
X97978412Y-49403239D01*
X97990043Y-49399710D01*
X98311385Y-49319218D01*
X98323296Y-49316849D01*
X98650962Y-49268244D01*
X98663068Y-49267052D01*
X98996967Y-49250648D01*
X99003051Y-49250500D01*
X99065892Y-49250500D01*
X100934108Y-49250500D01*
X100996949Y-49250500D01*
X101003032Y-49250648D01*
G37*
G04 #@! TD.AperFunction*
G04 #@! TA.AperFunction,Conductor*
G36*
X107280115Y-89026562D02*
G01*
X107283048Y-89026352D01*
X107332667Y-88989209D01*
X107402359Y-88984225D01*
X107463682Y-89017710D01*
X107497166Y-89079033D01*
X107500000Y-89105391D01*
X107500000Y-92360535D01*
X107480315Y-92427574D01*
X107427511Y-92473329D01*
X107358353Y-92483273D01*
X107294797Y-92454248D01*
X107277625Y-92436022D01*
X107228282Y-92371718D01*
X107228281Y-92371717D01*
X107203228Y-92352493D01*
X107191034Y-92341799D01*
X104609180Y-89759945D01*
X104575695Y-89698622D01*
X104580679Y-89628930D01*
X104622551Y-89572997D01*
X104688015Y-89548580D01*
X104756288Y-89563432D01*
X104867042Y-89623908D01*
X104867041Y-89623908D01*
X105135104Y-89723890D01*
X105414637Y-89784699D01*
X105699999Y-89805109D01*
X105700001Y-89805109D01*
X105985362Y-89784699D01*
X106264895Y-89723890D01*
X106532958Y-89623908D01*
X106784047Y-89486803D01*
X106926561Y-89380116D01*
X106926562Y-89380115D01*
X106208125Y-88661678D01*
X106274214Y-88624996D01*
X106428531Y-88492520D01*
X106553021Y-88331692D01*
X106563625Y-88310072D01*
X107280115Y-89026562D01*
G37*
G04 #@! TD.AperFunction*
G04 #@! TA.AperFunction,Conductor*
G36*
X99568334Y-54309151D02*
G01*
X99612681Y-54337652D01*
X99627235Y-54352206D01*
X99730009Y-54397585D01*
X99755135Y-54400500D01*
X101025500Y-54400499D01*
X101092539Y-54420184D01*
X101138294Y-54472987D01*
X101149500Y-54524499D01*
X101149500Y-68458196D01*
X101129815Y-68525235D01*
X101077011Y-68570990D01*
X101070990Y-68573550D01*
X101027660Y-68590637D01*
X101027658Y-68590638D01*
X100907077Y-68682077D01*
X100902641Y-68687928D01*
X100846447Y-68729450D01*
X100803839Y-68737000D01*
X100496161Y-68737000D01*
X100429122Y-68717315D01*
X100397359Y-68687928D01*
X100392922Y-68682077D01*
X100272343Y-68590639D01*
X100131561Y-68535122D01*
X100085926Y-68529642D01*
X100043102Y-68524500D01*
X99056898Y-68524500D01*
X99017853Y-68529188D01*
X98968438Y-68535122D01*
X98827656Y-68590639D01*
X98707077Y-68682077D01*
X98615639Y-68802656D01*
X98560122Y-68943438D01*
X98554188Y-68992853D01*
X98549500Y-69031898D01*
X98549500Y-69643102D01*
X98555126Y-69689954D01*
X98560122Y-69731561D01*
X98615639Y-69872343D01*
X98707077Y-69992922D01*
X98827656Y-70084360D01*
X98827657Y-70084360D01*
X98827658Y-70084361D01*
X98955171Y-70134646D01*
X99010314Y-70177551D01*
X99033507Y-70243459D01*
X99017386Y-70311444D01*
X98967070Y-70359920D01*
X98955178Y-70365351D01*
X98903663Y-70385665D01*
X98827656Y-70415639D01*
X98707077Y-70507077D01*
X98615639Y-70627656D01*
X98560122Y-70768438D01*
X98554188Y-70817853D01*
X98549500Y-70856898D01*
X98549500Y-71468102D01*
X98555126Y-71514954D01*
X98560122Y-71556561D01*
X98615639Y-71697343D01*
X98707077Y-71817922D01*
X98827656Y-71909360D01*
X98827657Y-71909360D01*
X98827658Y-71909361D01*
X98968436Y-71964877D01*
X99056898Y-71975500D01*
X99462403Y-71975500D01*
X99529442Y-71995185D01*
X99550084Y-72011819D01*
X99563181Y-72024916D01*
X99596666Y-72086239D01*
X99599500Y-72112597D01*
X99599500Y-73766769D01*
X99602353Y-73797199D01*
X99602354Y-73797204D01*
X99603156Y-73799495D01*
X99603247Y-73801293D01*
X99603964Y-73804573D01*
X99603420Y-73804691D01*
X99606713Y-73869274D01*
X99571980Y-73929899D01*
X99509985Y-73962122D01*
X99474537Y-73963901D01*
X99454266Y-73962000D01*
X99045734Y-73962000D01*
X99045730Y-73962000D01*
X99015300Y-73964853D01*
X99015298Y-73964853D01*
X98887119Y-74009706D01*
X98887117Y-74009707D01*
X98777850Y-74090350D01*
X98697207Y-74199617D01*
X98697206Y-74199619D01*
X98652353Y-74327798D01*
X98652353Y-74327800D01*
X98649500Y-74358230D01*
X98649500Y-75641769D01*
X98652353Y-75672199D01*
X98652353Y-75672201D01*
X98694247Y-75791923D01*
X98697207Y-75800382D01*
X98777850Y-75909650D01*
X98887118Y-75990293D01*
X98920486Y-76001969D01*
X99015299Y-76035146D01*
X99045730Y-76038000D01*
X99045734Y-76038000D01*
X99454270Y-76038000D01*
X99484693Y-76035147D01*
X99484695Y-76035146D01*
X99484699Y-76035146D01*
X99505966Y-76027703D01*
X99575744Y-76024140D01*
X99634604Y-76057063D01*
X100468192Y-76890651D01*
X100484825Y-76911291D01*
X100486945Y-76914589D01*
X100522450Y-76945354D01*
X100528913Y-76951372D01*
X100537820Y-76960279D01*
X100537826Y-76960284D01*
X100537829Y-76960286D01*
X100547900Y-76967825D01*
X100554793Y-76973379D01*
X100590280Y-77004128D01*
X100590282Y-77004130D01*
X100593844Y-77005756D01*
X100616634Y-77019278D01*
X100619774Y-77021629D01*
X100663786Y-77038044D01*
X100671936Y-77041419D01*
X100704402Y-77056247D01*
X100757205Y-77102003D01*
X100776888Y-77169043D01*
X100759005Y-77233190D01*
X100681980Y-77360603D01*
X100631409Y-77522893D01*
X100625000Y-77593427D01*
X100625000Y-77600000D01*
X102574999Y-77600000D01*
X102574999Y-77593417D01*
X102568591Y-77522897D01*
X102568590Y-77522892D01*
X102518018Y-77360603D01*
X102459408Y-77263650D01*
X102441572Y-77196096D01*
X102463089Y-77129622D01*
X102517130Y-77085334D01*
X102565525Y-77075500D01*
X102872999Y-77075500D01*
X102940038Y-77095185D01*
X102960680Y-77111819D01*
X105188181Y-79339320D01*
X105221666Y-79400643D01*
X105224500Y-79427001D01*
X105224500Y-79470946D01*
X105204815Y-79537985D01*
X105152011Y-79583740D01*
X105137053Y-79589435D01*
X105095128Y-79602367D01*
X105040358Y-79619262D01*
X104797230Y-79736346D01*
X104574258Y-79888365D01*
X104376442Y-80071910D01*
X104208185Y-80282898D01*
X104073258Y-80516599D01*
X104073256Y-80516603D01*
X103974666Y-80767804D01*
X103974664Y-80767811D01*
X103914616Y-81030898D01*
X103894451Y-81299995D01*
X103894451Y-81300004D01*
X103914616Y-81569101D01*
X103929383Y-81633799D01*
X103974666Y-81832195D01*
X104073257Y-82083398D01*
X104208185Y-82317102D01*
X104326144Y-82465017D01*
X104376442Y-82528089D01*
X104563183Y-82701358D01*
X104574259Y-82711635D01*
X104797226Y-82863651D01*
X105040359Y-82980738D01*
X105298228Y-83060280D01*
X105298229Y-83060280D01*
X105298232Y-83060281D01*
X105565063Y-83100499D01*
X105565068Y-83100499D01*
X105565071Y-83100500D01*
X105565072Y-83100500D01*
X105834928Y-83100500D01*
X105834929Y-83100500D01*
X105834936Y-83100499D01*
X106101767Y-83060281D01*
X106101768Y-83060280D01*
X106101772Y-83060280D01*
X106359641Y-82980738D01*
X106602775Y-82863651D01*
X106825741Y-82711635D01*
X107023561Y-82528085D01*
X107191815Y-82317102D01*
X107268613Y-82184083D01*
X107319179Y-82135867D01*
X107387786Y-82122643D01*
X107452651Y-82148611D01*
X107493180Y-82205525D01*
X107500000Y-82246082D01*
X107500000Y-86494608D01*
X107480315Y-86561647D01*
X107427511Y-86607402D01*
X107358353Y-86617346D01*
X107294797Y-86588321D01*
X107280998Y-86573500D01*
X107280115Y-86573436D01*
X106561650Y-87291901D01*
X106494854Y-87184737D01*
X106354732Y-87037329D01*
X106209913Y-86936532D01*
X106926562Y-86219883D01*
X106926561Y-86219882D01*
X106784046Y-86113196D01*
X106784038Y-86113191D01*
X106532957Y-85976091D01*
X106532958Y-85976091D01*
X106264895Y-85876109D01*
X105985362Y-85815300D01*
X105700001Y-85794891D01*
X105699999Y-85794891D01*
X105414637Y-85815300D01*
X105135104Y-85876109D01*
X104867041Y-85976091D01*
X104615961Y-86113191D01*
X104615953Y-86113196D01*
X104473437Y-86219882D01*
X104473436Y-86219883D01*
X105191874Y-86938321D01*
X105125786Y-86975004D01*
X104971469Y-87107480D01*
X104846979Y-87268308D01*
X104836374Y-87289927D01*
X104119882Y-86573436D01*
X104013196Y-86715953D01*
X104013191Y-86715961D01*
X103876091Y-86967041D01*
X103776109Y-87235104D01*
X103715300Y-87514637D01*
X103694891Y-87799998D01*
X103694891Y-87800001D01*
X103715300Y-88085362D01*
X103776109Y-88364895D01*
X103876091Y-88632958D01*
X103936567Y-88743711D01*
X103951419Y-88811984D01*
X103927002Y-88877449D01*
X103871068Y-88919320D01*
X103801377Y-88924304D01*
X103740054Y-88890819D01*
X102236819Y-87387584D01*
X102203334Y-87326261D01*
X102200500Y-87299903D01*
X102200500Y-86840955D01*
X102220185Y-86773916D01*
X102227495Y-86764844D01*
X102227231Y-86764646D01*
X102232546Y-86757546D01*
X102318796Y-86642331D01*
X102369091Y-86507483D01*
X102375500Y-86447873D01*
X102375499Y-85952128D01*
X102369091Y-85892517D01*
X102362971Y-85876109D01*
X102318797Y-85757671D01*
X102318793Y-85757664D01*
X102232547Y-85642455D01*
X102232544Y-85642452D01*
X102117335Y-85556206D01*
X102117328Y-85556202D01*
X101982486Y-85505910D01*
X101982485Y-85505909D01*
X101982483Y-85505909D01*
X101922873Y-85499500D01*
X101922863Y-85499500D01*
X101277129Y-85499500D01*
X101277123Y-85499501D01*
X101217516Y-85505908D01*
X101082671Y-85556202D01*
X101082664Y-85556206D01*
X100967455Y-85642452D01*
X100967452Y-85642455D01*
X100881206Y-85757664D01*
X100881202Y-85757671D01*
X100830910Y-85892513D01*
X100830909Y-85892517D01*
X100824500Y-85952127D01*
X100824500Y-85952134D01*
X100824500Y-85952135D01*
X100824500Y-86447870D01*
X100824501Y-86447876D01*
X100830908Y-86507483D01*
X100881202Y-86642328D01*
X100881203Y-86642329D01*
X100881204Y-86642331D01*
X100965646Y-86755131D01*
X100972769Y-86764646D01*
X100970370Y-86766441D01*
X100996666Y-86814597D01*
X100999500Y-86840955D01*
X100999500Y-86875500D01*
X100979815Y-86942539D01*
X100927011Y-86988294D01*
X100875500Y-86999500D01*
X98900097Y-86999500D01*
X98833058Y-86979815D01*
X98812416Y-86963181D01*
X97436819Y-85587584D01*
X97403334Y-85526261D01*
X97400500Y-85499903D01*
X97400500Y-84556610D01*
X98149500Y-84556610D01*
X98188679Y-84766198D01*
X98265702Y-84965019D01*
X98377948Y-85146302D01*
X98467095Y-85244091D01*
X98521593Y-85303872D01*
X98691746Y-85432367D01*
X98882606Y-85527403D01*
X98882608Y-85527403D01*
X98882611Y-85527405D01*
X99087690Y-85585756D01*
X99246806Y-85600500D01*
X99246810Y-85600500D01*
X99603190Y-85600500D01*
X99603194Y-85600500D01*
X99762310Y-85585756D01*
X99967389Y-85527405D01*
X99967393Y-85527403D01*
X99967394Y-85527403D01*
X100158253Y-85432367D01*
X100158253Y-85432366D01*
X100158255Y-85432366D01*
X100328407Y-85303872D01*
X100472052Y-85146302D01*
X100496048Y-85107548D01*
X100510492Y-85084221D01*
X100562520Y-85037586D01*
X100615918Y-85025500D01*
X100843965Y-85025500D01*
X100911004Y-85045185D01*
X100943232Y-85075190D01*
X100967449Y-85107541D01*
X100967452Y-85107544D01*
X100967454Y-85107546D01*
X100967457Y-85107548D01*
X101082664Y-85193793D01*
X101082671Y-85193797D01*
X101127618Y-85210561D01*
X101217517Y-85244091D01*
X101277127Y-85250500D01*
X101922872Y-85250499D01*
X101982483Y-85244091D01*
X102117331Y-85193796D01*
X102232546Y-85107546D01*
X102318796Y-84992331D01*
X102369091Y-84857483D01*
X102375500Y-84797873D01*
X102375499Y-84302128D01*
X102369091Y-84242517D01*
X102318796Y-84107669D01*
X102318795Y-84107668D01*
X102318793Y-84107664D01*
X102232547Y-83992455D01*
X102232544Y-83992452D01*
X102117335Y-83906206D01*
X102117328Y-83906202D01*
X101982486Y-83855910D01*
X101982485Y-83855909D01*
X101982483Y-83855909D01*
X101922873Y-83849500D01*
X101922863Y-83849500D01*
X101277129Y-83849500D01*
X101277123Y-83849501D01*
X101217516Y-83855908D01*
X101082671Y-83906202D01*
X101082664Y-83906206D01*
X100967457Y-83992451D01*
X100967449Y-83992458D01*
X100943232Y-84024810D01*
X100887299Y-84066682D01*
X100843965Y-84074500D01*
X100723290Y-84074500D01*
X100656251Y-84054815D01*
X100610496Y-84002011D01*
X100607663Y-83995294D01*
X100584298Y-83934982D01*
X100584297Y-83934980D01*
X100566480Y-83906204D01*
X100472052Y-83753698D01*
X100328407Y-83596128D01*
X100328406Y-83596127D01*
X100158253Y-83467632D01*
X99967393Y-83372596D01*
X99779960Y-83319266D01*
X99720867Y-83281986D01*
X99691310Y-83218677D01*
X99700672Y-83149437D01*
X99745982Y-83096251D01*
X99779960Y-83080734D01*
X99967389Y-83027405D01*
X99967393Y-83027403D01*
X99967394Y-83027403D01*
X100158253Y-82932367D01*
X100158253Y-82932366D01*
X100158255Y-82932366D01*
X100328407Y-82803872D01*
X100472052Y-82646302D01*
X100584298Y-82465019D01*
X100661321Y-82266198D01*
X100700500Y-82056610D01*
X100700500Y-81843390D01*
X100661321Y-81633802D01*
X100584298Y-81434981D01*
X100472052Y-81253698D01*
X100328407Y-81096128D01*
X100328406Y-81096127D01*
X100158253Y-80967632D01*
X99967393Y-80872596D01*
X99866067Y-80843766D01*
X99806974Y-80806486D01*
X99777417Y-80743177D01*
X99786779Y-80673937D01*
X99832089Y-80620751D01*
X99898961Y-80600504D01*
X99900002Y-80600500D01*
X100193097Y-80600500D01*
X100193102Y-80600500D01*
X100281564Y-80589877D01*
X100422342Y-80534361D01*
X100542922Y-80442922D01*
X100634361Y-80322342D01*
X100689877Y-80181564D01*
X100700500Y-80093102D01*
X100700500Y-80093091D01*
X100700561Y-80092084D01*
X100700651Y-80091831D01*
X100700941Y-80089424D01*
X100701494Y-80089490D01*
X100724219Y-80026342D01*
X100779665Y-79983827D01*
X100824339Y-79975500D01*
X100843965Y-79975500D01*
X100911004Y-79995185D01*
X100943232Y-80025190D01*
X100967449Y-80057541D01*
X100967452Y-80057544D01*
X100967454Y-80057546D01*
X100996095Y-80078987D01*
X101082664Y-80143793D01*
X101082671Y-80143797D01*
X101127618Y-80160561D01*
X101217517Y-80194091D01*
X101277127Y-80200500D01*
X101922872Y-80200499D01*
X101982483Y-80194091D01*
X102117331Y-80143796D01*
X102232546Y-80057546D01*
X102318796Y-79942331D01*
X102369091Y-79807483D01*
X102375500Y-79747873D01*
X102375499Y-79252128D01*
X102369091Y-79192517D01*
X102351245Y-79144670D01*
X102318797Y-79057671D01*
X102318793Y-79057664D01*
X102232547Y-78942455D01*
X102232544Y-78942453D01*
X102165003Y-78891891D01*
X102123133Y-78835957D01*
X102118149Y-78766265D01*
X102151635Y-78704943D01*
X102175166Y-78686508D01*
X102309874Y-78605074D01*
X102309878Y-78605071D01*
X102430072Y-78484877D01*
X102518019Y-78339395D01*
X102568590Y-78177106D01*
X102575000Y-78106572D01*
X102575000Y-78100000D01*
X100625001Y-78100000D01*
X100625001Y-78106582D01*
X100631408Y-78177102D01*
X100631409Y-78177111D01*
X100657843Y-78261939D01*
X100658994Y-78331799D01*
X100622193Y-78391192D01*
X100559125Y-78421259D01*
X100489812Y-78412457D01*
X100464533Y-78397633D01*
X100422343Y-78365639D01*
X100281561Y-78310122D01*
X100235926Y-78304642D01*
X100193102Y-78299500D01*
X98656898Y-78299500D01*
X98617853Y-78304188D01*
X98568438Y-78310122D01*
X98427656Y-78365639D01*
X98307077Y-78457077D01*
X98215639Y-78577656D01*
X98160122Y-78718438D01*
X98157769Y-78738036D01*
X98149500Y-78806898D01*
X98149500Y-80093102D01*
X98155126Y-80139954D01*
X98160122Y-80181561D01*
X98160122Y-80181563D01*
X98160123Y-80181564D01*
X98177722Y-80226192D01*
X98215639Y-80322343D01*
X98307077Y-80442922D01*
X98427656Y-80534360D01*
X98427657Y-80534360D01*
X98427658Y-80534361D01*
X98568436Y-80589877D01*
X98656898Y-80600500D01*
X98656903Y-80600500D01*
X98949998Y-80600500D01*
X99017037Y-80620185D01*
X99062792Y-80672989D01*
X99072736Y-80742147D01*
X99043711Y-80805703D01*
X98984933Y-80843477D01*
X98983933Y-80843766D01*
X98882607Y-80872596D01*
X98882605Y-80872596D01*
X98691746Y-80967632D01*
X98521593Y-81096127D01*
X98377947Y-81253699D01*
X98265702Y-81434980D01*
X98265701Y-81434982D01*
X98213744Y-81569101D01*
X98188679Y-81633802D01*
X98149500Y-81843390D01*
X98149500Y-82056610D01*
X98188679Y-82266198D01*
X98265702Y-82465019D01*
X98377948Y-82646302D01*
X98521593Y-82803872D01*
X98691746Y-82932367D01*
X98882606Y-83027403D01*
X98882608Y-83027403D01*
X98882611Y-83027405D01*
X98998149Y-83060279D01*
X99070039Y-83080734D01*
X99129132Y-83118014D01*
X99158689Y-83181324D01*
X99149327Y-83250563D01*
X99104017Y-83303749D01*
X99070039Y-83319266D01*
X98882607Y-83372596D01*
X98882605Y-83372596D01*
X98691746Y-83467632D01*
X98521593Y-83596127D01*
X98377947Y-83753699D01*
X98265702Y-83934980D01*
X98265701Y-83934982D01*
X98198805Y-84107664D01*
X98188679Y-84133802D01*
X98149500Y-84343390D01*
X98149500Y-84556610D01*
X97400500Y-84556610D01*
X97400500Y-55125096D01*
X97420185Y-55058057D01*
X97436815Y-55037419D01*
X98037416Y-54436817D01*
X98098739Y-54403333D01*
X98125097Y-54400499D01*
X99294856Y-54400499D01*
X99294864Y-54400499D01*
X99294879Y-54400497D01*
X99294882Y-54400497D01*
X99319987Y-54397586D01*
X99319988Y-54397585D01*
X99319991Y-54397585D01*
X99422765Y-54352206D01*
X99437319Y-54337652D01*
X99498642Y-54304167D01*
X99568334Y-54309151D01*
G37*
G04 #@! TD.AperFunction*
M02*
