M48
; DRILL file {KiCad 7.0.10} date Wed May  1 16:26:23 2024
; FORMAT={-:-/ absolute / metric / decimal}
; #@! TF.CreationDate,2024-05-01T16:26:23+02:00
; #@! TF.GenerationSoftware,Kicad,Pcbnew,7.0.10
; #@! TF.FileFunction,Plated,1,2,PTH
FMAT,2
METRIC
; #@! TA.AperFunction,Plated,PTH,ViaDrill
T1C0.300
; #@! TA.AperFunction,Plated,PTH,ComponentDrill
T2C0.950
; #@! TA.AperFunction,Plated,PTH,ComponentDrill
T3C1.000
; #@! TA.AperFunction,Plated,PTH,ComponentDrill
T4C2.000
%
G90
G05
T1
X96.25Y-133.25
X96.9Y-122.0
X98.8Y-124.0
X99.5Y-56.5
X99.5Y-63.25
X100.0Y-97.0
X100.2Y-129.5
X101.5Y-95.75
X101.5Y-108.5
X101.6Y-132.4
X103.5Y-56.5
X103.5Y-63.25
X104.1Y-127.85
X104.5Y-135.0
T2
X99.425Y-79.45
X99.425Y-81.95
X99.425Y-84.45
T3
X99.45Y-90.5
X99.45Y-93.0
T4
X94.4Y-129.5
X94.4Y-135.1
X105.7Y-81.3
X105.7Y-87.8
M30
