G04 #@! TF.GenerationSoftware,KiCad,Pcbnew,7.0.10*
G04 #@! TF.CreationDate,2024-05-01T16:26:18+02:00*
G04 #@! TF.ProjectId,microscope,6d696372-6f73-4636-9f70-652e6b696361,rev?*
G04 #@! TF.SameCoordinates,Original*
G04 #@! TF.FileFunction,Legend,Top*
G04 #@! TF.FilePolarity,Positive*
%FSLAX46Y46*%
G04 Gerber Fmt 4.6, Leading zero omitted, Abs format (unit mm)*
G04 Created by KiCad (PCBNEW 7.0.10) date 2024-05-01 16:26:18*
%MOMM*%
%LPD*%
G01*
G04 APERTURE LIST*
G04 Aperture macros list*
%AMRoundRect*
0 Rectangle with rounded corners*
0 $1 Rounding radius*
0 $2 $3 $4 $5 $6 $7 $8 $9 X,Y pos of 4 corners*
0 Add a 4 corners polygon primitive as box body*
4,1,4,$2,$3,$4,$5,$6,$7,$8,$9,$2,$3,0*
0 Add four circle primitives for the rounded corners*
1,1,$1+$1,$2,$3*
1,1,$1+$1,$4,$5*
1,1,$1+$1,$6,$7*
1,1,$1+$1,$8,$9*
0 Add four rect primitives between the rounded corners*
20,1,$1+$1,$2,$3,$4,$5,0*
20,1,$1+$1,$4,$5,$6,$7,0*
20,1,$1+$1,$6,$7,$8,$9,0*
20,1,$1+$1,$8,$9,$2,$3,0*%
%AMFreePoly0*
4,1,9,3.862500,-0.866500,0.737500,-0.866500,0.737500,-0.450000,-0.737500,-0.450000,-0.737500,0.450000,0.737500,0.450000,0.737500,0.866500,3.862500,0.866500,3.862500,-0.866500,3.862500,-0.866500,$1*%
G04 Aperture macros list end*
%ADD10C,0.160000*%
%ADD11C,0.120000*%
%ADD12C,0.127000*%
%ADD13C,0.200000*%
%ADD14RoundRect,0.250000X-0.450000X0.262500X-0.450000X-0.262500X0.450000X-0.262500X0.450000X0.262500X0*%
%ADD15RoundRect,0.150000X0.150000X-0.587500X0.150000X0.587500X-0.150000X0.587500X-0.150000X-0.587500X0*%
%ADD16R,2.200000X2.200000*%
%ADD17R,1.250000X2.200000*%
%ADD18RoundRect,0.225000X-0.225000X-0.250000X0.225000X-0.250000X0.225000X0.250000X-0.225000X0.250000X0*%
%ADD19RoundRect,0.200000X-0.200000X-0.275000X0.200000X-0.275000X0.200000X0.275000X-0.200000X0.275000X0*%
%ADD20R,0.900000X1.300000*%
%ADD21FreePoly0,90.000000*%
%ADD22RoundRect,0.225000X0.225000X0.250000X-0.225000X0.250000X-0.225000X-0.250000X0.225000X-0.250000X0*%
%ADD23RoundRect,0.056280X-0.345720X1.030720X-0.345720X-1.030720X0.345720X-1.030720X0.345720X1.030720X0*%
%ADD24RoundRect,0.250000X-1.000000X1.750000X-1.000000X-1.750000X1.000000X-1.750000X1.000000X1.750000X0*%
%ADD25RoundRect,0.200000X0.275000X-0.200000X0.275000X0.200000X-0.275000X0.200000X-0.275000X-0.200000X0*%
%ADD26RoundRect,0.250000X-0.750000X0.600000X-0.750000X-0.600000X0.750000X-0.600000X0.750000X0.600000X0*%
%ADD27O,2.000000X1.700000*%
%ADD28RoundRect,0.056280X-1.030720X-0.345720X1.030720X-0.345720X1.030720X0.345720X-1.030720X0.345720X0*%
%ADD29RoundRect,0.250000X-0.725000X0.600000X-0.725000X-0.600000X0.725000X-0.600000X0.725000X0.600000X0*%
%ADD30O,1.950000X1.700000*%
%ADD31RoundRect,0.111400X0.445600X-0.945600X0.445600X0.945600X-0.445600X0.945600X-0.445600X-0.945600X0*%
%ADD32RoundRect,0.200000X0.200000X0.275000X-0.200000X0.275000X-0.200000X-0.275000X0.200000X-0.275000X0*%
%ADD33C,3.000000*%
%ADD34RoundRect,0.200000X-0.275000X0.200000X-0.275000X-0.200000X0.275000X-0.200000X0.275000X0.200000X0*%
%ADD35RoundRect,0.250000X1.000000X-1.750000X1.000000X1.750000X-1.000000X1.750000X-1.000000X-1.750000X0*%
G04 APERTURE END LIST*
D10*
X99333333Y-67954299D02*
X99000000Y-67478108D01*
X98761905Y-67954299D02*
X98761905Y-66954299D01*
X98761905Y-66954299D02*
X99142857Y-66954299D01*
X99142857Y-66954299D02*
X99238095Y-67001918D01*
X99238095Y-67001918D02*
X99285714Y-67049537D01*
X99285714Y-67049537D02*
X99333333Y-67144775D01*
X99333333Y-67144775D02*
X99333333Y-67287632D01*
X99333333Y-67287632D02*
X99285714Y-67382870D01*
X99285714Y-67382870D02*
X99238095Y-67430489D01*
X99238095Y-67430489D02*
X99142857Y-67478108D01*
X99142857Y-67478108D02*
X98761905Y-67478108D01*
X99714286Y-67049537D02*
X99761905Y-67001918D01*
X99761905Y-67001918D02*
X99857143Y-66954299D01*
X99857143Y-66954299D02*
X100095238Y-66954299D01*
X100095238Y-66954299D02*
X100190476Y-67001918D01*
X100190476Y-67001918D02*
X100238095Y-67049537D01*
X100238095Y-67049537D02*
X100285714Y-67144775D01*
X100285714Y-67144775D02*
X100285714Y-67240013D01*
X100285714Y-67240013D02*
X100238095Y-67382870D01*
X100238095Y-67382870D02*
X99666667Y-67954299D01*
X99666667Y-67954299D02*
X100285714Y-67954299D01*
X101833333Y-67954299D02*
X101500000Y-67478108D01*
X101261905Y-67954299D02*
X101261905Y-66954299D01*
X101261905Y-66954299D02*
X101642857Y-66954299D01*
X101642857Y-66954299D02*
X101738095Y-67001918D01*
X101738095Y-67001918D02*
X101785714Y-67049537D01*
X101785714Y-67049537D02*
X101833333Y-67144775D01*
X101833333Y-67144775D02*
X101833333Y-67287632D01*
X101833333Y-67287632D02*
X101785714Y-67382870D01*
X101785714Y-67382870D02*
X101738095Y-67430489D01*
X101738095Y-67430489D02*
X101642857Y-67478108D01*
X101642857Y-67478108D02*
X101261905Y-67478108D01*
X102785714Y-67954299D02*
X102214286Y-67954299D01*
X102500000Y-67954299D02*
X102500000Y-66954299D01*
X102500000Y-66954299D02*
X102404762Y-67097156D01*
X102404762Y-67097156D02*
X102309524Y-67192394D01*
X102309524Y-67192394D02*
X102214286Y-67240013D01*
X103154761Y-74549537D02*
X103059523Y-74501918D01*
X103059523Y-74501918D02*
X102964285Y-74406680D01*
X102964285Y-74406680D02*
X102821428Y-74263822D01*
X102821428Y-74263822D02*
X102726190Y-74216203D01*
X102726190Y-74216203D02*
X102630952Y-74216203D01*
X102678571Y-74454299D02*
X102583333Y-74406680D01*
X102583333Y-74406680D02*
X102488095Y-74311441D01*
X102488095Y-74311441D02*
X102440476Y-74120965D01*
X102440476Y-74120965D02*
X102440476Y-73787632D01*
X102440476Y-73787632D02*
X102488095Y-73597156D01*
X102488095Y-73597156D02*
X102583333Y-73501918D01*
X102583333Y-73501918D02*
X102678571Y-73454299D01*
X102678571Y-73454299D02*
X102869047Y-73454299D01*
X102869047Y-73454299D02*
X102964285Y-73501918D01*
X102964285Y-73501918D02*
X103059523Y-73597156D01*
X103059523Y-73597156D02*
X103107142Y-73787632D01*
X103107142Y-73787632D02*
X103107142Y-74120965D01*
X103107142Y-74120965D02*
X103059523Y-74311441D01*
X103059523Y-74311441D02*
X102964285Y-74406680D01*
X102964285Y-74406680D02*
X102869047Y-74454299D01*
X102869047Y-74454299D02*
X102678571Y-74454299D01*
X103488095Y-73549537D02*
X103535714Y-73501918D01*
X103535714Y-73501918D02*
X103630952Y-73454299D01*
X103630952Y-73454299D02*
X103869047Y-73454299D01*
X103869047Y-73454299D02*
X103964285Y-73501918D01*
X103964285Y-73501918D02*
X104011904Y-73549537D01*
X104011904Y-73549537D02*
X104059523Y-73644775D01*
X104059523Y-73644775D02*
X104059523Y-73740013D01*
X104059523Y-73740013D02*
X104011904Y-73882870D01*
X104011904Y-73882870D02*
X103440476Y-74454299D01*
X103440476Y-74454299D02*
X104059523Y-74454299D01*
X99211905Y-50854299D02*
X99211905Y-49854299D01*
X99211905Y-49854299D02*
X99450000Y-49854299D01*
X99450000Y-49854299D02*
X99592857Y-49901918D01*
X99592857Y-49901918D02*
X99688095Y-49997156D01*
X99688095Y-49997156D02*
X99735714Y-50092394D01*
X99735714Y-50092394D02*
X99783333Y-50282870D01*
X99783333Y-50282870D02*
X99783333Y-50425727D01*
X99783333Y-50425727D02*
X99735714Y-50616203D01*
X99735714Y-50616203D02*
X99688095Y-50711441D01*
X99688095Y-50711441D02*
X99592857Y-50806680D01*
X99592857Y-50806680D02*
X99450000Y-50854299D01*
X99450000Y-50854299D02*
X99211905Y-50854299D01*
X100640476Y-50187632D02*
X100640476Y-50854299D01*
X100402381Y-49806680D02*
X100164286Y-50520965D01*
X100164286Y-50520965D02*
X100783333Y-50520965D01*
X105833333Y-123959060D02*
X105785714Y-124006680D01*
X105785714Y-124006680D02*
X105642857Y-124054299D01*
X105642857Y-124054299D02*
X105547619Y-124054299D01*
X105547619Y-124054299D02*
X105404762Y-124006680D01*
X105404762Y-124006680D02*
X105309524Y-123911441D01*
X105309524Y-123911441D02*
X105261905Y-123816203D01*
X105261905Y-123816203D02*
X105214286Y-123625727D01*
X105214286Y-123625727D02*
X105214286Y-123482870D01*
X105214286Y-123482870D02*
X105261905Y-123292394D01*
X105261905Y-123292394D02*
X105309524Y-123197156D01*
X105309524Y-123197156D02*
X105404762Y-123101918D01*
X105404762Y-123101918D02*
X105547619Y-123054299D01*
X105547619Y-123054299D02*
X105642857Y-123054299D01*
X105642857Y-123054299D02*
X105785714Y-123101918D01*
X105785714Y-123101918D02*
X105833333Y-123149537D01*
X106166667Y-123054299D02*
X106785714Y-123054299D01*
X106785714Y-123054299D02*
X106452381Y-123435251D01*
X106452381Y-123435251D02*
X106595238Y-123435251D01*
X106595238Y-123435251D02*
X106690476Y-123482870D01*
X106690476Y-123482870D02*
X106738095Y-123530489D01*
X106738095Y-123530489D02*
X106785714Y-123625727D01*
X106785714Y-123625727D02*
X106785714Y-123863822D01*
X106785714Y-123863822D02*
X106738095Y-123959060D01*
X106738095Y-123959060D02*
X106690476Y-124006680D01*
X106690476Y-124006680D02*
X106595238Y-124054299D01*
X106595238Y-124054299D02*
X106309524Y-124054299D01*
X106309524Y-124054299D02*
X106214286Y-124006680D01*
X106214286Y-124006680D02*
X106166667Y-123959060D01*
X105808333Y-122454299D02*
X105475000Y-121978108D01*
X105236905Y-122454299D02*
X105236905Y-121454299D01*
X105236905Y-121454299D02*
X105617857Y-121454299D01*
X105617857Y-121454299D02*
X105713095Y-121501918D01*
X105713095Y-121501918D02*
X105760714Y-121549537D01*
X105760714Y-121549537D02*
X105808333Y-121644775D01*
X105808333Y-121644775D02*
X105808333Y-121787632D01*
X105808333Y-121787632D02*
X105760714Y-121882870D01*
X105760714Y-121882870D02*
X105713095Y-121930489D01*
X105713095Y-121930489D02*
X105617857Y-121978108D01*
X105617857Y-121978108D02*
X105236905Y-121978108D01*
X106141667Y-121454299D02*
X106808333Y-121454299D01*
X106808333Y-121454299D02*
X106379762Y-122454299D01*
X105538095Y-116754299D02*
X105538095Y-117563822D01*
X105538095Y-117563822D02*
X105585714Y-117659060D01*
X105585714Y-117659060D02*
X105633333Y-117706680D01*
X105633333Y-117706680D02*
X105728571Y-117754299D01*
X105728571Y-117754299D02*
X105919047Y-117754299D01*
X105919047Y-117754299D02*
X106014285Y-117706680D01*
X106014285Y-117706680D02*
X106061904Y-117659060D01*
X106061904Y-117659060D02*
X106109523Y-117563822D01*
X106109523Y-117563822D02*
X106109523Y-116754299D01*
X107109523Y-117754299D02*
X106538095Y-117754299D01*
X106823809Y-117754299D02*
X106823809Y-116754299D01*
X106823809Y-116754299D02*
X106728571Y-116897156D01*
X106728571Y-116897156D02*
X106633333Y-116992394D01*
X106633333Y-116992394D02*
X106538095Y-117040013D01*
X105833333Y-125559060D02*
X105785714Y-125606680D01*
X105785714Y-125606680D02*
X105642857Y-125654299D01*
X105642857Y-125654299D02*
X105547619Y-125654299D01*
X105547619Y-125654299D02*
X105404762Y-125606680D01*
X105404762Y-125606680D02*
X105309524Y-125511441D01*
X105309524Y-125511441D02*
X105261905Y-125416203D01*
X105261905Y-125416203D02*
X105214286Y-125225727D01*
X105214286Y-125225727D02*
X105214286Y-125082870D01*
X105214286Y-125082870D02*
X105261905Y-124892394D01*
X105261905Y-124892394D02*
X105309524Y-124797156D01*
X105309524Y-124797156D02*
X105404762Y-124701918D01*
X105404762Y-124701918D02*
X105547619Y-124654299D01*
X105547619Y-124654299D02*
X105642857Y-124654299D01*
X105642857Y-124654299D02*
X105785714Y-124701918D01*
X105785714Y-124701918D02*
X105833333Y-124749537D01*
X106785714Y-125654299D02*
X106214286Y-125654299D01*
X106500000Y-125654299D02*
X106500000Y-124654299D01*
X106500000Y-124654299D02*
X106404762Y-124797156D01*
X106404762Y-124797156D02*
X106309524Y-124892394D01*
X106309524Y-124892394D02*
X106214286Y-124940013D01*
X104038095Y-132784299D02*
X104038095Y-133593822D01*
X104038095Y-133593822D02*
X104085714Y-133689060D01*
X104085714Y-133689060D02*
X104133333Y-133736680D01*
X104133333Y-133736680D02*
X104228571Y-133784299D01*
X104228571Y-133784299D02*
X104419047Y-133784299D01*
X104419047Y-133784299D02*
X104514285Y-133736680D01*
X104514285Y-133736680D02*
X104561904Y-133689060D01*
X104561904Y-133689060D02*
X104609523Y-133593822D01*
X104609523Y-133593822D02*
X104609523Y-132784299D01*
X105514285Y-132784299D02*
X105323809Y-132784299D01*
X105323809Y-132784299D02*
X105228571Y-132831918D01*
X105228571Y-132831918D02*
X105180952Y-132879537D01*
X105180952Y-132879537D02*
X105085714Y-133022394D01*
X105085714Y-133022394D02*
X105038095Y-133212870D01*
X105038095Y-133212870D02*
X105038095Y-133593822D01*
X105038095Y-133593822D02*
X105085714Y-133689060D01*
X105085714Y-133689060D02*
X105133333Y-133736680D01*
X105133333Y-133736680D02*
X105228571Y-133784299D01*
X105228571Y-133784299D02*
X105419047Y-133784299D01*
X105419047Y-133784299D02*
X105514285Y-133736680D01*
X105514285Y-133736680D02*
X105561904Y-133689060D01*
X105561904Y-133689060D02*
X105609523Y-133593822D01*
X105609523Y-133593822D02*
X105609523Y-133355727D01*
X105609523Y-133355727D02*
X105561904Y-133260489D01*
X105561904Y-133260489D02*
X105514285Y-133212870D01*
X105514285Y-133212870D02*
X105419047Y-133165251D01*
X105419047Y-133165251D02*
X105228571Y-133165251D01*
X105228571Y-133165251D02*
X105133333Y-133212870D01*
X105133333Y-133212870D02*
X105085714Y-133260489D01*
X105085714Y-133260489D02*
X105038095Y-133355727D01*
X94183333Y-118759060D02*
X94135714Y-118806680D01*
X94135714Y-118806680D02*
X93992857Y-118854299D01*
X93992857Y-118854299D02*
X93897619Y-118854299D01*
X93897619Y-118854299D02*
X93754762Y-118806680D01*
X93754762Y-118806680D02*
X93659524Y-118711441D01*
X93659524Y-118711441D02*
X93611905Y-118616203D01*
X93611905Y-118616203D02*
X93564286Y-118425727D01*
X93564286Y-118425727D02*
X93564286Y-118282870D01*
X93564286Y-118282870D02*
X93611905Y-118092394D01*
X93611905Y-118092394D02*
X93659524Y-117997156D01*
X93659524Y-117997156D02*
X93754762Y-117901918D01*
X93754762Y-117901918D02*
X93897619Y-117854299D01*
X93897619Y-117854299D02*
X93992857Y-117854299D01*
X93992857Y-117854299D02*
X94135714Y-117901918D01*
X94135714Y-117901918D02*
X94183333Y-117949537D01*
X95040476Y-118187632D02*
X95040476Y-118854299D01*
X94802381Y-117806680D02*
X94564286Y-118520965D01*
X94564286Y-118520965D02*
X95183333Y-118520965D01*
X103233333Y-79129299D02*
X102900000Y-78653108D01*
X102661905Y-79129299D02*
X102661905Y-78129299D01*
X102661905Y-78129299D02*
X103042857Y-78129299D01*
X103042857Y-78129299D02*
X103138095Y-78176918D01*
X103138095Y-78176918D02*
X103185714Y-78224537D01*
X103185714Y-78224537D02*
X103233333Y-78319775D01*
X103233333Y-78319775D02*
X103233333Y-78462632D01*
X103233333Y-78462632D02*
X103185714Y-78557870D01*
X103185714Y-78557870D02*
X103138095Y-78605489D01*
X103138095Y-78605489D02*
X103042857Y-78653108D01*
X103042857Y-78653108D02*
X102661905Y-78653108D01*
X103709524Y-79129299D02*
X103900000Y-79129299D01*
X103900000Y-79129299D02*
X103995238Y-79081680D01*
X103995238Y-79081680D02*
X104042857Y-79034060D01*
X104042857Y-79034060D02*
X104138095Y-78891203D01*
X104138095Y-78891203D02*
X104185714Y-78700727D01*
X104185714Y-78700727D02*
X104185714Y-78319775D01*
X104185714Y-78319775D02*
X104138095Y-78224537D01*
X104138095Y-78224537D02*
X104090476Y-78176918D01*
X104090476Y-78176918D02*
X103995238Y-78129299D01*
X103995238Y-78129299D02*
X103804762Y-78129299D01*
X103804762Y-78129299D02*
X103709524Y-78176918D01*
X103709524Y-78176918D02*
X103661905Y-78224537D01*
X103661905Y-78224537D02*
X103614286Y-78319775D01*
X103614286Y-78319775D02*
X103614286Y-78557870D01*
X103614286Y-78557870D02*
X103661905Y-78653108D01*
X103661905Y-78653108D02*
X103709524Y-78700727D01*
X103709524Y-78700727D02*
X103804762Y-78748346D01*
X103804762Y-78748346D02*
X103995238Y-78748346D01*
X103995238Y-78748346D02*
X104090476Y-78700727D01*
X104090476Y-78700727D02*
X104138095Y-78653108D01*
X104138095Y-78653108D02*
X104185714Y-78557870D01*
X101366666Y-91304299D02*
X101366666Y-92018584D01*
X101366666Y-92018584D02*
X101319047Y-92161441D01*
X101319047Y-92161441D02*
X101223809Y-92256680D01*
X101223809Y-92256680D02*
X101080952Y-92304299D01*
X101080952Y-92304299D02*
X100985714Y-92304299D01*
X101747619Y-91304299D02*
X102366666Y-91304299D01*
X102366666Y-91304299D02*
X102033333Y-91685251D01*
X102033333Y-91685251D02*
X102176190Y-91685251D01*
X102176190Y-91685251D02*
X102271428Y-91732870D01*
X102271428Y-91732870D02*
X102319047Y-91780489D01*
X102319047Y-91780489D02*
X102366666Y-91875727D01*
X102366666Y-91875727D02*
X102366666Y-92113822D01*
X102366666Y-92113822D02*
X102319047Y-92209060D01*
X102319047Y-92209060D02*
X102271428Y-92256680D01*
X102271428Y-92256680D02*
X102176190Y-92304299D01*
X102176190Y-92304299D02*
X101890476Y-92304299D01*
X101890476Y-92304299D02*
X101795238Y-92256680D01*
X101795238Y-92256680D02*
X101747619Y-92209060D01*
X97138095Y-118654299D02*
X97138095Y-119463822D01*
X97138095Y-119463822D02*
X97185714Y-119559060D01*
X97185714Y-119559060D02*
X97233333Y-119606680D01*
X97233333Y-119606680D02*
X97328571Y-119654299D01*
X97328571Y-119654299D02*
X97519047Y-119654299D01*
X97519047Y-119654299D02*
X97614285Y-119606680D01*
X97614285Y-119606680D02*
X97661904Y-119559060D01*
X97661904Y-119559060D02*
X97709523Y-119463822D01*
X97709523Y-119463822D02*
X97709523Y-118654299D01*
X98138095Y-118749537D02*
X98185714Y-118701918D01*
X98185714Y-118701918D02*
X98280952Y-118654299D01*
X98280952Y-118654299D02*
X98519047Y-118654299D01*
X98519047Y-118654299D02*
X98614285Y-118701918D01*
X98614285Y-118701918D02*
X98661904Y-118749537D01*
X98661904Y-118749537D02*
X98709523Y-118844775D01*
X98709523Y-118844775D02*
X98709523Y-118940013D01*
X98709523Y-118940013D02*
X98661904Y-119082870D01*
X98661904Y-119082870D02*
X98090476Y-119654299D01*
X98090476Y-119654299D02*
X98709523Y-119654299D01*
X101291666Y-81604299D02*
X101291666Y-82318584D01*
X101291666Y-82318584D02*
X101244047Y-82461441D01*
X101244047Y-82461441D02*
X101148809Y-82556680D01*
X101148809Y-82556680D02*
X101005952Y-82604299D01*
X101005952Y-82604299D02*
X100910714Y-82604299D01*
X102291666Y-82604299D02*
X101720238Y-82604299D01*
X102005952Y-82604299D02*
X102005952Y-81604299D01*
X102005952Y-81604299D02*
X101910714Y-81747156D01*
X101910714Y-81747156D02*
X101815476Y-81842394D01*
X101815476Y-81842394D02*
X101720238Y-81890013D01*
X103711905Y-98054299D02*
X103711905Y-97054299D01*
X103711905Y-97054299D02*
X103950000Y-97054299D01*
X103950000Y-97054299D02*
X104092857Y-97101918D01*
X104092857Y-97101918D02*
X104188095Y-97197156D01*
X104188095Y-97197156D02*
X104235714Y-97292394D01*
X104235714Y-97292394D02*
X104283333Y-97482870D01*
X104283333Y-97482870D02*
X104283333Y-97625727D01*
X104283333Y-97625727D02*
X104235714Y-97816203D01*
X104235714Y-97816203D02*
X104188095Y-97911441D01*
X104188095Y-97911441D02*
X104092857Y-98006680D01*
X104092857Y-98006680D02*
X103950000Y-98054299D01*
X103950000Y-98054299D02*
X103711905Y-98054299D01*
X104664286Y-97149537D02*
X104711905Y-97101918D01*
X104711905Y-97101918D02*
X104807143Y-97054299D01*
X104807143Y-97054299D02*
X105045238Y-97054299D01*
X105045238Y-97054299D02*
X105140476Y-97101918D01*
X105140476Y-97101918D02*
X105188095Y-97149537D01*
X105188095Y-97149537D02*
X105235714Y-97244775D01*
X105235714Y-97244775D02*
X105235714Y-97340013D01*
X105235714Y-97340013D02*
X105188095Y-97482870D01*
X105188095Y-97482870D02*
X104616667Y-98054299D01*
X104616667Y-98054299D02*
X105235714Y-98054299D01*
X99168333Y-129084299D02*
X98835000Y-128608108D01*
X98596905Y-129084299D02*
X98596905Y-128084299D01*
X98596905Y-128084299D02*
X98977857Y-128084299D01*
X98977857Y-128084299D02*
X99073095Y-128131918D01*
X99073095Y-128131918D02*
X99120714Y-128179537D01*
X99120714Y-128179537D02*
X99168333Y-128274775D01*
X99168333Y-128274775D02*
X99168333Y-128417632D01*
X99168333Y-128417632D02*
X99120714Y-128512870D01*
X99120714Y-128512870D02*
X99073095Y-128560489D01*
X99073095Y-128560489D02*
X98977857Y-128608108D01*
X98977857Y-128608108D02*
X98596905Y-128608108D01*
X100073095Y-128084299D02*
X99596905Y-128084299D01*
X99596905Y-128084299D02*
X99549286Y-128560489D01*
X99549286Y-128560489D02*
X99596905Y-128512870D01*
X99596905Y-128512870D02*
X99692143Y-128465251D01*
X99692143Y-128465251D02*
X99930238Y-128465251D01*
X99930238Y-128465251D02*
X100025476Y-128512870D01*
X100025476Y-128512870D02*
X100073095Y-128560489D01*
X100073095Y-128560489D02*
X100120714Y-128655727D01*
X100120714Y-128655727D02*
X100120714Y-128893822D01*
X100120714Y-128893822D02*
X100073095Y-128989060D01*
X100073095Y-128989060D02*
X100025476Y-129036680D01*
X100025476Y-129036680D02*
X99930238Y-129084299D01*
X99930238Y-129084299D02*
X99692143Y-129084299D01*
X99692143Y-129084299D02*
X99596905Y-129036680D01*
X99596905Y-129036680D02*
X99549286Y-128989060D01*
X98733333Y-126559060D02*
X98685714Y-126606680D01*
X98685714Y-126606680D02*
X98542857Y-126654299D01*
X98542857Y-126654299D02*
X98447619Y-126654299D01*
X98447619Y-126654299D02*
X98304762Y-126606680D01*
X98304762Y-126606680D02*
X98209524Y-126511441D01*
X98209524Y-126511441D02*
X98161905Y-126416203D01*
X98161905Y-126416203D02*
X98114286Y-126225727D01*
X98114286Y-126225727D02*
X98114286Y-126082870D01*
X98114286Y-126082870D02*
X98161905Y-125892394D01*
X98161905Y-125892394D02*
X98209524Y-125797156D01*
X98209524Y-125797156D02*
X98304762Y-125701918D01*
X98304762Y-125701918D02*
X98447619Y-125654299D01*
X98447619Y-125654299D02*
X98542857Y-125654299D01*
X98542857Y-125654299D02*
X98685714Y-125701918D01*
X98685714Y-125701918D02*
X98733333Y-125749537D01*
X99638095Y-125654299D02*
X99161905Y-125654299D01*
X99161905Y-125654299D02*
X99114286Y-126130489D01*
X99114286Y-126130489D02*
X99161905Y-126082870D01*
X99161905Y-126082870D02*
X99257143Y-126035251D01*
X99257143Y-126035251D02*
X99495238Y-126035251D01*
X99495238Y-126035251D02*
X99590476Y-126082870D01*
X99590476Y-126082870D02*
X99638095Y-126130489D01*
X99638095Y-126130489D02*
X99685714Y-126225727D01*
X99685714Y-126225727D02*
X99685714Y-126463822D01*
X99685714Y-126463822D02*
X99638095Y-126559060D01*
X99638095Y-126559060D02*
X99590476Y-126606680D01*
X99590476Y-126606680D02*
X99495238Y-126654299D01*
X99495238Y-126654299D02*
X99257143Y-126654299D01*
X99257143Y-126654299D02*
X99161905Y-126606680D01*
X99161905Y-126606680D02*
X99114286Y-126559060D01*
X105833333Y-120854299D02*
X105500000Y-120378108D01*
X105261905Y-120854299D02*
X105261905Y-119854299D01*
X105261905Y-119854299D02*
X105642857Y-119854299D01*
X105642857Y-119854299D02*
X105738095Y-119901918D01*
X105738095Y-119901918D02*
X105785714Y-119949537D01*
X105785714Y-119949537D02*
X105833333Y-120044775D01*
X105833333Y-120044775D02*
X105833333Y-120187632D01*
X105833333Y-120187632D02*
X105785714Y-120282870D01*
X105785714Y-120282870D02*
X105738095Y-120330489D01*
X105738095Y-120330489D02*
X105642857Y-120378108D01*
X105642857Y-120378108D02*
X105261905Y-120378108D01*
X106690476Y-119854299D02*
X106500000Y-119854299D01*
X106500000Y-119854299D02*
X106404762Y-119901918D01*
X106404762Y-119901918D02*
X106357143Y-119949537D01*
X106357143Y-119949537D02*
X106261905Y-120092394D01*
X106261905Y-120092394D02*
X106214286Y-120282870D01*
X106214286Y-120282870D02*
X106214286Y-120663822D01*
X106214286Y-120663822D02*
X106261905Y-120759060D01*
X106261905Y-120759060D02*
X106309524Y-120806680D01*
X106309524Y-120806680D02*
X106404762Y-120854299D01*
X106404762Y-120854299D02*
X106595238Y-120854299D01*
X106595238Y-120854299D02*
X106690476Y-120806680D01*
X106690476Y-120806680D02*
X106738095Y-120759060D01*
X106738095Y-120759060D02*
X106785714Y-120663822D01*
X106785714Y-120663822D02*
X106785714Y-120425727D01*
X106785714Y-120425727D02*
X106738095Y-120330489D01*
X106738095Y-120330489D02*
X106690476Y-120282870D01*
X106690476Y-120282870D02*
X106595238Y-120235251D01*
X106595238Y-120235251D02*
X106404762Y-120235251D01*
X106404762Y-120235251D02*
X106309524Y-120282870D01*
X106309524Y-120282870D02*
X106261905Y-120330489D01*
X106261905Y-120330489D02*
X106214286Y-120425727D01*
X93138095Y-137304299D02*
X93709523Y-137304299D01*
X93423809Y-138304299D02*
X93423809Y-137304299D01*
X94042857Y-138304299D02*
X94042857Y-137304299D01*
X94042857Y-137304299D02*
X94423809Y-137304299D01*
X94423809Y-137304299D02*
X94519047Y-137351918D01*
X94519047Y-137351918D02*
X94566666Y-137399537D01*
X94566666Y-137399537D02*
X94614285Y-137494775D01*
X94614285Y-137494775D02*
X94614285Y-137637632D01*
X94614285Y-137637632D02*
X94566666Y-137732870D01*
X94566666Y-137732870D02*
X94519047Y-137780489D01*
X94519047Y-137780489D02*
X94423809Y-137828108D01*
X94423809Y-137828108D02*
X94042857Y-137828108D01*
X95471428Y-137304299D02*
X95280952Y-137304299D01*
X95280952Y-137304299D02*
X95185714Y-137351918D01*
X95185714Y-137351918D02*
X95138095Y-137399537D01*
X95138095Y-137399537D02*
X95042857Y-137542394D01*
X95042857Y-137542394D02*
X94995238Y-137732870D01*
X94995238Y-137732870D02*
X94995238Y-138113822D01*
X94995238Y-138113822D02*
X95042857Y-138209060D01*
X95042857Y-138209060D02*
X95090476Y-138256680D01*
X95090476Y-138256680D02*
X95185714Y-138304299D01*
X95185714Y-138304299D02*
X95376190Y-138304299D01*
X95376190Y-138304299D02*
X95471428Y-138256680D01*
X95471428Y-138256680D02*
X95519047Y-138209060D01*
X95519047Y-138209060D02*
X95566666Y-138113822D01*
X95566666Y-138113822D02*
X95566666Y-137875727D01*
X95566666Y-137875727D02*
X95519047Y-137780489D01*
X95519047Y-137780489D02*
X95471428Y-137732870D01*
X95471428Y-137732870D02*
X95376190Y-137685251D01*
X95376190Y-137685251D02*
X95185714Y-137685251D01*
X95185714Y-137685251D02*
X95090476Y-137732870D01*
X95090476Y-137732870D02*
X95042857Y-137780489D01*
X95042857Y-137780489D02*
X94995238Y-137875727D01*
X101433333Y-88154299D02*
X101100000Y-87678108D01*
X100861905Y-88154299D02*
X100861905Y-87154299D01*
X100861905Y-87154299D02*
X101242857Y-87154299D01*
X101242857Y-87154299D02*
X101338095Y-87201918D01*
X101338095Y-87201918D02*
X101385714Y-87249537D01*
X101385714Y-87249537D02*
X101433333Y-87344775D01*
X101433333Y-87344775D02*
X101433333Y-87487632D01*
X101433333Y-87487632D02*
X101385714Y-87582870D01*
X101385714Y-87582870D02*
X101338095Y-87630489D01*
X101338095Y-87630489D02*
X101242857Y-87678108D01*
X101242857Y-87678108D02*
X100861905Y-87678108D01*
X102290476Y-87487632D02*
X102290476Y-88154299D01*
X102052381Y-87106680D02*
X101814286Y-87820965D01*
X101814286Y-87820965D02*
X102433333Y-87820965D01*
X106068333Y-130484299D02*
X105735000Y-130008108D01*
X105496905Y-130484299D02*
X105496905Y-129484299D01*
X105496905Y-129484299D02*
X105877857Y-129484299D01*
X105877857Y-129484299D02*
X105973095Y-129531918D01*
X105973095Y-129531918D02*
X106020714Y-129579537D01*
X106020714Y-129579537D02*
X106068333Y-129674775D01*
X106068333Y-129674775D02*
X106068333Y-129817632D01*
X106068333Y-129817632D02*
X106020714Y-129912870D01*
X106020714Y-129912870D02*
X105973095Y-129960489D01*
X105973095Y-129960489D02*
X105877857Y-130008108D01*
X105877857Y-130008108D02*
X105496905Y-130008108D01*
X106401667Y-129484299D02*
X107020714Y-129484299D01*
X107020714Y-129484299D02*
X106687381Y-129865251D01*
X106687381Y-129865251D02*
X106830238Y-129865251D01*
X106830238Y-129865251D02*
X106925476Y-129912870D01*
X106925476Y-129912870D02*
X106973095Y-129960489D01*
X106973095Y-129960489D02*
X107020714Y-130055727D01*
X107020714Y-130055727D02*
X107020714Y-130293822D01*
X107020714Y-130293822D02*
X106973095Y-130389060D01*
X106973095Y-130389060D02*
X106925476Y-130436680D01*
X106925476Y-130436680D02*
X106830238Y-130484299D01*
X106830238Y-130484299D02*
X106544524Y-130484299D01*
X106544524Y-130484299D02*
X106449286Y-130436680D01*
X106449286Y-130436680D02*
X106401667Y-130389060D01*
X93833333Y-97309060D02*
X93785714Y-97356680D01*
X93785714Y-97356680D02*
X93642857Y-97404299D01*
X93642857Y-97404299D02*
X93547619Y-97404299D01*
X93547619Y-97404299D02*
X93404762Y-97356680D01*
X93404762Y-97356680D02*
X93309524Y-97261441D01*
X93309524Y-97261441D02*
X93261905Y-97166203D01*
X93261905Y-97166203D02*
X93214286Y-96975727D01*
X93214286Y-96975727D02*
X93214286Y-96832870D01*
X93214286Y-96832870D02*
X93261905Y-96642394D01*
X93261905Y-96642394D02*
X93309524Y-96547156D01*
X93309524Y-96547156D02*
X93404762Y-96451918D01*
X93404762Y-96451918D02*
X93547619Y-96404299D01*
X93547619Y-96404299D02*
X93642857Y-96404299D01*
X93642857Y-96404299D02*
X93785714Y-96451918D01*
X93785714Y-96451918D02*
X93833333Y-96499537D01*
X94166667Y-96404299D02*
X94833333Y-96404299D01*
X94833333Y-96404299D02*
X94404762Y-97404299D01*
X103819048Y-84504299D02*
X103819048Y-83504299D01*
X103819048Y-83504299D02*
X104200000Y-83504299D01*
X104200000Y-83504299D02*
X104295238Y-83551918D01*
X104295238Y-83551918D02*
X104342857Y-83599537D01*
X104342857Y-83599537D02*
X104390476Y-83694775D01*
X104390476Y-83694775D02*
X104390476Y-83837632D01*
X104390476Y-83837632D02*
X104342857Y-83932870D01*
X104342857Y-83932870D02*
X104295238Y-83980489D01*
X104295238Y-83980489D02*
X104200000Y-84028108D01*
X104200000Y-84028108D02*
X103819048Y-84028108D01*
X104723810Y-83504299D02*
X104961905Y-84504299D01*
X104961905Y-84504299D02*
X105152381Y-83790013D01*
X105152381Y-83790013D02*
X105342857Y-84504299D01*
X105342857Y-84504299D02*
X105580953Y-83504299D01*
X105961905Y-84504299D02*
X105961905Y-83504299D01*
X105961905Y-83504299D02*
X106295238Y-84218584D01*
X106295238Y-84218584D02*
X106628571Y-83504299D01*
X106628571Y-83504299D02*
X106628571Y-84504299D01*
X107628571Y-84504299D02*
X107057143Y-84504299D01*
X107342857Y-84504299D02*
X107342857Y-83504299D01*
X107342857Y-83504299D02*
X107247619Y-83647156D01*
X107247619Y-83647156D02*
X107152381Y-83742394D01*
X107152381Y-83742394D02*
X107057143Y-83790013D01*
X104461904Y-90051918D02*
X104366666Y-90004299D01*
X104366666Y-90004299D02*
X104223809Y-90004299D01*
X104223809Y-90004299D02*
X104080952Y-90051918D01*
X104080952Y-90051918D02*
X103985714Y-90147156D01*
X103985714Y-90147156D02*
X103938095Y-90242394D01*
X103938095Y-90242394D02*
X103890476Y-90432870D01*
X103890476Y-90432870D02*
X103890476Y-90575727D01*
X103890476Y-90575727D02*
X103938095Y-90766203D01*
X103938095Y-90766203D02*
X103985714Y-90861441D01*
X103985714Y-90861441D02*
X104080952Y-90956680D01*
X104080952Y-90956680D02*
X104223809Y-91004299D01*
X104223809Y-91004299D02*
X104319047Y-91004299D01*
X104319047Y-91004299D02*
X104461904Y-90956680D01*
X104461904Y-90956680D02*
X104509523Y-90909060D01*
X104509523Y-90909060D02*
X104509523Y-90575727D01*
X104509523Y-90575727D02*
X104319047Y-90575727D01*
X104938095Y-91004299D02*
X104938095Y-90004299D01*
X104938095Y-90004299D02*
X105509523Y-91004299D01*
X105509523Y-91004299D02*
X105509523Y-90004299D01*
X105985714Y-91004299D02*
X105985714Y-90004299D01*
X105985714Y-90004299D02*
X106223809Y-90004299D01*
X106223809Y-90004299D02*
X106366666Y-90051918D01*
X106366666Y-90051918D02*
X106461904Y-90147156D01*
X106461904Y-90147156D02*
X106509523Y-90242394D01*
X106509523Y-90242394D02*
X106557142Y-90432870D01*
X106557142Y-90432870D02*
X106557142Y-90575727D01*
X106557142Y-90575727D02*
X106509523Y-90766203D01*
X106509523Y-90766203D02*
X106461904Y-90861441D01*
X106461904Y-90861441D02*
X106366666Y-90956680D01*
X106366666Y-90956680D02*
X106223809Y-91004299D01*
X106223809Y-91004299D02*
X105985714Y-91004299D01*
X107509523Y-91004299D02*
X106938095Y-91004299D01*
X107223809Y-91004299D02*
X107223809Y-90004299D01*
X107223809Y-90004299D02*
X107128571Y-90147156D01*
X107128571Y-90147156D02*
X107033333Y-90242394D01*
X107033333Y-90242394D02*
X106938095Y-90290013D01*
X104233333Y-109059060D02*
X104185714Y-109106680D01*
X104185714Y-109106680D02*
X104042857Y-109154299D01*
X104042857Y-109154299D02*
X103947619Y-109154299D01*
X103947619Y-109154299D02*
X103804762Y-109106680D01*
X103804762Y-109106680D02*
X103709524Y-109011441D01*
X103709524Y-109011441D02*
X103661905Y-108916203D01*
X103661905Y-108916203D02*
X103614286Y-108725727D01*
X103614286Y-108725727D02*
X103614286Y-108582870D01*
X103614286Y-108582870D02*
X103661905Y-108392394D01*
X103661905Y-108392394D02*
X103709524Y-108297156D01*
X103709524Y-108297156D02*
X103804762Y-108201918D01*
X103804762Y-108201918D02*
X103947619Y-108154299D01*
X103947619Y-108154299D02*
X104042857Y-108154299D01*
X104042857Y-108154299D02*
X104185714Y-108201918D01*
X104185714Y-108201918D02*
X104233333Y-108249537D01*
X105090476Y-108154299D02*
X104900000Y-108154299D01*
X104900000Y-108154299D02*
X104804762Y-108201918D01*
X104804762Y-108201918D02*
X104757143Y-108249537D01*
X104757143Y-108249537D02*
X104661905Y-108392394D01*
X104661905Y-108392394D02*
X104614286Y-108582870D01*
X104614286Y-108582870D02*
X104614286Y-108963822D01*
X104614286Y-108963822D02*
X104661905Y-109059060D01*
X104661905Y-109059060D02*
X104709524Y-109106680D01*
X104709524Y-109106680D02*
X104804762Y-109154299D01*
X104804762Y-109154299D02*
X104995238Y-109154299D01*
X104995238Y-109154299D02*
X105090476Y-109106680D01*
X105090476Y-109106680D02*
X105138095Y-109059060D01*
X105138095Y-109059060D02*
X105185714Y-108963822D01*
X105185714Y-108963822D02*
X105185714Y-108725727D01*
X105185714Y-108725727D02*
X105138095Y-108630489D01*
X105138095Y-108630489D02*
X105090476Y-108582870D01*
X105090476Y-108582870D02*
X104995238Y-108535251D01*
X104995238Y-108535251D02*
X104804762Y-108535251D01*
X104804762Y-108535251D02*
X104709524Y-108582870D01*
X104709524Y-108582870D02*
X104661905Y-108630489D01*
X104661905Y-108630489D02*
X104614286Y-108725727D01*
X103433333Y-119159060D02*
X103385714Y-119206680D01*
X103385714Y-119206680D02*
X103242857Y-119254299D01*
X103242857Y-119254299D02*
X103147619Y-119254299D01*
X103147619Y-119254299D02*
X103004762Y-119206680D01*
X103004762Y-119206680D02*
X102909524Y-119111441D01*
X102909524Y-119111441D02*
X102861905Y-119016203D01*
X102861905Y-119016203D02*
X102814286Y-118825727D01*
X102814286Y-118825727D02*
X102814286Y-118682870D01*
X102814286Y-118682870D02*
X102861905Y-118492394D01*
X102861905Y-118492394D02*
X102909524Y-118397156D01*
X102909524Y-118397156D02*
X103004762Y-118301918D01*
X103004762Y-118301918D02*
X103147619Y-118254299D01*
X103147619Y-118254299D02*
X103242857Y-118254299D01*
X103242857Y-118254299D02*
X103385714Y-118301918D01*
X103385714Y-118301918D02*
X103433333Y-118349537D01*
X103814286Y-118349537D02*
X103861905Y-118301918D01*
X103861905Y-118301918D02*
X103957143Y-118254299D01*
X103957143Y-118254299D02*
X104195238Y-118254299D01*
X104195238Y-118254299D02*
X104290476Y-118301918D01*
X104290476Y-118301918D02*
X104338095Y-118349537D01*
X104338095Y-118349537D02*
X104385714Y-118444775D01*
X104385714Y-118444775D02*
X104385714Y-118540013D01*
X104385714Y-118540013D02*
X104338095Y-118682870D01*
X104338095Y-118682870D02*
X103766667Y-119254299D01*
X103766667Y-119254299D02*
X104385714Y-119254299D01*
X93238095Y-131654299D02*
X93809523Y-131654299D01*
X93523809Y-132654299D02*
X93523809Y-131654299D01*
X94142857Y-132654299D02*
X94142857Y-131654299D01*
X94142857Y-131654299D02*
X94523809Y-131654299D01*
X94523809Y-131654299D02*
X94619047Y-131701918D01*
X94619047Y-131701918D02*
X94666666Y-131749537D01*
X94666666Y-131749537D02*
X94714285Y-131844775D01*
X94714285Y-131844775D02*
X94714285Y-131987632D01*
X94714285Y-131987632D02*
X94666666Y-132082870D01*
X94666666Y-132082870D02*
X94619047Y-132130489D01*
X94619047Y-132130489D02*
X94523809Y-132178108D01*
X94523809Y-132178108D02*
X94142857Y-132178108D01*
X95619047Y-131654299D02*
X95142857Y-131654299D01*
X95142857Y-131654299D02*
X95095238Y-132130489D01*
X95095238Y-132130489D02*
X95142857Y-132082870D01*
X95142857Y-132082870D02*
X95238095Y-132035251D01*
X95238095Y-132035251D02*
X95476190Y-132035251D01*
X95476190Y-132035251D02*
X95571428Y-132082870D01*
X95571428Y-132082870D02*
X95619047Y-132130489D01*
X95619047Y-132130489D02*
X95666666Y-132225727D01*
X95666666Y-132225727D02*
X95666666Y-132463822D01*
X95666666Y-132463822D02*
X95619047Y-132559060D01*
X95619047Y-132559060D02*
X95571428Y-132606680D01*
X95571428Y-132606680D02*
X95476190Y-132654299D01*
X95476190Y-132654299D02*
X95238095Y-132654299D01*
X95238095Y-132654299D02*
X95142857Y-132606680D01*
X95142857Y-132606680D02*
X95095238Y-132559060D01*
D11*
X100285000Y-70022936D02*
X100285000Y-70477064D01*
X98815000Y-70022936D02*
X98815000Y-70477064D01*
X102485000Y-70022936D02*
X102485000Y-70477064D01*
X101015000Y-70022936D02*
X101015000Y-70477064D01*
X98640000Y-74062500D02*
X98640000Y-73412500D01*
X101760000Y-74062500D02*
X101760000Y-73412500D01*
X98640000Y-74062500D02*
X98640000Y-75737500D01*
X101760000Y-74062500D02*
X101760000Y-74712500D01*
X102200000Y-54600000D02*
X102200000Y-51400000D01*
X98600000Y-54600000D02*
X102200000Y-54600000D01*
X98600000Y-51400000D02*
X102200000Y-51400000D01*
X103234420Y-124110000D02*
X103515580Y-124110000D01*
X103234420Y-123090000D02*
X103515580Y-123090000D01*
X103162742Y-122522500D02*
X103637258Y-122522500D01*
X103162742Y-121477500D02*
X103637258Y-121477500D01*
X102040000Y-112040000D02*
X103350000Y-112040000D01*
X102040000Y-114760000D02*
X102040000Y-112040000D01*
X102040000Y-114760000D02*
X102270000Y-114760000D01*
X105450000Y-112040000D02*
X106760000Y-112040000D01*
X102270000Y-115900000D02*
X102270000Y-114760000D01*
X106760000Y-114760000D02*
X106530000Y-114760000D01*
X106760000Y-112040000D02*
X106760000Y-114760000D01*
X103515580Y-124690000D02*
X103234420Y-124690000D01*
X103515580Y-125710000D02*
X103234420Y-125710000D01*
D12*
X103425000Y-131405000D02*
X103425000Y-135305000D01*
X98375000Y-131405000D02*
X98375000Y-135305000D01*
D13*
X103305000Y-129315000D02*
G75*
G03*
X103105000Y-129315000I-100000J0D01*
G01*
X103105000Y-129315000D02*
G75*
G03*
X103305000Y-129315000I100000J0D01*
G01*
D11*
X93804437Y-108790000D02*
X95490000Y-108790000D01*
X99510000Y-107550000D02*
X99510000Y-108550000D01*
X100010000Y-108050000D02*
X99010000Y-108050000D01*
X100195563Y-108790000D02*
X98510000Y-108790000D01*
X92740000Y-109854437D02*
X92740000Y-117310000D01*
X93804437Y-108790000D02*
X92740000Y-109854437D01*
X101260000Y-117310000D02*
X98510000Y-117310000D01*
X100195563Y-108790000D02*
X101260000Y-109854437D01*
X92740000Y-117310000D02*
X95490000Y-117310000D01*
X101260000Y-109854437D02*
X101260000Y-117310000D01*
X102122500Y-78912258D02*
X102122500Y-78437742D01*
X101077500Y-78912258D02*
X101077500Y-78437742D01*
X91740000Y-87940000D02*
X98950000Y-87950000D01*
X98950000Y-87950000D02*
X98950000Y-89370000D01*
X97850000Y-90250000D02*
X92350000Y-90250000D01*
X92350000Y-90250000D02*
X92350000Y-90750000D01*
X97850000Y-90750000D02*
X97850000Y-90250000D01*
X92350000Y-90750000D02*
X97850000Y-90750000D01*
X91740000Y-91750000D02*
X91740000Y-87940000D01*
X91740000Y-91750000D02*
X91740000Y-95560000D01*
X97850000Y-92750000D02*
X92350000Y-92750000D01*
X92350000Y-92750000D02*
X92350000Y-93250000D01*
X97850000Y-93250000D02*
X97850000Y-92750000D01*
X92350000Y-93250000D02*
X97850000Y-93250000D01*
X98950000Y-95560000D02*
X98950000Y-94140000D01*
X91740000Y-95560000D02*
X98950000Y-95560000D01*
D12*
X95980000Y-120140000D02*
X99880000Y-120140000D01*
X95980000Y-125190000D02*
X99880000Y-125190000D01*
D13*
X93990000Y-120360000D02*
G75*
G03*
X93790000Y-120360000I-100000J0D01*
G01*
X93790000Y-120360000D02*
G75*
G03*
X93990000Y-120360000I100000J0D01*
G01*
D11*
X98925000Y-76890000D02*
X98925000Y-78310000D01*
X91715000Y-76890000D02*
X98925000Y-76890000D01*
X97825000Y-79200000D02*
X92325000Y-79200000D01*
X92325000Y-79200000D02*
X92325000Y-79700000D01*
X97825000Y-79700000D02*
X97825000Y-79200000D01*
X92325000Y-79700000D02*
X97825000Y-79700000D01*
X97825000Y-81700000D02*
X92325000Y-81700000D01*
X92325000Y-81700000D02*
X92325000Y-82200000D01*
X91715000Y-81950000D02*
X91715000Y-76890000D01*
X91715000Y-81950000D02*
X91715000Y-87010000D01*
X97825000Y-82200000D02*
X97825000Y-81700000D01*
X92325000Y-82200000D02*
X97825000Y-82200000D01*
X97825000Y-84200000D02*
X92325000Y-84200000D01*
X92325000Y-84200000D02*
X92325000Y-84700000D01*
X97825000Y-84700000D02*
X97825000Y-84200000D01*
X92325000Y-84700000D02*
X97825000Y-84700000D01*
X91715000Y-87010000D02*
X98925000Y-87050000D01*
X98925000Y-87050000D02*
X98925000Y-85630000D01*
D12*
X101995000Y-104700000D02*
X101995000Y-100500000D01*
X102525000Y-104700000D02*
X101995000Y-104700000D01*
X106375000Y-104700000D02*
X106955000Y-104700000D01*
X106955000Y-104700000D02*
X106955000Y-100500000D01*
X101995000Y-100500000D02*
X102575000Y-100500000D01*
X106955000Y-100500000D02*
X106375000Y-100500000D01*
D13*
X102375000Y-105700000D02*
G75*
G03*
X102175000Y-105700000I-100000J0D01*
G01*
X102175000Y-105700000D02*
G75*
G03*
X102375000Y-105700000I100000J0D01*
G01*
D11*
X101812742Y-129152500D02*
X102287258Y-129152500D01*
X101812742Y-128107500D02*
X102287258Y-128107500D01*
X96059420Y-126710000D02*
X96340580Y-126710000D01*
X96059420Y-125690000D02*
X96340580Y-125690000D01*
X103637258Y-119877500D02*
X103162742Y-119877500D01*
X103637258Y-120922500D02*
X103162742Y-120922500D01*
X96100000Y-135100000D02*
G75*
G03*
X92700000Y-135100000I-1700000J0D01*
G01*
X92700000Y-135100000D02*
G75*
G03*
X96100000Y-135100000I1700000J0D01*
G01*
X102122500Y-85612258D02*
X102122500Y-85137742D01*
X101077500Y-85612258D02*
X101077500Y-85137742D01*
X103927500Y-129792742D02*
X103927500Y-130267258D01*
X104972500Y-129792742D02*
X104972500Y-130267258D01*
X100145563Y-106460000D02*
X98460000Y-106460000D01*
X94440000Y-107700000D02*
X94440000Y-106700000D01*
X93940000Y-107200000D02*
X94940000Y-107200000D01*
X93754437Y-106460000D02*
X95440000Y-106460000D01*
X101210000Y-105395563D02*
X101210000Y-97940000D01*
X100145563Y-106460000D02*
X101210000Y-105395563D01*
X92690000Y-97940000D02*
X95440000Y-97940000D01*
X93754437Y-106460000D02*
X92690000Y-105395563D01*
X101210000Y-97940000D02*
X98460000Y-97940000D01*
X92690000Y-105395563D02*
X92690000Y-97940000D01*
X107400000Y-81300000D02*
G75*
G03*
X104000000Y-81300000I-1700000J0D01*
G01*
X104000000Y-81300000D02*
G75*
G03*
X107400000Y-81300000I1700000J0D01*
G01*
X107400000Y-87800000D02*
G75*
G03*
X104000000Y-87800000I-1700000J0D01*
G01*
X104000000Y-87800000D02*
G75*
G03*
X107400000Y-87800000I1700000J0D01*
G01*
X104540580Y-109690000D02*
X104259420Y-109690000D01*
X104540580Y-110710000D02*
X104259420Y-110710000D01*
X103740580Y-116690000D02*
X103459420Y-116690000D01*
X103740580Y-117710000D02*
X103459420Y-117710000D01*
X96100000Y-129500000D02*
G75*
G03*
X92700000Y-129500000I-1700000J0D01*
G01*
X92700000Y-129500000D02*
G75*
G03*
X96100000Y-129500000I1700000J0D01*
G01*
%LPC*%
D14*
X99550000Y-69337500D03*
X99550000Y-71162500D03*
X101750000Y-69337500D03*
X101750000Y-71162500D03*
D15*
X99250000Y-75000000D03*
X101150000Y-75000000D03*
X100200000Y-73125000D03*
D16*
X100900000Y-53000000D03*
D17*
X98625000Y-53000000D03*
D18*
X102600000Y-123600000D03*
X104150000Y-123600000D03*
D19*
X102575000Y-122000000D03*
X104225000Y-122000000D03*
D20*
X102900000Y-115350000D03*
D21*
X104400000Y-115262500D03*
D20*
X105900000Y-115350000D03*
D22*
X104150000Y-125200000D03*
X102600000Y-125200000D03*
D23*
X102805000Y-130885000D03*
X101535000Y-130885000D03*
X100265000Y-130885000D03*
X98995000Y-130885000D03*
X98995000Y-135825000D03*
X100265000Y-135825000D03*
X101535000Y-135825000D03*
X102805000Y-135825000D03*
D24*
X97000000Y-110000000D03*
X97000000Y-116100000D03*
D25*
X101600000Y-79500000D03*
X101600000Y-77850000D03*
D26*
X99450000Y-90500000D03*
D27*
X99450000Y-93000000D03*
D28*
X95460000Y-120760000D03*
X95460000Y-122030000D03*
X95460000Y-123300000D03*
X95460000Y-124570000D03*
X100400000Y-124570000D03*
X100400000Y-123300000D03*
X100400000Y-122030000D03*
X100400000Y-120760000D03*
D29*
X99425000Y-79450000D03*
D30*
X99425000Y-81950000D03*
X99425000Y-84450000D03*
D31*
X103250000Y-105500000D03*
X105700000Y-105500000D03*
X105700000Y-99700000D03*
X103250000Y-99700000D03*
D19*
X101225000Y-128630000D03*
X102875000Y-128630000D03*
D18*
X95425000Y-126200000D03*
X96975000Y-126200000D03*
D32*
X104225000Y-120400000D03*
X102575000Y-120400000D03*
D33*
X94400000Y-135100000D03*
D25*
X101600000Y-86200000D03*
X101600000Y-84550000D03*
D34*
X104450000Y-129205000D03*
X104450000Y-130855000D03*
D35*
X96950000Y-105250000D03*
X96950000Y-99150000D03*
D33*
X105700000Y-81300000D03*
X105700000Y-87800000D03*
D22*
X105175000Y-110200000D03*
X103625000Y-110200000D03*
X104375000Y-117200000D03*
X102825000Y-117200000D03*
D33*
X94400000Y-129500000D03*
%LPD*%
M02*
