%TF.GenerationSoftware,KiCad,Pcbnew,7.0.10*%
%TF.CreationDate,2024-03-06T15:05:56+01:00*%
%TF.ProjectId,microscope,6d696372-6f73-4636-9f70-652e6b696361,rev?*%
%TF.SameCoordinates,Original*%
%TF.FileFunction,Drillmap*%
%TF.FilePolarity,Positive*%
%FSLAX45Y45*%
G04 Gerber Fmt 4.5, Leading zero omitted, Abs format (unit mm)*
G04 Created by KiCad (PCBNEW 7.0.10) date 2024-03-06 15:05:56*
%MOMM*%
%LPD*%
G01*
G04 APERTURE LIST*
%ADD10C,0.100000*%
%ADD11C,0.200000*%
G04 APERTURE END LIST*
D10*
X9050000Y-15000000D02*
X9050000Y-7650000D01*
X9900000Y-4900000D02*
X10100000Y-4900000D01*
X9050000Y-7650000D02*
X9302606Y-7558060D01*
X9900000Y-4900000D02*
G75*
G03*
X9500000Y-5300000I0J-400000D01*
G01*
X10500000Y-7276150D02*
G75*
G03*
X10697394Y-7558058I300000J0D01*
G01*
X10950000Y-15000000D02*
X9050000Y-15000000D01*
X9302606Y-7558058D02*
G75*
G03*
X9500000Y-7276150I-102606J281908D01*
G01*
X10500000Y-7276150D02*
X10500000Y-5300000D01*
X10950000Y-7650000D02*
X10697394Y-7558060D01*
X10500000Y-5300000D02*
G75*
G03*
X10100000Y-4900000I-400000J0D01*
G01*
X10950000Y-15000000D02*
X10950000Y-7650000D01*
X9500000Y-7276150D02*
X9500000Y-5300000D01*
D11*
X9305777Y-15316484D02*
X9305777Y-15116484D01*
X9305777Y-15116484D02*
X9353396Y-15116484D01*
X9353396Y-15116484D02*
X9381967Y-15126008D01*
X9381967Y-15126008D02*
X9401015Y-15145055D01*
X9401015Y-15145055D02*
X9410539Y-15164103D01*
X9410539Y-15164103D02*
X9420063Y-15202198D01*
X9420063Y-15202198D02*
X9420063Y-15230769D01*
X9420063Y-15230769D02*
X9410539Y-15268865D01*
X9410539Y-15268865D02*
X9401015Y-15287912D01*
X9401015Y-15287912D02*
X9381967Y-15306960D01*
X9381967Y-15306960D02*
X9353396Y-15316484D01*
X9353396Y-15316484D02*
X9305777Y-15316484D01*
X9505777Y-15316484D02*
X9505777Y-15183150D01*
X9505777Y-15221246D02*
X9515301Y-15202198D01*
X9515301Y-15202198D02*
X9524824Y-15192674D01*
X9524824Y-15192674D02*
X9543872Y-15183150D01*
X9543872Y-15183150D02*
X9562920Y-15183150D01*
X9629586Y-15316484D02*
X9629586Y-15183150D01*
X9629586Y-15116484D02*
X9620063Y-15126008D01*
X9620063Y-15126008D02*
X9629586Y-15135531D01*
X9629586Y-15135531D02*
X9639110Y-15126008D01*
X9639110Y-15126008D02*
X9629586Y-15116484D01*
X9629586Y-15116484D02*
X9629586Y-15135531D01*
X9753396Y-15316484D02*
X9734348Y-15306960D01*
X9734348Y-15306960D02*
X9724824Y-15287912D01*
X9724824Y-15287912D02*
X9724824Y-15116484D01*
X9858158Y-15316484D02*
X9839110Y-15306960D01*
X9839110Y-15306960D02*
X9829586Y-15287912D01*
X9829586Y-15287912D02*
X9829586Y-15116484D01*
X10086729Y-15316484D02*
X10086729Y-15116484D01*
X10086729Y-15116484D02*
X10153396Y-15259341D01*
X10153396Y-15259341D02*
X10220063Y-15116484D01*
X10220063Y-15116484D02*
X10220063Y-15316484D01*
X10401015Y-15316484D02*
X10401015Y-15211722D01*
X10401015Y-15211722D02*
X10391491Y-15192674D01*
X10391491Y-15192674D02*
X10372444Y-15183150D01*
X10372444Y-15183150D02*
X10334348Y-15183150D01*
X10334348Y-15183150D02*
X10315301Y-15192674D01*
X10401015Y-15306960D02*
X10381967Y-15316484D01*
X10381967Y-15316484D02*
X10334348Y-15316484D01*
X10334348Y-15316484D02*
X10315301Y-15306960D01*
X10315301Y-15306960D02*
X10305777Y-15287912D01*
X10305777Y-15287912D02*
X10305777Y-15268865D01*
X10305777Y-15268865D02*
X10315301Y-15249817D01*
X10315301Y-15249817D02*
X10334348Y-15240293D01*
X10334348Y-15240293D02*
X10381967Y-15240293D01*
X10381967Y-15240293D02*
X10401015Y-15230769D01*
X10496253Y-15183150D02*
X10496253Y-15383150D01*
X10496253Y-15192674D02*
X10515301Y-15183150D01*
X10515301Y-15183150D02*
X10553396Y-15183150D01*
X10553396Y-15183150D02*
X10572444Y-15192674D01*
X10572444Y-15192674D02*
X10581967Y-15202198D01*
X10581967Y-15202198D02*
X10591491Y-15221246D01*
X10591491Y-15221246D02*
X10591491Y-15278388D01*
X10591491Y-15278388D02*
X10581967Y-15297436D01*
X10581967Y-15297436D02*
X10572444Y-15306960D01*
X10572444Y-15306960D02*
X10553396Y-15316484D01*
X10553396Y-15316484D02*
X10515301Y-15316484D01*
X10515301Y-15316484D02*
X10496253Y-15306960D01*
X10677205Y-15297436D02*
X10686729Y-15306960D01*
X10686729Y-15306960D02*
X10677205Y-15316484D01*
X10677205Y-15316484D02*
X10667682Y-15306960D01*
X10667682Y-15306960D02*
X10677205Y-15297436D01*
X10677205Y-15297436D02*
X10677205Y-15316484D01*
X10677205Y-15192674D02*
X10686729Y-15202198D01*
X10686729Y-15202198D02*
X10677205Y-15211722D01*
X10677205Y-15211722D02*
X10667682Y-15202198D01*
X10667682Y-15202198D02*
X10677205Y-15192674D01*
X10677205Y-15192674D02*
X10677205Y-15211722D01*
M02*
