%TF.GenerationSoftware,KiCad,Pcbnew,7.0.10*%
%TF.CreationDate,2024-05-01T16:26:23+02:00*%
%TF.ProjectId,microscope,6d696372-6f73-4636-9f70-652e6b696361,rev?*%
%TF.SameCoordinates,Original*%
%TF.FileFunction,Drillmap*%
%TF.FilePolarity,Positive*%
%FSLAX45Y45*%
G04 Gerber Fmt 4.5, Leading zero omitted, Abs format (unit mm)*
G04 Created by KiCad (PCBNEW 7.0.10) date 2024-05-01 16:26:23*
%MOMM*%
%LPD*%
G01*
G04 APERTURE LIST*
%ADD10C,0.200000*%
G04 APERTURE END LIST*
D10*
X10850000Y-7625000D02*
X10850000Y-13925000D01*
X9500000Y-5275000D02*
X9500000Y-7287550D01*
X9302606Y-7569458D02*
G75*
G03*
X9500000Y-7287550I-102606J281908D01*
G01*
X10850000Y-13925000D02*
X9150000Y-13925000D01*
X9900000Y-4875000D02*
G75*
G03*
X9500000Y-5275000I0J-400000D01*
G01*
X10697394Y-7569460D02*
X10850000Y-7625000D01*
X9900000Y-4875000D02*
X10100000Y-4875000D01*
X9150000Y-7625000D02*
X9302606Y-7569460D01*
X10500000Y-7287550D02*
G75*
G03*
X10697394Y-7569458I300000J0D01*
G01*
X10500000Y-5275000D02*
G75*
G03*
X10100000Y-4875000I-400000J0D01*
G01*
X10500000Y-5275000D02*
X10500000Y-7287550D01*
X9150000Y-7625000D02*
X9150000Y-13925000D01*
X9400777Y-14246484D02*
X9400777Y-14046484D01*
X9400777Y-14046484D02*
X9448396Y-14046484D01*
X9448396Y-14046484D02*
X9476967Y-14056008D01*
X9476967Y-14056008D02*
X9496015Y-14075055D01*
X9496015Y-14075055D02*
X9505539Y-14094103D01*
X9505539Y-14094103D02*
X9515063Y-14132198D01*
X9515063Y-14132198D02*
X9515063Y-14160769D01*
X9515063Y-14160769D02*
X9505539Y-14198865D01*
X9505539Y-14198865D02*
X9496015Y-14217912D01*
X9496015Y-14217912D02*
X9476967Y-14236960D01*
X9476967Y-14236960D02*
X9448396Y-14246484D01*
X9448396Y-14246484D02*
X9400777Y-14246484D01*
X9600777Y-14246484D02*
X9600777Y-14113150D01*
X9600777Y-14151246D02*
X9610301Y-14132198D01*
X9610301Y-14132198D02*
X9619824Y-14122674D01*
X9619824Y-14122674D02*
X9638872Y-14113150D01*
X9638872Y-14113150D02*
X9657920Y-14113150D01*
X9724586Y-14246484D02*
X9724586Y-14113150D01*
X9724586Y-14046484D02*
X9715063Y-14056008D01*
X9715063Y-14056008D02*
X9724586Y-14065531D01*
X9724586Y-14065531D02*
X9734110Y-14056008D01*
X9734110Y-14056008D02*
X9724586Y-14046484D01*
X9724586Y-14046484D02*
X9724586Y-14065531D01*
X9848396Y-14246484D02*
X9829348Y-14236960D01*
X9829348Y-14236960D02*
X9819824Y-14217912D01*
X9819824Y-14217912D02*
X9819824Y-14046484D01*
X9953158Y-14246484D02*
X9934110Y-14236960D01*
X9934110Y-14236960D02*
X9924586Y-14217912D01*
X9924586Y-14217912D02*
X9924586Y-14046484D01*
X10181729Y-14246484D02*
X10181729Y-14046484D01*
X10181729Y-14046484D02*
X10248396Y-14189341D01*
X10248396Y-14189341D02*
X10315063Y-14046484D01*
X10315063Y-14046484D02*
X10315063Y-14246484D01*
X10496015Y-14246484D02*
X10496015Y-14141722D01*
X10496015Y-14141722D02*
X10486491Y-14122674D01*
X10486491Y-14122674D02*
X10467444Y-14113150D01*
X10467444Y-14113150D02*
X10429348Y-14113150D01*
X10429348Y-14113150D02*
X10410301Y-14122674D01*
X10496015Y-14236960D02*
X10476967Y-14246484D01*
X10476967Y-14246484D02*
X10429348Y-14246484D01*
X10429348Y-14246484D02*
X10410301Y-14236960D01*
X10410301Y-14236960D02*
X10400777Y-14217912D01*
X10400777Y-14217912D02*
X10400777Y-14198865D01*
X10400777Y-14198865D02*
X10410301Y-14179817D01*
X10410301Y-14179817D02*
X10429348Y-14170293D01*
X10429348Y-14170293D02*
X10476967Y-14170293D01*
X10476967Y-14170293D02*
X10496015Y-14160769D01*
X10591253Y-14113150D02*
X10591253Y-14313150D01*
X10591253Y-14122674D02*
X10610301Y-14113150D01*
X10610301Y-14113150D02*
X10648396Y-14113150D01*
X10648396Y-14113150D02*
X10667444Y-14122674D01*
X10667444Y-14122674D02*
X10676967Y-14132198D01*
X10676967Y-14132198D02*
X10686491Y-14151246D01*
X10686491Y-14151246D02*
X10686491Y-14208388D01*
X10686491Y-14208388D02*
X10676967Y-14227436D01*
X10676967Y-14227436D02*
X10667444Y-14236960D01*
X10667444Y-14236960D02*
X10648396Y-14246484D01*
X10648396Y-14246484D02*
X10610301Y-14246484D01*
X10610301Y-14246484D02*
X10591253Y-14236960D01*
X10772205Y-14227436D02*
X10781729Y-14236960D01*
X10781729Y-14236960D02*
X10772205Y-14246484D01*
X10772205Y-14246484D02*
X10762682Y-14236960D01*
X10762682Y-14236960D02*
X10772205Y-14227436D01*
X10772205Y-14227436D02*
X10772205Y-14246484D01*
X10772205Y-14122674D02*
X10781729Y-14132198D01*
X10781729Y-14132198D02*
X10772205Y-14141722D01*
X10772205Y-14141722D02*
X10762682Y-14132198D01*
X10762682Y-14132198D02*
X10772205Y-14122674D01*
X10772205Y-14122674D02*
X10772205Y-14141722D01*
M02*
