M48
; DRILL file {KiCad 7.0.10} date Wed Mar  6 15:05:55 2024
; FORMAT={-:-/ absolute / metric / decimal}
; #@! TF.CreationDate,2024-03-06T15:05:55+01:00
; #@! TF.GenerationSoftware,Kicad,Pcbnew,7.0.10
; #@! TF.FileFunction,Plated,1,2,PTH
FMAT,2
METRIC
; #@! TA.AperFunction,Plated,PTH,ViaDrill
T1C0.300
; #@! TA.AperFunction,Plated,PTH,ComponentDrill
T2C0.800
; #@! TA.AperFunction,Plated,PTH,ComponentDrill
T3C0.950
; #@! TA.AperFunction,Plated,PTH,ComponentDrill
T4C1.000
%
G90
G05
T1
X93.878Y-126.34
X95.555Y-105.004
X95.91Y-117.145
X96.749Y-76.2
X97.638Y-114.706
X99.949Y-138.148
X100.406Y-128.27
X100.711Y-76.175
X101.143Y-134.163
X101.575Y-110.846
X102.108Y-138.961
X104.115Y-130.198
X104.242Y-101.778
X104.343Y-134.163
X104.902Y-105.283
X105.034Y-102.302
X105.639Y-82.245
X105.893Y-96.469
T2
X97.0Y-119.5
X97.0Y-126.5
X99.5Y-119.5
X99.5Y-126.5
T3
X100.0Y-101.5
X100.0Y-104.0
X100.0Y-106.5
T4
X100.0Y-93.0
X100.0Y-95.5
M30
